<svg xmlns="http://www.w3.org/2000/svg" viewBox="0 0 1180 760" font-family="Segoe UI, Arial, sans-serif">
<rect width="1180" height="760" fill="white"/>
<line x1="62.0" y1="390.0" x2="238.0" y2="390.0" stroke="#bbb" stroke-width="1.4" stroke-linecap="round"/>
<line x1="238.0" y1="390.0" x2="414.0" y2="390.0" stroke="#bbb" stroke-width="1.4" stroke-linecap="round"/>
<line x1="414.0" y1="390.0" x2="590.0" y2="390.0" stroke="#bbb" stroke-width="1.4" stroke-linecap="round"/>
<line x1="590.0" y1="390.0" x2="766.0" y2="390.0" stroke="#bbb" stroke-width="1.4" stroke-linecap="round"/>
<line x1="766.0" y1="390.0" x2="942.0" y2="390.0" stroke="#bbb" stroke-width="1.4" stroke-linecap="round"/>
<line x1="942.0" y1="390.0" x2="1118.0" y2="390.0" stroke="#bbb" stroke-width="1.4" stroke-linecap="round"/>
<circle cx="62.0" cy="390.0" r="3" fill="#1f77b4"/>
<circle cx="238.0" cy="390.0" r="3" fill="#1f77b4"/>
<circle cx="414.0" cy="390.0" r="3" fill="#1f77b4"/>
<circle cx="590.0" cy="390.0" r="3" fill="#1f77b4"/>
<circle cx="766.0" cy="390.0" r="3" fill="#1f77b4"/>
<circle cx="942.0" cy="390.0" r="3" fill="#1f77b4"/>
<circle cx="1118.0" cy="390.0" r="3" fill="#1f77b4"/>
<circle cx="106.0" cy="390.0" r="1.6" fill="#e377c2"/>
<circle cx="150.0" cy="390.0" r="1.6" fill="#e377c2"/>
<circle cx="194.0" cy="390.0" r="1.6" fill="#e377c2"/>
<circle cx="84.0" cy="390.0" r="1.6" fill="#e377c2"/>
<circle cx="128.0" cy="390.0" r="1.6" fill="#e377c2"/>
<circle cx="172.0" cy="390.0" r="1.6" fill="#e377c2"/>
<circle cx="216.0" cy="390.0" r="1.6" fill="#e377c2"/>
<circle cx="282.0" cy="390.0" r="1.6" fill="#e377c2"/>
<circle cx="326.0" cy="390.0" r="1.6" fill="#e377c2"/>
<circle cx="370.0" cy="390.0" r="1.6" fill="#e377c2"/>
<circle cx="260.0" cy="390.0" r="1.6" fill="#e377c2"/>
<circle cx="304.0" cy="390.0" r="1.6" fill="#e377c2"/>
<circle cx="348.0" cy="390.0" r="1.6" fill="#e377c2"/>
<circle cx="392.0" cy="390.0" r="1.6" fill="#e377c2"/>
<circle cx="458.0" cy="390.0" r="1.6" fill="#e377c2"/>
<circle cx="502.0" cy="390.0" r="1.6" fill="#e377c2"/>
<circle cx="546.0" cy="390.0" r="1.6" fill="#e377c2"/>
<circle cx="436.0" cy="390.0" r="1.6" fill="#e377c2"/>
<circle cx="480.0" cy="390.0" r="1.6" fill="#e377c2"/>
<circle cx="524.0" cy="390.0" r="1.6" fill="#e377c2"/>
<circle cx="568.0" cy="390.0" r="1.6" fill="#e377c2"/>
<circle cx="634.0" cy="390.0" r="1.6" fill="#e377c2"/>
<circle cx="678.0" cy="390.0" r="1.6" fill="#e377c2"/>
<circle cx="722.0" cy="390.0" r="1.6" fill="#e377c2"/>
<circle cx="612.0" cy="390.0" r="1.6" fill="#e377c2"/>
<circle cx="656.0" cy="390.0" r="1.6" fill="#e377c2"/>
<circle cx="700.0" cy="390.0" r="1.6" fill="#e377c2"/>
<circle cx="744.0" cy="390.0" r="1.6" fill="#e377c2"/>
<circle cx="810.0" cy="390.0" r="1.6" fill="#e377c2"/>
<circle cx="854.0" cy="390.0" r="1.6" fill="#e377c2"/>
<circle cx="898.0" cy="390.0" r="1.6" fill="#e377c2"/>
<circle cx="788.0" cy="390.0" r="1.6" fill="#e377c2"/>
<circle cx="832.0" cy="390.0" r="1.6" fill="#e377c2"/>
<circle cx="876.0" cy="390.0" r="1.6" fill="#e377c2"/>
<circle cx="920.0" cy="390.0" r="1.6" fill="#e377c2"/>
<circle cx="986.0" cy="390.0" r="1.6" fill="#e377c2"/>
<circle cx="1030.0" cy="390.0" r="1.6" fill="#e377c2"/>
<circle cx="1074.0" cy="390.0" r="1.6" fill="#e377c2"/>
<circle cx="964.0" cy="390.0" r="1.6" fill="#e377c2"/>
<circle cx="1008.0" cy="390.0" r="1.6" fill="#e377c2"/>
<circle cx="1052.0" cy="390.0" r="1.6" fill="#e377c2"/>
<circle cx="1096.0" cy="390.0" r="1.6" fill="#e377c2"/>
<polygon points="53.0,402.6 71.0,402.6 62.0,390.0" fill="none" stroke="#333" stroke-width="1.6"/>
<line x1="50.3" y1="402.6" x2="73.7" y2="402.6" stroke="#333" stroke-width="1.6"/>
<polygon points="1109.0,399.9 1127.0,399.9 1118.0,390.0" fill="none" stroke="#333" stroke-width="1.4"/>
<circle cx="1113.5" cy="403.9" r="3" fill="none" stroke="#333"/>
<circle cx="1122.5" cy="403.9" r="3" fill="none" stroke="#333"/>
<text x="16.0" y="24.0" font-size="16" font-weight="bold" fill="#111">Simply supported girder bridge (35 m) — CalculiX mesh</text>
<text x="16.0" y="42.0" font-size="12" fill="#555">CalculiX B32R mesh: 49 nodes, 24 elements (blue: model nodes · pink: generated subdivision/midside nodes)</text>
<line x1="30.0" y1="734.0" x2="54.0" y2="734.0" stroke="#666" stroke-width="1.4"/>
<text x="56.0" y="737.0" font-size="10" fill="#666">X</text>
<line x1="30.0" y1="734.0" x2="30.0" y2="710.0" stroke="#666" stroke-width="1.4"/>
<text x="32.0" y="713.0" font-size="10" fill="#666">Z</text>
</svg>
