<svg xmlns="http://www.w3.org/2000/svg" viewBox="0 0 1180 760" font-family="Segoe UI, Arial, sans-serif">
<rect width="1180" height="760" fill="white"/>
<line x1="62.0" y1="390.0" x2="70.8" y2="390.0" stroke="rgb(67,6,88)" stroke-width="4" stroke-linecap="round"/>
<line x1="70.8" y1="390.0" x2="79.6" y2="390.0" stroke="rgb(66,17,95)" stroke-width="4" stroke-linecap="round"/>
<line x1="79.6" y1="390.0" x2="88.4" y2="390.0" stroke="rgb(65,27,102)" stroke-width="4" stroke-linecap="round"/>
<line x1="88.4" y1="390.0" x2="97.2" y2="390.0" stroke="rgb(64,38,109)" stroke-width="4" stroke-linecap="round"/>
<line x1="97.2" y1="390.0" x2="106.0" y2="390.0" stroke="rgb(63,48,116)" stroke-width="4" stroke-linecap="round"/>
<line x1="106.0" y1="390.0" x2="114.8" y2="390.0" stroke="rgb(62,58,122)" stroke-width="4" stroke-linecap="round"/>
<line x1="114.8" y1="390.0" x2="123.6" y2="390.0" stroke="rgb(61,67,129)" stroke-width="4" stroke-linecap="round"/>
<line x1="123.6" y1="390.0" x2="132.4" y2="390.0" stroke="rgb(60,77,136)" stroke-width="4" stroke-linecap="round"/>
<line x1="132.4" y1="390.0" x2="141.2" y2="390.0" stroke="rgb(58,85,139)" stroke-width="4" stroke-linecap="round"/>
<line x1="141.2" y1="390.0" x2="150.0" y2="390.0" stroke="rgb(55,92,139)" stroke-width="4" stroke-linecap="round"/>
<line x1="150.0" y1="390.0" x2="158.8" y2="390.0" stroke="rgb(52,99,139)" stroke-width="4" stroke-linecap="round"/>
<line x1="158.8" y1="390.0" x2="167.6" y2="390.0" stroke="rgb(49,106,139)" stroke-width="4" stroke-linecap="round"/>
<line x1="167.6" y1="390.0" x2="176.4" y2="390.0" stroke="rgb(46,113,139)" stroke-width="4" stroke-linecap="round"/>
<line x1="176.4" y1="390.0" x2="185.2" y2="390.0" stroke="rgb(43,120,140)" stroke-width="4" stroke-linecap="round"/>
<line x1="185.2" y1="390.0" x2="194.0" y2="390.0" stroke="rgb(41,126,140)" stroke-width="4" stroke-linecap="round"/>
<line x1="194.0" y1="390.0" x2="202.8" y2="390.0" stroke="rgb(38,132,140)" stroke-width="4" stroke-linecap="round"/>
<line x1="202.8" y1="390.0" x2="211.6" y2="390.0" stroke="rgb(36,139,140)" stroke-width="4" stroke-linecap="round"/>
<line x1="211.6" y1="390.0" x2="220.4" y2="390.0" stroke="rgb(33,145,140)" stroke-width="4" stroke-linecap="round"/>
<line x1="220.4" y1="390.0" x2="229.2" y2="390.0" stroke="rgb(38,150,136)" stroke-width="4" stroke-linecap="round"/>
<line x1="229.2" y1="390.0" x2="238.0" y2="390.0" stroke="rgb(44,155,133)" stroke-width="4" stroke-linecap="round"/>
<line x1="238.0" y1="390.0" x2="246.8" y2="390.0" stroke="rgb(49,160,129)" stroke-width="4" stroke-linecap="round"/>
<line x1="246.8" y1="390.0" x2="255.6" y2="390.0" stroke="rgb(55,165,125)" stroke-width="4" stroke-linecap="round"/>
<line x1="255.6" y1="390.0" x2="264.4" y2="390.0" stroke="rgb(60,169,122)" stroke-width="4" stroke-linecap="round"/>
<line x1="264.4" y1="390.0" x2="273.2" y2="390.0" stroke="rgb(65,174,118)" stroke-width="4" stroke-linecap="round"/>
<line x1="273.2" y1="390.0" x2="282.0" y2="390.0" stroke="rgb(70,179,115)" stroke-width="4" stroke-linecap="round"/>
<line x1="282.0" y1="390.0" x2="290.8" y2="390.0" stroke="rgb(74,183,112)" stroke-width="4" stroke-linecap="round"/>
<line x1="290.8" y1="390.0" x2="299.6" y2="390.0" stroke="rgb(79,187,108)" stroke-width="4" stroke-linecap="round"/>
<line x1="299.6" y1="390.0" x2="308.4" y2="390.0" stroke="rgb(83,191,105)" stroke-width="4" stroke-linecap="round"/>
<line x1="308.4" y1="390.0" x2="317.2" y2="390.0" stroke="rgb(88,195,102)" stroke-width="4" stroke-linecap="round"/>
<line x1="317.2" y1="390.0" x2="326.0" y2="390.0" stroke="rgb(92,199,99)" stroke-width="4" stroke-linecap="round"/>
<line x1="326.0" y1="390.0" x2="334.8" y2="390.0" stroke="rgb(99,202,96)" stroke-width="4" stroke-linecap="round"/>
<line x1="334.8" y1="390.0" x2="343.6" y2="390.0" stroke="rgb(109,204,92)" stroke-width="4" stroke-linecap="round"/>
<line x1="343.6" y1="390.0" x2="352.4" y2="390.0" stroke="rgb(119,206,88)" stroke-width="4" stroke-linecap="round"/>
<line x1="352.4" y1="390.0" x2="361.2" y2="390.0" stroke="rgb(129,208,85)" stroke-width="4" stroke-linecap="round"/>
<line x1="361.2" y1="390.0" x2="370.0" y2="390.0" stroke="rgb(138,209,81)" stroke-width="4" stroke-linecap="round"/>
<line x1="370.0" y1="390.0" x2="378.8" y2="390.0" stroke="rgb(147,211,78)" stroke-width="4" stroke-linecap="round"/>
<line x1="378.8" y1="390.0" x2="387.6" y2="390.0" stroke="rgb(155,213,74)" stroke-width="4" stroke-linecap="round"/>
<line x1="387.6" y1="390.0" x2="396.4" y2="390.0" stroke="rgb(164,214,71)" stroke-width="4" stroke-linecap="round"/>
<line x1="396.4" y1="390.0" x2="405.2" y2="390.0" stroke="rgb(171,216,68)" stroke-width="4" stroke-linecap="round"/>
<line x1="405.2" y1="390.0" x2="414.0" y2="390.0" stroke="rgb(179,217,66)" stroke-width="4" stroke-linecap="round"/>
<line x1="414.0" y1="390.0" x2="422.8" y2="390.0" stroke="rgb(186,218,63)" stroke-width="4" stroke-linecap="round"/>
<line x1="422.8" y1="390.0" x2="431.6" y2="390.0" stroke="rgb(192,220,60)" stroke-width="4" stroke-linecap="round"/>
<line x1="431.6" y1="390.0" x2="440.4" y2="390.0" stroke="rgb(199,221,58)" stroke-width="4" stroke-linecap="round"/>
<line x1="440.4" y1="390.0" x2="449.2" y2="390.0" stroke="rgb(205,222,55)" stroke-width="4" stroke-linecap="round"/>
<line x1="449.2" y1="390.0" x2="458.0" y2="390.0" stroke="rgb(211,223,53)" stroke-width="4" stroke-linecap="round"/>
<line x1="458.0" y1="390.0" x2="466.8" y2="390.0" stroke="rgb(216,224,51)" stroke-width="4" stroke-linecap="round"/>
<line x1="466.8" y1="390.0" x2="475.6" y2="390.0" stroke="rgb(221,225,49)" stroke-width="4" stroke-linecap="round"/>
<line x1="475.6" y1="390.0" x2="484.4" y2="390.0" stroke="rgb(225,226,48)" stroke-width="4" stroke-linecap="round"/>
<line x1="484.4" y1="390.0" x2="493.2" y2="390.0" stroke="rgb(230,227,46)" stroke-width="4" stroke-linecap="round"/>
<line x1="493.2" y1="390.0" x2="502.0" y2="390.0" stroke="rgb(233,227,44)" stroke-width="4" stroke-linecap="round"/>
<line x1="502.0" y1="390.0" x2="510.8" y2="390.0" stroke="rgb(237,228,43)" stroke-width="4" stroke-linecap="round"/>
<line x1="510.8" y1="390.0" x2="519.6" y2="390.0" stroke="rgb(240,229,42)" stroke-width="4" stroke-linecap="round"/>
<line x1="519.6" y1="390.0" x2="528.4" y2="390.0" stroke="rgb(243,229,41)" stroke-width="4" stroke-linecap="round"/>
<line x1="528.4" y1="390.0" x2="537.2" y2="390.0" stroke="rgb(245,230,40)" stroke-width="4" stroke-linecap="round"/>
<line x1="537.2" y1="390.0" x2="546.0" y2="390.0" stroke="rgb(248,230,39)" stroke-width="4" stroke-linecap="round"/>
<line x1="546.0" y1="390.0" x2="554.8" y2="390.0" stroke="rgb(249,230,38)" stroke-width="4" stroke-linecap="round"/>
<line x1="554.8" y1="390.0" x2="563.6" y2="390.0" stroke="rgb(251,231,38)" stroke-width="4" stroke-linecap="round"/>
<line x1="563.6" y1="390.0" x2="572.4" y2="390.0" stroke="rgb(252,231,37)" stroke-width="4" stroke-linecap="round"/>
<line x1="572.4" y1="390.0" x2="581.2" y2="390.0" stroke="rgb(253,231,37)" stroke-width="4" stroke-linecap="round"/>
<line x1="581.2" y1="390.0" x2="590.0" y2="390.0" stroke="rgb(253,231,37)" stroke-width="4" stroke-linecap="round"/>
<line x1="590.0" y1="390.0" x2="598.8" y2="390.0" stroke="rgb(253,231,37)" stroke-width="4" stroke-linecap="round"/>
<line x1="598.8" y1="390.0" x2="607.6" y2="390.0" stroke="rgb(253,231,37)" stroke-width="4" stroke-linecap="round"/>
<line x1="607.6" y1="390.0" x2="616.4" y2="390.0" stroke="rgb(252,231,37)" stroke-width="4" stroke-linecap="round"/>
<line x1="616.4" y1="390.0" x2="625.2" y2="390.0" stroke="rgb(251,231,38)" stroke-width="4" stroke-linecap="round"/>
<line x1="625.2" y1="390.0" x2="634.0" y2="390.0" stroke="rgb(249,230,38)" stroke-width="4" stroke-linecap="round"/>
<line x1="634.0" y1="390.0" x2="642.8" y2="390.0" stroke="rgb(248,230,39)" stroke-width="4" stroke-linecap="round"/>
<line x1="642.8" y1="390.0" x2="651.6" y2="390.0" stroke="rgb(245,230,40)" stroke-width="4" stroke-linecap="round"/>
<line x1="651.6" y1="390.0" x2="660.4" y2="390.0" stroke="rgb(243,229,41)" stroke-width="4" stroke-linecap="round"/>
<line x1="660.4" y1="390.0" x2="669.2" y2="390.0" stroke="rgb(240,229,42)" stroke-width="4" stroke-linecap="round"/>
<line x1="669.2" y1="390.0" x2="678.0" y2="390.0" stroke="rgb(237,228,43)" stroke-width="4" stroke-linecap="round"/>
<line x1="678.0" y1="390.0" x2="686.8" y2="390.0" stroke="rgb(233,227,44)" stroke-width="4" stroke-linecap="round"/>
<line x1="686.8" y1="390.0" x2="695.6" y2="390.0" stroke="rgb(230,227,46)" stroke-width="4" stroke-linecap="round"/>
<line x1="695.6" y1="390.0" x2="704.4" y2="390.0" stroke="rgb(225,226,48)" stroke-width="4" stroke-linecap="round"/>
<line x1="704.4" y1="390.0" x2="713.2" y2="390.0" stroke="rgb(221,225,49)" stroke-width="4" stroke-linecap="round"/>
<line x1="713.2" y1="390.0" x2="722.0" y2="390.0" stroke="rgb(216,224,51)" stroke-width="4" stroke-linecap="round"/>
<line x1="722.0" y1="390.0" x2="730.8" y2="390.0" stroke="rgb(211,223,53)" stroke-width="4" stroke-linecap="round"/>
<line x1="730.8" y1="390.0" x2="739.6" y2="390.0" stroke="rgb(205,222,55)" stroke-width="4" stroke-linecap="round"/>
<line x1="739.6" y1="390.0" x2="748.4" y2="390.0" stroke="rgb(199,221,58)" stroke-width="4" stroke-linecap="round"/>
<line x1="748.4" y1="390.0" x2="757.2" y2="390.0" stroke="rgb(192,220,60)" stroke-width="4" stroke-linecap="round"/>
<line x1="757.2" y1="390.0" x2="766.0" y2="390.0" stroke="rgb(186,218,63)" stroke-width="4" stroke-linecap="round"/>
<line x1="766.0" y1="390.0" x2="774.8" y2="390.0" stroke="rgb(179,217,66)" stroke-width="4" stroke-linecap="round"/>
<line x1="774.8" y1="390.0" x2="783.6" y2="390.0" stroke="rgb(171,216,68)" stroke-width="4" stroke-linecap="round"/>
<line x1="783.6" y1="390.0" x2="792.4" y2="390.0" stroke="rgb(164,214,71)" stroke-width="4" stroke-linecap="round"/>
<line x1="792.4" y1="390.0" x2="801.2" y2="390.0" stroke="rgb(155,213,74)" stroke-width="4" stroke-linecap="round"/>
<line x1="801.2" y1="390.0" x2="810.0" y2="390.0" stroke="rgb(147,211,78)" stroke-width="4" stroke-linecap="round"/>
<line x1="810.0" y1="390.0" x2="818.8" y2="390.0" stroke="rgb(138,209,81)" stroke-width="4" stroke-linecap="round"/>
<line x1="818.8" y1="390.0" x2="827.6" y2="390.0" stroke="rgb(129,208,85)" stroke-width="4" stroke-linecap="round"/>
<line x1="827.6" y1="390.0" x2="836.4" y2="390.0" stroke="rgb(119,206,88)" stroke-width="4" stroke-linecap="round"/>
<line x1="836.4" y1="390.0" x2="845.2" y2="390.0" stroke="rgb(109,204,92)" stroke-width="4" stroke-linecap="round"/>
<line x1="845.2" y1="390.0" x2="854.0" y2="390.0" stroke="rgb(99,202,96)" stroke-width="4" stroke-linecap="round"/>
<line x1="854.0" y1="390.0" x2="862.8" y2="390.0" stroke="rgb(92,199,99)" stroke-width="4" stroke-linecap="round"/>
<line x1="862.8" y1="390.0" x2="871.6" y2="390.0" stroke="rgb(88,195,102)" stroke-width="4" stroke-linecap="round"/>
<line x1="871.6" y1="390.0" x2="880.4" y2="390.0" stroke="rgb(83,191,105)" stroke-width="4" stroke-linecap="round"/>
<line x1="880.4" y1="390.0" x2="889.2" y2="390.0" stroke="rgb(79,187,108)" stroke-width="4" stroke-linecap="round"/>
<line x1="889.2" y1="390.0" x2="898.0" y2="390.0" stroke="rgb(74,183,112)" stroke-width="4" stroke-linecap="round"/>
<line x1="898.0" y1="390.0" x2="906.8" y2="390.0" stroke="rgb(70,179,115)" stroke-width="4" stroke-linecap="round"/>
<line x1="906.8" y1="390.0" x2="915.6" y2="390.0" stroke="rgb(65,174,118)" stroke-width="4" stroke-linecap="round"/>
<line x1="915.6" y1="390.0" x2="924.4" y2="390.0" stroke="rgb(60,169,122)" stroke-width="4" stroke-linecap="round"/>
<line x1="924.4" y1="390.0" x2="933.2" y2="390.0" stroke="rgb(55,165,125)" stroke-width="4" stroke-linecap="round"/>
<line x1="933.2" y1="390.0" x2="942.0" y2="390.0" stroke="rgb(49,160,129)" stroke-width="4" stroke-linecap="round"/>
<line x1="942.0" y1="390.0" x2="950.8" y2="390.0" stroke="rgb(44,155,133)" stroke-width="4" stroke-linecap="round"/>
<line x1="950.8" y1="390.0" x2="959.6" y2="390.0" stroke="rgb(38,150,136)" stroke-width="4" stroke-linecap="round"/>
<line x1="959.6" y1="390.0" x2="968.4" y2="390.0" stroke="rgb(33,145,140)" stroke-width="4" stroke-linecap="round"/>
<line x1="968.4" y1="390.0" x2="977.2" y2="390.0" stroke="rgb(36,139,140)" stroke-width="4" stroke-linecap="round"/>
<line x1="977.2" y1="390.0" x2="986.0" y2="390.0" stroke="rgb(38,132,140)" stroke-width="4" stroke-linecap="round"/>
<line x1="986.0" y1="390.0" x2="994.8" y2="390.0" stroke="rgb(41,126,140)" stroke-width="4" stroke-linecap="round"/>
<line x1="994.8" y1="390.0" x2="1003.6" y2="390.0" stroke="rgb(43,120,140)" stroke-width="4" stroke-linecap="round"/>
<line x1="1003.6" y1="390.0" x2="1012.4" y2="390.0" stroke="rgb(46,113,139)" stroke-width="4" stroke-linecap="round"/>
<line x1="1012.4" y1="390.0" x2="1021.2" y2="390.0" stroke="rgb(49,106,139)" stroke-width="4" stroke-linecap="round"/>
<line x1="1021.2" y1="390.0" x2="1030.0" y2="390.0" stroke="rgb(52,99,139)" stroke-width="4" stroke-linecap="round"/>
<line x1="1030.0" y1="390.0" x2="1038.8" y2="390.0" stroke="rgb(55,92,139)" stroke-width="4" stroke-linecap="round"/>
<line x1="1038.8" y1="390.0" x2="1047.6" y2="390.0" stroke="rgb(58,85,139)" stroke-width="4" stroke-linecap="round"/>
<line x1="1047.6" y1="390.0" x2="1056.4" y2="390.0" stroke="rgb(60,77,136)" stroke-width="4" stroke-linecap="round"/>
<line x1="1056.4" y1="390.0" x2="1065.2" y2="390.0" stroke="rgb(61,67,129)" stroke-width="4" stroke-linecap="round"/>
<line x1="1065.2" y1="390.0" x2="1074.0" y2="390.0" stroke="rgb(62,58,122)" stroke-width="4" stroke-linecap="round"/>
<line x1="1074.0" y1="390.0" x2="1082.8" y2="390.0" stroke="rgb(63,48,116)" stroke-width="4" stroke-linecap="round"/>
<line x1="1082.8" y1="390.0" x2="1091.6" y2="390.0" stroke="rgb(64,38,109)" stroke-width="4" stroke-linecap="round"/>
<line x1="1091.6" y1="390.0" x2="1100.4" y2="390.0" stroke="rgb(65,27,102)" stroke-width="4" stroke-linecap="round"/>
<line x1="1100.4" y1="390.0" x2="1109.2" y2="390.0" stroke="rgb(66,17,95)" stroke-width="4" stroke-linecap="round"/>
<line x1="1109.2" y1="390.0" x2="1118.0" y2="390.0" stroke="rgb(67,6,88)" stroke-width="4" stroke-linecap="round"/>
<polygon points="53.0,402.6 71.0,402.6 62.0,390.0" fill="none" stroke="#333" stroke-width="1.6"/>
<line x1="50.3" y1="402.6" x2="73.7" y2="402.6" stroke="#333" stroke-width="1.6"/>
<polygon points="1109.0,399.9 1127.0,399.9 1118.0,390.0" fill="none" stroke="#333" stroke-width="1.4"/>
<circle cx="1113.5" cy="403.9" r="3" fill="none" stroke="#333"/>
<circle cx="1122.5" cy="403.9" r="3" fill="none" stroke="#333"/>
<text x="16.0" y="24.0" font-size="16" font-weight="bold" fill="#111">Simply supported girder bridge (35 m) — normal strain (built-in)</text>
<text x="16.0" y="42.0" font-size="12" fill="#555">ε = σ/E · max 8.08e-4</text>
<rect x="970" y="714" width="4.45" height="12" fill="rgb(68,1,84)"/>
<rect x="973.75" y="714" width="4.45" height="12" fill="rgb(67,9,90)"/>
<rect x="977.5" y="714" width="4.45" height="12" fill="rgb(66,18,95)"/>
<rect x="981.25" y="714" width="4.45" height="12" fill="rgb(65,26,101)"/>
<rect x="985" y="714" width="4.45" height="12" fill="rgb(64,34,107)"/>
<rect x="988.75" y="714" width="4.45" height="12" fill="rgb(63,43,112)"/>
<rect x="992.5" y="714" width="4.45" height="12" fill="rgb(62,51,118)"/>
<rect x="996.25" y="714" width="4.45" height="12" fill="rgb(62,59,123)"/>
<rect x="1000" y="714" width="4.45" height="12" fill="rgb(61,67,129)"/>
<rect x="1003.75" y="714" width="4.45" height="12" fill="rgb(60,76,135)"/>
<rect x="1007.5" y="714" width="4.45" height="12" fill="rgb(58,84,139)"/>
<rect x="1011.25" y="714" width="4.45" height="12" fill="rgb(56,90,139)"/>
<rect x="1015" y="714" width="4.45" height="12" fill="rgb(53,97,139)"/>
<rect x="1018.75" y="714" width="4.45" height="12" fill="rgb(50,103,139)"/>
<rect x="1022.5" y="714" width="4.45" height="12" fill="rgb(48,109,139)"/>
<rect x="1026.25" y="714" width="4.45" height="12" fill="rgb(45,116,140)"/>
<rect x="1030" y="714" width="4.45" height="12" fill="rgb(42,122,140)"/>
<rect x="1033.75" y="714" width="4.45" height="12" fill="rgb(40,129,140)"/>
<rect x="1037.5" y="714" width="4.45" height="12" fill="rgb(37,135,140)"/>
<rect x="1041.25" y="714" width="4.45" height="12" fill="rgb(34,142,140)"/>
<rect x="1045" y="714" width="4.45" height="12" fill="rgb(36,148,138)"/>
<rect x="1048.75" y="714" width="4.45" height="12" fill="rgb(42,154,134)"/>
<rect x="1052.5" y="714" width="4.45" height="12" fill="rgb(49,159,129)"/>
<rect x="1056.25" y="714" width="4.45" height="12" fill="rgb(55,165,125)"/>
<rect x="1060" y="714" width="4.45" height="12" fill="rgb(61,171,121)"/>
<rect x="1063.75" y="714" width="4.45" height="12" fill="rgb(67,177,116)"/>
<rect x="1067.5" y="714" width="4.45" height="12" fill="rgb(74,182,112)"/>
<rect x="1071.25" y="714" width="4.45" height="12" fill="rgb(80,188,108)"/>
<rect x="1075" y="714" width="4.45" height="12" fill="rgb(86,194,103)"/>
<rect x="1078.75" y="714" width="4.45" height="12" fill="rgb(92,200,99)"/>
<rect x="1082.5" y="714" width="4.45" height="12" fill="rgb(106,203,93)"/>
<rect x="1086.25" y="714" width="4.45" height="12" fill="rgb(123,206,87)"/>
<rect x="1090" y="714" width="4.45" height="12" fill="rgb(139,209,81)"/>
<rect x="1093.75" y="714" width="4.45" height="12" fill="rgb(155,213,75)"/>
<rect x="1097.5" y="714" width="4.45" height="12" fill="rgb(171,216,68)"/>
<rect x="1101.25" y="714" width="4.45" height="12" fill="rgb(188,219,62)"/>
<rect x="1105" y="714" width="4.45" height="12" fill="rgb(204,222,56)"/>
<rect x="1108.75" y="714" width="4.45" height="12" fill="rgb(220,225,50)"/>
<rect x="1112.5" y="714" width="4.45" height="12" fill="rgb(237,228,43)"/>
<rect x="1116.25" y="714" width="4.45" height="12" fill="rgb(253,231,37)"/>
<text x="970.0" y="708.0" font-size="11" fill="#333"></text>
<text x="970.0" y="739.0" font-size="10" fill="#333">0.00e+0 ε</text>
<text x="1086.0" y="739.0" font-size="10" fill="#333">8.08e-4 ε</text>
<line x1="30.0" y1="734.0" x2="54.0" y2="734.0" stroke="#666" stroke-width="1.4"/>
<text x="56.0" y="737.0" font-size="10" fill="#666">X</text>
<line x1="30.0" y1="734.0" x2="30.0" y2="710.0" stroke="#666" stroke-width="1.4"/>
<text x="32.0" y="713.0" font-size="10" fill="#666">Z</text>
</svg>
