<svg xmlns="http://www.w3.org/2000/svg" viewBox="0 0 1180 760" font-family="Segoe UI, Arial, sans-serif">
<rect width="1180" height="760" fill="white"/>
<line x1="227.7" y1="688.0" x2="330.2" y2="628.8" stroke="#eee" stroke-width="1" stroke-linecap="round"/>
<line x1="330.2" y1="628.8" x2="432.8" y2="569.6" stroke="#eee" stroke-width="1" stroke-linecap="round"/>
<line x1="432.8" y1="569.6" x2="535.3" y2="510.4" stroke="#eee" stroke-width="1" stroke-linecap="round"/>
<line x1="535.3" y1="510.4" x2="637.9" y2="451.2" stroke="#eee" stroke-width="1" stroke-linecap="round"/>
<line x1="637.9" y1="451.2" x2="740.4" y2="392.0" stroke="#eee" stroke-width="1" stroke-linecap="round"/>
<line x1="740.4" y1="392.0" x2="842.9" y2="332.8" stroke="#eee" stroke-width="1" stroke-linecap="round"/>
<line x1="842.9" y1="332.8" x2="945.5" y2="273.6" stroke="#eee" stroke-width="1" stroke-linecap="round"/>
<line x1="945.5" y1="273.6" x2="1048.0" y2="214.4" stroke="#eee" stroke-width="1" stroke-linecap="round"/>
<line x1="330.2" y1="502.5" x2="432.8" y2="443.3" stroke="#eee" stroke-width="1" stroke-linecap="round"/>
<line x1="432.8" y1="443.3" x2="535.3" y2="384.1" stroke="#eee" stroke-width="1" stroke-linecap="round"/>
<line x1="535.3" y1="384.1" x2="637.9" y2="324.9" stroke="#eee" stroke-width="1" stroke-linecap="round"/>
<line x1="637.9" y1="324.9" x2="740.4" y2="265.7" stroke="#eee" stroke-width="1" stroke-linecap="round"/>
<line x1="740.4" y1="265.7" x2="842.9" y2="206.5" stroke="#eee" stroke-width="1" stroke-linecap="round"/>
<line x1="842.9" y1="206.5" x2="945.5" y2="147.3" stroke="#eee" stroke-width="1" stroke-linecap="round"/>
<line x1="227.7" y1="688.0" x2="330.2" y2="502.5" stroke="#eee" stroke-width="1" stroke-linecap="round"/>
<line x1="1048.0" y1="214.4" x2="945.5" y2="147.3" stroke="#eee" stroke-width="1" stroke-linecap="round"/>
<line x1="330.2" y1="502.5" x2="330.2" y2="628.8" stroke="#eee" stroke-width="1" stroke-linecap="round"/>
<line x1="432.8" y1="443.3" x2="432.8" y2="569.6" stroke="#eee" stroke-width="1" stroke-linecap="round"/>
<line x1="535.3" y1="384.1" x2="535.3" y2="510.4" stroke="#eee" stroke-width="1" stroke-linecap="round"/>
<line x1="637.9" y1="324.9" x2="637.9" y2="451.2" stroke="#eee" stroke-width="1" stroke-linecap="round"/>
<line x1="740.4" y1="265.7" x2="740.4" y2="392.0" stroke="#eee" stroke-width="1" stroke-linecap="round"/>
<line x1="842.9" y1="206.5" x2="842.9" y2="332.8" stroke="#eee" stroke-width="1" stroke-linecap="round"/>
<line x1="945.5" y1="147.3" x2="945.5" y2="273.6" stroke="#eee" stroke-width="1" stroke-linecap="round"/>
<line x1="330.2" y1="502.5" x2="432.8" y2="569.6" stroke="#eee" stroke-width="1" stroke-linecap="round"/>
<line x1="432.8" y1="443.3" x2="535.3" y2="510.4" stroke="#eee" stroke-width="1" stroke-linecap="round"/>
<line x1="535.3" y1="384.1" x2="637.9" y2="451.2" stroke="#eee" stroke-width="1" stroke-linecap="round"/>
<line x1="740.4" y1="265.7" x2="637.9" y2="451.2" stroke="#eee" stroke-width="1" stroke-linecap="round"/>
<line x1="842.9" y1="206.5" x2="740.4" y2="392.0" stroke="#eee" stroke-width="1" stroke-linecap="round"/>
<line x1="945.5" y1="147.3" x2="842.9" y2="332.8" stroke="#eee" stroke-width="1" stroke-linecap="round"/>
<line x1="132.0" y1="632.7" x2="234.5" y2="573.5" stroke="#eee" stroke-width="1" stroke-linecap="round"/>
<line x1="234.5" y1="573.5" x2="337.1" y2="514.3" stroke="#eee" stroke-width="1" stroke-linecap="round"/>
<line x1="337.1" y1="514.3" x2="439.6" y2="455.1" stroke="#eee" stroke-width="1" stroke-linecap="round"/>
<line x1="439.6" y1="455.1" x2="542.1" y2="395.9" stroke="#eee" stroke-width="1" stroke-linecap="round"/>
<line x1="542.1" y1="395.9" x2="644.7" y2="336.7" stroke="#eee" stroke-width="1" stroke-linecap="round"/>
<line x1="644.7" y1="336.7" x2="747.2" y2="277.5" stroke="#eee" stroke-width="1" stroke-linecap="round"/>
<line x1="747.2" y1="277.5" x2="849.8" y2="218.3" stroke="#eee" stroke-width="1" stroke-linecap="round"/>
<line x1="849.8" y1="218.3" x2="952.3" y2="159.1" stroke="#eee" stroke-width="1" stroke-linecap="round"/>
<line x1="234.5" y1="447.2" x2="337.1" y2="388.0" stroke="#eee" stroke-width="1" stroke-linecap="round"/>
<line x1="337.1" y1="388.0" x2="439.6" y2="328.8" stroke="#eee" stroke-width="1" stroke-linecap="round"/>
<line x1="439.6" y1="328.8" x2="542.1" y2="269.6" stroke="#eee" stroke-width="1" stroke-linecap="round"/>
<line x1="542.1" y1="269.6" x2="644.7" y2="210.4" stroke="#eee" stroke-width="1" stroke-linecap="round"/>
<line x1="644.7" y1="210.4" x2="747.2" y2="151.2" stroke="#eee" stroke-width="1" stroke-linecap="round"/>
<line x1="747.2" y1="151.2" x2="849.8" y2="92.0" stroke="#eee" stroke-width="1" stroke-linecap="round"/>
<line x1="132.0" y1="632.7" x2="234.5" y2="447.2" stroke="#eee" stroke-width="1" stroke-linecap="round"/>
<line x1="952.3" y1="159.1" x2="849.8" y2="92.0" stroke="#eee" stroke-width="1" stroke-linecap="round"/>
<line x1="234.5" y1="447.2" x2="234.5" y2="573.5" stroke="#eee" stroke-width="1" stroke-linecap="round"/>
<line x1="337.1" y1="388.0" x2="337.1" y2="514.3" stroke="#eee" stroke-width="1" stroke-linecap="round"/>
<line x1="439.6" y1="328.8" x2="439.6" y2="455.1" stroke="#eee" stroke-width="1" stroke-linecap="round"/>
<line x1="542.1" y1="269.6" x2="542.1" y2="395.9" stroke="#eee" stroke-width="1" stroke-linecap="round"/>
<line x1="644.7" y1="210.4" x2="644.7" y2="336.7" stroke="#eee" stroke-width="1" stroke-linecap="round"/>
<line x1="747.2" y1="151.2" x2="747.2" y2="277.5" stroke="#eee" stroke-width="1" stroke-linecap="round"/>
<line x1="849.8" y1="92.0" x2="849.8" y2="218.3" stroke="#eee" stroke-width="1" stroke-linecap="round"/>
<line x1="234.5" y1="447.2" x2="337.1" y2="514.3" stroke="#eee" stroke-width="1" stroke-linecap="round"/>
<line x1="337.1" y1="388.0" x2="439.6" y2="455.1" stroke="#eee" stroke-width="1" stroke-linecap="round"/>
<line x1="439.6" y1="328.8" x2="542.1" y2="395.9" stroke="#eee" stroke-width="1" stroke-linecap="round"/>
<line x1="644.7" y1="210.4" x2="542.1" y2="395.9" stroke="#eee" stroke-width="1" stroke-linecap="round"/>
<line x1="747.2" y1="151.2" x2="644.7" y2="336.7" stroke="#eee" stroke-width="1" stroke-linecap="round"/>
<line x1="849.8" y1="92.0" x2="747.2" y2="277.5" stroke="#eee" stroke-width="1" stroke-linecap="round"/>
<line x1="227.7" y1="688.0" x2="132.0" y2="632.7" stroke="#eee" stroke-width="1" stroke-linecap="round"/>
<line x1="330.2" y1="628.8" x2="234.5" y2="573.5" stroke="#eee" stroke-width="1" stroke-linecap="round"/>
<line x1="432.8" y1="569.6" x2="337.1" y2="514.3" stroke="#eee" stroke-width="1" stroke-linecap="round"/>
<line x1="535.3" y1="510.4" x2="439.6" y2="455.1" stroke="#eee" stroke-width="1" stroke-linecap="round"/>
<line x1="637.9" y1="451.2" x2="542.1" y2="395.9" stroke="#eee" stroke-width="1" stroke-linecap="round"/>
<line x1="740.4" y1="392.0" x2="644.7" y2="336.7" stroke="#eee" stroke-width="1" stroke-linecap="round"/>
<line x1="842.9" y1="332.8" x2="747.2" y2="277.5" stroke="#eee" stroke-width="1" stroke-linecap="round"/>
<line x1="945.5" y1="273.6" x2="849.8" y2="218.3" stroke="#eee" stroke-width="1" stroke-linecap="round"/>
<line x1="1048.0" y1="214.4" x2="952.3" y2="159.1" stroke="#eee" stroke-width="1" stroke-linecap="round"/>
<line x1="330.2" y1="502.5" x2="234.5" y2="447.2" stroke="#eee" stroke-width="1" stroke-linecap="round"/>
<line x1="432.8" y1="443.3" x2="337.1" y2="388.0" stroke="#eee" stroke-width="1" stroke-linecap="round"/>
<line x1="535.3" y1="384.1" x2="439.6" y2="328.8" stroke="#eee" stroke-width="1" stroke-linecap="round"/>
<line x1="637.9" y1="324.9" x2="542.1" y2="269.6" stroke="#eee" stroke-width="1" stroke-linecap="round"/>
<line x1="740.4" y1="265.7" x2="644.7" y2="210.4" stroke="#eee" stroke-width="1" stroke-linecap="round"/>
<line x1="842.9" y1="206.5" x2="747.2" y2="151.2" stroke="#eee" stroke-width="1" stroke-linecap="round"/>
<line x1="945.5" y1="147.3" x2="849.8" y2="92.0" stroke="#eee" stroke-width="1" stroke-linecap="round"/>
<line x1="227.7" y1="688.0" x2="330.2" y2="628.8" stroke="#1f77b4" stroke-width="3.2160996263669133" stroke-linecap="round"/>
<line x1="330.2" y1="628.8" x2="432.8" y2="569.6" stroke="#1f77b4" stroke-width="3.2216169182325656" stroke-linecap="round"/>
<line x1="432.8" y1="569.6" x2="535.3" y2="510.4" stroke="#1f77b4" stroke-width="4.760472683369726" stroke-linecap="round"/>
<line x1="535.3" y1="510.4" x2="637.9" y2="451.2" stroke="#1f77b4" stroke-width="5.6918173760981094" stroke-linecap="round"/>
<line x1="637.9" y1="451.2" x2="740.4" y2="392.0" stroke="#1f77b4" stroke-width="5.691727955227674" stroke-linecap="round"/>
<line x1="740.4" y1="392.0" x2="842.9" y2="332.8" stroke="#1f77b4" stroke-width="4.760293656371854" stroke-linecap="round"/>
<line x1="842.9" y1="332.8" x2="945.5" y2="273.6" stroke="#1f77b4" stroke-width="3.221393501151454" stroke-linecap="round"/>
<line x1="945.5" y1="273.6" x2="1048.0" y2="214.4" stroke="#1f77b4" stroke-width="3.215883204347722" stroke-linecap="round"/>
<line x1="330.2" y1="502.5" x2="432.8" y2="443.3" stroke="#d62728" stroke-width="4.749335352345614" stroke-linecap="round"/>
<line x1="432.8" y1="443.3" x2="535.3" y2="384.1" stroke="#d62728" stroke-width="5.686570233575429" stroke-linecap="round"/>
<line x1="535.3" y1="384.1" x2="637.9" y2="324.9" stroke="#d62728" stroke-width="5.9999984789030405" stroke-linecap="round"/>
<line x1="637.9" y1="324.9" x2="740.4" y2="265.7" stroke="#d62728" stroke-width="6" stroke-linecap="round"/>
<line x1="740.4" y1="265.7" x2="842.9" y2="206.5" stroke="#d62728" stroke-width="5.686488537811117" stroke-linecap="round"/>
<line x1="842.9" y1="206.5" x2="945.5" y2="147.3" stroke="#d62728" stroke-width="4.7491756579769415" stroke-linecap="round"/>
<line x1="227.7" y1="688.0" x2="330.2" y2="502.5" stroke="#d62728" stroke-width="4.2394107692583285" stroke-linecap="round"/>
<line x1="1048.0" y1="214.4" x2="945.5" y2="147.3" stroke="#d62728" stroke-width="4.23913472363988" stroke-linecap="round"/>
<line x1="330.2" y1="502.5" x2="330.2" y2="628.8" stroke="#1f77b4" stroke-width="1.6342441187202046" stroke-linecap="round"/>
<line x1="432.8" y1="443.3" x2="432.8" y2="569.6" stroke="#d62728" stroke-width="2.0609360443296714" stroke-linecap="round"/>
<line x1="535.3" y1="384.1" x2="535.3" y2="510.4" stroke="#d62728" stroke-width="1.4189519388794067" stroke-linecap="round"/>
<line x1="637.9" y1="324.9" x2="637.9" y2="451.2" stroke="#d62728" stroke-width="1.0687461207352789" stroke-linecap="round"/>
<line x1="740.4" y1="265.7" x2="740.4" y2="392.0" stroke="#d62728" stroke-width="1.4190440666258861" stroke-linecap="round"/>
<line x1="842.9" y1="206.5" x2="842.9" y2="332.8" stroke="#d62728" stroke-width="2.0610130012903043" stroke-linecap="round"/>
<line x1="945.5" y1="147.3" x2="945.5" y2="273.6" stroke="#1f77b4" stroke-width="1.6340521739108183" stroke-linecap="round"/>
<line x1="330.2" y1="502.5" x2="432.8" y2="569.6" stroke="#1f77b4" stroke-width="3.2464089047099827" stroke-linecap="round"/>
<line x1="432.8" y1="443.3" x2="535.3" y2="510.4" stroke="#1f77b4" stroke-width="2.366764529166705" stroke-linecap="round"/>
<line x1="535.3" y1="384.1" x2="637.9" y2="451.2" stroke="#1f77b4" stroke-width="1.463294455065716" stroke-linecap="round"/>
<line x1="740.4" y1="265.7" x2="637.9" y2="451.2" stroke="#1f77b4" stroke-width="1.4634218906910321" stroke-linecap="round"/>
<line x1="842.9" y1="206.5" x2="740.4" y2="392.0" stroke="#1f77b4" stroke-width="2.3668900995819184" stroke-linecap="round"/>
<line x1="945.5" y1="147.3" x2="842.9" y2="332.8" stroke="#1f77b4" stroke-width="3.2464738313088684" stroke-linecap="round"/>
<line x1="132.0" y1="632.7" x2="234.5" y2="573.5" stroke="#1f77b4" stroke-width="3.2155795273881673" stroke-linecap="round"/>
<line x1="234.5" y1="573.5" x2="337.1" y2="514.3" stroke="#1f77b4" stroke-width="3.221079246802137" stroke-linecap="round"/>
<line x1="337.1" y1="514.3" x2="439.6" y2="455.1" stroke="#1f77b4" stroke-width="4.759942181277778" stroke-linecap="round"/>
<line x1="439.6" y1="455.1" x2="542.1" y2="395.9" stroke="#1f77b4" stroke-width="5.691383901526534" stroke-linecap="round"/>
<line x1="542.1" y1="395.9" x2="644.7" y2="336.7" stroke="#1f77b4" stroke-width="5.691473322396956" stroke-linecap="round"/>
<line x1="644.7" y1="336.7" x2="747.2" y2="277.5" stroke="#1f77b4" stroke-width="4.760121208275621" stroke-linecap="round"/>
<line x1="747.2" y1="277.5" x2="849.8" y2="218.3" stroke="#1f77b4" stroke-width="3.2213026638832454" stroke-linecap="round"/>
<line x1="849.8" y1="218.3" x2="952.3" y2="159.1" stroke="#1f77b4" stroke-width="3.2157959494073203" stroke-linecap="round"/>
<line x1="234.5" y1="447.2" x2="337.1" y2="388.0" stroke="#d62728" stroke-width="4.748858087261679" stroke-linecap="round"/>
<line x1="337.1" y1="388.0" x2="439.6" y2="328.8" stroke="#d62728" stroke-width="5.686174702196554" stroke-linecap="round"/>
<line x1="439.6" y1="328.8" x2="542.1" y2="269.6" stroke="#d62728" stroke-width="5.9996899418240695" stroke-linecap="round"/>
<line x1="542.1" y1="269.6" x2="644.7" y2="210.4" stroke="#d62728" stroke-width="5.99968842072713" stroke-linecap="round"/>
<line x1="644.7" y1="210.4" x2="747.2" y2="151.2" stroke="#d62728" stroke-width="5.686256397960956" stroke-linecap="round"/>
<line x1="747.2" y1="151.2" x2="849.8" y2="92.0" stroke="#d62728" stroke-width="4.749017781630415" stroke-linecap="round"/>
<line x1="132.0" y1="632.7" x2="234.5" y2="447.2" stroke="#d62728" stroke-width="4.238736002082506" stroke-linecap="round"/>
<line x1="952.3" y1="159.1" x2="849.8" y2="92.0" stroke="#d62728" stroke-width="4.239012047701008" stroke-linecap="round"/>
<line x1="234.5" y1="447.2" x2="234.5" y2="573.5" stroke="#1f77b4" stroke-width="1.6338587195439587" stroke-linecap="round"/>
<line x1="337.1" y1="388.0" x2="337.1" y2="514.3" stroke="#d62728" stroke-width="2.0610069914286946" stroke-linecap="round"/>
<line x1="439.6" y1="328.8" x2="439.6" y2="455.1" stroke="#d62728" stroke-width="1.4190503240553478" stroke-linecap="round"/>
<line x1="542.1" y1="269.6" x2="542.1" y2="395.9" stroke="#d62728" stroke-width="1.068750941114453" stroke-linecap="round"/>
<line x1="644.7" y1="210.4" x2="644.7" y2="336.7" stroke="#d62728" stroke-width="1.4189581963088684" stroke-linecap="round"/>
<line x1="747.2" y1="151.2" x2="747.2" y2="277.5" stroke="#d62728" stroke-width="2.060930034468036" stroke-linecap="round"/>
<line x1="849.8" y1="92.0" x2="849.8" y2="218.3" stroke="#1f77b4" stroke-width="1.6340506643533153" stroke-linecap="round"/>
<line x1="234.5" y1="447.2" x2="337.1" y2="514.3" stroke="#1f77b4" stroke-width="3.2464247455086244" stroke-linecap="round"/>
<line x1="337.1" y1="388.0" x2="439.6" y2="455.1" stroke="#1f77b4" stroke-width="2.3669013321282293" stroke-linecap="round"/>
<line x1="439.6" y1="328.8" x2="542.1" y2="395.9" stroke="#1f77b4" stroke-width="1.4634279781546136" stroke-linecap="round"/>
<line x1="644.7" y1="210.4" x2="542.1" y2="395.9" stroke="#1f77b4" stroke-width="1.463300542529268" stroke-linecap="round"/>
<line x1="747.2" y1="151.2" x2="644.7" y2="336.7" stroke="#1f77b4" stroke-width="2.366775761713041" stroke-linecap="round"/>
<line x1="849.8" y1="92.0" x2="747.2" y2="277.5" stroke="#1f77b4" stroke-width="3.2463598189097804" stroke-linecap="round"/>
<line x1="227.7" y1="688.0" x2="132.0" y2="632.7" stroke="#1f77b4" stroke-width="1" stroke-linecap="round"/>
<line x1="330.2" y1="628.8" x2="234.5" y2="573.5" stroke="#1f77b4" stroke-width="1.0012893302444905" stroke-linecap="round"/>
<line x1="432.8" y1="569.6" x2="337.1" y2="514.3" stroke="#1f77b4" stroke-width="1.0011529073640903" stroke-linecap="round"/>
<line x1="535.3" y1="510.4" x2="439.6" y2="455.1" stroke="#1f77b4" stroke-width="1.0012191116088447" stroke-linecap="round"/>
<line x1="637.9" y1="451.2" x2="542.1" y2="395.9" stroke="#1f77b4" stroke-width="1.0012040528115267" stroke-linecap="round"/>
<line x1="740.4" y1="392.0" x2="644.7" y2="336.7" stroke="#1f77b4" stroke-width="1.0012289624314892" stroke-linecap="round"/>
<line x1="842.9" y1="332.8" x2="747.2" y2="277.5" stroke="#1f77b4" stroke-width="1.001119756679406" stroke-linecap="round"/>
<line x1="945.5" y1="273.6" x2="849.8" y2="218.3" stroke="#1f77b4" stroke-width="1.0015245388332934" stroke-linecap="round"/>
<line x1="1048.0" y1="214.4" x2="952.3" y2="159.1" stroke="#1f77b4" stroke-width="1" stroke-linecap="round"/>
<line x1="330.2" y1="502.5" x2="234.5" y2="447.2" stroke="#d62728" stroke-width="1.0015245153733512" stroke-linecap="round"/>
<line x1="432.8" y1="443.3" x2="337.1" y2="388.0" stroke="#d62728" stroke-width="1.0009922880920696" stroke-linecap="round"/>
<line x1="535.3" y1="384.1" x2="439.6" y2="328.8" stroke="#d62728" stroke-width="1.0012640843868712" stroke-linecap="round"/>
<line x1="637.9" y1="324.9" x2="542.1" y2="269.6" stroke="#d62728" stroke-width="1.0011781599853289" stroke-linecap="round"/>
<line x1="740.4" y1="265.7" x2="644.7" y2="210.4" stroke="#d62728" stroke-width="1.001292027245563" stroke-linecap="round"/>
<line x1="842.9" y1="206.5" x2="747.2" y2="151.2" stroke="#d62728" stroke-width="1.0008841802069932" stroke-linecap="round"/>
<line x1="945.5" y1="147.3" x2="849.8" y2="92.0" stroke="#d62728" stroke-width="1.0018722415140737" stroke-linecap="round"/>
<polygon points="218.7,700.6 236.7,700.6 227.7,688.0" fill="none" stroke="#333" stroke-width="1.6"/>
<line x1="216.0" y1="700.6" x2="239.4" y2="700.6" stroke="#333" stroke-width="1.6"/>
<polygon points="1039.0,224.3 1057.0,224.3 1048.0,214.4" fill="none" stroke="#333" stroke-width="1.4"/>
<circle cx="1043.5" cy="228.3" r="3" fill="none" stroke="#333"/>
<circle cx="1052.5" cy="228.3" r="3" fill="none" stroke="#333"/>
<polygon points="123.0,645.3 141.0,645.3 132.0,632.7" fill="none" stroke="#333" stroke-width="1.6"/>
<line x1="120.3" y1="645.3" x2="143.7" y2="645.3" stroke="#333" stroke-width="1.6"/>
<polygon points="943.3,169.0 961.3,169.0 952.3,159.1" fill="none" stroke="#333" stroke-width="1.4"/>
<circle cx="947.8" cy="173.0" r="3" fill="none" stroke="#333"/>
<circle cx="956.8" cy="173.0" r="3" fill="none" stroke="#333"/>
<text x="16.0" y="24.0" font-size="16" font-weight="bold" fill="#111">Pratt truss bridge (60 m, 8 panels) — axial force</text>
<text x="16.0" y="42.0" font-size="12" fill="#555">axial force · max |N| = 2.21 MN (red: compression, blue: tension, width ∝ |N|)</text>
<line x1="30.0" y1="734.0" x2="50.8" y2="722.0" stroke="#666" stroke-width="1.4"/>
<text x="52.8" y="725.0" font-size="10" fill="#666">X</text>
<line x1="30.0" y1="734.0" x2="9.2" y2="722.0" stroke="#666" stroke-width="1.4"/>
<text x="11.2" y="725.0" font-size="10" fill="#666">Y</text>
<line x1="30.0" y1="734.0" x2="30.0" y2="710.0" stroke="#666" stroke-width="1.4"/>
<text x="32.0" y="713.0" font-size="10" fill="#666">Z</text>
</svg>
