<svg xmlns="http://www.w3.org/2000/svg" viewBox="0 0 1180 760" font-family="Segoe UI, Arial, sans-serif">
<rect width="1180" height="760" fill="white"/>
<line x1="227.7" y1="688.0" x2="253.3" y2="673.2" stroke="rgb(115,205,90)" stroke-width="4" stroke-linecap="round"/>
<line x1="253.3" y1="673.2" x2="278.9" y2="658.4" stroke="rgb(75,183,111)" stroke-width="4" stroke-linecap="round"/>
<line x1="278.9" y1="658.4" x2="304.6" y2="643.6" stroke="rgb(51,162,127)" stroke-width="4" stroke-linecap="round"/>
<line x1="304.6" y1="643.6" x2="330.2" y2="628.8" stroke="rgb(46,156,131)" stroke-width="4" stroke-linecap="round"/>
<line x1="330.2" y1="628.8" x2="355.9" y2="614.0" stroke="rgb(35,147,138)" stroke-width="4" stroke-linecap="round"/>
<line x1="355.9" y1="614.0" x2="381.5" y2="599.2" stroke="rgb(36,137,140)" stroke-width="4" stroke-linecap="round"/>
<line x1="381.5" y1="599.2" x2="407.1" y2="584.4" stroke="rgb(34,146,139)" stroke-width="4" stroke-linecap="round"/>
<line x1="407.1" y1="584.4" x2="432.8" y2="569.6" stroke="rgb(49,159,129)" stroke-width="4" stroke-linecap="round"/>
<line x1="432.8" y1="569.6" x2="458.4" y2="554.8" stroke="rgb(73,182,112)" stroke-width="4" stroke-linecap="round"/>
<line x1="458.4" y1="554.8" x2="484.0" y2="540.0" stroke="rgb(91,198,100)" stroke-width="4" stroke-linecap="round"/>
<line x1="484.0" y1="540.0" x2="509.7" y2="525.2" stroke="rgb(105,203,94)" stroke-width="4" stroke-linecap="round"/>
<line x1="509.7" y1="525.2" x2="535.3" y2="510.4" stroke="rgb(105,203,94)" stroke-width="4" stroke-linecap="round"/>
<line x1="535.3" y1="510.4" x2="560.9" y2="495.6" stroke="rgb(140,210,80)" stroke-width="4" stroke-linecap="round"/>
<line x1="560.9" y1="495.6" x2="586.6" y2="480.8" stroke="rgb(187,219,62)" stroke-width="4" stroke-linecap="round"/>
<line x1="586.6" y1="480.8" x2="612.2" y2="466.0" stroke="rgb(193,220,60)" stroke-width="4" stroke-linecap="round"/>
<line x1="612.2" y1="466.0" x2="637.9" y2="451.2" stroke="rgb(161,214,72)" stroke-width="4" stroke-linecap="round"/>
<line x1="637.9" y1="451.2" x2="663.5" y2="436.4" stroke="rgb(161,214,72)" stroke-width="4" stroke-linecap="round"/>
<line x1="663.5" y1="436.4" x2="689.1" y2="421.6" stroke="rgb(193,220,60)" stroke-width="4" stroke-linecap="round"/>
<line x1="689.1" y1="421.6" x2="714.8" y2="406.8" stroke="rgb(187,219,62)" stroke-width="4" stroke-linecap="round"/>
<line x1="714.8" y1="406.8" x2="740.4" y2="392.0" stroke="rgb(140,210,80)" stroke-width="4" stroke-linecap="round"/>
<line x1="740.4" y1="392.0" x2="766.0" y2="377.2" stroke="rgb(105,203,94)" stroke-width="4" stroke-linecap="round"/>
<line x1="766.0" y1="377.2" x2="791.7" y2="362.4" stroke="rgb(105,203,94)" stroke-width="4" stroke-linecap="round"/>
<line x1="791.7" y1="362.4" x2="817.3" y2="347.6" stroke="rgb(91,198,100)" stroke-width="4" stroke-linecap="round"/>
<line x1="817.3" y1="347.6" x2="842.9" y2="332.8" stroke="rgb(73,182,112)" stroke-width="4" stroke-linecap="round"/>
<line x1="842.9" y1="332.8" x2="868.6" y2="318.0" stroke="rgb(49,159,129)" stroke-width="4" stroke-linecap="round"/>
<line x1="868.6" y1="318.0" x2="894.2" y2="303.2" stroke="rgb(34,146,139)" stroke-width="4" stroke-linecap="round"/>
<line x1="894.2" y1="303.2" x2="919.9" y2="288.4" stroke="rgb(36,137,140)" stroke-width="4" stroke-linecap="round"/>
<line x1="919.9" y1="288.4" x2="945.5" y2="273.6" stroke="rgb(35,147,138)" stroke-width="4" stroke-linecap="round"/>
<line x1="945.5" y1="273.6" x2="971.1" y2="258.8" stroke="rgb(46,157,131)" stroke-width="4" stroke-linecap="round"/>
<line x1="971.1" y1="258.8" x2="996.8" y2="244.0" stroke="rgb(51,162,127)" stroke-width="4" stroke-linecap="round"/>
<line x1="996.8" y1="244.0" x2="1022.4" y2="229.2" stroke="rgb(75,183,111)" stroke-width="4" stroke-linecap="round"/>
<line x1="1022.4" y1="229.2" x2="1048.0" y2="214.4" stroke="rgb(116,205,89)" stroke-width="4" stroke-linecap="round"/>
<line x1="330.2" y1="502.5" x2="355.9" y2="487.7" stroke="rgb(101,202,95)" stroke-width="4" stroke-linecap="round"/>
<line x1="355.9" y1="487.7" x2="381.5" y2="472.9" stroke="rgb(56,166,124)" stroke-width="4" stroke-linecap="round"/>
<line x1="381.5" y1="472.9" x2="407.1" y2="458.1" stroke="rgb(61,170,121)" stroke-width="4" stroke-linecap="round"/>
<line x1="407.1" y1="458.1" x2="432.8" y2="443.3" stroke="rgb(64,173,119)" stroke-width="4" stroke-linecap="round"/>
<line x1="432.8" y1="443.3" x2="458.4" y2="428.5" stroke="rgb(79,187,108)" stroke-width="4" stroke-linecap="round"/>
<line x1="458.4" y1="428.5" x2="484.0" y2="413.7" stroke="rgb(102,203,95)" stroke-width="4" stroke-linecap="round"/>
<line x1="484.0" y1="413.7" x2="509.7" y2="398.9" stroke="rgb(105,203,94)" stroke-width="4" stroke-linecap="round"/>
<line x1="509.7" y1="398.9" x2="535.3" y2="384.1" stroke="rgb(90,197,101)" stroke-width="4" stroke-linecap="round"/>
<line x1="535.3" y1="384.1" x2="560.9" y2="369.3" stroke="rgb(95,201,98)" stroke-width="4" stroke-linecap="round"/>
<line x1="560.9" y1="369.3" x2="586.6" y2="354.5" stroke="rgb(131,208,84)" stroke-width="4" stroke-linecap="round"/>
<line x1="586.6" y1="354.5" x2="612.2" y2="339.7" stroke="rgb(132,208,83)" stroke-width="4" stroke-linecap="round"/>
<line x1="612.2" y1="339.7" x2="637.9" y2="324.9" stroke="rgb(112,204,91)" stroke-width="4" stroke-linecap="round"/>
<line x1="637.9" y1="324.9" x2="663.5" y2="310.1" stroke="rgb(112,204,91)" stroke-width="4" stroke-linecap="round"/>
<line x1="663.5" y1="310.1" x2="689.1" y2="295.3" stroke="rgb(132,208,83)" stroke-width="4" stroke-linecap="round"/>
<line x1="689.1" y1="295.3" x2="714.8" y2="280.5" stroke="rgb(131,208,84)" stroke-width="4" stroke-linecap="round"/>
<line x1="714.8" y1="280.5" x2="740.4" y2="265.7" stroke="rgb(95,201,98)" stroke-width="4" stroke-linecap="round"/>
<line x1="740.4" y1="265.7" x2="766.0" y2="250.9" stroke="rgb(90,197,101)" stroke-width="4" stroke-linecap="round"/>
<line x1="766.0" y1="250.9" x2="791.7" y2="236.1" stroke="rgb(105,203,94)" stroke-width="4" stroke-linecap="round"/>
<line x1="791.7" y1="236.1" x2="817.3" y2="221.3" stroke="rgb(102,203,95)" stroke-width="4" stroke-linecap="round"/>
<line x1="817.3" y1="221.3" x2="842.9" y2="206.5" stroke="rgb(79,187,108)" stroke-width="4" stroke-linecap="round"/>
<line x1="842.9" y1="206.5" x2="868.6" y2="191.7" stroke="rgb(64,173,119)" stroke-width="4" stroke-linecap="round"/>
<line x1="868.6" y1="191.7" x2="894.2" y2="176.9" stroke="rgb(61,170,121)" stroke-width="4" stroke-linecap="round"/>
<line x1="894.2" y1="176.9" x2="919.9" y2="162.1" stroke="rgb(56,166,124)" stroke-width="4" stroke-linecap="round"/>
<line x1="919.9" y1="162.1" x2="945.5" y2="147.3" stroke="rgb(101,202,95)" stroke-width="4" stroke-linecap="round"/>
<line x1="227.7" y1="688.0" x2="253.3" y2="641.6" stroke="rgb(232,227,45)" stroke-width="4" stroke-linecap="round"/>
<line x1="253.3" y1="641.6" x2="278.9" y2="595.2" stroke="rgb(222,225,49)" stroke-width="4" stroke-linecap="round"/>
<line x1="278.9" y1="595.2" x2="304.6" y2="548.9" stroke="rgb(171,216,68)" stroke-width="4" stroke-linecap="round"/>
<line x1="304.6" y1="548.9" x2="330.2" y2="502.5" stroke="rgb(176,216,67)" stroke-width="4" stroke-linecap="round"/>
<line x1="1048.0" y1="214.4" x2="1022.4" y2="197.6" stroke="rgb(234,227,44)" stroke-width="4" stroke-linecap="round"/>
<line x1="1022.4" y1="197.6" x2="996.8" y2="180.8" stroke="rgb(224,225,48)" stroke-width="4" stroke-linecap="round"/>
<line x1="996.8" y1="180.8" x2="971.1" y2="164.0" stroke="rgb(171,216,68)" stroke-width="4" stroke-linecap="round"/>
<line x1="971.1" y1="164.0" x2="945.5" y2="147.3" stroke="rgb(176,217,66)" stroke-width="4" stroke-linecap="round"/>
<line x1="330.2" y1="502.5" x2="330.2" y2="534.1" stroke="rgb(49,160,129)" stroke-width="4" stroke-linecap="round"/>
<line x1="330.2" y1="534.1" x2="330.2" y2="565.6" stroke="rgb(61,61,125)" stroke-width="4" stroke-linecap="round"/>
<line x1="330.2" y1="565.6" x2="330.2" y2="597.2" stroke="rgb(62,59,123)" stroke-width="4" stroke-linecap="round"/>
<line x1="330.2" y1="597.2" x2="330.2" y2="628.8" stroke="rgb(41,127,140)" stroke-width="4" stroke-linecap="round"/>
<line x1="432.8" y1="443.3" x2="432.8" y2="474.9" stroke="rgb(35,140,140)" stroke-width="4" stroke-linecap="round"/>
<line x1="432.8" y1="474.9" x2="432.8" y2="506.4" stroke="rgb(54,95,139)" stroke-width="4" stroke-linecap="round"/>
<line x1="432.8" y1="506.4" x2="432.8" y2="538.0" stroke="rgb(54,94,139)" stroke-width="4" stroke-linecap="round"/>
<line x1="432.8" y1="538.0" x2="432.8" y2="569.6" stroke="rgb(37,149,137)" stroke-width="4" stroke-linecap="round"/>
<line x1="535.3" y1="384.1" x2="535.3" y2="415.7" stroke="rgb(42,124,140)" stroke-width="4" stroke-linecap="round"/>
<line x1="535.3" y1="415.7" x2="535.3" y2="447.2" stroke="rgb(64,39,110)" stroke-width="4" stroke-linecap="round"/>
<line x1="535.3" y1="447.2" x2="535.3" y2="478.8" stroke="rgb(64,40,111)" stroke-width="4" stroke-linecap="round"/>
<line x1="535.3" y1="478.8" x2="535.3" y2="510.4" stroke="rgb(34,144,140)" stroke-width="4" stroke-linecap="round"/>
<line x1="637.9" y1="324.9" x2="637.9" y2="356.5" stroke="rgb(45,116,140)" stroke-width="4" stroke-linecap="round"/>
<line x1="637.9" y1="356.5" x2="637.9" y2="388.0" stroke="rgb(67,6,87)" stroke-width="4" stroke-linecap="round"/>
<line x1="637.9" y1="388.0" x2="637.9" y2="419.6" stroke="rgb(67,6,88)" stroke-width="4" stroke-linecap="round"/>
<line x1="637.9" y1="419.6" x2="637.9" y2="451.2" stroke="rgb(38,134,140)" stroke-width="4" stroke-linecap="round"/>
<line x1="740.4" y1="265.7" x2="740.4" y2="297.2" stroke="rgb(42,124,140)" stroke-width="4" stroke-linecap="round"/>
<line x1="740.4" y1="297.2" x2="740.4" y2="328.8" stroke="rgb(64,39,110)" stroke-width="4" stroke-linecap="round"/>
<line x1="740.4" y1="328.8" x2="740.4" y2="360.4" stroke="rgb(64,40,111)" stroke-width="4" stroke-linecap="round"/>
<line x1="740.4" y1="360.4" x2="740.4" y2="392.0" stroke="rgb(34,144,140)" stroke-width="4" stroke-linecap="round"/>
<line x1="842.9" y1="206.5" x2="842.9" y2="238.0" stroke="rgb(35,140,140)" stroke-width="4" stroke-linecap="round"/>
<line x1="842.9" y1="238.0" x2="842.9" y2="269.6" stroke="rgb(54,95,139)" stroke-width="4" stroke-linecap="round"/>
<line x1="842.9" y1="269.6" x2="842.9" y2="301.2" stroke="rgb(54,94,139)" stroke-width="4" stroke-linecap="round"/>
<line x1="842.9" y1="301.2" x2="842.9" y2="332.8" stroke="rgb(37,149,137)" stroke-width="4" stroke-linecap="round"/>
<line x1="945.5" y1="147.3" x2="945.5" y2="178.8" stroke="rgb(50,160,129)" stroke-width="4" stroke-linecap="round"/>
<line x1="945.5" y1="178.8" x2="945.5" y2="210.4" stroke="rgb(61,61,125)" stroke-width="4" stroke-linecap="round"/>
<line x1="945.5" y1="210.4" x2="945.5" y2="242.0" stroke="rgb(62,59,123)" stroke-width="4" stroke-linecap="round"/>
<line x1="945.5" y1="242.0" x2="945.5" y2="273.6" stroke="rgb(41,127,140)" stroke-width="4" stroke-linecap="round"/>
<line x1="330.2" y1="502.5" x2="432.8" y2="569.6" stroke="rgb(133,208,83)" stroke-width="4" stroke-linecap="round"/>
<line x1="432.8" y1="443.3" x2="535.3" y2="510.4" stroke="rgb(90,197,101)" stroke-width="4" stroke-linecap="round"/>
<line x1="535.3" y1="384.1" x2="637.9" y2="451.2" stroke="rgb(124,207,87)" stroke-width="4" stroke-linecap="round"/>
<line x1="740.4" y1="265.7" x2="637.9" y2="451.2" stroke="rgb(124,207,87)" stroke-width="4" stroke-linecap="round"/>
<line x1="842.9" y1="206.5" x2="740.4" y2="392.0" stroke="rgb(90,197,101)" stroke-width="4" stroke-linecap="round"/>
<line x1="945.5" y1="147.3" x2="842.9" y2="332.8" stroke="rgb(134,208,83)" stroke-width="4" stroke-linecap="round"/>
<line x1="132.0" y1="632.7" x2="157.6" y2="617.9" stroke="rgb(116,205,90)" stroke-width="4" stroke-linecap="round"/>
<line x1="157.6" y1="617.9" x2="183.2" y2="603.1" stroke="rgb(75,183,111)" stroke-width="4" stroke-linecap="round"/>
<line x1="183.2" y1="603.1" x2="208.9" y2="588.3" stroke="rgb(51,162,127)" stroke-width="4" stroke-linecap="round"/>
<line x1="208.9" y1="588.3" x2="234.5" y2="573.5" stroke="rgb(46,156,131)" stroke-width="4" stroke-linecap="round"/>
<line x1="234.5" y1="573.5" x2="260.1" y2="558.7" stroke="rgb(35,147,138)" stroke-width="4" stroke-linecap="round"/>
<line x1="260.1" y1="558.7" x2="285.8" y2="543.9" stroke="rgb(36,137,140)" stroke-width="4" stroke-linecap="round"/>
<line x1="285.8" y1="543.9" x2="311.4" y2="529.1" stroke="rgb(34,146,139)" stroke-width="4" stroke-linecap="round"/>
<line x1="311.4" y1="529.1" x2="337.1" y2="514.3" stroke="rgb(49,159,129)" stroke-width="4" stroke-linecap="round"/>
<line x1="337.1" y1="514.3" x2="362.7" y2="499.5" stroke="rgb(73,182,112)" stroke-width="4" stroke-linecap="round"/>
<line x1="362.7" y1="499.5" x2="388.3" y2="484.7" stroke="rgb(91,198,100)" stroke-width="4" stroke-linecap="round"/>
<line x1="388.3" y1="484.7" x2="414.0" y2="469.9" stroke="rgb(105,203,94)" stroke-width="4" stroke-linecap="round"/>
<line x1="414.0" y1="469.9" x2="439.6" y2="455.1" stroke="rgb(105,203,94)" stroke-width="4" stroke-linecap="round"/>
<line x1="439.6" y1="455.1" x2="465.2" y2="440.3" stroke="rgb(140,210,80)" stroke-width="4" stroke-linecap="round"/>
<line x1="465.2" y1="440.3" x2="490.9" y2="425.5" stroke="rgb(187,219,62)" stroke-width="4" stroke-linecap="round"/>
<line x1="490.9" y1="425.5" x2="516.5" y2="410.7" stroke="rgb(193,220,60)" stroke-width="4" stroke-linecap="round"/>
<line x1="516.5" y1="410.7" x2="542.1" y2="395.9" stroke="rgb(161,214,72)" stroke-width="4" stroke-linecap="round"/>
<line x1="542.1" y1="395.9" x2="567.8" y2="381.1" stroke="rgb(161,214,72)" stroke-width="4" stroke-linecap="round"/>
<line x1="567.8" y1="381.1" x2="593.4" y2="366.3" stroke="rgb(193,220,60)" stroke-width="4" stroke-linecap="round"/>
<line x1="593.4" y1="366.3" x2="619.1" y2="351.5" stroke="rgb(187,219,62)" stroke-width="4" stroke-linecap="round"/>
<line x1="619.1" y1="351.5" x2="644.7" y2="336.7" stroke="rgb(140,210,80)" stroke-width="4" stroke-linecap="round"/>
<line x1="644.7" y1="336.7" x2="670.3" y2="321.9" stroke="rgb(105,203,94)" stroke-width="4" stroke-linecap="round"/>
<line x1="670.3" y1="321.9" x2="696.0" y2="307.1" stroke="rgb(105,203,94)" stroke-width="4" stroke-linecap="round"/>
<line x1="696.0" y1="307.1" x2="721.6" y2="292.3" stroke="rgb(91,198,100)" stroke-width="4" stroke-linecap="round"/>
<line x1="721.6" y1="292.3" x2="747.2" y2="277.5" stroke="rgb(73,182,112)" stroke-width="4" stroke-linecap="round"/>
<line x1="747.2" y1="277.5" x2="772.9" y2="262.7" stroke="rgb(49,159,129)" stroke-width="4" stroke-linecap="round"/>
<line x1="772.9" y1="262.7" x2="798.5" y2="247.9" stroke="rgb(34,146,139)" stroke-width="4" stroke-linecap="round"/>
<line x1="798.5" y1="247.9" x2="824.1" y2="233.1" stroke="rgb(36,137,140)" stroke-width="4" stroke-linecap="round"/>
<line x1="824.1" y1="233.1" x2="849.8" y2="218.3" stroke="rgb(35,147,138)" stroke-width="4" stroke-linecap="round"/>
<line x1="849.8" y1="218.3" x2="875.4" y2="203.5" stroke="rgb(46,157,131)" stroke-width="4" stroke-linecap="round"/>
<line x1="875.4" y1="203.5" x2="901.1" y2="188.7" stroke="rgb(51,162,127)" stroke-width="4" stroke-linecap="round"/>
<line x1="901.1" y1="188.7" x2="926.7" y2="173.9" stroke="rgb(75,183,111)" stroke-width="4" stroke-linecap="round"/>
<line x1="926.7" y1="173.9" x2="952.3" y2="159.1" stroke="rgb(116,205,89)" stroke-width="4" stroke-linecap="round"/>
<line x1="234.5" y1="447.2" x2="260.1" y2="432.4" stroke="rgb(101,202,95)" stroke-width="4" stroke-linecap="round"/>
<line x1="260.1" y1="432.4" x2="285.8" y2="417.6" stroke="rgb(56,166,124)" stroke-width="4" stroke-linecap="round"/>
<line x1="285.8" y1="417.6" x2="311.4" y2="402.8" stroke="rgb(61,170,121)" stroke-width="4" stroke-linecap="round"/>
<line x1="311.4" y1="402.8" x2="337.1" y2="388.0" stroke="rgb(64,173,119)" stroke-width="4" stroke-linecap="round"/>
<line x1="337.1" y1="388.0" x2="362.7" y2="373.2" stroke="rgb(79,187,108)" stroke-width="4" stroke-linecap="round"/>
<line x1="362.7" y1="373.2" x2="388.3" y2="358.4" stroke="rgb(102,203,95)" stroke-width="4" stroke-linecap="round"/>
<line x1="388.3" y1="358.4" x2="414.0" y2="343.6" stroke="rgb(105,203,94)" stroke-width="4" stroke-linecap="round"/>
<line x1="414.0" y1="343.6" x2="439.6" y2="328.8" stroke="rgb(90,197,101)" stroke-width="4" stroke-linecap="round"/>
<line x1="439.6" y1="328.8" x2="465.2" y2="314.0" stroke="rgb(95,201,98)" stroke-width="4" stroke-linecap="round"/>
<line x1="465.2" y1="314.0" x2="490.9" y2="299.2" stroke="rgb(131,208,84)" stroke-width="4" stroke-linecap="round"/>
<line x1="490.9" y1="299.2" x2="516.5" y2="284.4" stroke="rgb(132,208,83)" stroke-width="4" stroke-linecap="round"/>
<line x1="516.5" y1="284.4" x2="542.1" y2="269.6" stroke="rgb(112,204,91)" stroke-width="4" stroke-linecap="round"/>
<line x1="542.1" y1="269.6" x2="567.8" y2="254.8" stroke="rgb(112,204,91)" stroke-width="4" stroke-linecap="round"/>
<line x1="567.8" y1="254.8" x2="593.4" y2="240.0" stroke="rgb(132,208,83)" stroke-width="4" stroke-linecap="round"/>
<line x1="593.4" y1="240.0" x2="619.1" y2="225.2" stroke="rgb(131,208,84)" stroke-width="4" stroke-linecap="round"/>
<line x1="619.1" y1="225.2" x2="644.7" y2="210.4" stroke="rgb(95,201,98)" stroke-width="4" stroke-linecap="round"/>
<line x1="644.7" y1="210.4" x2="670.3" y2="195.6" stroke="rgb(90,197,101)" stroke-width="4" stroke-linecap="round"/>
<line x1="670.3" y1="195.6" x2="696.0" y2="180.8" stroke="rgb(105,203,94)" stroke-width="4" stroke-linecap="round"/>
<line x1="696.0" y1="180.8" x2="721.6" y2="166.0" stroke="rgb(102,203,95)" stroke-width="4" stroke-linecap="round"/>
<line x1="721.6" y1="166.0" x2="747.2" y2="151.2" stroke="rgb(79,187,108)" stroke-width="4" stroke-linecap="round"/>
<line x1="747.2" y1="151.2" x2="772.9" y2="136.4" stroke="rgb(64,173,119)" stroke-width="4" stroke-linecap="round"/>
<line x1="772.9" y1="136.4" x2="798.5" y2="121.6" stroke="rgb(61,170,121)" stroke-width="4" stroke-linecap="round"/>
<line x1="798.5" y1="121.6" x2="824.1" y2="106.8" stroke="rgb(56,166,124)" stroke-width="4" stroke-linecap="round"/>
<line x1="824.1" y1="106.8" x2="849.8" y2="92.0" stroke="rgb(101,202,95)" stroke-width="4" stroke-linecap="round"/>
<line x1="132.0" y1="632.7" x2="157.6" y2="586.4" stroke="rgb(233,227,45)" stroke-width="4" stroke-linecap="round"/>
<line x1="157.6" y1="586.4" x2="183.2" y2="540.0" stroke="rgb(223,225,49)" stroke-width="4" stroke-linecap="round"/>
<line x1="183.2" y1="540.0" x2="208.9" y2="493.6" stroke="rgb(170,215,69)" stroke-width="4" stroke-linecap="round"/>
<line x1="208.9" y1="493.6" x2="234.5" y2="447.2" stroke="rgb(176,216,67)" stroke-width="4" stroke-linecap="round"/>
<line x1="952.3" y1="159.1" x2="926.7" y2="142.3" stroke="rgb(234,227,44)" stroke-width="4" stroke-linecap="round"/>
<line x1="926.7" y1="142.3" x2="901.1" y2="125.5" stroke="rgb(224,225,48)" stroke-width="4" stroke-linecap="round"/>
<line x1="901.1" y1="125.5" x2="875.4" y2="108.8" stroke="rgb(171,216,69)" stroke-width="4" stroke-linecap="round"/>
<line x1="875.4" y1="108.8" x2="849.8" y2="92.0" stroke="rgb(176,217,66)" stroke-width="4" stroke-linecap="round"/>
<line x1="234.5" y1="447.2" x2="234.5" y2="478.8" stroke="rgb(49,160,129)" stroke-width="4" stroke-linecap="round"/>
<line x1="234.5" y1="478.8" x2="234.5" y2="510.4" stroke="rgb(61,61,125)" stroke-width="4" stroke-linecap="round"/>
<line x1="234.5" y1="510.4" x2="234.5" y2="542.0" stroke="rgb(62,58,123)" stroke-width="4" stroke-linecap="round"/>
<line x1="234.5" y1="542.0" x2="234.5" y2="573.5" stroke="rgb(41,127,140)" stroke-width="4" stroke-linecap="round"/>
<line x1="337.1" y1="388.0" x2="337.1" y2="419.6" stroke="rgb(35,140,140)" stroke-width="4" stroke-linecap="round"/>
<line x1="337.1" y1="419.6" x2="337.1" y2="451.2" stroke="rgb(54,95,139)" stroke-width="4" stroke-linecap="round"/>
<line x1="337.1" y1="451.2" x2="337.1" y2="482.8" stroke="rgb(54,94,139)" stroke-width="4" stroke-linecap="round"/>
<line x1="337.1" y1="482.8" x2="337.1" y2="514.3" stroke="rgb(37,149,137)" stroke-width="4" stroke-linecap="round"/>
<line x1="439.6" y1="328.8" x2="439.6" y2="360.4" stroke="rgb(42,124,140)" stroke-width="4" stroke-linecap="round"/>
<line x1="439.6" y1="360.4" x2="439.6" y2="392.0" stroke="rgb(64,39,110)" stroke-width="4" stroke-linecap="round"/>
<line x1="439.6" y1="392.0" x2="439.6" y2="423.5" stroke="rgb(64,40,111)" stroke-width="4" stroke-linecap="round"/>
<line x1="439.6" y1="423.5" x2="439.6" y2="455.1" stroke="rgb(34,144,140)" stroke-width="4" stroke-linecap="round"/>
<line x1="542.1" y1="269.6" x2="542.1" y2="301.2" stroke="rgb(45,116,140)" stroke-width="4" stroke-linecap="round"/>
<line x1="542.1" y1="301.2" x2="542.1" y2="332.8" stroke="rgb(67,6,87)" stroke-width="4" stroke-linecap="round"/>
<line x1="542.1" y1="332.8" x2="542.1" y2="364.3" stroke="rgb(67,6,88)" stroke-width="4" stroke-linecap="round"/>
<line x1="542.1" y1="364.3" x2="542.1" y2="395.9" stroke="rgb(38,134,140)" stroke-width="4" stroke-linecap="round"/>
<line x1="644.7" y1="210.4" x2="644.7" y2="242.0" stroke="rgb(42,124,140)" stroke-width="4" stroke-linecap="round"/>
<line x1="644.7" y1="242.0" x2="644.7" y2="273.6" stroke="rgb(64,39,110)" stroke-width="4" stroke-linecap="round"/>
<line x1="644.7" y1="273.6" x2="644.7" y2="305.1" stroke="rgb(64,40,111)" stroke-width="4" stroke-linecap="round"/>
<line x1="644.7" y1="305.1" x2="644.7" y2="336.7" stroke="rgb(34,144,140)" stroke-width="4" stroke-linecap="round"/>
<line x1="747.2" y1="151.2" x2="747.2" y2="182.8" stroke="rgb(35,140,140)" stroke-width="4" stroke-linecap="round"/>
<line x1="747.2" y1="182.8" x2="747.2" y2="214.4" stroke="rgb(54,95,139)" stroke-width="4" stroke-linecap="round"/>
<line x1="747.2" y1="214.4" x2="747.2" y2="245.9" stroke="rgb(54,94,139)" stroke-width="4" stroke-linecap="round"/>
<line x1="747.2" y1="245.9" x2="747.2" y2="277.5" stroke="rgb(37,149,137)" stroke-width="4" stroke-linecap="round"/>
<line x1="849.8" y1="92.0" x2="849.8" y2="123.6" stroke="rgb(50,160,129)" stroke-width="4" stroke-linecap="round"/>
<line x1="849.8" y1="123.6" x2="849.8" y2="155.2" stroke="rgb(61,61,125)" stroke-width="4" stroke-linecap="round"/>
<line x1="849.8" y1="155.2" x2="849.8" y2="186.7" stroke="rgb(62,59,123)" stroke-width="4" stroke-linecap="round"/>
<line x1="849.8" y1="186.7" x2="849.8" y2="218.3" stroke="rgb(41,127,140)" stroke-width="4" stroke-linecap="round"/>
<line x1="234.5" y1="447.2" x2="337.1" y2="514.3" stroke="rgb(133,208,83)" stroke-width="4" stroke-linecap="round"/>
<line x1="337.1" y1="388.0" x2="439.6" y2="455.1" stroke="rgb(90,197,101)" stroke-width="4" stroke-linecap="round"/>
<line x1="439.6" y1="328.8" x2="542.1" y2="395.9" stroke="rgb(124,207,87)" stroke-width="4" stroke-linecap="round"/>
<line x1="644.7" y1="210.4" x2="542.1" y2="395.9" stroke="rgb(124,207,87)" stroke-width="4" stroke-linecap="round"/>
<line x1="747.2" y1="151.2" x2="644.7" y2="336.7" stroke="rgb(90,197,101)" stroke-width="4" stroke-linecap="round"/>
<line x1="849.8" y1="92.0" x2="747.2" y2="277.5" stroke="rgb(134,208,83)" stroke-width="4" stroke-linecap="round"/>
<line x1="227.7" y1="688.0" x2="203.7" y2="674.2" stroke="rgb(36,138,140)" stroke-width="4" stroke-linecap="round"/>
<line x1="203.7" y1="674.2" x2="179.8" y2="660.4" stroke="rgb(68,5,87)" stroke-width="4" stroke-linecap="round"/>
<line x1="179.8" y1="660.4" x2="155.9" y2="646.6" stroke="rgb(67,8,89)" stroke-width="4" stroke-linecap="round"/>
<line x1="155.9" y1="646.6" x2="132.0" y2="632.7" stroke="rgb(35,140,140)" stroke-width="4" stroke-linecap="round"/>
<line x1="330.2" y1="628.8" x2="306.3" y2="615.0" stroke="rgb(49,105,139)" stroke-width="4" stroke-linecap="round"/>
<line x1="306.3" y1="615.0" x2="282.4" y2="601.2" stroke="rgb(67,8,89)" stroke-width="4" stroke-linecap="round"/>
<line x1="282.4" y1="601.2" x2="258.4" y2="587.4" stroke="rgb(67,9,89)" stroke-width="4" stroke-linecap="round"/>
<line x1="258.4" y1="587.4" x2="234.5" y2="573.5" stroke="rgb(49,105,139)" stroke-width="4" stroke-linecap="round"/>
<line x1="432.8" y1="569.6" x2="408.8" y2="555.8" stroke="rgb(48,109,139)" stroke-width="4" stroke-linecap="round"/>
<line x1="408.8" y1="555.8" x2="384.9" y2="542.0" stroke="rgb(67,7,88)" stroke-width="4" stroke-linecap="round"/>
<line x1="384.9" y1="542.0" x2="361.0" y2="528.1" stroke="rgb(67,7,88)" stroke-width="4" stroke-linecap="round"/>
<line x1="361.0" y1="528.1" x2="337.1" y2="514.3" stroke="rgb(48,109,139)" stroke-width="4" stroke-linecap="round"/>
<line x1="535.3" y1="510.4" x2="511.4" y2="496.6" stroke="rgb(40,128,140)" stroke-width="4" stroke-linecap="round"/>
<line x1="511.4" y1="496.6" x2="487.5" y2="482.8" stroke="rgb(67,7,88)" stroke-width="4" stroke-linecap="round"/>
<line x1="487.5" y1="482.8" x2="463.5" y2="468.9" stroke="rgb(67,7,88)" stroke-width="4" stroke-linecap="round"/>
<line x1="463.5" y1="468.9" x2="439.6" y2="455.1" stroke="rgb(40,128,140)" stroke-width="4" stroke-linecap="round"/>
<line x1="637.9" y1="451.2" x2="613.9" y2="437.4" stroke="rgb(38,134,140)" stroke-width="4" stroke-linecap="round"/>
<line x1="613.9" y1="437.4" x2="590.0" y2="423.5" stroke="rgb(67,7,88)" stroke-width="4" stroke-linecap="round"/>
<line x1="590.0" y1="423.5" x2="566.1" y2="409.7" stroke="rgb(67,7,88)" stroke-width="4" stroke-linecap="round"/>
<line x1="566.1" y1="409.7" x2="542.1" y2="395.9" stroke="rgb(38,134,140)" stroke-width="4" stroke-linecap="round"/>
<line x1="740.4" y1="392.0" x2="716.5" y2="378.2" stroke="rgb(40,128,140)" stroke-width="4" stroke-linecap="round"/>
<line x1="716.5" y1="378.2" x2="692.5" y2="364.3" stroke="rgb(67,7,88)" stroke-width="4" stroke-linecap="round"/>
<line x1="692.5" y1="364.3" x2="668.6" y2="350.5" stroke="rgb(67,7,88)" stroke-width="4" stroke-linecap="round"/>
<line x1="668.6" y1="350.5" x2="644.7" y2="336.7" stroke="rgb(40,128,140)" stroke-width="4" stroke-linecap="round"/>
<line x1="842.9" y1="332.8" x2="819.0" y2="319.0" stroke="rgb(48,109,139)" stroke-width="4" stroke-linecap="round"/>
<line x1="819.0" y1="319.0" x2="795.1" y2="305.1" stroke="rgb(67,8,88)" stroke-width="4" stroke-linecap="round"/>
<line x1="795.1" y1="305.1" x2="771.2" y2="291.3" stroke="rgb(67,8,88)" stroke-width="4" stroke-linecap="round"/>
<line x1="771.2" y1="291.3" x2="747.2" y2="277.5" stroke="rgb(48,109,139)" stroke-width="4" stroke-linecap="round"/>
<line x1="945.5" y1="273.6" x2="921.6" y2="259.7" stroke="rgb(49,106,139)" stroke-width="4" stroke-linecap="round"/>
<line x1="921.6" y1="259.7" x2="897.6" y2="245.9" stroke="rgb(67,9,90)" stroke-width="4" stroke-linecap="round"/>
<line x1="897.6" y1="245.9" x2="873.7" y2="232.1" stroke="rgb(67,9,90)" stroke-width="4" stroke-linecap="round"/>
<line x1="873.7" y1="232.1" x2="849.8" y2="218.3" stroke="rgb(49,106,139)" stroke-width="4" stroke-linecap="round"/>
<line x1="1048.0" y1="214.4" x2="1024.1" y2="200.5" stroke="rgb(35,141,140)" stroke-width="4" stroke-linecap="round"/>
<line x1="1024.1" y1="200.5" x2="1000.2" y2="186.7" stroke="rgb(67,10,90)" stroke-width="4" stroke-linecap="round"/>
<line x1="1000.2" y1="186.7" x2="976.3" y2="172.9" stroke="rgb(67,10,90)" stroke-width="4" stroke-linecap="round"/>
<line x1="976.3" y1="172.9" x2="952.3" y2="159.1" stroke="rgb(35,141,140)" stroke-width="4" stroke-linecap="round"/>
<line x1="330.2" y1="502.5" x2="306.3" y2="488.7" stroke="rgb(36,137,140)" stroke-width="4" stroke-linecap="round"/>
<line x1="306.3" y1="488.7" x2="282.4" y2="474.9" stroke="rgb(67,7,88)" stroke-width="4" stroke-linecap="round"/>
<line x1="282.4" y1="474.9" x2="258.4" y2="461.0" stroke="rgb(67,7,88)" stroke-width="4" stroke-linecap="round"/>
<line x1="258.4" y1="461.0" x2="234.5" y2="447.2" stroke="rgb(36,137,140)" stroke-width="4" stroke-linecap="round"/>
<line x1="432.8" y1="443.3" x2="408.8" y2="429.5" stroke="rgb(52,99,139)" stroke-width="4" stroke-linecap="round"/>
<line x1="408.8" y1="429.5" x2="384.9" y2="415.7" stroke="rgb(67,7,88)" stroke-width="4" stroke-linecap="round"/>
<line x1="384.9" y1="415.7" x2="361.0" y2="401.8" stroke="rgb(67,7,88)" stroke-width="4" stroke-linecap="round"/>
<line x1="361.0" y1="401.8" x2="337.1" y2="388.0" stroke="rgb(52,99,139)" stroke-width="4" stroke-linecap="round"/>
<line x1="535.3" y1="384.1" x2="511.4" y2="370.3" stroke="rgb(48,109,139)" stroke-width="4" stroke-linecap="round"/>
<line x1="511.4" y1="370.3" x2="487.5" y2="356.5" stroke="rgb(67,8,89)" stroke-width="4" stroke-linecap="round"/>
<line x1="487.5" y1="356.5" x2="463.5" y2="342.6" stroke="rgb(67,8,89)" stroke-width="4" stroke-linecap="round"/>
<line x1="463.5" y1="342.6" x2="439.6" y2="328.8" stroke="rgb(48,109,139)" stroke-width="4" stroke-linecap="round"/>
<line x1="637.9" y1="324.9" x2="613.9" y2="311.1" stroke="rgb(45,117,140)" stroke-width="4" stroke-linecap="round"/>
<line x1="613.9" y1="311.1" x2="590.0" y2="297.2" stroke="rgb(67,10,90)" stroke-width="4" stroke-linecap="round"/>
<line x1="590.0" y1="297.2" x2="566.1" y2="283.4" stroke="rgb(67,10,90)" stroke-width="4" stroke-linecap="round"/>
<line x1="566.1" y1="283.4" x2="542.1" y2="269.6" stroke="rgb(45,117,140)" stroke-width="4" stroke-linecap="round"/>
<line x1="740.4" y1="265.7" x2="716.5" y2="251.9" stroke="rgb(48,109,139)" stroke-width="4" stroke-linecap="round"/>
<line x1="716.5" y1="251.9" x2="692.5" y2="238.0" stroke="rgb(67,8,89)" stroke-width="4" stroke-linecap="round"/>
<line x1="692.5" y1="238.0" x2="668.6" y2="224.2" stroke="rgb(67,8,89)" stroke-width="4" stroke-linecap="round"/>
<line x1="668.6" y1="224.2" x2="644.7" y2="210.4" stroke="rgb(48,109,139)" stroke-width="4" stroke-linecap="round"/>
<line x1="842.9" y1="206.5" x2="819.0" y2="192.6" stroke="rgb(52,99,139)" stroke-width="4" stroke-linecap="round"/>
<line x1="819.0" y1="192.6" x2="795.1" y2="178.8" stroke="rgb(67,7,88)" stroke-width="4" stroke-linecap="round"/>
<line x1="795.1" y1="178.8" x2="771.2" y2="165.0" stroke="rgb(67,7,88)" stroke-width="4" stroke-linecap="round"/>
<line x1="771.2" y1="165.0" x2="747.2" y2="151.2" stroke="rgb(52,99,139)" stroke-width="4" stroke-linecap="round"/>
<line x1="945.5" y1="147.3" x2="921.6" y2="133.4" stroke="rgb(36,137,140)" stroke-width="4" stroke-linecap="round"/>
<line x1="921.6" y1="133.4" x2="897.6" y2="119.6" stroke="rgb(67,7,88)" stroke-width="4" stroke-linecap="round"/>
<line x1="897.6" y1="119.6" x2="873.7" y2="105.8" stroke="rgb(67,7,88)" stroke-width="4" stroke-linecap="round"/>
<line x1="873.7" y1="105.8" x2="849.8" y2="92.0" stroke="rgb(36,137,140)" stroke-width="4" stroke-linecap="round"/>
<polygon points="218.7,700.6 236.7,700.6 227.7,688.0" fill="none" stroke="#333" stroke-width="1.6"/>
<line x1="216.0" y1="700.6" x2="239.4" y2="700.6" stroke="#333" stroke-width="1.6"/>
<polygon points="1039.0,224.3 1057.0,224.3 1048.0,214.4" fill="none" stroke="#333" stroke-width="1.4"/>
<circle cx="1043.5" cy="228.3" r="3" fill="none" stroke="#333"/>
<circle cx="1052.5" cy="228.3" r="3" fill="none" stroke="#333"/>
<polygon points="123.0,645.3 141.0,645.3 132.0,632.7" fill="none" stroke="#333" stroke-width="1.6"/>
<line x1="120.3" y1="645.3" x2="143.7" y2="645.3" stroke="#333" stroke-width="1.6"/>
<polygon points="943.3,169.0 961.3,169.0 952.3,159.1" fill="none" stroke="#333" stroke-width="1.4"/>
<circle cx="947.8" cy="173.0" r="3" fill="none" stroke="#333"/>
<circle cx="956.8" cy="173.0" r="3" fill="none" stroke="#333"/>
<text x="16.0" y="24.0" font-size="16" font-weight="bold" fill="#111">Pratt truss bridge (60 m, 8 panels) — CalculiX equivalent strain (.frd field)</text>
<text x="16.0" y="42.0" font-size="12" fill="#555">max 4.03e-4</text>
<rect x="970" y="714" width="4.45" height="12" fill="rgb(68,1,84)"/>
<rect x="973.75" y="714" width="4.45" height="12" fill="rgb(67,9,90)"/>
<rect x="977.5" y="714" width="4.45" height="12" fill="rgb(66,18,95)"/>
<rect x="981.25" y="714" width="4.45" height="12" fill="rgb(65,26,101)"/>
<rect x="985" y="714" width="4.45" height="12" fill="rgb(64,34,107)"/>
<rect x="988.75" y="714" width="4.45" height="12" fill="rgb(63,43,112)"/>
<rect x="992.5" y="714" width="4.45" height="12" fill="rgb(62,51,118)"/>
<rect x="996.25" y="714" width="4.45" height="12" fill="rgb(62,59,123)"/>
<rect x="1000" y="714" width="4.45" height="12" fill="rgb(61,67,129)"/>
<rect x="1003.75" y="714" width="4.45" height="12" fill="rgb(60,76,135)"/>
<rect x="1007.5" y="714" width="4.45" height="12" fill="rgb(58,84,139)"/>
<rect x="1011.25" y="714" width="4.45" height="12" fill="rgb(56,90,139)"/>
<rect x="1015" y="714" width="4.45" height="12" fill="rgb(53,97,139)"/>
<rect x="1018.75" y="714" width="4.45" height="12" fill="rgb(50,103,139)"/>
<rect x="1022.5" y="714" width="4.45" height="12" fill="rgb(48,109,139)"/>
<rect x="1026.25" y="714" width="4.45" height="12" fill="rgb(45,116,140)"/>
<rect x="1030" y="714" width="4.45" height="12" fill="rgb(42,122,140)"/>
<rect x="1033.75" y="714" width="4.45" height="12" fill="rgb(40,129,140)"/>
<rect x="1037.5" y="714" width="4.45" height="12" fill="rgb(37,135,140)"/>
<rect x="1041.25" y="714" width="4.45" height="12" fill="rgb(34,142,140)"/>
<rect x="1045" y="714" width="4.45" height="12" fill="rgb(36,148,138)"/>
<rect x="1048.75" y="714" width="4.45" height="12" fill="rgb(42,154,134)"/>
<rect x="1052.5" y="714" width="4.45" height="12" fill="rgb(49,159,129)"/>
<rect x="1056.25" y="714" width="4.45" height="12" fill="rgb(55,165,125)"/>
<rect x="1060" y="714" width="4.45" height="12" fill="rgb(61,171,121)"/>
<rect x="1063.75" y="714" width="4.45" height="12" fill="rgb(67,177,116)"/>
<rect x="1067.5" y="714" width="4.45" height="12" fill="rgb(74,182,112)"/>
<rect x="1071.25" y="714" width="4.45" height="12" fill="rgb(80,188,108)"/>
<rect x="1075" y="714" width="4.45" height="12" fill="rgb(86,194,103)"/>
<rect x="1078.75" y="714" width="4.45" height="12" fill="rgb(92,200,99)"/>
<rect x="1082.5" y="714" width="4.45" height="12" fill="rgb(106,203,93)"/>
<rect x="1086.25" y="714" width="4.45" height="12" fill="rgb(123,206,87)"/>
<rect x="1090" y="714" width="4.45" height="12" fill="rgb(139,209,81)"/>
<rect x="1093.75" y="714" width="4.45" height="12" fill="rgb(155,213,75)"/>
<rect x="1097.5" y="714" width="4.45" height="12" fill="rgb(171,216,68)"/>
<rect x="1101.25" y="714" width="4.45" height="12" fill="rgb(188,219,62)"/>
<rect x="1105" y="714" width="4.45" height="12" fill="rgb(204,222,56)"/>
<rect x="1108.75" y="714" width="4.45" height="12" fill="rgb(220,225,50)"/>
<rect x="1112.5" y="714" width="4.45" height="12" fill="rgb(237,228,43)"/>
<rect x="1116.25" y="714" width="4.45" height="12" fill="rgb(253,231,37)"/>
<text x="970.0" y="708.0" font-size="11" fill="#333"></text>
<text x="970.0" y="739.0" font-size="10" fill="#333">0.00e+0 ε</text>
<text x="1086.0" y="739.0" font-size="10" fill="#333">4.03e-4 ε</text>
<line x1="30.0" y1="734.0" x2="50.8" y2="722.0" stroke="#666" stroke-width="1.4"/>
<text x="52.8" y="725.0" font-size="10" fill="#666">X</text>
<line x1="30.0" y1="734.0" x2="9.2" y2="722.0" stroke="#666" stroke-width="1.4"/>
<text x="11.2" y="725.0" font-size="10" fill="#666">Y</text>
<line x1="30.0" y1="734.0" x2="30.0" y2="710.0" stroke="#666" stroke-width="1.4"/>
<text x="32.0" y="713.0" font-size="10" fill="#666">Z</text>
</svg>
