<svg xmlns="http://www.w3.org/2000/svg" viewBox="0 0 1180 760" font-family="Segoe UI, Arial, sans-serif">
<rect width="1180" height="760" fill="white"/>
<line x1="227.7" y1="688.0" x2="330.2" y2="628.8" stroke="#ccc" stroke-width="1.2" stroke-linecap="round"/>
<line x1="330.2" y1="628.8" x2="432.8" y2="569.6" stroke="#ccc" stroke-width="1.2" stroke-linecap="round"/>
<line x1="432.8" y1="569.6" x2="535.3" y2="510.4" stroke="#ccc" stroke-width="1.2" stroke-linecap="round"/>
<line x1="535.3" y1="510.4" x2="637.9" y2="451.2" stroke="#ccc" stroke-width="1.2" stroke-linecap="round"/>
<line x1="637.9" y1="451.2" x2="740.4" y2="392.0" stroke="#ccc" stroke-width="1.2" stroke-linecap="round"/>
<line x1="740.4" y1="392.0" x2="842.9" y2="332.8" stroke="#ccc" stroke-width="1.2" stroke-linecap="round"/>
<line x1="842.9" y1="332.8" x2="945.5" y2="273.6" stroke="#ccc" stroke-width="1.2" stroke-linecap="round"/>
<line x1="945.5" y1="273.6" x2="1048.0" y2="214.4" stroke="#ccc" stroke-width="1.2" stroke-linecap="round"/>
<line x1="330.2" y1="502.5" x2="432.8" y2="443.3" stroke="#ccc" stroke-width="1.2" stroke-linecap="round"/>
<line x1="432.8" y1="443.3" x2="535.3" y2="384.1" stroke="#ccc" stroke-width="1.2" stroke-linecap="round"/>
<line x1="535.3" y1="384.1" x2="637.9" y2="324.9" stroke="#ccc" stroke-width="1.2" stroke-linecap="round"/>
<line x1="637.9" y1="324.9" x2="740.4" y2="265.7" stroke="#ccc" stroke-width="1.2" stroke-linecap="round"/>
<line x1="740.4" y1="265.7" x2="842.9" y2="206.5" stroke="#ccc" stroke-width="1.2" stroke-linecap="round"/>
<line x1="842.9" y1="206.5" x2="945.5" y2="147.3" stroke="#ccc" stroke-width="1.2" stroke-linecap="round"/>
<line x1="227.7" y1="688.0" x2="330.2" y2="502.5" stroke="#ccc" stroke-width="1.2" stroke-linecap="round"/>
<line x1="1048.0" y1="214.4" x2="945.5" y2="147.3" stroke="#ccc" stroke-width="1.2" stroke-linecap="round"/>
<line x1="330.2" y1="502.5" x2="330.2" y2="628.8" stroke="#ccc" stroke-width="1.2" stroke-linecap="round"/>
<line x1="432.8" y1="443.3" x2="432.8" y2="569.6" stroke="#ccc" stroke-width="1.2" stroke-linecap="round"/>
<line x1="535.3" y1="384.1" x2="535.3" y2="510.4" stroke="#ccc" stroke-width="1.2" stroke-linecap="round"/>
<line x1="637.9" y1="324.9" x2="637.9" y2="451.2" stroke="#ccc" stroke-width="1.2" stroke-linecap="round"/>
<line x1="740.4" y1="265.7" x2="740.4" y2="392.0" stroke="#ccc" stroke-width="1.2" stroke-linecap="round"/>
<line x1="842.9" y1="206.5" x2="842.9" y2="332.8" stroke="#ccc" stroke-width="1.2" stroke-linecap="round"/>
<line x1="945.5" y1="147.3" x2="945.5" y2="273.6" stroke="#ccc" stroke-width="1.2" stroke-linecap="round"/>
<line x1="330.2" y1="502.5" x2="432.8" y2="569.6" stroke="#ccc" stroke-width="1.2" stroke-linecap="round"/>
<line x1="432.8" y1="443.3" x2="535.3" y2="510.4" stroke="#ccc" stroke-width="1.2" stroke-linecap="round"/>
<line x1="535.3" y1="384.1" x2="637.9" y2="451.2" stroke="#ccc" stroke-width="1.2" stroke-linecap="round"/>
<line x1="740.4" y1="265.7" x2="637.9" y2="451.2" stroke="#ccc" stroke-width="1.2" stroke-linecap="round"/>
<line x1="842.9" y1="206.5" x2="740.4" y2="392.0" stroke="#ccc" stroke-width="1.2" stroke-linecap="round"/>
<line x1="945.5" y1="147.3" x2="842.9" y2="332.8" stroke="#ccc" stroke-width="1.2" stroke-linecap="round"/>
<line x1="132.0" y1="632.7" x2="234.5" y2="573.5" stroke="#ccc" stroke-width="1.2" stroke-linecap="round"/>
<line x1="234.5" y1="573.5" x2="337.1" y2="514.3" stroke="#ccc" stroke-width="1.2" stroke-linecap="round"/>
<line x1="337.1" y1="514.3" x2="439.6" y2="455.1" stroke="#ccc" stroke-width="1.2" stroke-linecap="round"/>
<line x1="439.6" y1="455.1" x2="542.1" y2="395.9" stroke="#ccc" stroke-width="1.2" stroke-linecap="round"/>
<line x1="542.1" y1="395.9" x2="644.7" y2="336.7" stroke="#ccc" stroke-width="1.2" stroke-linecap="round"/>
<line x1="644.7" y1="336.7" x2="747.2" y2="277.5" stroke="#ccc" stroke-width="1.2" stroke-linecap="round"/>
<line x1="747.2" y1="277.5" x2="849.8" y2="218.3" stroke="#ccc" stroke-width="1.2" stroke-linecap="round"/>
<line x1="849.8" y1="218.3" x2="952.3" y2="159.1" stroke="#ccc" stroke-width="1.2" stroke-linecap="round"/>
<line x1="234.5" y1="447.2" x2="337.1" y2="388.0" stroke="#ccc" stroke-width="1.2" stroke-linecap="round"/>
<line x1="337.1" y1="388.0" x2="439.6" y2="328.8" stroke="#ccc" stroke-width="1.2" stroke-linecap="round"/>
<line x1="439.6" y1="328.8" x2="542.1" y2="269.6" stroke="#ccc" stroke-width="1.2" stroke-linecap="round"/>
<line x1="542.1" y1="269.6" x2="644.7" y2="210.4" stroke="#ccc" stroke-width="1.2" stroke-linecap="round"/>
<line x1="644.7" y1="210.4" x2="747.2" y2="151.2" stroke="#ccc" stroke-width="1.2" stroke-linecap="round"/>
<line x1="747.2" y1="151.2" x2="849.8" y2="92.0" stroke="#ccc" stroke-width="1.2" stroke-linecap="round"/>
<line x1="132.0" y1="632.7" x2="234.5" y2="447.2" stroke="#ccc" stroke-width="1.2" stroke-linecap="round"/>
<line x1="952.3" y1="159.1" x2="849.8" y2="92.0" stroke="#ccc" stroke-width="1.2" stroke-linecap="round"/>
<line x1="234.5" y1="447.2" x2="234.5" y2="573.5" stroke="#ccc" stroke-width="1.2" stroke-linecap="round"/>
<line x1="337.1" y1="388.0" x2="337.1" y2="514.3" stroke="#ccc" stroke-width="1.2" stroke-linecap="round"/>
<line x1="439.6" y1="328.8" x2="439.6" y2="455.1" stroke="#ccc" stroke-width="1.2" stroke-linecap="round"/>
<line x1="542.1" y1="269.6" x2="542.1" y2="395.9" stroke="#ccc" stroke-width="1.2" stroke-linecap="round"/>
<line x1="644.7" y1="210.4" x2="644.7" y2="336.7" stroke="#ccc" stroke-width="1.2" stroke-linecap="round"/>
<line x1="747.2" y1="151.2" x2="747.2" y2="277.5" stroke="#ccc" stroke-width="1.2" stroke-linecap="round"/>
<line x1="849.8" y1="92.0" x2="849.8" y2="218.3" stroke="#ccc" stroke-width="1.2" stroke-linecap="round"/>
<line x1="234.5" y1="447.2" x2="337.1" y2="514.3" stroke="#ccc" stroke-width="1.2" stroke-linecap="round"/>
<line x1="337.1" y1="388.0" x2="439.6" y2="455.1" stroke="#ccc" stroke-width="1.2" stroke-linecap="round"/>
<line x1="439.6" y1="328.8" x2="542.1" y2="395.9" stroke="#ccc" stroke-width="1.2" stroke-linecap="round"/>
<line x1="644.7" y1="210.4" x2="542.1" y2="395.9" stroke="#ccc" stroke-width="1.2" stroke-linecap="round"/>
<line x1="747.2" y1="151.2" x2="644.7" y2="336.7" stroke="#ccc" stroke-width="1.2" stroke-linecap="round"/>
<line x1="849.8" y1="92.0" x2="747.2" y2="277.5" stroke="#ccc" stroke-width="1.2" stroke-linecap="round"/>
<line x1="227.7" y1="688.0" x2="132.0" y2="632.7" stroke="#ccc" stroke-width="1.2" stroke-linecap="round"/>
<line x1="330.2" y1="628.8" x2="234.5" y2="573.5" stroke="#ccc" stroke-width="1.2" stroke-linecap="round"/>
<line x1="432.8" y1="569.6" x2="337.1" y2="514.3" stroke="#ccc" stroke-width="1.2" stroke-linecap="round"/>
<line x1="535.3" y1="510.4" x2="439.6" y2="455.1" stroke="#ccc" stroke-width="1.2" stroke-linecap="round"/>
<line x1="637.9" y1="451.2" x2="542.1" y2="395.9" stroke="#ccc" stroke-width="1.2" stroke-linecap="round"/>
<line x1="740.4" y1="392.0" x2="644.7" y2="336.7" stroke="#ccc" stroke-width="1.2" stroke-linecap="round"/>
<line x1="842.9" y1="332.8" x2="747.2" y2="277.5" stroke="#ccc" stroke-width="1.2" stroke-linecap="round"/>
<line x1="945.5" y1="273.6" x2="849.8" y2="218.3" stroke="#ccc" stroke-width="1.2" stroke-linecap="round"/>
<line x1="1048.0" y1="214.4" x2="952.3" y2="159.1" stroke="#ccc" stroke-width="1.2" stroke-linecap="round"/>
<line x1="330.2" y1="502.5" x2="234.5" y2="447.2" stroke="#ccc" stroke-width="1.2" stroke-linecap="round"/>
<line x1="432.8" y1="443.3" x2="337.1" y2="388.0" stroke="#ccc" stroke-width="1.2" stroke-linecap="round"/>
<line x1="535.3" y1="384.1" x2="439.6" y2="328.8" stroke="#ccc" stroke-width="1.2" stroke-linecap="round"/>
<line x1="637.9" y1="324.9" x2="542.1" y2="269.6" stroke="#ccc" stroke-width="1.2" stroke-linecap="round"/>
<line x1="740.4" y1="265.7" x2="644.7" y2="210.4" stroke="#ccc" stroke-width="1.2" stroke-linecap="round"/>
<line x1="842.9" y1="206.5" x2="747.2" y2="151.2" stroke="#ccc" stroke-width="1.2" stroke-linecap="round"/>
<line x1="945.5" y1="147.3" x2="849.8" y2="92.0" stroke="#ccc" stroke-width="1.2" stroke-linecap="round"/>
<polyline points="227.7,688.0 232.9,687.6 238.1,687.2 243.3,686.7 248.5,686.2 253.7,685.5 258.9,684.7 264.1,683.7 269.3,682.5 274.5,681.2 279.7,679.6 284.9,677.8 290.2,675.9 295.4,673.8 300.6,671.6 305.8,669.3 311.0,666.9 316.2,664.6 321.4,662.2 326.6,660.0 331.8,657.9" stroke="#d62728" stroke-width="2" fill="none"/>
<polyline points="331.8,657.9 337.0,656.0 342.2,654.3 347.4,652.8 352.6,651.3 357.8,649.8 363.0,648.3 368.3,646.8 373.5,645.2 378.7,643.5 383.9,641.7 389.1,639.8 394.3,637.8 399.5,635.6 404.7,633.4 409.9,631.1 415.1,628.8 420.3,626.5 425.5,624.2 430.7,621.9 435.9,619.8" stroke="#d62728" stroke-width="2" fill="none"/>
<polyline points="435.9,619.8 441.2,617.8 446.5,616.0 451.7,614.3 457.0,612.6 462.2,610.9 467.5,609.2 472.8,607.4 478.0,605.5 483.3,603.5 488.5,601.4 493.8,599.1 499.1,596.7 504.3,594.2 509.6,591.6 514.8,588.9 520.1,586.2 525.4,583.4 530.6,580.6 535.9,577.9 541.2,575.3" stroke="#d62728" stroke-width="2" fill="none"/>
<polyline points="541.2,575.3 546.4,572.9 551.7,570.6 557.0,568.4 562.3,566.2 567.6,564.0 572.9,561.8 578.2,559.4 583.5,557.0 588.8,554.4 594.1,551.7 599.4,548.9 604.7,545.9 610.0,542.8 615.3,539.6 620.6,536.3 625.8,533.0 631.1,529.6 636.4,526.3 641.7,523.0 647.0,519.9" stroke="#d62728" stroke-width="2" fill="none"/>
<polyline points="647.0,519.9 652.3,516.9 657.6,514.1 662.9,511.3 668.2,508.5 673.5,505.8 678.8,502.9 684.1,500.0 689.4,497.0 694.7,493.9 700.0,490.6 705.2,487.2 710.5,483.6 715.8,480.0 721.1,476.2 726.4,472.3 731.7,468.4 737.0,464.5 742.3,460.6 747.6,456.8 752.9,453.1" stroke="#d62728" stroke-width="2" fill="none"/>
<polyline points="752.9,453.1 758.2,449.6 763.4,446.2 768.7,442.9 773.9,439.6 779.2,436.3 784.5,432.9 789.7,429.4 795.0,425.9 800.2,422.2 805.5,418.4 810.8,414.4 816.0,410.4 821.3,406.2 826.5,401.9 831.8,397.6 837.1,393.2 842.3,388.8 847.6,384.4 852.8,380.2 858.1,376.0" stroke="#d62728" stroke-width="2" fill="none"/>
<polyline points="858.1,376.0 863.3,372.2 868.5,368.4 873.7,364.7 878.9,361.0 884.1,357.3 889.3,353.6 894.5,349.8 899.7,345.9 904.9,341.9 910.2,337.8 915.4,333.6 920.6,329.3 925.8,324.9 931.0,320.4 936.2,315.9 941.4,311.3 946.6,306.8 951.8,302.4 957.0,298.0 962.2,293.9" stroke="#d62728" stroke-width="2" fill="none"/>
<polyline points="962.2,293.9 967.4,290.0 972.6,286.2 977.8,282.5 983.0,278.9 988.3,275.3 993.5,271.6 998.7,267.8 1003.9,263.8 1009.1,259.8 1014.3,255.5 1019.5,251.1 1024.7,246.4 1029.9,241.6 1035.1,236.6 1040.3,231.4 1045.5,226.0 1050.7,220.6 1055.9,215.0 1061.1,209.4 1066.3,203.8" stroke="#d62728" stroke-width="2" fill="none"/>
<polyline points="349.0,520.8 353.9,519.1 358.9,517.4 363.9,515.8 368.9,514.1 373.9,512.5 378.9,511.0 383.9,509.4 388.9,507.8 393.9,506.3 398.9,504.7 403.9,503.1 408.9,501.5 413.9,499.8 418.9,498.2 423.9,496.5 428.8,494.8 433.8,493.0 438.8,491.3 443.8,489.5 448.8,487.6" stroke="#d62728" stroke-width="2" fill="none"/>
<polyline points="448.8,487.6 453.8,485.8 458.7,483.9 463.7,482.0 468.7,480.1 473.6,478.2 478.6,476.3 483.5,474.3 488.5,472.3 493.5,470.2 498.4,468.2 503.4,466.1 508.3,463.9 513.3,461.8 518.3,459.5 523.2,457.3 528.2,455.0 533.1,452.7 538.1,450.4 543.1,448.0 548.0,445.7" stroke="#d62728" stroke-width="2" fill="none"/>
<polyline points="548.0,445.7 553.0,443.3 557.9,440.9 562.9,438.5 567.8,436.1 572.8,433.7 577.7,431.2 582.7,428.7 587.6,426.2 592.6,423.7 597.5,421.1 602.5,418.5 607.4,415.8 612.4,413.2 617.3,410.5 622.3,407.7 627.2,405.0 632.2,402.2 637.1,399.4 642.1,396.5 647.0,393.7" stroke="#d62728" stroke-width="2" fill="none"/>
<polyline points="647.0,393.7 652.0,390.8 656.9,387.9 661.9,385.0 666.8,382.1 671.8,379.1 676.7,376.2 681.7,373.1 686.6,370.1 691.6,367.0 696.5,363.9 701.5,360.8 706.4,357.6 711.4,354.4 716.3,351.2 721.3,347.9 726.2,344.6 731.2,341.3 736.1,338.0 741.1,334.7 746.0,331.3" stroke="#d62728" stroke-width="2" fill="none"/>
<polyline points="746.0,331.3 751.0,328.0 755.9,324.6 760.9,321.2 765.9,317.8 770.8,314.3 775.8,310.8 780.7,307.3 785.7,303.8 790.7,300.2 795.6,296.6 800.6,292.9 805.5,289.2 810.5,285.5 815.5,281.7 820.4,278.0 825.4,274.1 830.3,270.3 835.3,266.5 840.3,262.6 845.2,258.7" stroke="#d62728" stroke-width="2" fill="none"/>
<polyline points="845.2,258.7 850.2,254.8 855.2,250.8 860.2,246.8 865.2,242.8 870.2,238.8 875.2,234.7 880.2,230.6 885.2,226.4 890.2,222.3 895.2,218.1 900.2,213.9 905.2,209.7 910.2,205.5 915.2,201.3 920.2,197.1 925.2,192.9 930.1,188.8 935.1,184.7 940.1,180.6 945.1,176.6" stroke="#d62728" stroke-width="2" fill="none"/>
<polyline points="227.7,688.0 234.9,680.2 242.0,672.4 248.8,664.4 255.5,656.4 262.1,648.3 268.4,640.1 274.6,631.8 280.7,623.4 286.6,615.0 292.5,606.5 298.2,598.0 303.9,589.4 309.4,580.8 315.0,572.2 320.5,563.6 326.1,555.0 331.7,546.4 337.3,537.8 343.1,529.3 349.0,520.8" stroke="#d62728" stroke-width="2" fill="none"/>
<polyline points="1066.3,203.8 1059.1,204.4 1052.0,204.6 1045.1,204.6 1038.4,204.3 1031.9,203.7 1025.5,202.8 1019.3,201.6 1013.3,200.3 1007.4,198.7 1001.6,196.9 995.9,195.0 990.2,193.0 984.7,190.8 979.1,188.6 973.6,186.4 968.1,184.2 962.5,182.1 956.8,180.1 951.0,178.2 945.1,176.6" stroke="#d62728" stroke-width="2" fill="none"/>
<polyline points="349.0,520.8 348.0,527.8 347.0,534.7 346.1,541.6 345.2,548.5 344.3,555.4 343.4,562.2 342.6,569.0 341.8,575.9 341.0,582.7 340.2,589.5 339.4,596.3 338.6,603.1 337.8,609.9 336.9,616.7 336.1,623.5 335.3,630.4 334.5,637.2 333.6,644.1 332.7,651.0 331.8,657.9" stroke="#d62728" stroke-width="2" fill="none"/>
<polyline points="448.8,487.6 447.9,494.4 447.1,501.1 446.4,507.8 445.7,514.4 445.1,521.0 444.5,527.6 443.9,534.2 443.3,540.7 442.8,547.2 442.3,553.8 441.8,560.3 441.2,566.8 440.7,573.3 440.1,579.9 439.5,586.5 438.9,593.1 438.3,599.7 437.5,606.3 436.8,613.1 435.9,619.8" stroke="#d62728" stroke-width="2" fill="none"/>
<polyline points="548.0,445.7 547.6,452.2 547.2,458.7 546.9,465.2 546.5,471.7 546.2,478.2 545.9,484.7 545.6,491.1 545.3,497.6 545.0,504.0 544.7,510.4 544.4,516.9 544.1,523.3 543.8,529.8 543.5,536.2 543.2,542.7 542.8,549.2 542.4,555.7 542.0,562.2 541.6,568.8 541.2,575.3" stroke="#d62728" stroke-width="2" fill="none"/>
<polyline points="647.0,393.7 647.0,400.0 647.1,406.3 647.1,412.6 647.1,418.9 647.1,425.3 647.1,431.6 647.1,437.9 647.1,444.2 647.0,450.5 647.0,456.8 647.0,463.1 647.0,469.4 647.0,475.7 647.0,482.0 647.0,488.3 647.0,494.6 647.0,500.9 647.0,507.2 647.0,513.6 647.0,519.9" stroke="#d62728" stroke-width="2" fill="none"/>
<polyline points="746.0,331.3 746.5,337.4 746.9,343.5 747.3,349.5 747.6,355.6 747.9,361.7 748.2,367.8 748.5,374.0 748.8,380.1 749.1,386.2 749.3,392.3 749.6,398.4 749.9,404.5 750.1,410.6 750.4,416.7 750.8,422.8 751.1,428.9 751.5,435.0 751.9,441.0 752.4,447.1 752.9,453.1" stroke="#d62728" stroke-width="2" fill="none"/>
<polyline points="845.2,258.7 846.2,264.4 847.0,270.2 847.8,276.0 848.5,281.9 849.1,287.7 849.7,293.6 850.2,299.5 850.8,305.4 851.3,311.4 851.8,317.3 852.3,323.3 852.8,329.2 853.3,335.1 853.8,341.0 854.4,346.9 855.0,352.8 855.7,358.7 856.4,364.5 857.2,370.3 858.1,376.0" stroke="#d62728" stroke-width="2" fill="none"/>
<polyline points="945.1,176.6 946.1,182.3 947.1,188.2 948.1,194.0 949.0,199.8 949.9,205.7 950.7,211.5 951.5,217.4 952.3,223.3 953.1,229.2 953.9,235.1 954.6,241.0 955.4,246.9 956.2,252.8 957.0,258.7 957.8,264.6 958.6,270.5 959.5,276.3 960.3,282.2 961.3,288.1 962.2,293.9" stroke="#d62728" stroke-width="2" fill="none"/>
<polyline points="349.0,520.8 353.3,525.8 357.7,530.7 362.0,535.7 366.4,540.6 370.7,545.6 375.0,550.5 379.4,555.5 383.7,560.4 388.1,565.4 392.4,570.3 396.8,575.3 401.1,580.2 405.5,585.2 409.8,590.1 414.2,595.1 418.5,600.0 422.9,605.0 427.2,609.9 431.6,614.9 435.9,619.8" stroke="#d62728" stroke-width="2" fill="none"/>
<polyline points="448.8,487.6 453.4,492.0 458.1,496.4 462.7,500.8 467.3,505.2 471.9,509.5 476.5,513.9 481.1,518.3 485.8,522.7 490.4,527.1 495.0,531.5 499.6,535.9 504.2,540.3 508.8,544.6 513.5,549.0 518.1,553.4 522.7,557.8 527.3,562.2 531.9,566.6 536.5,571.0 541.2,575.3" stroke="#d62728" stroke-width="2" fill="none"/>
<polyline points="548.0,445.7 553.0,449.4 557.9,453.1 562.9,456.8 567.8,460.5 572.8,464.2 577.7,467.9 582.7,471.6 587.6,475.4 592.6,479.1 597.5,482.8 602.5,486.5 607.4,490.2 612.4,493.9 617.3,497.6 622.3,501.3 627.2,505.0 632.2,508.8 637.1,512.5 642.1,516.2 647.0,519.9" stroke="#d62728" stroke-width="2" fill="none"/>
<polyline points="746.0,331.3 741.1,340.8 736.1,350.2 731.2,359.6 726.2,369.1 721.3,378.5 716.3,387.9 711.4,397.3 706.4,406.8 701.5,416.2 696.5,425.6 691.6,435.0 686.6,444.5 681.7,453.9 676.7,463.3 671.8,472.8 666.8,482.2 661.9,491.6 656.9,501.0 652.0,510.5 647.0,519.9" stroke="#d62728" stroke-width="2" fill="none"/>
<polyline points="845.2,258.7 840.6,268.4 836.0,278.1 831.4,287.9 826.8,297.6 822.1,307.3 817.5,317.0 812.9,326.7 808.3,336.5 803.7,346.2 799.1,355.9 794.4,365.6 789.8,375.3 785.2,385.1 780.6,394.8 776.0,404.5 771.4,414.2 766.7,423.9 762.1,433.7 757.5,443.4 752.9,453.1" stroke="#d62728" stroke-width="2" fill="none"/>
<polyline points="945.1,176.6 940.8,186.5 936.4,196.5 932.1,206.5 927.7,216.5 923.4,226.4 919.0,236.4 914.7,246.4 910.3,256.4 906.0,266.3 901.6,276.3 897.3,286.3 892.9,296.3 888.6,306.2 884.2,316.2 879.9,326.2 875.5,336.2 871.2,346.1 866.8,356.1 862.4,366.1 858.1,376.0" stroke="#d62728" stroke-width="2" fill="none"/>
<polyline points="132.0,632.7 137.2,632.3 142.4,631.9 147.6,631.5 152.8,630.9 158.0,630.3 163.2,629.4 168.4,628.4 173.6,627.3 178.8,625.9 184.0,624.3 189.2,622.6 194.4,620.6 199.6,618.6 204.8,616.3 210.1,614.0 215.3,611.7 220.5,609.3 225.7,606.9 230.9,604.7 236.1,602.6" stroke="#d62728" stroke-width="2" fill="none"/>
<polyline points="236.1,602.6 241.3,600.8 246.5,599.1 251.7,597.5 256.9,596.0 262.1,594.5 267.3,593.1 272.5,591.5 277.7,589.9 283.0,588.2 288.2,586.4 293.4,584.5 298.6,582.5 303.8,580.4 309.0,578.2 314.2,575.9 319.4,573.6 324.6,571.2 329.8,568.9 335.0,566.7 340.2,564.5" stroke="#d62728" stroke-width="2" fill="none"/>
<polyline points="340.2,564.5 345.5,562.6 350.7,560.8 356.0,559.0 361.3,557.4 366.5,555.7 371.8,553.9 377.1,552.1 382.3,550.3 387.6,548.3 392.8,546.1 398.1,543.9 403.4,541.5 408.6,539.0 413.9,536.3 419.1,533.6 424.4,530.9 429.7,528.1 434.9,525.4 440.2,522.7 445.4,520.1" stroke="#d62728" stroke-width="2" fill="none"/>
<polyline points="445.4,520.1 450.7,517.7 456.0,515.4 461.3,513.1 466.6,511.0 471.9,508.8 477.2,506.5 482.5,504.2 487.8,501.7 493.1,499.1 498.4,496.4 503.7,493.6 509.0,490.6 514.3,487.6 519.5,484.4 524.8,481.1 530.1,477.7 535.4,474.4 540.7,471.0 546.0,467.8 551.3,464.6" stroke="#d62728" stroke-width="2" fill="none"/>
<polyline points="551.3,464.6 556.6,461.7 561.9,458.8 567.2,456.0 572.5,453.3 577.8,450.5 583.1,447.7 588.4,444.8 593.7,441.7 598.9,438.6 604.2,435.3 609.5,431.9 614.8,428.4 620.1,424.7 625.4,420.9 630.7,417.1 636.0,413.2 641.3,409.2 646.6,405.3 651.9,401.5 657.2,397.8" stroke="#d62728" stroke-width="2" fill="none"/>
<polyline points="657.2,397.8 662.4,394.3 667.7,390.9 673.0,387.6 678.2,384.3 683.5,381.0 688.7,377.6 694.0,374.2 699.3,370.6 704.5,366.9 709.8,363.1 715.0,359.2 720.3,355.1 725.6,350.9 730.8,346.6 736.1,342.3 741.3,337.9 746.6,333.5 751.9,329.2 757.1,324.9 762.4,320.8" stroke="#d62728" stroke-width="2" fill="none"/>
<polyline points="762.4,320.8 767.6,316.9 772.8,313.1 778.0,309.4 783.2,305.8 788.4,302.1 793.6,298.3 798.8,294.6 804.0,290.7 809.2,286.7 814.4,282.6 819.7,278.4 824.9,274.0 830.1,269.6 835.3,265.2 840.5,260.6 845.7,256.1 850.9,251.6 856.1,247.1 861.3,242.8 866.5,238.6" stroke="#d62728" stroke-width="2" fill="none"/>
<polyline points="866.5,238.6 871.7,234.7 876.9,230.9 882.1,227.3 887.3,223.6 892.5,220.0 897.7,216.3 902.9,212.5 908.1,208.6 913.3,204.5 918.5,200.2 923.7,195.8 929.0,191.1 934.2,186.3 939.4,181.3 944.6,176.1 949.8,170.8 955.0,165.3 960.2,159.8 965.4,154.2 970.6,148.5" stroke="#d62728" stroke-width="2" fill="none"/>
<polyline points="253.2,465.6 258.2,463.8 263.2,462.1 268.2,460.5 273.2,458.9 278.2,457.3 283.2,455.7 288.2,454.1 293.2,452.6 298.2,451.0 303.2,449.4 308.2,447.8 313.2,446.2 318.1,444.6 323.1,442.9 328.1,441.2 333.1,439.5 338.1,437.8 343.1,436.0 348.1,434.2 353.1,432.3" stroke="#d62728" stroke-width="2" fill="none"/>
<polyline points="353.1,432.3 358.1,430.5 363.0,428.6 368.0,426.8 373.0,424.9 377.9,423.0 382.9,421.0 387.8,419.0 392.8,417.0 397.8,415.0 402.7,412.9 407.7,410.8 412.6,408.7 417.6,406.5 422.6,404.3 427.5,402.0 432.5,399.8 437.4,397.5 442.4,395.1 447.4,392.8 452.3,390.4" stroke="#d62728" stroke-width="2" fill="none"/>
<polyline points="452.3,390.4 457.3,388.0 462.2,385.6 467.2,383.2 472.1,380.8 477.1,378.4 482.0,375.9 487.0,373.4 491.9,370.9 496.9,368.4 501.8,365.8 506.8,363.2 511.7,360.6 516.7,357.9 521.6,355.2 526.6,352.5 531.5,349.7 536.5,346.9 541.4,344.1 546.4,341.3 551.3,338.4" stroke="#d62728" stroke-width="2" fill="none"/>
<polyline points="551.3,338.4 556.3,335.5 561.2,332.7 566.2,329.8 571.1,326.8 576.1,323.9 581.0,320.9 586.0,317.9 590.9,314.8 595.9,311.8 600.8,308.7 605.8,305.5 610.7,302.3 615.7,299.1 620.6,295.9 625.6,292.7 630.5,289.4 635.5,286.1 640.4,282.8 645.4,279.4 650.3,276.1" stroke="#d62728" stroke-width="2" fill="none"/>
<polyline points="650.3,276.1 655.3,272.7 660.2,269.4 665.2,266.0 670.2,262.5 675.1,259.1 680.1,255.6 685.0,252.1 690.0,248.5 695.0,244.9 699.9,241.3 704.9,237.6 709.8,234.0 714.8,230.2 719.8,226.5 724.7,222.7 729.7,218.9 734.6,215.0 739.6,211.2 744.6,207.3 749.5,203.4" stroke="#d62728" stroke-width="2" fill="none"/>
<polyline points="749.5,203.4 754.5,199.5 759.5,195.6 764.5,191.6 769.5,187.6 774.5,183.5 779.5,179.4 784.5,175.3 789.5,171.2 794.5,167.0 799.4,162.8 804.4,158.6 809.4,154.4 814.4,150.2 819.4,146.0 824.4,141.8 829.4,137.7 834.4,133.5 839.4,129.4 844.4,125.3 849.4,121.3" stroke="#d62728" stroke-width="2" fill="none"/>
<polyline points="132.0,632.7 139.2,625.0 146.3,617.1 153.2,609.2 159.9,601.1 166.4,593.0 172.7,584.8 178.9,576.5 185.0,568.1 190.9,559.7 196.7,551.2 202.4,542.7 208.1,534.1 213.6,525.5 219.2,516.9 224.7,508.3 230.3,499.6 235.9,491.1 241.5,482.5 247.3,474.0 253.2,465.6" stroke="#d62728" stroke-width="2" fill="none"/>
<polyline points="970.6,148.5 963.4,149.2 956.4,149.4 949.5,149.4 942.9,149.1 936.4,148.5 930.0,147.6 923.8,146.5 917.7,145.1 911.8,143.5 906.0,141.7 900.2,139.8 894.6,137.7 889.0,135.6 883.4,133.4 877.9,131.1 872.3,128.9 866.7,126.8 861.0,124.8 855.3,122.9 849.4,121.3" stroke="#d62728" stroke-width="2" fill="none"/>
<polyline points="253.2,465.6 252.2,472.5 251.2,479.4 250.3,486.3 249.4,493.2 248.5,500.0 247.6,506.9 246.8,513.7 246.0,520.6 245.2,527.4 244.5,534.2 243.7,541.0 242.9,547.9 242.1,554.7 241.3,561.5 240.5,568.3 239.7,575.2 238.8,582.0 238.0,588.9 237.0,595.7 236.1,602.6" stroke="#d62728" stroke-width="2" fill="none"/>
<polyline points="353.1,432.3 352.2,439.1 351.3,445.8 350.6,452.5 349.9,459.1 349.2,465.7 348.6,472.3 348.1,478.9 347.6,485.4 347.1,492.0 346.6,498.5 346.1,505.0 345.6,511.6 345.1,518.1 344.5,524.7 343.9,531.3 343.3,537.9 342.7,544.5 341.9,551.1 341.1,557.8 340.2,564.5" stroke="#d62728" stroke-width="2" fill="none"/>
<polyline points="452.3,390.4 451.9,396.9 451.4,403.4 451.1,409.9 450.7,416.4 450.4,422.9 450.1,429.3 449.8,435.8 449.5,442.3 449.3,448.7 449.0,455.2 448.8,461.6 448.5,468.1 448.2,474.5 447.9,481.0 447.6,487.5 447.2,494.0 446.8,500.5 446.4,507.0 445.9,513.5 445.4,520.1" stroke="#d62728" stroke-width="2" fill="none"/>
<polyline points="551.3,338.4 551.3,344.7 551.3,351.0 551.3,357.3 551.3,363.6 551.3,369.9 551.3,376.2 551.3,382.6 551.3,388.9 551.3,395.2 551.3,401.5 551.3,407.8 551.3,414.2 551.4,420.5 551.4,426.8 551.4,433.1 551.4,439.4 551.4,445.7 551.4,452.0 551.3,458.3 551.3,464.6" stroke="#d62728" stroke-width="2" fill="none"/>
<polyline points="650.3,276.1 650.7,282.1 651.1,288.2 651.4,294.2 651.8,300.3 652.1,306.4 652.4,312.5 652.7,318.6 653.0,324.8 653.3,330.9 653.6,337.0 653.9,343.2 654.2,349.3 654.5,355.4 654.8,361.5 655.2,367.6 655.5,373.7 655.9,379.8 656.3,385.8 656.7,391.8 657.2,397.8" stroke="#d62728" stroke-width="2" fill="none"/>
<polyline points="749.5,203.4 750.4,209.1 751.2,214.9 751.9,220.7 752.6,226.5 753.3,232.4 753.9,238.3 754.5,244.2 755.0,250.2 755.5,256.1 756.1,262.1 756.6,268.0 757.1,274.0 757.6,279.9 758.2,285.8 758.8,291.7 759.4,297.6 760.1,303.5 760.8,309.3 761.6,315.1 762.4,320.8" stroke="#d62728" stroke-width="2" fill="none"/>
<polyline points="849.4,121.3 850.4,127.1 851.4,132.9 852.3,138.7 853.2,144.5 854.1,150.4 854.9,156.2 855.8,162.1 856.6,168.0 857.4,173.9 858.2,179.9 859.0,185.8 859.8,191.7 860.6,197.6 861.4,203.5 862.2,209.4 863.0,215.3 863.9,221.2 864.7,227.0 865.6,232.8 866.5,238.6" stroke="#d62728" stroke-width="2" fill="none"/>
<polyline points="253.2,465.6 257.6,470.5 261.9,475.5 266.3,480.4 270.6,485.4 275.0,490.3 279.3,495.3 283.7,500.2 288.0,505.2 292.4,510.1 296.7,515.1 301.1,520.0 305.4,524.9 309.8,529.9 314.1,534.8 318.5,539.8 322.8,544.7 327.2,549.7 331.5,554.6 335.9,559.6 340.2,564.5" stroke="#d62728" stroke-width="2" fill="none"/>
<polyline points="353.1,432.3 357.7,436.7 362.3,441.1 367.0,445.5 371.6,449.9 376.2,454.3 380.8,458.7 385.4,463.1 390.0,467.4 394.7,471.8 399.3,476.2 403.9,480.6 408.5,485.0 413.1,489.4 417.7,493.8 422.4,498.2 427.0,502.5 431.6,506.9 436.2,511.3 440.8,515.7 445.4,520.1" stroke="#d62728" stroke-width="2" fill="none"/>
<polyline points="452.3,390.4 457.3,394.1 462.2,397.8 467.2,401.5 472.1,405.3 477.1,409.0 482.0,412.7 487.0,416.4 491.9,420.1 496.9,423.8 501.8,427.5 506.8,431.2 511.7,434.9 516.7,438.6 521.6,442.4 526.6,446.1 531.5,449.8 536.5,453.5 541.4,457.2 546.4,460.9 551.3,464.6" stroke="#d62728" stroke-width="2" fill="none"/>
<polyline points="650.3,276.1 645.4,285.5 640.4,294.9 635.5,304.4 630.5,313.8 625.6,323.2 620.6,332.6 615.7,342.1 610.7,351.5 605.8,360.9 600.8,370.4 595.9,379.8 590.9,389.2 586.0,398.6 581.0,408.1 576.1,417.5 571.1,426.9 566.2,436.3 561.2,445.8 556.3,455.2 551.3,464.6" stroke="#d62728" stroke-width="2" fill="none"/>
<polyline points="749.5,203.4 744.9,213.2 740.3,222.9 735.7,232.6 731.1,242.3 726.4,252.0 721.8,261.8 717.2,271.5 712.6,281.2 708.0,290.9 703.4,300.6 698.7,310.4 694.1,320.1 689.5,329.8 684.9,339.5 680.3,349.2 675.6,358.9 671.0,368.7 666.4,378.4 661.8,388.1 657.2,397.8" stroke="#d62728" stroke-width="2" fill="none"/>
<polyline points="849.4,121.3 845.1,131.3 840.7,141.3 836.4,151.2 832.0,161.2 827.7,171.2 823.3,181.1 818.9,191.1 814.6,201.1 810.2,211.1 805.9,221.0 801.5,231.0 797.2,241.0 792.8,251.0 788.5,260.9 784.1,270.9 779.8,280.9 775.4,290.9 771.1,300.8 766.7,310.8 762.4,320.8" stroke="#d62728" stroke-width="2" fill="none"/>
<polyline points="227.7,688.0 222.9,685.2 218.1,682.5 213.3,679.7 208.5,677.0 203.8,674.3 199.0,671.5 194.2,668.8 189.4,666.0 184.6,663.3 179.8,660.5 175.0,657.8 170.3,655.0 165.5,652.2 160.7,649.5 155.9,646.7 151.1,643.9 146.3,641.1 141.5,638.3 136.7,635.5 132.0,632.7" stroke="#d62728" stroke-width="2" fill="none"/>
<polyline points="331.8,657.9 327.0,655.1 322.2,652.4 317.4,649.7 312.7,647.0 307.9,644.2 303.1,641.5 298.3,638.7 293.5,636.0 288.7,633.2 283.9,630.5 279.2,627.7 274.4,624.9 269.6,622.2 264.8,619.4 260.0,616.6 255.2,613.8 250.4,611.0 245.7,608.2 240.9,605.4 236.1,602.6" stroke="#d62728" stroke-width="2" fill="none"/>
<polyline points="435.9,619.8 431.2,617.1 426.4,614.3 421.6,611.6 416.8,608.9 412.0,606.1 407.2,603.4 402.4,600.7 397.7,597.9 392.9,595.2 388.1,592.4 383.3,589.6 378.5,586.9 373.7,584.1 368.9,581.3 364.2,578.5 359.4,575.7 354.6,572.9 349.8,570.1 345.0,567.3 340.2,564.5" stroke="#d62728" stroke-width="2" fill="none"/>
<polyline points="541.2,575.3 536.4,572.6 531.6,569.9 526.8,567.2 522.0,564.4 517.2,561.7 512.4,559.0 507.7,556.2 502.9,553.5 498.1,550.7 493.3,548.0 488.5,545.2 483.7,542.4 478.9,539.6 474.2,536.9 469.4,534.1 464.6,531.3 459.8,528.5 455.0,525.7 450.2,522.9 445.4,520.1" stroke="#d62728" stroke-width="2" fill="none"/>
<polyline points="647.0,519.9 642.2,517.2 637.4,514.4 632.7,511.7 627.9,509.0 623.1,506.2 618.3,503.5 613.5,500.8 608.7,498.0 603.9,495.3 599.2,492.5 594.4,489.7 589.6,487.0 584.8,484.2 580.0,481.4 575.2,478.6 570.5,475.8 565.7,473.0 560.9,470.2 556.1,467.4 551.3,464.6" stroke="#d62728" stroke-width="2" fill="none"/>
<polyline points="752.9,453.1 748.1,450.4 743.3,447.6 738.5,444.9 733.7,442.2 729.0,439.4 724.2,436.7 719.4,434.0 714.6,431.2 709.8,428.5 705.0,425.7 700.2,422.9 695.5,420.2 690.7,417.4 685.9,414.6 681.1,411.8 676.3,409.0 671.5,406.2 666.7,403.4 662.0,400.6 657.2,397.8" stroke="#d62728" stroke-width="2" fill="none"/>
<polyline points="858.1,376.0 853.3,373.3 848.5,370.6 843.7,367.9 839.0,365.1 834.2,362.4 829.4,359.7 824.6,356.9 819.8,354.2 815.0,351.4 810.2,348.7 805.5,345.9 800.7,343.1 795.9,340.3 791.1,337.6 786.3,334.8 781.5,332.0 776.7,329.2 772.0,326.4 767.2,323.6 762.4,320.8" stroke="#d62728" stroke-width="2" fill="none"/>
<polyline points="962.2,293.9 957.4,291.2 952.6,288.4 947.9,285.7 943.1,283.0 938.3,280.3 933.5,277.5 928.7,274.8 923.9,272.0 919.2,269.3 914.4,266.5 909.6,263.8 904.8,261.0 900.0,258.2 895.2,255.4 890.4,252.6 885.6,249.8 880.9,247.0 876.1,244.2 871.3,241.4 866.5,238.6" stroke="#d62728" stroke-width="2" fill="none"/>
<polyline points="1066.3,203.8 1061.5,201.1 1056.7,198.4 1052.0,195.7 1047.2,192.9 1042.4,190.2 1037.6,187.5 1032.8,184.8 1028.0,182.0 1023.2,179.3 1018.4,176.5 1013.7,173.7 1008.9,171.0 1004.1,168.2 999.3,165.4 994.5,162.6 989.7,159.8 985.0,157.0 980.2,154.2 975.4,151.4 970.6,148.5" stroke="#d62728" stroke-width="2" fill="none"/>
<polyline points="349.0,520.8 344.2,518.1 339.4,515.4 334.6,512.6 329.8,509.9 325.0,507.1 320.3,504.4 315.5,501.7 310.7,498.9 305.9,496.2 301.1,493.4 296.3,490.6 291.5,487.9 286.8,485.1 282.0,482.3 277.2,479.5 272.4,476.7 267.6,473.9 262.8,471.1 258.0,468.3 253.2,465.6" stroke="#d62728" stroke-width="2" fill="none"/>
<polyline points="448.8,487.6 444.0,484.9 439.2,482.1 434.5,479.4 429.7,476.7 424.9,474.0 420.1,471.2 415.3,468.5 410.5,465.7 405.7,463.0 401.0,460.2 396.2,457.4 391.4,454.7 386.6,451.9 381.8,449.1 377.0,446.3 372.2,443.5 367.5,440.7 362.7,437.9 357.9,435.1 353.1,432.3" stroke="#d62728" stroke-width="2" fill="none"/>
<polyline points="548.0,445.7 543.2,442.9 538.5,440.2 533.7,437.5 528.9,434.7 524.1,432.0 519.3,429.3 514.5,426.5 509.7,423.8 505.0,421.0 500.2,418.3 495.4,415.5 490.6,412.7 485.8,410.0 481.0,407.2 476.2,404.4 471.5,401.6 466.7,398.8 461.9,396.0 457.1,393.2 452.3,390.4" stroke="#d62728" stroke-width="2" fill="none"/>
<polyline points="647.0,393.7 642.2,390.9 637.5,388.2 632.7,385.5 627.9,382.7 623.1,380.0 618.3,377.3 613.5,374.5 608.7,371.8 604.0,369.0 599.2,366.3 594.4,363.5 589.6,360.7 584.8,358.0 580.0,355.2 575.2,352.4 570.5,349.6 565.7,346.8 560.9,344.0 556.1,341.2 551.3,338.4" stroke="#d62728" stroke-width="2" fill="none"/>
<polyline points="746.0,331.3 741.2,328.6 736.4,325.9 731.7,323.2 726.9,320.4 722.1,317.7 717.3,315.0 712.5,312.2 707.7,309.5 702.9,306.7 698.2,304.0 693.4,301.2 688.6,298.4 683.8,295.6 679.0,292.9 674.2,290.1 669.4,287.3 664.7,284.5 659.9,281.7 655.1,278.9 650.3,276.1" stroke="#d62728" stroke-width="2" fill="none"/>
<polyline points="845.2,258.7 840.4,256.0 835.7,253.2 830.9,250.5 826.1,247.8 821.3,245.0 816.5,242.3 811.7,239.6 807.0,236.8 802.2,234.1 797.4,231.3 792.6,228.5 787.8,225.8 783.0,223.0 778.2,220.2 773.5,217.4 768.7,214.6 763.9,211.8 759.1,209.0 754.3,206.2 749.5,203.4" stroke="#d62728" stroke-width="2" fill="none"/>
<polyline points="945.1,176.6 940.3,173.8 935.5,171.1 930.7,168.4 926.0,165.6 921.2,162.9 916.4,160.2 911.6,157.4 906.8,154.7 902.0,151.9 897.2,149.1 892.5,146.4 887.7,143.6 882.9,140.8 878.1,138.1 873.3,135.3 868.5,132.5 863.8,129.7 859.0,126.9 854.2,124.1 849.4,121.3" stroke="#d62728" stroke-width="2" fill="none"/>
<polyline points="227.7,688.0 253.7,685.3 279.7,679.3 305.8,669.1 331.8,657.8" stroke="#1f77b4" stroke-width="1.4" stroke-dasharray="5,3" fill="none"/>
<polyline points="331.8,657.8 357.8,649.7 383.9,641.6 409.9,631.1 435.9,619.7" stroke="#1f77b4" stroke-width="1.4" stroke-dasharray="5,3" fill="none"/>
<polyline points="435.9,619.7 462.2,610.7 488.5,601.2 514.8,588.8 541.1,575.2" stroke="#1f77b4" stroke-width="1.4" stroke-dasharray="5,3" fill="none"/>
<polyline points="541.1,575.2 567.6,563.7 594.1,551.4 620.5,536.1 647.0,519.7" stroke="#1f77b4" stroke-width="1.4" stroke-dasharray="5,3" fill="none"/>
<polyline points="647.0,519.7 673.5,505.5 699.9,490.3 726.4,472.0 752.8,452.9" stroke="#1f77b4" stroke-width="1.4" stroke-dasharray="5,3" fill="none"/>
<polyline points="752.8,452.9 779.1,436.2 805.4,418.2 831.7,397.3 858.0,375.9" stroke="#1f77b4" stroke-width="1.4" stroke-dasharray="5,3" fill="none"/>
<polyline points="858.0,375.9 884.1,357.3 910.1,337.8 936.1,315.8 962.2,293.8" stroke="#1f77b4" stroke-width="1.4" stroke-dasharray="5,3" fill="none"/>
<polyline points="962.2,293.8 988.2,275.1 1014.2,255.3 1040.2,231.2 1066.3,203.8" stroke="#1f77b4" stroke-width="1.4" stroke-dasharray="5,3" fill="none"/>
<polyline points="348.9,520.8 373.9,512.5 398.8,504.7 423.8,496.5 448.8,487.5" stroke="#1f77b4" stroke-width="1.4" stroke-dasharray="5,3" fill="none"/>
<polyline points="448.8,487.5 473.6,478.0 498.4,468.0 523.2,457.1 548.0,445.5" stroke="#1f77b4" stroke-width="1.4" stroke-dasharray="5,3" fill="none"/>
<polyline points="548.0,445.5 572.7,433.5 597.5,420.9 622.2,407.6 647.0,393.5" stroke="#1f77b4" stroke-width="1.4" stroke-dasharray="5,3" fill="none"/>
<polyline points="647.0,393.5 671.7,379.0 696.5,363.8 721.2,347.8 746.0,331.2" stroke="#1f77b4" stroke-width="1.4" stroke-dasharray="5,3" fill="none"/>
<polyline points="746.0,331.2 770.8,314.1 795.6,296.3 820.4,277.7 845.2,258.6" stroke="#1f77b4" stroke-width="1.4" stroke-dasharray="5,3" fill="none"/>
<polyline points="845.2,258.6 870.2,238.7 895.2,218.1 920.1,197.1 945.1,176.5" stroke="#1f77b4" stroke-width="1.4" stroke-dasharray="5,3" fill="none"/>
<polyline points="227.7,688.0 261.9,648.2 292.2,606.4 320.3,563.5 348.9,520.8" stroke="#1f77b4" stroke-width="1.4" stroke-dasharray="5,3" fill="none"/>
<polyline points="1066.3,203.8 1032.0,203.4 1001.7,196.6 973.8,186.1 945.1,176.5" stroke="#1f77b4" stroke-width="1.4" stroke-dasharray="5,3" fill="none"/>
<polyline points="348.9,520.8 344.2,555.3 340.1,589.4 336.1,623.4 331.8,657.8" stroke="#1f77b4" stroke-width="1.4" stroke-dasharray="5,3" fill="none"/>
<polyline points="448.8,487.5 445.0,520.9 442.2,553.7 439.5,586.4 435.9,619.7" stroke="#1f77b4" stroke-width="1.4" stroke-dasharray="5,3" fill="none"/>
<polyline points="548.0,445.5 546.1,478.1 544.6,510.3 543.1,542.6 541.1,575.2" stroke="#1f77b4" stroke-width="1.4" stroke-dasharray="5,3" fill="none"/>
<polyline points="647.0,393.5 647.1,425.1 647.0,456.6 647.0,488.1 647.0,519.7" stroke="#1f77b4" stroke-width="1.4" stroke-dasharray="5,3" fill="none"/>
<polyline points="746.0,331.2 748.0,361.5 749.4,392.1 750.8,422.6 752.8,452.9" stroke="#1f77b4" stroke-width="1.4" stroke-dasharray="5,3" fill="none"/>
<polyline points="845.2,258.6 849.1,287.6 851.8,317.2 854.4,346.8 858.0,375.9" stroke="#1f77b4" stroke-width="1.4" stroke-dasharray="5,3" fill="none"/>
<polyline points="945.1,176.5 949.9,205.5 953.8,235.0 957.7,264.5 962.2,293.8" stroke="#1f77b4" stroke-width="1.4" stroke-dasharray="5,3" fill="none"/>
<polyline points="348.9,520.8 435.9,619.7" stroke="#1f77b4" stroke-width="1.4" stroke-dasharray="5,3" fill="none"/>
<polyline points="448.8,487.5 541.1,575.2" stroke="#1f77b4" stroke-width="1.4" stroke-dasharray="5,3" fill="none"/>
<polyline points="548.0,445.5 647.0,519.7" stroke="#1f77b4" stroke-width="1.4" stroke-dasharray="5,3" fill="none"/>
<polyline points="746.0,331.2 647.0,519.7" stroke="#1f77b4" stroke-width="1.4" stroke-dasharray="5,3" fill="none"/>
<polyline points="845.2,258.6 752.8,452.9" stroke="#1f77b4" stroke-width="1.4" stroke-dasharray="5,3" fill="none"/>
<polyline points="945.1,176.5 858.0,375.9" stroke="#1f77b4" stroke-width="1.4" stroke-dasharray="5,3" fill="none"/>
<polyline points="132.0,632.7 158.0,630.0 184.0,624.1 210.1,613.8 236.1,602.5" stroke="#1f77b4" stroke-width="1.4" stroke-dasharray="5,3" fill="none"/>
<polyline points="236.1,602.5 262.1,594.5 288.2,586.4 314.2,575.8 340.2,564.4" stroke="#1f77b4" stroke-width="1.4" stroke-dasharray="5,3" fill="none"/>
<polyline points="340.2,564.4 366.5,555.4 392.8,545.9 419.1,533.5 445.4,519.9" stroke="#1f77b4" stroke-width="1.4" stroke-dasharray="5,3" fill="none"/>
<polyline points="445.4,519.9 471.9,508.4 498.4,496.1 524.8,480.8 551.3,464.4" stroke="#1f77b4" stroke-width="1.4" stroke-dasharray="5,3" fill="none"/>
<polyline points="551.3,464.4 577.7,450.2 604.2,435.0 630.7,416.8 657.1,397.6" stroke="#1f77b4" stroke-width="1.4" stroke-dasharray="5,3" fill="none"/>
<polyline points="657.1,397.6 683.4,380.9 709.7,362.9 736.0,342.1 762.3,320.7" stroke="#1f77b4" stroke-width="1.4" stroke-dasharray="5,3" fill="none"/>
<polyline points="762.3,320.7 788.3,302.0 814.4,282.5 840.4,260.6 866.4,238.6" stroke="#1f77b4" stroke-width="1.4" stroke-dasharray="5,3" fill="none"/>
<polyline points="866.4,238.6 892.5,219.8 918.5,200.0 944.5,175.9 970.5,148.6" stroke="#1f77b4" stroke-width="1.4" stroke-dasharray="5,3" fill="none"/>
<polyline points="253.2,465.5 278.2,457.3 303.1,449.4 328.1,441.2 353.1,432.2" stroke="#1f77b4" stroke-width="1.4" stroke-dasharray="5,3" fill="none"/>
<polyline points="353.1,432.2 377.9,422.8 402.7,412.7 427.5,401.8 452.3,390.2" stroke="#1f77b4" stroke-width="1.4" stroke-dasharray="5,3" fill="none"/>
<polyline points="452.3,390.2 477.0,378.3 501.8,365.7 526.5,352.3 551.3,338.2" stroke="#1f77b4" stroke-width="1.4" stroke-dasharray="5,3" fill="none"/>
<polyline points="551.3,338.2 576.0,323.7 600.8,308.5 625.5,292.5 650.3,275.9" stroke="#1f77b4" stroke-width="1.4" stroke-dasharray="5,3" fill="none"/>
<polyline points="650.3,275.9 675.1,258.9 699.9,241.1 724.7,222.5 749.5,203.3" stroke="#1f77b4" stroke-width="1.4" stroke-dasharray="5,3" fill="none"/>
<polyline points="749.5,203.3 774.5,183.4 799.4,162.8 824.4,141.8 849.4,121.2" stroke="#1f77b4" stroke-width="1.4" stroke-dasharray="5,3" fill="none"/>
<polyline points="132.0,632.7 166.2,592.9 196.5,551.1 224.5,508.1 253.2,465.5" stroke="#1f77b4" stroke-width="1.4" stroke-dasharray="5,3" fill="none"/>
<polyline points="970.5,148.6 936.4,148.3 906.2,141.4 878.0,130.8 849.4,121.2" stroke="#1f77b4" stroke-width="1.4" stroke-dasharray="5,3" fill="none"/>
<polyline points="253.2,465.5 248.4,500.0 244.4,534.2 240.6,568.2 236.1,602.5" stroke="#1f77b4" stroke-width="1.4" stroke-dasharray="5,3" fill="none"/>
<polyline points="353.1,432.2 349.2,465.6 346.5,498.4 343.9,531.1 340.2,564.4" stroke="#1f77b4" stroke-width="1.4" stroke-dasharray="5,3" fill="none"/>
<polyline points="452.3,390.2 450.3,422.7 448.9,455.0 447.5,487.3 445.4,519.9" stroke="#1f77b4" stroke-width="1.4" stroke-dasharray="5,3" fill="none"/>
<polyline points="551.3,338.2 551.2,369.7 551.3,401.3 551.3,432.9 551.3,464.4" stroke="#1f77b4" stroke-width="1.4" stroke-dasharray="5,3" fill="none"/>
<polyline points="650.3,275.9 652.2,306.2 653.7,336.8 655.2,367.4 657.1,397.6" stroke="#1f77b4" stroke-width="1.4" stroke-dasharray="5,3" fill="none"/>
<polyline points="749.5,203.3 753.3,232.3 756.1,261.9 758.8,291.6 762.3,320.7" stroke="#1f77b4" stroke-width="1.4" stroke-dasharray="5,3" fill="none"/>
<polyline points="849.4,121.2 854.1,150.3 858.2,179.8 862.1,209.4 866.4,238.6" stroke="#1f77b4" stroke-width="1.4" stroke-dasharray="5,3" fill="none"/>
<polyline points="253.2,465.5 340.2,564.4" stroke="#1f77b4" stroke-width="1.4" stroke-dasharray="5,3" fill="none"/>
<polyline points="353.1,432.2 445.4,519.9" stroke="#1f77b4" stroke-width="1.4" stroke-dasharray="5,3" fill="none"/>
<polyline points="452.3,390.2 551.3,464.4" stroke="#1f77b4" stroke-width="1.4" stroke-dasharray="5,3" fill="none"/>
<polyline points="650.3,275.9 551.3,464.4" stroke="#1f77b4" stroke-width="1.4" stroke-dasharray="5,3" fill="none"/>
<polyline points="749.5,203.3 657.1,397.6" stroke="#1f77b4" stroke-width="1.4" stroke-dasharray="5,3" fill="none"/>
<polyline points="849.4,121.2 762.3,320.7" stroke="#1f77b4" stroke-width="1.4" stroke-dasharray="5,3" fill="none"/>
<polyline points="227.7,688.0 203.8,674.3 179.8,660.5 155.9,646.7 132.0,632.7" stroke="#1f77b4" stroke-width="1.4" stroke-dasharray="5,3" fill="none"/>
<polyline points="331.8,657.8 307.9,644.1 283.9,630.4 260.0,616.5 236.1,602.5" stroke="#1f77b4" stroke-width="1.4" stroke-dasharray="5,3" fill="none"/>
<polyline points="435.9,619.7 412.0,606.0 388.1,592.2 364.1,578.4 340.2,564.4" stroke="#1f77b4" stroke-width="1.4" stroke-dasharray="5,3" fill="none"/>
<polyline points="541.1,575.2 517.2,561.5 493.3,547.7 469.3,533.8 445.4,519.9" stroke="#1f77b4" stroke-width="1.4" stroke-dasharray="5,3" fill="none"/>
<polyline points="647.0,519.7 623.1,506.0 599.1,492.2 575.2,478.4 551.3,464.4" stroke="#1f77b4" stroke-width="1.4" stroke-dasharray="5,3" fill="none"/>
<polyline points="752.8,452.9 728.9,439.2 705.0,425.5 681.1,411.6 657.1,397.6" stroke="#1f77b4" stroke-width="1.4" stroke-dasharray="5,3" fill="none"/>
<polyline points="858.0,375.9 834.1,362.3 810.2,348.5 786.3,334.6 762.3,320.7" stroke="#1f77b4" stroke-width="1.4" stroke-dasharray="5,3" fill="none"/>
<polyline points="962.2,293.8 938.2,280.2 914.3,266.5 890.4,252.6 866.4,238.6" stroke="#1f77b4" stroke-width="1.4" stroke-dasharray="5,3" fill="none"/>
<polyline points="1066.3,203.8 1042.3,190.3 1018.4,176.5 994.5,162.6 970.5,148.6" stroke="#1f77b4" stroke-width="1.4" stroke-dasharray="5,3" fill="none"/>
<polyline points="348.9,520.8 325.0,507.1 301.0,493.3 277.1,479.5 253.2,465.5" stroke="#1f77b4" stroke-width="1.4" stroke-dasharray="5,3" fill="none"/>
<polyline points="448.8,487.5 424.8,473.8 400.9,460.1 377.0,446.2 353.1,432.2" stroke="#1f77b4" stroke-width="1.4" stroke-dasharray="5,3" fill="none"/>
<polyline points="548.0,445.5 524.1,431.8 500.1,418.1 476.2,404.2 452.3,390.2" stroke="#1f77b4" stroke-width="1.4" stroke-dasharray="5,3" fill="none"/>
<polyline points="647.0,393.5 623.1,379.8 599.1,366.1 575.2,352.2 551.3,338.2" stroke="#1f77b4" stroke-width="1.4" stroke-dasharray="5,3" fill="none"/>
<polyline points="746.0,331.2 722.1,317.5 698.1,303.7 674.2,289.8 650.3,275.9" stroke="#1f77b4" stroke-width="1.4" stroke-dasharray="5,3" fill="none"/>
<polyline points="845.2,258.6 821.3,244.9 797.4,231.1 773.4,217.2 749.5,203.3" stroke="#1f77b4" stroke-width="1.4" stroke-dasharray="5,3" fill="none"/>
<polyline points="945.1,176.5 921.2,162.8 897.3,149.0 873.3,135.2 849.4,121.2" stroke="#1f77b4" stroke-width="1.4" stroke-dasharray="5,3" fill="none"/>
<polygon points="218.7,700.6 236.7,700.6 227.7,688.0" fill="none" stroke="#333" stroke-width="1.6"/>
<line x1="216.0" y1="700.6" x2="239.4" y2="700.6" stroke="#333" stroke-width="1.6"/>
<polygon points="1039.0,224.3 1057.0,224.3 1048.0,214.4" fill="none" stroke="#333" stroke-width="1.4"/>
<circle cx="1043.5" cy="228.3" r="3" fill="none" stroke="#333"/>
<circle cx="1052.5" cy="228.3" r="3" fill="none" stroke="#333"/>
<polygon points="123.0,645.3 141.0,645.3 132.0,632.7" fill="none" stroke="#333" stroke-width="1.6"/>
<line x1="120.3" y1="645.3" x2="143.7" y2="645.3" stroke="#333" stroke-width="1.6"/>
<polygon points="943.3,169.0 961.3,169.0 952.3,159.1" fill="none" stroke="#333" stroke-width="1.4"/>
<circle cx="947.8" cy="173.0" r="3" fill="none" stroke="#333"/>
<circle cx="956.8" cy="173.0" r="3" fill="none" stroke="#333"/>
<text x="16.0" y="24.0" font-size="16" font-weight="bold" fill="#111">Pratt truss bridge (60 m, 8 panels) — deformed shape</text>
<text x="16.0" y="42.0" font-size="12" fill="#555">deformed shape ×100  ·  built-in solver max 48.46 mm (red)  ·  CalculiX max 48.23 mm (blue dashed)</text>
<line x1="30.0" y1="734.0" x2="50.8" y2="722.0" stroke="#666" stroke-width="1.4"/>
<text x="52.8" y="725.0" font-size="10" fill="#666">X</text>
<line x1="30.0" y1="734.0" x2="9.2" y2="722.0" stroke="#666" stroke-width="1.4"/>
<text x="11.2" y="725.0" font-size="10" fill="#666">Y</text>
<line x1="30.0" y1="734.0" x2="30.0" y2="710.0" stroke="#666" stroke-width="1.4"/>
<text x="32.0" y="713.0" font-size="10" fill="#666">Z</text>
</svg>
