<svg xmlns="http://www.w3.org/2000/svg" viewBox="0 0 1180 760" font-family="Segoe UI, Arial, sans-serif">
<rect width="1180" height="760" fill="white"/>
<line x1="227.7" y1="688.0" x2="330.2" y2="628.8" stroke="#1f77b4" stroke-width="2.6" stroke-linecap="round"/>
<line x1="330.2" y1="628.8" x2="432.8" y2="569.6" stroke="#1f77b4" stroke-width="2.6" stroke-linecap="round"/>
<line x1="432.8" y1="569.6" x2="535.3" y2="510.4" stroke="#1f77b4" stroke-width="2.6" stroke-linecap="round"/>
<line x1="535.3" y1="510.4" x2="637.9" y2="451.2" stroke="#1f77b4" stroke-width="2.6" stroke-linecap="round"/>
<line x1="637.9" y1="451.2" x2="740.4" y2="392.0" stroke="#1f77b4" stroke-width="2.6" stroke-linecap="round"/>
<line x1="740.4" y1="392.0" x2="842.9" y2="332.8" stroke="#1f77b4" stroke-width="2.6" stroke-linecap="round"/>
<line x1="842.9" y1="332.8" x2="945.5" y2="273.6" stroke="#1f77b4" stroke-width="2.6" stroke-linecap="round"/>
<line x1="945.5" y1="273.6" x2="1048.0" y2="214.4" stroke="#1f77b4" stroke-width="2.6" stroke-linecap="round"/>
<line x1="330.2" y1="502.5" x2="432.8" y2="443.3" stroke="#1f77b4" stroke-width="2.6" stroke-linecap="round"/>
<line x1="432.8" y1="443.3" x2="535.3" y2="384.1" stroke="#1f77b4" stroke-width="2.6" stroke-linecap="round"/>
<line x1="535.3" y1="384.1" x2="637.9" y2="324.9" stroke="#1f77b4" stroke-width="2.6" stroke-linecap="round"/>
<line x1="637.9" y1="324.9" x2="740.4" y2="265.7" stroke="#1f77b4" stroke-width="2.6" stroke-linecap="round"/>
<line x1="740.4" y1="265.7" x2="842.9" y2="206.5" stroke="#1f77b4" stroke-width="2.6" stroke-linecap="round"/>
<line x1="842.9" y1="206.5" x2="945.5" y2="147.3" stroke="#1f77b4" stroke-width="2.6" stroke-linecap="round"/>
<line x1="227.7" y1="688.0" x2="330.2" y2="502.5" stroke="#1f77b4" stroke-width="2.6" stroke-linecap="round"/>
<line x1="1048.0" y1="214.4" x2="945.5" y2="147.3" stroke="#1f77b4" stroke-width="2.6" stroke-linecap="round"/>
<line x1="330.2" y1="502.5" x2="330.2" y2="628.8" stroke="#1f77b4" stroke-width="2.6" stroke-linecap="round"/>
<line x1="432.8" y1="443.3" x2="432.8" y2="569.6" stroke="#1f77b4" stroke-width="2.6" stroke-linecap="round"/>
<line x1="535.3" y1="384.1" x2="535.3" y2="510.4" stroke="#1f77b4" stroke-width="2.6" stroke-linecap="round"/>
<line x1="637.9" y1="324.9" x2="637.9" y2="451.2" stroke="#1f77b4" stroke-width="2.6" stroke-linecap="round"/>
<line x1="740.4" y1="265.7" x2="740.4" y2="392.0" stroke="#1f77b4" stroke-width="2.6" stroke-linecap="round"/>
<line x1="842.9" y1="206.5" x2="842.9" y2="332.8" stroke="#1f77b4" stroke-width="2.6" stroke-linecap="round"/>
<line x1="945.5" y1="147.3" x2="945.5" y2="273.6" stroke="#1f77b4" stroke-width="2.6" stroke-linecap="round"/>
<line x1="330.2" y1="502.5" x2="432.8" y2="569.6" stroke="#8c8c8c" stroke-width="1.6" stroke-linecap="round"/>
<line x1="432.8" y1="443.3" x2="535.3" y2="510.4" stroke="#8c8c8c" stroke-width="1.6" stroke-linecap="round"/>
<line x1="535.3" y1="384.1" x2="637.9" y2="451.2" stroke="#8c8c8c" stroke-width="1.6" stroke-linecap="round"/>
<line x1="740.4" y1="265.7" x2="637.9" y2="451.2" stroke="#8c8c8c" stroke-width="1.6" stroke-linecap="round"/>
<line x1="842.9" y1="206.5" x2="740.4" y2="392.0" stroke="#8c8c8c" stroke-width="1.6" stroke-linecap="round"/>
<line x1="945.5" y1="147.3" x2="842.9" y2="332.8" stroke="#8c8c8c" stroke-width="1.6" stroke-linecap="round"/>
<line x1="132.0" y1="632.7" x2="234.5" y2="573.5" stroke="#1f77b4" stroke-width="2.6" stroke-linecap="round"/>
<line x1="234.5" y1="573.5" x2="337.1" y2="514.3" stroke="#1f77b4" stroke-width="2.6" stroke-linecap="round"/>
<line x1="337.1" y1="514.3" x2="439.6" y2="455.1" stroke="#1f77b4" stroke-width="2.6" stroke-linecap="round"/>
<line x1="439.6" y1="455.1" x2="542.1" y2="395.9" stroke="#1f77b4" stroke-width="2.6" stroke-linecap="round"/>
<line x1="542.1" y1="395.9" x2="644.7" y2="336.7" stroke="#1f77b4" stroke-width="2.6" stroke-linecap="round"/>
<line x1="644.7" y1="336.7" x2="747.2" y2="277.5" stroke="#1f77b4" stroke-width="2.6" stroke-linecap="round"/>
<line x1="747.2" y1="277.5" x2="849.8" y2="218.3" stroke="#1f77b4" stroke-width="2.6" stroke-linecap="round"/>
<line x1="849.8" y1="218.3" x2="952.3" y2="159.1" stroke="#1f77b4" stroke-width="2.6" stroke-linecap="round"/>
<line x1="234.5" y1="447.2" x2="337.1" y2="388.0" stroke="#1f77b4" stroke-width="2.6" stroke-linecap="round"/>
<line x1="337.1" y1="388.0" x2="439.6" y2="328.8" stroke="#1f77b4" stroke-width="2.6" stroke-linecap="round"/>
<line x1="439.6" y1="328.8" x2="542.1" y2="269.6" stroke="#1f77b4" stroke-width="2.6" stroke-linecap="round"/>
<line x1="542.1" y1="269.6" x2="644.7" y2="210.4" stroke="#1f77b4" stroke-width="2.6" stroke-linecap="round"/>
<line x1="644.7" y1="210.4" x2="747.2" y2="151.2" stroke="#1f77b4" stroke-width="2.6" stroke-linecap="round"/>
<line x1="747.2" y1="151.2" x2="849.8" y2="92.0" stroke="#1f77b4" stroke-width="2.6" stroke-linecap="round"/>
<line x1="132.0" y1="632.7" x2="234.5" y2="447.2" stroke="#1f77b4" stroke-width="2.6" stroke-linecap="round"/>
<line x1="952.3" y1="159.1" x2="849.8" y2="92.0" stroke="#1f77b4" stroke-width="2.6" stroke-linecap="round"/>
<line x1="234.5" y1="447.2" x2="234.5" y2="573.5" stroke="#1f77b4" stroke-width="2.6" stroke-linecap="round"/>
<line x1="337.1" y1="388.0" x2="337.1" y2="514.3" stroke="#1f77b4" stroke-width="2.6" stroke-linecap="round"/>
<line x1="439.6" y1="328.8" x2="439.6" y2="455.1" stroke="#1f77b4" stroke-width="2.6" stroke-linecap="round"/>
<line x1="542.1" y1="269.6" x2="542.1" y2="395.9" stroke="#1f77b4" stroke-width="2.6" stroke-linecap="round"/>
<line x1="644.7" y1="210.4" x2="644.7" y2="336.7" stroke="#1f77b4" stroke-width="2.6" stroke-linecap="round"/>
<line x1="747.2" y1="151.2" x2="747.2" y2="277.5" stroke="#1f77b4" stroke-width="2.6" stroke-linecap="round"/>
<line x1="849.8" y1="92.0" x2="849.8" y2="218.3" stroke="#1f77b4" stroke-width="2.6" stroke-linecap="round"/>
<line x1="234.5" y1="447.2" x2="337.1" y2="514.3" stroke="#8c8c8c" stroke-width="1.6" stroke-linecap="round"/>
<line x1="337.1" y1="388.0" x2="439.6" y2="455.1" stroke="#8c8c8c" stroke-width="1.6" stroke-linecap="round"/>
<line x1="439.6" y1="328.8" x2="542.1" y2="395.9" stroke="#8c8c8c" stroke-width="1.6" stroke-linecap="round"/>
<line x1="644.7" y1="210.4" x2="542.1" y2="395.9" stroke="#8c8c8c" stroke-width="1.6" stroke-linecap="round"/>
<line x1="747.2" y1="151.2" x2="644.7" y2="336.7" stroke="#8c8c8c" stroke-width="1.6" stroke-linecap="round"/>
<line x1="849.8" y1="92.0" x2="747.2" y2="277.5" stroke="#8c8c8c" stroke-width="1.6" stroke-linecap="round"/>
<line x1="227.7" y1="688.0" x2="132.0" y2="632.7" stroke="#1f77b4" stroke-width="2.6" stroke-linecap="round"/>
<line x1="330.2" y1="628.8" x2="234.5" y2="573.5" stroke="#1f77b4" stroke-width="2.6" stroke-linecap="round"/>
<line x1="432.8" y1="569.6" x2="337.1" y2="514.3" stroke="#1f77b4" stroke-width="2.6" stroke-linecap="round"/>
<line x1="535.3" y1="510.4" x2="439.6" y2="455.1" stroke="#1f77b4" stroke-width="2.6" stroke-linecap="round"/>
<line x1="637.9" y1="451.2" x2="542.1" y2="395.9" stroke="#1f77b4" stroke-width="2.6" stroke-linecap="round"/>
<line x1="740.4" y1="392.0" x2="644.7" y2="336.7" stroke="#1f77b4" stroke-width="2.6" stroke-linecap="round"/>
<line x1="842.9" y1="332.8" x2="747.2" y2="277.5" stroke="#1f77b4" stroke-width="2.6" stroke-linecap="round"/>
<line x1="945.5" y1="273.6" x2="849.8" y2="218.3" stroke="#1f77b4" stroke-width="2.6" stroke-linecap="round"/>
<line x1="1048.0" y1="214.4" x2="952.3" y2="159.1" stroke="#1f77b4" stroke-width="2.6" stroke-linecap="round"/>
<line x1="330.2" y1="502.5" x2="234.5" y2="447.2" stroke="#1f77b4" stroke-width="2.6" stroke-linecap="round"/>
<line x1="432.8" y1="443.3" x2="337.1" y2="388.0" stroke="#1f77b4" stroke-width="2.6" stroke-linecap="round"/>
<line x1="535.3" y1="384.1" x2="439.6" y2="328.8" stroke="#1f77b4" stroke-width="2.6" stroke-linecap="round"/>
<line x1="637.9" y1="324.9" x2="542.1" y2="269.6" stroke="#1f77b4" stroke-width="2.6" stroke-linecap="round"/>
<line x1="740.4" y1="265.7" x2="644.7" y2="210.4" stroke="#1f77b4" stroke-width="2.6" stroke-linecap="round"/>
<line x1="842.9" y1="206.5" x2="747.2" y2="151.2" stroke="#1f77b4" stroke-width="2.6" stroke-linecap="round"/>
<line x1="945.5" y1="147.3" x2="849.8" y2="92.0" stroke="#1f77b4" stroke-width="2.6" stroke-linecap="round"/>
<polygon points="218.7,700.6 236.7,700.6 227.7,688.0" fill="none" stroke="#333" stroke-width="1.6"/>
<line x1="216.0" y1="700.6" x2="239.4" y2="700.6" stroke="#333" stroke-width="1.6"/>
<polygon points="1039.0,224.3 1057.0,224.3 1048.0,214.4" fill="none" stroke="#333" stroke-width="1.4"/>
<circle cx="1043.5" cy="228.3" r="3" fill="none" stroke="#333"/>
<circle cx="1052.5" cy="228.3" r="3" fill="none" stroke="#333"/>
<polygon points="123.0,645.3 141.0,645.3 132.0,632.7" fill="none" stroke="#333" stroke-width="1.6"/>
<line x1="120.3" y1="645.3" x2="143.7" y2="645.3" stroke="#333" stroke-width="1.6"/>
<polygon points="943.3,169.0 961.3,169.0 952.3,159.1" fill="none" stroke="#333" stroke-width="1.4"/>
<circle cx="947.8" cy="173.0" r="3" fill="none" stroke="#333"/>
<circle cx="956.8" cy="173.0" r="3" fill="none" stroke="#333"/>
<line x1="227.7" y1="662.0" x2="227.7" y2="688.0" stroke="#d62728" stroke-width="1.1"/>
<polygon points="227.7,688.0 224.1,677.2 231.3,677.2" fill="#d62728"/>
<line x1="248.2" y1="650.2" x2="248.2" y2="676.2" stroke="#d62728" stroke-width="1.1"/>
<polygon points="248.2,676.2 244.6,665.4 251.8,665.4" fill="#d62728"/>
<line x1="268.7" y1="638.3" x2="268.7" y2="664.3" stroke="#d62728" stroke-width="1.1"/>
<polygon points="268.7,664.3 265.1,653.5 272.3,653.5" fill="#d62728"/>
<line x1="289.2" y1="626.5" x2="289.2" y2="652.5" stroke="#d62728" stroke-width="1.1"/>
<polygon points="289.2,652.5 285.6,641.7 292.8,641.7" fill="#d62728"/>
<line x1="309.7" y1="614.6" x2="309.7" y2="640.6" stroke="#d62728" stroke-width="1.1"/>
<polygon points="309.7,640.6 306.1,629.8 313.3,629.8" fill="#d62728"/>
<line x1="330.2" y1="602.8" x2="330.2" y2="628.8" stroke="#d62728" stroke-width="1.1"/>
<polygon points="330.2,628.8 326.6,618.0 333.8,618.0" fill="#d62728"/>
<polyline points="227.7,662.0 248.2,650.2 268.7,638.3 289.2,626.5 309.7,614.6 330.2,602.8" stroke="#d62728" stroke-width="1" fill="none"/>
<line x1="330.2" y1="602.8" x2="330.2" y2="628.8" stroke="#d62728" stroke-width="1.1"/>
<polygon points="330.2,628.8 326.6,618.0 333.8,618.0" fill="#d62728"/>
<line x1="350.7" y1="591.0" x2="350.7" y2="617.0" stroke="#d62728" stroke-width="1.1"/>
<polygon points="350.7,617.0 347.1,606.2 354.3,606.2" fill="#d62728"/>
<line x1="371.2" y1="579.1" x2="371.2" y2="605.1" stroke="#d62728" stroke-width="1.1"/>
<polygon points="371.2,605.1 367.6,594.3 374.8,594.3" fill="#d62728"/>
<line x1="391.7" y1="567.3" x2="391.7" y2="593.3" stroke="#d62728" stroke-width="1.1"/>
<polygon points="391.7,593.3 388.1,582.5 395.3,582.5" fill="#d62728"/>
<line x1="412.3" y1="555.4" x2="412.3" y2="581.4" stroke="#d62728" stroke-width="1.1"/>
<polygon points="412.3,581.4 408.7,570.6 415.9,570.6" fill="#d62728"/>
<line x1="432.8" y1="543.6" x2="432.8" y2="569.6" stroke="#d62728" stroke-width="1.1"/>
<polygon points="432.8,569.6 429.2,558.8 436.4,558.8" fill="#d62728"/>
<polyline points="330.2,602.8 350.7,591.0 371.2,579.1 391.7,567.3 412.3,555.4 432.8,543.6" stroke="#d62728" stroke-width="1" fill="none"/>
<line x1="432.8" y1="543.6" x2="432.8" y2="569.6" stroke="#d62728" stroke-width="1.1"/>
<polygon points="432.8,569.6 429.2,558.8 436.4,558.8" fill="#d62728"/>
<line x1="453.3" y1="531.7" x2="453.3" y2="557.7" stroke="#d62728" stroke-width="1.1"/>
<polygon points="453.3,557.7 449.7,546.9 456.9,546.9" fill="#d62728"/>
<line x1="473.8" y1="519.9" x2="473.8" y2="545.9" stroke="#d62728" stroke-width="1.1"/>
<polygon points="473.8,545.9 470.2,535.1 477.4,535.1" fill="#d62728"/>
<line x1="494.3" y1="508.1" x2="494.3" y2="534.1" stroke="#d62728" stroke-width="1.1"/>
<polygon points="494.3,534.1 490.7,523.3 497.9,523.3" fill="#d62728"/>
<line x1="514.8" y1="496.2" x2="514.8" y2="522.2" stroke="#d62728" stroke-width="1.1"/>
<polygon points="514.8,522.2 511.2,511.4 518.4,511.4" fill="#d62728"/>
<line x1="535.3" y1="484.4" x2="535.3" y2="510.4" stroke="#d62728" stroke-width="1.1"/>
<polygon points="535.3,510.4 531.7,499.6 538.9,499.6" fill="#d62728"/>
<polyline points="432.8,543.6 453.3,531.7 473.8,519.9 494.3,508.1 514.8,496.2 535.3,484.4" stroke="#d62728" stroke-width="1" fill="none"/>
<line x1="535.3" y1="484.4" x2="535.3" y2="510.4" stroke="#d62728" stroke-width="1.1"/>
<polygon points="535.3,510.4 531.7,499.6 538.9,499.6" fill="#d62728"/>
<line x1="555.8" y1="472.5" x2="555.8" y2="498.5" stroke="#d62728" stroke-width="1.1"/>
<polygon points="555.8,498.5 552.2,487.7 559.4,487.7" fill="#d62728"/>
<line x1="576.3" y1="460.7" x2="576.3" y2="486.7" stroke="#d62728" stroke-width="1.1"/>
<polygon points="576.3,486.7 572.7,475.9 579.9,475.9" fill="#d62728"/>
<line x1="596.8" y1="448.9" x2="596.8" y2="474.9" stroke="#d62728" stroke-width="1.1"/>
<polygon points="596.8,474.9 593.2,464.1 600.4,464.1" fill="#d62728"/>
<line x1="617.3" y1="437.0" x2="617.3" y2="463.0" stroke="#d62728" stroke-width="1.1"/>
<polygon points="617.3,463.0 613.7,452.2 620.9,452.2" fill="#d62728"/>
<line x1="637.9" y1="425.2" x2="637.9" y2="451.2" stroke="#d62728" stroke-width="1.1"/>
<polygon points="637.9,451.2 634.3,440.4 641.5,440.4" fill="#d62728"/>
<polyline points="535.3,484.4 555.8,472.5 576.3,460.7 596.8,448.9 617.3,437.0 637.9,425.2" stroke="#d62728" stroke-width="1" fill="none"/>
<line x1="637.9" y1="425.2" x2="637.9" y2="451.2" stroke="#d62728" stroke-width="1.1"/>
<polygon points="637.9,451.2 634.3,440.4 641.5,440.4" fill="#d62728"/>
<line x1="658.4" y1="413.3" x2="658.4" y2="439.3" stroke="#d62728" stroke-width="1.1"/>
<polygon points="658.4,439.3 654.8,428.5 662.0,428.5" fill="#d62728"/>
<line x1="678.9" y1="401.5" x2="678.9" y2="427.5" stroke="#d62728" stroke-width="1.1"/>
<polygon points="678.9,427.5 675.3,416.7 682.5,416.7" fill="#d62728"/>
<line x1="699.4" y1="389.7" x2="699.4" y2="415.7" stroke="#d62728" stroke-width="1.1"/>
<polygon points="699.4,415.7 695.8,404.9 703.0,404.9" fill="#d62728"/>
<line x1="719.9" y1="377.8" x2="719.9" y2="403.8" stroke="#d62728" stroke-width="1.1"/>
<polygon points="719.9,403.8 716.3,393.0 723.5,393.0" fill="#d62728"/>
<line x1="740.4" y1="366.0" x2="740.4" y2="392.0" stroke="#d62728" stroke-width="1.1"/>
<polygon points="740.4,392.0 736.8,381.2 744.0,381.2" fill="#d62728"/>
<polyline points="637.9,425.2 658.4,413.3 678.9,401.5 699.4,389.7 719.9,377.8 740.4,366.0" stroke="#d62728" stroke-width="1" fill="none"/>
<line x1="740.4" y1="366.0" x2="740.4" y2="392.0" stroke="#d62728" stroke-width="1.1"/>
<polygon points="740.4,392.0 736.8,381.2 744.0,381.2" fill="#d62728"/>
<line x1="760.9" y1="354.1" x2="760.9" y2="380.1" stroke="#d62728" stroke-width="1.1"/>
<polygon points="760.9,380.1 757.3,369.3 764.5,369.3" fill="#d62728"/>
<line x1="781.4" y1="342.3" x2="781.4" y2="368.3" stroke="#d62728" stroke-width="1.1"/>
<polygon points="781.4,368.3 777.8,357.5 785.0,357.5" fill="#d62728"/>
<line x1="801.9" y1="330.5" x2="801.9" y2="356.5" stroke="#d62728" stroke-width="1.1"/>
<polygon points="801.9,356.5 798.3,345.7 805.5,345.7" fill="#d62728"/>
<line x1="822.4" y1="318.6" x2="822.4" y2="344.6" stroke="#d62728" stroke-width="1.1"/>
<polygon points="822.4,344.6 818.8,333.8 826.0,333.8" fill="#d62728"/>
<line x1="842.9" y1="306.8" x2="842.9" y2="332.8" stroke="#d62728" stroke-width="1.1"/>
<polygon points="842.9,332.8 839.3,322.0 846.5,322.0" fill="#d62728"/>
<polyline points="740.4,366.0 760.9,354.1 781.4,342.3 801.9,330.5 822.4,318.6 842.9,306.8" stroke="#d62728" stroke-width="1" fill="none"/>
<line x1="842.9" y1="306.8" x2="842.9" y2="332.8" stroke="#d62728" stroke-width="1.1"/>
<polygon points="842.9,332.8 839.3,322.0 846.5,322.0" fill="#d62728"/>
<line x1="863.5" y1="294.9" x2="863.5" y2="320.9" stroke="#d62728" stroke-width="1.1"/>
<polygon points="863.5,320.9 859.9,310.1 867.1,310.1" fill="#d62728"/>
<line x1="884.0" y1="283.1" x2="884.0" y2="309.1" stroke="#d62728" stroke-width="1.1"/>
<polygon points="884.0,309.1 880.4,298.3 887.6,298.3" fill="#d62728"/>
<line x1="904.5" y1="271.2" x2="904.5" y2="297.2" stroke="#d62728" stroke-width="1.1"/>
<polygon points="904.5,297.2 900.9,286.4 908.1,286.4" fill="#d62728"/>
<line x1="925.0" y1="259.4" x2="925.0" y2="285.4" stroke="#d62728" stroke-width="1.1"/>
<polygon points="925.0,285.4 921.4,274.6 928.6,274.6" fill="#d62728"/>
<line x1="945.5" y1="247.6" x2="945.5" y2="273.6" stroke="#d62728" stroke-width="1.1"/>
<polygon points="945.5,273.6 941.9,262.8 949.1,262.8" fill="#d62728"/>
<polyline points="842.9,306.8 863.5,294.9 884.0,283.1 904.5,271.2 925.0,259.4 945.5,247.6" stroke="#d62728" stroke-width="1" fill="none"/>
<line x1="945.5" y1="247.6" x2="945.5" y2="273.6" stroke="#d62728" stroke-width="1.1"/>
<polygon points="945.5,273.6 941.9,262.8 949.1,262.8" fill="#d62728"/>
<line x1="966.0" y1="235.7" x2="966.0" y2="261.7" stroke="#d62728" stroke-width="1.1"/>
<polygon points="966.0,261.7 962.4,250.9 969.6,250.9" fill="#d62728"/>
<line x1="986.5" y1="223.9" x2="986.5" y2="249.9" stroke="#d62728" stroke-width="1.1"/>
<polygon points="986.5,249.9 982.9,239.1 990.1,239.1" fill="#d62728"/>
<line x1="1007.0" y1="212.0" x2="1007.0" y2="238.0" stroke="#d62728" stroke-width="1.1"/>
<polygon points="1007.0,238.0 1003.4,227.2 1010.6,227.2" fill="#d62728"/>
<line x1="1027.5" y1="200.2" x2="1027.5" y2="226.2" stroke="#d62728" stroke-width="1.1"/>
<polygon points="1027.5,226.2 1023.9,215.4 1031.1,215.4" fill="#d62728"/>
<line x1="1048.0" y1="188.4" x2="1048.0" y2="214.4" stroke="#d62728" stroke-width="1.1"/>
<polygon points="1048.0,214.4 1044.4,203.6 1051.6,203.6" fill="#d62728"/>
<polyline points="945.5,247.6 966.0,235.7 986.5,223.9 1007.0,212.0 1027.5,200.2 1048.0,188.4" stroke="#d62728" stroke-width="1" fill="none"/>
<line x1="132.0" y1="606.7" x2="132.0" y2="632.7" stroke="#d62728" stroke-width="1.1"/>
<polygon points="132.0,632.7 128.4,621.9 135.6,621.9" fill="#d62728"/>
<line x1="152.5" y1="594.9" x2="152.5" y2="620.9" stroke="#d62728" stroke-width="1.1"/>
<polygon points="152.5,620.9 148.9,610.1 156.1,610.1" fill="#d62728"/>
<line x1="173.0" y1="583.1" x2="173.0" y2="609.1" stroke="#d62728" stroke-width="1.1"/>
<polygon points="173.0,609.1 169.4,598.3 176.6,598.3" fill="#d62728"/>
<line x1="193.5" y1="571.2" x2="193.5" y2="597.2" stroke="#d62728" stroke-width="1.1"/>
<polygon points="193.5,597.2 189.9,586.4 197.1,586.4" fill="#d62728"/>
<line x1="214.0" y1="559.4" x2="214.0" y2="585.4" stroke="#d62728" stroke-width="1.1"/>
<polygon points="214.0,585.4 210.4,574.6 217.6,574.6" fill="#d62728"/>
<line x1="234.5" y1="547.5" x2="234.5" y2="573.5" stroke="#d62728" stroke-width="1.1"/>
<polygon points="234.5,573.5 230.9,562.7 238.1,562.7" fill="#d62728"/>
<polyline points="132.0,606.7 152.5,594.9 173.0,583.1 193.5,571.2 214.0,559.4 234.5,547.5" stroke="#d62728" stroke-width="1" fill="none"/>
<line x1="234.5" y1="547.5" x2="234.5" y2="573.5" stroke="#d62728" stroke-width="1.1"/>
<polygon points="234.5,573.5 230.9,562.7 238.1,562.7" fill="#d62728"/>
<line x1="255.0" y1="535.7" x2="255.0" y2="561.7" stroke="#d62728" stroke-width="1.1"/>
<polygon points="255.0,561.7 251.4,550.9 258.6,550.9" fill="#d62728"/>
<line x1="275.5" y1="523.9" x2="275.5" y2="549.9" stroke="#d62728" stroke-width="1.1"/>
<polygon points="275.5,549.9 271.9,539.1 279.1,539.1" fill="#d62728"/>
<line x1="296.0" y1="512.0" x2="296.0" y2="538.0" stroke="#d62728" stroke-width="1.1"/>
<polygon points="296.0,538.0 292.4,527.2 299.6,527.2" fill="#d62728"/>
<line x1="316.5" y1="500.2" x2="316.5" y2="526.2" stroke="#d62728" stroke-width="1.1"/>
<polygon points="316.5,526.2 312.9,515.4 320.1,515.4" fill="#d62728"/>
<line x1="337.1" y1="488.3" x2="337.1" y2="514.3" stroke="#d62728" stroke-width="1.1"/>
<polygon points="337.1,514.3 333.5,503.5 340.7,503.5" fill="#d62728"/>
<polyline points="234.5,547.5 255.0,535.7 275.5,523.9 296.0,512.0 316.5,500.2 337.1,488.3" stroke="#d62728" stroke-width="1" fill="none"/>
<line x1="337.1" y1="488.3" x2="337.1" y2="514.3" stroke="#d62728" stroke-width="1.1"/>
<polygon points="337.1,514.3 333.5,503.5 340.7,503.5" fill="#d62728"/>
<line x1="357.6" y1="476.5" x2="357.6" y2="502.5" stroke="#d62728" stroke-width="1.1"/>
<polygon points="357.6,502.5 354.0,491.7 361.2,491.7" fill="#d62728"/>
<line x1="378.1" y1="464.6" x2="378.1" y2="490.6" stroke="#d62728" stroke-width="1.1"/>
<polygon points="378.1,490.6 374.5,479.8 381.7,479.8" fill="#d62728"/>
<line x1="398.6" y1="452.8" x2="398.6" y2="478.8" stroke="#d62728" stroke-width="1.1"/>
<polygon points="398.6,478.8 395.0,468.0 402.2,468.0" fill="#d62728"/>
<line x1="419.1" y1="441.0" x2="419.1" y2="467.0" stroke="#d62728" stroke-width="1.1"/>
<polygon points="419.1,467.0 415.5,456.2 422.7,456.2" fill="#d62728"/>
<line x1="439.6" y1="429.1" x2="439.6" y2="455.1" stroke="#d62728" stroke-width="1.1"/>
<polygon points="439.6,455.1 436.0,444.3 443.2,444.3" fill="#d62728"/>
<polyline points="337.1,488.3 357.6,476.5 378.1,464.6 398.6,452.8 419.1,441.0 439.6,429.1" stroke="#d62728" stroke-width="1" fill="none"/>
<line x1="439.6" y1="429.1" x2="439.6" y2="455.1" stroke="#d62728" stroke-width="1.1"/>
<polygon points="439.6,455.1 436.0,444.3 443.2,444.3" fill="#d62728"/>
<line x1="460.1" y1="417.3" x2="460.1" y2="443.3" stroke="#d62728" stroke-width="1.1"/>
<polygon points="460.1,443.3 456.5,432.5 463.7,432.5" fill="#d62728"/>
<line x1="480.6" y1="405.4" x2="480.6" y2="431.4" stroke="#d62728" stroke-width="1.1"/>
<polygon points="480.6,431.4 477.0,420.6 484.2,420.6" fill="#d62728"/>
<line x1="501.1" y1="393.6" x2="501.1" y2="419.6" stroke="#d62728" stroke-width="1.1"/>
<polygon points="501.1,419.6 497.5,408.8 504.7,408.8" fill="#d62728"/>
<line x1="521.6" y1="381.8" x2="521.6" y2="407.8" stroke="#d62728" stroke-width="1.1"/>
<polygon points="521.6,407.8 518.0,397.0 525.2,397.0" fill="#d62728"/>
<line x1="542.1" y1="369.9" x2="542.1" y2="395.9" stroke="#d62728" stroke-width="1.1"/>
<polygon points="542.1,395.9 538.5,385.1 545.7,385.1" fill="#d62728"/>
<polyline points="439.6,429.1 460.1,417.3 480.6,405.4 501.1,393.6 521.6,381.8 542.1,369.9" stroke="#d62728" stroke-width="1" fill="none"/>
<line x1="542.1" y1="369.9" x2="542.1" y2="395.9" stroke="#d62728" stroke-width="1.1"/>
<polygon points="542.1,395.9 538.5,385.1 545.7,385.1" fill="#d62728"/>
<line x1="562.7" y1="358.1" x2="562.7" y2="384.1" stroke="#d62728" stroke-width="1.1"/>
<polygon points="562.7,384.1 559.1,373.3 566.3,373.3" fill="#d62728"/>
<line x1="583.2" y1="346.2" x2="583.2" y2="372.2" stroke="#d62728" stroke-width="1.1"/>
<polygon points="583.2,372.2 579.6,361.4 586.8,361.4" fill="#d62728"/>
<line x1="603.7" y1="334.4" x2="603.7" y2="360.4" stroke="#d62728" stroke-width="1.1"/>
<polygon points="603.7,360.4 600.1,349.6 607.3,349.6" fill="#d62728"/>
<line x1="624.2" y1="322.6" x2="624.2" y2="348.6" stroke="#d62728" stroke-width="1.1"/>
<polygon points="624.2,348.6 620.6,337.8 627.8,337.8" fill="#d62728"/>
<line x1="644.7" y1="310.7" x2="644.7" y2="336.7" stroke="#d62728" stroke-width="1.1"/>
<polygon points="644.7,336.7 641.1,325.9 648.3,325.9" fill="#d62728"/>
<polyline points="542.1,369.9 562.7,358.1 583.2,346.2 603.7,334.4 624.2,322.6 644.7,310.7" stroke="#d62728" stroke-width="1" fill="none"/>
<line x1="644.7" y1="310.7" x2="644.7" y2="336.7" stroke="#d62728" stroke-width="1.1"/>
<polygon points="644.7,336.7 641.1,325.9 648.3,325.9" fill="#d62728"/>
<line x1="665.2" y1="298.9" x2="665.2" y2="324.9" stroke="#d62728" stroke-width="1.1"/>
<polygon points="665.2,324.9 661.6,314.1 668.8,314.1" fill="#d62728"/>
<line x1="685.7" y1="287.0" x2="685.7" y2="313.0" stroke="#d62728" stroke-width="1.1"/>
<polygon points="685.7,313.0 682.1,302.2 689.3,302.2" fill="#d62728"/>
<line x1="706.2" y1="275.2" x2="706.2" y2="301.2" stroke="#d62728" stroke-width="1.1"/>
<polygon points="706.2,301.2 702.6,290.4 709.8,290.4" fill="#d62728"/>
<line x1="726.7" y1="263.4" x2="726.7" y2="289.4" stroke="#d62728" stroke-width="1.1"/>
<polygon points="726.7,289.4 723.1,278.6 730.3,278.6" fill="#d62728"/>
<line x1="747.2" y1="251.5" x2="747.2" y2="277.5" stroke="#d62728" stroke-width="1.1"/>
<polygon points="747.2,277.5 743.6,266.7 750.8,266.7" fill="#d62728"/>
<polyline points="644.7,310.7 665.2,298.9 685.7,287.0 706.2,275.2 726.7,263.4 747.2,251.5" stroke="#d62728" stroke-width="1" fill="none"/>
<line x1="747.2" y1="251.5" x2="747.2" y2="277.5" stroke="#d62728" stroke-width="1.1"/>
<polygon points="747.2,277.5 743.6,266.7 750.8,266.7" fill="#d62728"/>
<line x1="767.7" y1="239.7" x2="767.7" y2="265.7" stroke="#d62728" stroke-width="1.1"/>
<polygon points="767.7,265.7 764.1,254.9 771.3,254.9" fill="#d62728"/>
<line x1="788.3" y1="227.8" x2="788.3" y2="253.8" stroke="#d62728" stroke-width="1.1"/>
<polygon points="788.3,253.8 784.7,243.0 791.9,243.0" fill="#d62728"/>
<line x1="808.8" y1="216.0" x2="808.8" y2="242.0" stroke="#d62728" stroke-width="1.1"/>
<polygon points="808.8,242.0 805.2,231.2 812.4,231.2" fill="#d62728"/>
<line x1="829.3" y1="204.1" x2="829.3" y2="230.1" stroke="#d62728" stroke-width="1.1"/>
<polygon points="829.3,230.1 825.7,219.3 832.9,219.3" fill="#d62728"/>
<line x1="849.8" y1="192.3" x2="849.8" y2="218.3" stroke="#d62728" stroke-width="1.1"/>
<polygon points="849.8,218.3 846.2,207.5 853.4,207.5" fill="#d62728"/>
<polyline points="747.2,251.5 767.7,239.7 788.3,227.8 808.8,216.0 829.3,204.1 849.8,192.3" stroke="#d62728" stroke-width="1" fill="none"/>
<line x1="849.8" y1="192.3" x2="849.8" y2="218.3" stroke="#d62728" stroke-width="1.1"/>
<polygon points="849.8,218.3 846.2,207.5 853.4,207.5" fill="#d62728"/>
<line x1="870.3" y1="180.5" x2="870.3" y2="206.5" stroke="#d62728" stroke-width="1.1"/>
<polygon points="870.3,206.5 866.7,195.7 873.9,195.7" fill="#d62728"/>
<line x1="890.8" y1="168.6" x2="890.8" y2="194.6" stroke="#d62728" stroke-width="1.1"/>
<polygon points="890.8,194.6 887.2,183.8 894.4,183.8" fill="#d62728"/>
<line x1="911.3" y1="156.8" x2="911.3" y2="182.8" stroke="#d62728" stroke-width="1.1"/>
<polygon points="911.3,182.8 907.7,172.0 914.9,172.0" fill="#d62728"/>
<line x1="931.8" y1="144.9" x2="931.8" y2="170.9" stroke="#d62728" stroke-width="1.1"/>
<polygon points="931.8,170.9 928.2,160.1 935.4,160.1" fill="#d62728"/>
<line x1="952.3" y1="133.1" x2="952.3" y2="159.1" stroke="#d62728" stroke-width="1.1"/>
<polygon points="952.3,159.1 948.7,148.3 955.9,148.3" fill="#d62728"/>
<polyline points="849.8,192.3 870.3,180.5 890.8,168.6 911.3,156.8 931.8,144.9 952.3,133.1" stroke="#d62728" stroke-width="1" fill="none"/>
<text x="16.0" y="24.0" font-size="16" font-weight="bold" fill="#111">Pratt truss bridge (60 m, 8 panels) — geometry, supports &amp; loads</text>
<text x="16.0" y="42.0" font-size="12" fill="#555">32 nodes, 74 members  ·  max UDL 30.0 kN/m   ·   self-weight ×1</text>
<line x1="30.0" y1="734.0" x2="50.8" y2="722.0" stroke="#666" stroke-width="1.4"/>
<text x="52.8" y="725.0" font-size="10" fill="#666">X</text>
<line x1="30.0" y1="734.0" x2="9.2" y2="722.0" stroke="#666" stroke-width="1.4"/>
<text x="11.2" y="725.0" font-size="10" fill="#666">Y</text>
<line x1="30.0" y1="734.0" x2="30.0" y2="710.0" stroke="#666" stroke-width="1.4"/>
<text x="32.0" y="713.0" font-size="10" fill="#666">Z</text>
<text x="16.0" y="750.0" font-size="10" fill="#777">beam members: blue · truss members: grey · UDL: red arrows · point loads: violet arrows</text>
</svg>
