<svg xmlns="http://www.w3.org/2000/svg" viewBox="0 0 1180 760" font-family="Segoe UI, Arial, sans-serif">
<rect width="1180" height="760" fill="white"/>
<line x1="227.7" y1="688.0" x2="330.2" y2="628.8" stroke="#bbb" stroke-width="1.4" stroke-linecap="round"/>
<line x1="330.2" y1="628.8" x2="432.8" y2="569.6" stroke="#bbb" stroke-width="1.4" stroke-linecap="round"/>
<line x1="432.8" y1="569.6" x2="535.3" y2="510.4" stroke="#bbb" stroke-width="1.4" stroke-linecap="round"/>
<line x1="535.3" y1="510.4" x2="637.9" y2="451.2" stroke="#bbb" stroke-width="1.4" stroke-linecap="round"/>
<line x1="637.9" y1="451.2" x2="740.4" y2="392.0" stroke="#bbb" stroke-width="1.4" stroke-linecap="round"/>
<line x1="740.4" y1="392.0" x2="842.9" y2="332.8" stroke="#bbb" stroke-width="1.4" stroke-linecap="round"/>
<line x1="842.9" y1="332.8" x2="945.5" y2="273.6" stroke="#bbb" stroke-width="1.4" stroke-linecap="round"/>
<line x1="945.5" y1="273.6" x2="1048.0" y2="214.4" stroke="#bbb" stroke-width="1.4" stroke-linecap="round"/>
<line x1="330.2" y1="502.5" x2="432.8" y2="443.3" stroke="#bbb" stroke-width="1.4" stroke-linecap="round"/>
<line x1="432.8" y1="443.3" x2="535.3" y2="384.1" stroke="#bbb" stroke-width="1.4" stroke-linecap="round"/>
<line x1="535.3" y1="384.1" x2="637.9" y2="324.9" stroke="#bbb" stroke-width="1.4" stroke-linecap="round"/>
<line x1="637.9" y1="324.9" x2="740.4" y2="265.7" stroke="#bbb" stroke-width="1.4" stroke-linecap="round"/>
<line x1="740.4" y1="265.7" x2="842.9" y2="206.5" stroke="#bbb" stroke-width="1.4" stroke-linecap="round"/>
<line x1="842.9" y1="206.5" x2="945.5" y2="147.3" stroke="#bbb" stroke-width="1.4" stroke-linecap="round"/>
<line x1="227.7" y1="688.0" x2="330.2" y2="502.5" stroke="#bbb" stroke-width="1.4" stroke-linecap="round"/>
<line x1="1048.0" y1="214.4" x2="945.5" y2="147.3" stroke="#bbb" stroke-width="1.4" stroke-linecap="round"/>
<line x1="330.2" y1="502.5" x2="330.2" y2="628.8" stroke="#bbb" stroke-width="1.4" stroke-linecap="round"/>
<line x1="432.8" y1="443.3" x2="432.8" y2="569.6" stroke="#bbb" stroke-width="1.4" stroke-linecap="round"/>
<line x1="535.3" y1="384.1" x2="535.3" y2="510.4" stroke="#bbb" stroke-width="1.4" stroke-linecap="round"/>
<line x1="637.9" y1="324.9" x2="637.9" y2="451.2" stroke="#bbb" stroke-width="1.4" stroke-linecap="round"/>
<line x1="740.4" y1="265.7" x2="740.4" y2="392.0" stroke="#bbb" stroke-width="1.4" stroke-linecap="round"/>
<line x1="842.9" y1="206.5" x2="842.9" y2="332.8" stroke="#bbb" stroke-width="1.4" stroke-linecap="round"/>
<line x1="945.5" y1="147.3" x2="945.5" y2="273.6" stroke="#bbb" stroke-width="1.4" stroke-linecap="round"/>
<line x1="330.2" y1="502.5" x2="432.8" y2="569.6" stroke="#bbb" stroke-width="1.4" stroke-linecap="round"/>
<line x1="432.8" y1="443.3" x2="535.3" y2="510.4" stroke="#bbb" stroke-width="1.4" stroke-linecap="round"/>
<line x1="535.3" y1="384.1" x2="637.9" y2="451.2" stroke="#bbb" stroke-width="1.4" stroke-linecap="round"/>
<line x1="740.4" y1="265.7" x2="637.9" y2="451.2" stroke="#bbb" stroke-width="1.4" stroke-linecap="round"/>
<line x1="842.9" y1="206.5" x2="740.4" y2="392.0" stroke="#bbb" stroke-width="1.4" stroke-linecap="round"/>
<line x1="945.5" y1="147.3" x2="842.9" y2="332.8" stroke="#bbb" stroke-width="1.4" stroke-linecap="round"/>
<line x1="132.0" y1="632.7" x2="234.5" y2="573.5" stroke="#bbb" stroke-width="1.4" stroke-linecap="round"/>
<line x1="234.5" y1="573.5" x2="337.1" y2="514.3" stroke="#bbb" stroke-width="1.4" stroke-linecap="round"/>
<line x1="337.1" y1="514.3" x2="439.6" y2="455.1" stroke="#bbb" stroke-width="1.4" stroke-linecap="round"/>
<line x1="439.6" y1="455.1" x2="542.1" y2="395.9" stroke="#bbb" stroke-width="1.4" stroke-linecap="round"/>
<line x1="542.1" y1="395.9" x2="644.7" y2="336.7" stroke="#bbb" stroke-width="1.4" stroke-linecap="round"/>
<line x1="644.7" y1="336.7" x2="747.2" y2="277.5" stroke="#bbb" stroke-width="1.4" stroke-linecap="round"/>
<line x1="747.2" y1="277.5" x2="849.8" y2="218.3" stroke="#bbb" stroke-width="1.4" stroke-linecap="round"/>
<line x1="849.8" y1="218.3" x2="952.3" y2="159.1" stroke="#bbb" stroke-width="1.4" stroke-linecap="round"/>
<line x1="234.5" y1="447.2" x2="337.1" y2="388.0" stroke="#bbb" stroke-width="1.4" stroke-linecap="round"/>
<line x1="337.1" y1="388.0" x2="439.6" y2="328.8" stroke="#bbb" stroke-width="1.4" stroke-linecap="round"/>
<line x1="439.6" y1="328.8" x2="542.1" y2="269.6" stroke="#bbb" stroke-width="1.4" stroke-linecap="round"/>
<line x1="542.1" y1="269.6" x2="644.7" y2="210.4" stroke="#bbb" stroke-width="1.4" stroke-linecap="round"/>
<line x1="644.7" y1="210.4" x2="747.2" y2="151.2" stroke="#bbb" stroke-width="1.4" stroke-linecap="round"/>
<line x1="747.2" y1="151.2" x2="849.8" y2="92.0" stroke="#bbb" stroke-width="1.4" stroke-linecap="round"/>
<line x1="132.0" y1="632.7" x2="234.5" y2="447.2" stroke="#bbb" stroke-width="1.4" stroke-linecap="round"/>
<line x1="952.3" y1="159.1" x2="849.8" y2="92.0" stroke="#bbb" stroke-width="1.4" stroke-linecap="round"/>
<line x1="234.5" y1="447.2" x2="234.5" y2="573.5" stroke="#bbb" stroke-width="1.4" stroke-linecap="round"/>
<line x1="337.1" y1="388.0" x2="337.1" y2="514.3" stroke="#bbb" stroke-width="1.4" stroke-linecap="round"/>
<line x1="439.6" y1="328.8" x2="439.6" y2="455.1" stroke="#bbb" stroke-width="1.4" stroke-linecap="round"/>
<line x1="542.1" y1="269.6" x2="542.1" y2="395.9" stroke="#bbb" stroke-width="1.4" stroke-linecap="round"/>
<line x1="644.7" y1="210.4" x2="644.7" y2="336.7" stroke="#bbb" stroke-width="1.4" stroke-linecap="round"/>
<line x1="747.2" y1="151.2" x2="747.2" y2="277.5" stroke="#bbb" stroke-width="1.4" stroke-linecap="round"/>
<line x1="849.8" y1="92.0" x2="849.8" y2="218.3" stroke="#bbb" stroke-width="1.4" stroke-linecap="round"/>
<line x1="234.5" y1="447.2" x2="337.1" y2="514.3" stroke="#bbb" stroke-width="1.4" stroke-linecap="round"/>
<line x1="337.1" y1="388.0" x2="439.6" y2="455.1" stroke="#bbb" stroke-width="1.4" stroke-linecap="round"/>
<line x1="439.6" y1="328.8" x2="542.1" y2="395.9" stroke="#bbb" stroke-width="1.4" stroke-linecap="round"/>
<line x1="644.7" y1="210.4" x2="542.1" y2="395.9" stroke="#bbb" stroke-width="1.4" stroke-linecap="round"/>
<line x1="747.2" y1="151.2" x2="644.7" y2="336.7" stroke="#bbb" stroke-width="1.4" stroke-linecap="round"/>
<line x1="849.8" y1="92.0" x2="747.2" y2="277.5" stroke="#bbb" stroke-width="1.4" stroke-linecap="round"/>
<line x1="227.7" y1="688.0" x2="132.0" y2="632.7" stroke="#bbb" stroke-width="1.4" stroke-linecap="round"/>
<line x1="330.2" y1="628.8" x2="234.5" y2="573.5" stroke="#bbb" stroke-width="1.4" stroke-linecap="round"/>
<line x1="432.8" y1="569.6" x2="337.1" y2="514.3" stroke="#bbb" stroke-width="1.4" stroke-linecap="round"/>
<line x1="535.3" y1="510.4" x2="439.6" y2="455.1" stroke="#bbb" stroke-width="1.4" stroke-linecap="round"/>
<line x1="637.9" y1="451.2" x2="542.1" y2="395.9" stroke="#bbb" stroke-width="1.4" stroke-linecap="round"/>
<line x1="740.4" y1="392.0" x2="644.7" y2="336.7" stroke="#bbb" stroke-width="1.4" stroke-linecap="round"/>
<line x1="842.9" y1="332.8" x2="747.2" y2="277.5" stroke="#bbb" stroke-width="1.4" stroke-linecap="round"/>
<line x1="945.5" y1="273.6" x2="849.8" y2="218.3" stroke="#bbb" stroke-width="1.4" stroke-linecap="round"/>
<line x1="1048.0" y1="214.4" x2="952.3" y2="159.1" stroke="#bbb" stroke-width="1.4" stroke-linecap="round"/>
<line x1="330.2" y1="502.5" x2="234.5" y2="447.2" stroke="#bbb" stroke-width="1.4" stroke-linecap="round"/>
<line x1="432.8" y1="443.3" x2="337.1" y2="388.0" stroke="#bbb" stroke-width="1.4" stroke-linecap="round"/>
<line x1="535.3" y1="384.1" x2="439.6" y2="328.8" stroke="#bbb" stroke-width="1.4" stroke-linecap="round"/>
<line x1="637.9" y1="324.9" x2="542.1" y2="269.6" stroke="#bbb" stroke-width="1.4" stroke-linecap="round"/>
<line x1="740.4" y1="265.7" x2="644.7" y2="210.4" stroke="#bbb" stroke-width="1.4" stroke-linecap="round"/>
<line x1="842.9" y1="206.5" x2="747.2" y2="151.2" stroke="#bbb" stroke-width="1.4" stroke-linecap="round"/>
<line x1="945.5" y1="147.3" x2="849.8" y2="92.0" stroke="#bbb" stroke-width="1.4" stroke-linecap="round"/>
<circle cx="227.7" cy="688.0" r="3" fill="#1f77b4"/>
<circle cx="330.2" cy="628.8" r="3" fill="#1f77b4"/>
<circle cx="432.8" cy="569.6" r="3" fill="#1f77b4"/>
<circle cx="535.3" cy="510.4" r="3" fill="#1f77b4"/>
<circle cx="637.9" cy="451.2" r="3" fill="#1f77b4"/>
<circle cx="740.4" cy="392.0" r="3" fill="#1f77b4"/>
<circle cx="842.9" cy="332.8" r="3" fill="#1f77b4"/>
<circle cx="945.5" cy="273.6" r="3" fill="#1f77b4"/>
<circle cx="1048.0" cy="214.4" r="3" fill="#1f77b4"/>
<circle cx="330.2" cy="502.5" r="3" fill="#1f77b4"/>
<circle cx="432.8" cy="443.3" r="3" fill="#1f77b4"/>
<circle cx="535.3" cy="384.1" r="3" fill="#1f77b4"/>
<circle cx="637.9" cy="324.9" r="3" fill="#1f77b4"/>
<circle cx="740.4" cy="265.7" r="3" fill="#1f77b4"/>
<circle cx="842.9" cy="206.5" r="3" fill="#1f77b4"/>
<circle cx="945.5" cy="147.3" r="3" fill="#1f77b4"/>
<circle cx="132.0" cy="632.7" r="3" fill="#1f77b4"/>
<circle cx="234.5" cy="573.5" r="3" fill="#1f77b4"/>
<circle cx="337.1" cy="514.3" r="3" fill="#1f77b4"/>
<circle cx="439.6" cy="455.1" r="3" fill="#1f77b4"/>
<circle cx="542.1" cy="395.9" r="3" fill="#1f77b4"/>
<circle cx="644.7" cy="336.7" r="3" fill="#1f77b4"/>
<circle cx="747.2" cy="277.5" r="3" fill="#1f77b4"/>
<circle cx="849.8" cy="218.3" r="3" fill="#1f77b4"/>
<circle cx="952.3" cy="159.1" r="3" fill="#1f77b4"/>
<circle cx="234.5" cy="447.2" r="3" fill="#1f77b4"/>
<circle cx="337.1" cy="388.0" r="3" fill="#1f77b4"/>
<circle cx="439.6" cy="328.8" r="3" fill="#1f77b4"/>
<circle cx="542.1" cy="269.6" r="3" fill="#1f77b4"/>
<circle cx="644.7" cy="210.4" r="3" fill="#1f77b4"/>
<circle cx="747.2" cy="151.2" r="3" fill="#1f77b4"/>
<circle cx="849.8" cy="92.0" r="3" fill="#1f77b4"/>
<circle cx="253.3" cy="673.2" r="1.6" fill="#e377c2"/>
<circle cx="278.9" cy="658.4" r="1.6" fill="#e377c2"/>
<circle cx="304.6" cy="643.6" r="1.6" fill="#e377c2"/>
<circle cx="240.5" cy="680.6" r="1.6" fill="#e377c2"/>
<circle cx="266.1" cy="665.8" r="1.6" fill="#e377c2"/>
<circle cx="291.8" cy="651.0" r="1.6" fill="#e377c2"/>
<circle cx="317.4" cy="636.2" r="1.6" fill="#e377c2"/>
<circle cx="355.9" cy="614.0" r="1.6" fill="#e377c2"/>
<circle cx="381.5" cy="599.2" r="1.6" fill="#e377c2"/>
<circle cx="407.1" cy="584.4" r="1.6" fill="#e377c2"/>
<circle cx="343.0" cy="621.4" r="1.6" fill="#e377c2"/>
<circle cx="368.7" cy="606.6" r="1.6" fill="#e377c2"/>
<circle cx="394.3" cy="591.8" r="1.6" fill="#e377c2"/>
<circle cx="419.9" cy="577.0" r="1.6" fill="#e377c2"/>
<circle cx="458.4" cy="554.8" r="1.6" fill="#e377c2"/>
<circle cx="484.0" cy="540.0" r="1.6" fill="#e377c2"/>
<circle cx="509.7" cy="525.2" r="1.6" fill="#e377c2"/>
<circle cx="445.6" cy="562.2" r="1.6" fill="#e377c2"/>
<circle cx="471.2" cy="547.4" r="1.6" fill="#e377c2"/>
<circle cx="496.9" cy="532.6" r="1.6" fill="#e377c2"/>
<circle cx="522.5" cy="517.8" r="1.6" fill="#e377c2"/>
<circle cx="560.9" cy="495.6" r="1.6" fill="#e377c2"/>
<circle cx="586.6" cy="480.8" r="1.6" fill="#e377c2"/>
<circle cx="612.2" cy="466.0" r="1.6" fill="#e377c2"/>
<circle cx="548.1" cy="503.0" r="1.6" fill="#e377c2"/>
<circle cx="573.8" cy="488.2" r="1.6" fill="#e377c2"/>
<circle cx="599.4" cy="473.4" r="1.6" fill="#e377c2"/>
<circle cx="625.0" cy="458.6" r="1.6" fill="#e377c2"/>
<circle cx="663.5" cy="436.4" r="1.6" fill="#e377c2"/>
<circle cx="689.1" cy="421.6" r="1.6" fill="#e377c2"/>
<circle cx="714.8" cy="406.8" r="1.6" fill="#e377c2"/>
<circle cx="650.7" cy="443.8" r="1.6" fill="#e377c2"/>
<circle cx="676.3" cy="429.0" r="1.6" fill="#e377c2"/>
<circle cx="701.9" cy="414.2" r="1.6" fill="#e377c2"/>
<circle cx="727.6" cy="399.4" r="1.6" fill="#e377c2"/>
<circle cx="766.0" cy="377.2" r="1.6" fill="#e377c2"/>
<circle cx="791.7" cy="362.4" r="1.6" fill="#e377c2"/>
<circle cx="817.3" cy="347.6" r="1.6" fill="#e377c2"/>
<circle cx="753.2" cy="384.6" r="1.6" fill="#e377c2"/>
<circle cx="778.9" cy="369.8" r="1.6" fill="#e377c2"/>
<circle cx="804.5" cy="355.0" r="1.6" fill="#e377c2"/>
<circle cx="830.1" cy="340.2" r="1.6" fill="#e377c2"/>
<circle cx="868.6" cy="318.0" r="1.6" fill="#e377c2"/>
<circle cx="894.2" cy="303.2" r="1.6" fill="#e377c2"/>
<circle cx="919.9" cy="288.4" r="1.6" fill="#e377c2"/>
<circle cx="855.8" cy="325.4" r="1.6" fill="#e377c2"/>
<circle cx="881.4" cy="310.6" r="1.6" fill="#e377c2"/>
<circle cx="907.0" cy="295.8" r="1.6" fill="#e377c2"/>
<circle cx="932.7" cy="281.0" r="1.6" fill="#e377c2"/>
<circle cx="971.1" cy="258.8" r="1.6" fill="#e377c2"/>
<circle cx="996.8" cy="244.0" r="1.6" fill="#e377c2"/>
<circle cx="1022.4" cy="229.2" r="1.6" fill="#e377c2"/>
<circle cx="958.3" cy="266.2" r="1.6" fill="#e377c2"/>
<circle cx="983.9" cy="251.4" r="1.6" fill="#e377c2"/>
<circle cx="1009.6" cy="236.6" r="1.6" fill="#e377c2"/>
<circle cx="1035.2" cy="221.8" r="1.6" fill="#e377c2"/>
<circle cx="355.9" cy="487.7" r="1.6" fill="#e377c2"/>
<circle cx="381.5" cy="472.9" r="1.6" fill="#e377c2"/>
<circle cx="407.1" cy="458.1" r="1.6" fill="#e377c2"/>
<circle cx="343.0" cy="495.1" r="1.6" fill="#e377c2"/>
<circle cx="368.7" cy="480.3" r="1.6" fill="#e377c2"/>
<circle cx="394.3" cy="465.5" r="1.6" fill="#e377c2"/>
<circle cx="419.9" cy="450.7" r="1.6" fill="#e377c2"/>
<circle cx="458.4" cy="428.5" r="1.6" fill="#e377c2"/>
<circle cx="484.0" cy="413.7" r="1.6" fill="#e377c2"/>
<circle cx="509.7" cy="398.9" r="1.6" fill="#e377c2"/>
<circle cx="445.6" cy="435.9" r="1.6" fill="#e377c2"/>
<circle cx="471.2" cy="421.1" r="1.6" fill="#e377c2"/>
<circle cx="496.9" cy="406.3" r="1.6" fill="#e377c2"/>
<circle cx="522.5" cy="391.5" r="1.6" fill="#e377c2"/>
<circle cx="560.9" cy="369.3" r="1.6" fill="#e377c2"/>
<circle cx="586.6" cy="354.5" r="1.6" fill="#e377c2"/>
<circle cx="612.2" cy="339.7" r="1.6" fill="#e377c2"/>
<circle cx="548.1" cy="376.7" r="1.6" fill="#e377c2"/>
<circle cx="573.8" cy="361.9" r="1.6" fill="#e377c2"/>
<circle cx="599.4" cy="347.1" r="1.6" fill="#e377c2"/>
<circle cx="625.0" cy="332.3" r="1.6" fill="#e377c2"/>
<circle cx="663.5" cy="310.1" r="1.6" fill="#e377c2"/>
<circle cx="689.1" cy="295.3" r="1.6" fill="#e377c2"/>
<circle cx="714.8" cy="280.5" r="1.6" fill="#e377c2"/>
<circle cx="650.7" cy="317.5" r="1.6" fill="#e377c2"/>
<circle cx="676.3" cy="302.7" r="1.6" fill="#e377c2"/>
<circle cx="701.9" cy="287.9" r="1.6" fill="#e377c2"/>
<circle cx="727.6" cy="273.1" r="1.6" fill="#e377c2"/>
<circle cx="766.0" cy="250.9" r="1.6" fill="#e377c2"/>
<circle cx="791.7" cy="236.1" r="1.6" fill="#e377c2"/>
<circle cx="817.3" cy="221.3" r="1.6" fill="#e377c2"/>
<circle cx="753.2" cy="258.3" r="1.6" fill="#e377c2"/>
<circle cx="778.9" cy="243.5" r="1.6" fill="#e377c2"/>
<circle cx="804.5" cy="228.7" r="1.6" fill="#e377c2"/>
<circle cx="830.1" cy="213.9" r="1.6" fill="#e377c2"/>
<circle cx="868.6" cy="191.7" r="1.6" fill="#e377c2"/>
<circle cx="894.2" cy="176.9" r="1.6" fill="#e377c2"/>
<circle cx="919.9" cy="162.1" r="1.6" fill="#e377c2"/>
<circle cx="855.8" cy="199.1" r="1.6" fill="#e377c2"/>
<circle cx="881.4" cy="184.3" r="1.6" fill="#e377c2"/>
<circle cx="907.0" cy="169.5" r="1.6" fill="#e377c2"/>
<circle cx="932.7" cy="154.7" r="1.6" fill="#e377c2"/>
<circle cx="253.3" cy="641.6" r="1.6" fill="#e377c2"/>
<circle cx="278.9" cy="595.2" r="1.6" fill="#e377c2"/>
<circle cx="304.6" cy="548.9" r="1.6" fill="#e377c2"/>
<circle cx="240.5" cy="664.8" r="1.6" fill="#e377c2"/>
<circle cx="266.1" cy="618.4" r="1.6" fill="#e377c2"/>
<circle cx="291.8" cy="572.1" r="1.6" fill="#e377c2"/>
<circle cx="317.4" cy="525.7" r="1.6" fill="#e377c2"/>
<circle cx="1022.4" cy="197.6" r="1.6" fill="#e377c2"/>
<circle cx="996.8" cy="180.8" r="1.6" fill="#e377c2"/>
<circle cx="971.1" cy="164.0" r="1.6" fill="#e377c2"/>
<circle cx="1035.2" cy="206.0" r="1.6" fill="#e377c2"/>
<circle cx="1009.6" cy="189.2" r="1.6" fill="#e377c2"/>
<circle cx="983.9" cy="172.4" r="1.6" fill="#e377c2"/>
<circle cx="958.3" cy="155.6" r="1.6" fill="#e377c2"/>
<circle cx="330.2" cy="534.1" r="1.6" fill="#e377c2"/>
<circle cx="330.2" cy="565.6" r="1.6" fill="#e377c2"/>
<circle cx="330.2" cy="597.2" r="1.6" fill="#e377c2"/>
<circle cx="330.2" cy="518.3" r="1.6" fill="#e377c2"/>
<circle cx="330.2" cy="549.9" r="1.6" fill="#e377c2"/>
<circle cx="330.2" cy="581.4" r="1.6" fill="#e377c2"/>
<circle cx="330.2" cy="613.0" r="1.6" fill="#e377c2"/>
<circle cx="432.8" cy="474.9" r="1.6" fill="#e377c2"/>
<circle cx="432.8" cy="506.4" r="1.6" fill="#e377c2"/>
<circle cx="432.8" cy="538.0" r="1.6" fill="#e377c2"/>
<circle cx="432.8" cy="459.1" r="1.6" fill="#e377c2"/>
<circle cx="432.8" cy="490.6" r="1.6" fill="#e377c2"/>
<circle cx="432.8" cy="522.2" r="1.6" fill="#e377c2"/>
<circle cx="432.8" cy="553.8" r="1.6" fill="#e377c2"/>
<circle cx="535.3" cy="415.7" r="1.6" fill="#e377c2"/>
<circle cx="535.3" cy="447.2" r="1.6" fill="#e377c2"/>
<circle cx="535.3" cy="478.8" r="1.6" fill="#e377c2"/>
<circle cx="535.3" cy="399.9" r="1.6" fill="#e377c2"/>
<circle cx="535.3" cy="431.4" r="1.6" fill="#e377c2"/>
<circle cx="535.3" cy="463.0" r="1.6" fill="#e377c2"/>
<circle cx="535.3" cy="494.6" r="1.6" fill="#e377c2"/>
<circle cx="637.9" cy="356.5" r="1.6" fill="#e377c2"/>
<circle cx="637.9" cy="388.0" r="1.6" fill="#e377c2"/>
<circle cx="637.9" cy="419.6" r="1.6" fill="#e377c2"/>
<circle cx="637.9" cy="340.7" r="1.6" fill="#e377c2"/>
<circle cx="637.9" cy="372.2" r="1.6" fill="#e377c2"/>
<circle cx="637.9" cy="403.8" r="1.6" fill="#e377c2"/>
<circle cx="637.9" cy="435.4" r="1.6" fill="#e377c2"/>
<circle cx="740.4" cy="297.2" r="1.6" fill="#e377c2"/>
<circle cx="740.4" cy="328.8" r="1.6" fill="#e377c2"/>
<circle cx="740.4" cy="360.4" r="1.6" fill="#e377c2"/>
<circle cx="740.4" cy="281.5" r="1.6" fill="#e377c2"/>
<circle cx="740.4" cy="313.0" r="1.6" fill="#e377c2"/>
<circle cx="740.4" cy="344.6" r="1.6" fill="#e377c2"/>
<circle cx="740.4" cy="376.2" r="1.6" fill="#e377c2"/>
<circle cx="842.9" cy="238.0" r="1.6" fill="#e377c2"/>
<circle cx="842.9" cy="269.6" r="1.6" fill="#e377c2"/>
<circle cx="842.9" cy="301.2" r="1.6" fill="#e377c2"/>
<circle cx="842.9" cy="222.3" r="1.6" fill="#e377c2"/>
<circle cx="842.9" cy="253.8" r="1.6" fill="#e377c2"/>
<circle cx="842.9" cy="285.4" r="1.6" fill="#e377c2"/>
<circle cx="842.9" cy="317.0" r="1.6" fill="#e377c2"/>
<circle cx="945.5" cy="178.8" r="1.6" fill="#e377c2"/>
<circle cx="945.5" cy="210.4" r="1.6" fill="#e377c2"/>
<circle cx="945.5" cy="242.0" r="1.6" fill="#e377c2"/>
<circle cx="945.5" cy="163.0" r="1.6" fill="#e377c2"/>
<circle cx="945.5" cy="194.6" r="1.6" fill="#e377c2"/>
<circle cx="945.5" cy="226.2" r="1.6" fill="#e377c2"/>
<circle cx="945.5" cy="257.8" r="1.6" fill="#e377c2"/>
<circle cx="381.5" cy="536.0" r="1.6" fill="#e377c2"/>
<circle cx="484.0" cy="476.8" r="1.6" fill="#e377c2"/>
<circle cx="586.6" cy="417.6" r="1.6" fill="#e377c2"/>
<circle cx="689.1" cy="358.4" r="1.6" fill="#e377c2"/>
<circle cx="791.7" cy="299.2" r="1.6" fill="#e377c2"/>
<circle cx="894.2" cy="240.0" r="1.6" fill="#e377c2"/>
<circle cx="157.6" cy="617.9" r="1.6" fill="#e377c2"/>
<circle cx="183.2" cy="603.1" r="1.6" fill="#e377c2"/>
<circle cx="208.9" cy="588.3" r="1.6" fill="#e377c2"/>
<circle cx="144.8" cy="625.3" r="1.6" fill="#e377c2"/>
<circle cx="170.4" cy="610.5" r="1.6" fill="#e377c2"/>
<circle cx="196.1" cy="595.7" r="1.6" fill="#e377c2"/>
<circle cx="221.7" cy="580.9" r="1.6" fill="#e377c2"/>
<circle cx="260.1" cy="558.7" r="1.6" fill="#e377c2"/>
<circle cx="285.8" cy="543.9" r="1.6" fill="#e377c2"/>
<circle cx="311.4" cy="529.1" r="1.6" fill="#e377c2"/>
<circle cx="247.3" cy="566.1" r="1.6" fill="#e377c2"/>
<circle cx="273.0" cy="551.3" r="1.6" fill="#e377c2"/>
<circle cx="298.6" cy="536.5" r="1.6" fill="#e377c2"/>
<circle cx="324.2" cy="521.7" r="1.6" fill="#e377c2"/>
<circle cx="362.7" cy="499.5" r="1.6" fill="#e377c2"/>
<circle cx="388.3" cy="484.7" r="1.6" fill="#e377c2"/>
<circle cx="414.0" cy="469.9" r="1.6" fill="#e377c2"/>
<circle cx="349.9" cy="506.9" r="1.6" fill="#e377c2"/>
<circle cx="375.5" cy="492.1" r="1.6" fill="#e377c2"/>
<circle cx="401.1" cy="477.3" r="1.6" fill="#e377c2"/>
<circle cx="426.8" cy="462.5" r="1.6" fill="#e377c2"/>
<circle cx="465.2" cy="440.3" r="1.6" fill="#e377c2"/>
<circle cx="490.9" cy="425.5" r="1.6" fill="#e377c2"/>
<circle cx="516.5" cy="410.7" r="1.6" fill="#e377c2"/>
<circle cx="452.4" cy="447.7" r="1.6" fill="#e377c2"/>
<circle cx="478.1" cy="432.9" r="1.6" fill="#e377c2"/>
<circle cx="503.7" cy="418.1" r="1.6" fill="#e377c2"/>
<circle cx="529.3" cy="403.3" r="1.6" fill="#e377c2"/>
<circle cx="567.8" cy="381.1" r="1.6" fill="#e377c2"/>
<circle cx="593.4" cy="366.3" r="1.6" fill="#e377c2"/>
<circle cx="619.1" cy="351.5" r="1.6" fill="#e377c2"/>
<circle cx="555.0" cy="388.5" r="1.6" fill="#e377c2"/>
<circle cx="580.6" cy="373.7" r="1.6" fill="#e377c2"/>
<circle cx="606.2" cy="358.9" r="1.6" fill="#e377c2"/>
<circle cx="631.9" cy="344.1" r="1.6" fill="#e377c2"/>
<circle cx="670.3" cy="321.9" r="1.6" fill="#e377c2"/>
<circle cx="696.0" cy="307.1" r="1.6" fill="#e377c2"/>
<circle cx="721.6" cy="292.3" r="1.6" fill="#e377c2"/>
<circle cx="657.5" cy="329.3" r="1.6" fill="#e377c2"/>
<circle cx="683.1" cy="314.5" r="1.6" fill="#e377c2"/>
<circle cx="708.8" cy="299.7" r="1.6" fill="#e377c2"/>
<circle cx="734.4" cy="284.9" r="1.6" fill="#e377c2"/>
<circle cx="772.9" cy="262.7" r="1.6" fill="#e377c2"/>
<circle cx="798.5" cy="247.9" r="1.6" fill="#e377c2"/>
<circle cx="824.1" cy="233.1" r="1.6" fill="#e377c2"/>
<circle cx="760.1" cy="270.1" r="1.6" fill="#e377c2"/>
<circle cx="785.7" cy="255.3" r="1.6" fill="#e377c2"/>
<circle cx="811.3" cy="240.5" r="1.6" fill="#e377c2"/>
<circle cx="837.0" cy="225.7" r="1.6" fill="#e377c2"/>
<circle cx="875.4" cy="203.5" r="1.6" fill="#e377c2"/>
<circle cx="901.1" cy="188.7" r="1.6" fill="#e377c2"/>
<circle cx="926.7" cy="173.9" r="1.6" fill="#e377c2"/>
<circle cx="862.6" cy="210.9" r="1.6" fill="#e377c2"/>
<circle cx="888.2" cy="196.1" r="1.6" fill="#e377c2"/>
<circle cx="913.9" cy="181.3" r="1.6" fill="#e377c2"/>
<circle cx="939.5" cy="166.5" r="1.6" fill="#e377c2"/>
<circle cx="260.1" cy="432.4" r="1.6" fill="#e377c2"/>
<circle cx="285.8" cy="417.6" r="1.6" fill="#e377c2"/>
<circle cx="311.4" cy="402.8" r="1.6" fill="#e377c2"/>
<circle cx="247.3" cy="439.8" r="1.6" fill="#e377c2"/>
<circle cx="273.0" cy="425.0" r="1.6" fill="#e377c2"/>
<circle cx="298.6" cy="410.2" r="1.6" fill="#e377c2"/>
<circle cx="324.2" cy="395.4" r="1.6" fill="#e377c2"/>
<circle cx="362.7" cy="373.2" r="1.6" fill="#e377c2"/>
<circle cx="388.3" cy="358.4" r="1.6" fill="#e377c2"/>
<circle cx="414.0" cy="343.6" r="1.6" fill="#e377c2"/>
<circle cx="349.9" cy="380.6" r="1.6" fill="#e377c2"/>
<circle cx="375.5" cy="365.8" r="1.6" fill="#e377c2"/>
<circle cx="401.1" cy="351.0" r="1.6" fill="#e377c2"/>
<circle cx="426.8" cy="336.2" r="1.6" fill="#e377c2"/>
<circle cx="465.2" cy="314.0" r="1.6" fill="#e377c2"/>
<circle cx="490.9" cy="299.2" r="1.6" fill="#e377c2"/>
<circle cx="516.5" cy="284.4" r="1.6" fill="#e377c2"/>
<circle cx="452.4" cy="321.4" r="1.6" fill="#e377c2"/>
<circle cx="478.1" cy="306.6" r="1.6" fill="#e377c2"/>
<circle cx="503.7" cy="291.8" r="1.6" fill="#e377c2"/>
<circle cx="529.3" cy="277.0" r="1.6" fill="#e377c2"/>
<circle cx="567.8" cy="254.8" r="1.6" fill="#e377c2"/>
<circle cx="593.4" cy="240.0" r="1.6" fill="#e377c2"/>
<circle cx="619.1" cy="225.2" r="1.6" fill="#e377c2"/>
<circle cx="555.0" cy="262.2" r="1.6" fill="#e377c2"/>
<circle cx="580.6" cy="247.4" r="1.6" fill="#e377c2"/>
<circle cx="606.2" cy="232.6" r="1.6" fill="#e377c2"/>
<circle cx="631.9" cy="217.8" r="1.6" fill="#e377c2"/>
<circle cx="670.3" cy="195.6" r="1.6" fill="#e377c2"/>
<circle cx="696.0" cy="180.8" r="1.6" fill="#e377c2"/>
<circle cx="721.6" cy="166.0" r="1.6" fill="#e377c2"/>
<circle cx="657.5" cy="203.0" r="1.6" fill="#e377c2"/>
<circle cx="683.1" cy="188.2" r="1.6" fill="#e377c2"/>
<circle cx="708.8" cy="173.4" r="1.6" fill="#e377c2"/>
<circle cx="734.4" cy="158.6" r="1.6" fill="#e377c2"/>
<circle cx="772.9" cy="136.4" r="1.6" fill="#e377c2"/>
<circle cx="798.5" cy="121.6" r="1.6" fill="#e377c2"/>
<circle cx="824.1" cy="106.8" r="1.6" fill="#e377c2"/>
<circle cx="760.1" cy="143.8" r="1.6" fill="#e377c2"/>
<circle cx="785.7" cy="129.0" r="1.6" fill="#e377c2"/>
<circle cx="811.3" cy="114.2" r="1.6" fill="#e377c2"/>
<circle cx="837.0" cy="99.4" r="1.6" fill="#e377c2"/>
<circle cx="157.6" cy="586.4" r="1.6" fill="#e377c2"/>
<circle cx="183.2" cy="540.0" r="1.6" fill="#e377c2"/>
<circle cx="208.9" cy="493.6" r="1.6" fill="#e377c2"/>
<circle cx="144.8" cy="609.6" r="1.6" fill="#e377c2"/>
<circle cx="170.4" cy="563.2" r="1.6" fill="#e377c2"/>
<circle cx="196.1" cy="516.8" r="1.6" fill="#e377c2"/>
<circle cx="221.7" cy="470.4" r="1.6" fill="#e377c2"/>
<circle cx="926.7" cy="142.3" r="1.6" fill="#e377c2"/>
<circle cx="901.1" cy="125.5" r="1.6" fill="#e377c2"/>
<circle cx="875.4" cy="108.8" r="1.6" fill="#e377c2"/>
<circle cx="939.5" cy="150.7" r="1.6" fill="#e377c2"/>
<circle cx="913.9" cy="133.9" r="1.6" fill="#e377c2"/>
<circle cx="888.2" cy="117.2" r="1.6" fill="#e377c2"/>
<circle cx="862.6" cy="100.4" r="1.6" fill="#e377c2"/>
<circle cx="234.5" cy="478.8" r="1.6" fill="#e377c2"/>
<circle cx="234.5" cy="510.4" r="1.6" fill="#e377c2"/>
<circle cx="234.5" cy="542.0" r="1.6" fill="#e377c2"/>
<circle cx="234.5" cy="463.0" r="1.6" fill="#e377c2"/>
<circle cx="234.5" cy="494.6" r="1.6" fill="#e377c2"/>
<circle cx="234.5" cy="526.2" r="1.6" fill="#e377c2"/>
<circle cx="234.5" cy="557.7" r="1.6" fill="#e377c2"/>
<circle cx="337.1" cy="419.6" r="1.6" fill="#e377c2"/>
<circle cx="337.1" cy="451.2" r="1.6" fill="#e377c2"/>
<circle cx="337.1" cy="482.8" r="1.6" fill="#e377c2"/>
<circle cx="337.1" cy="403.8" r="1.6" fill="#e377c2"/>
<circle cx="337.1" cy="435.4" r="1.6" fill="#e377c2"/>
<circle cx="337.1" cy="467.0" r="1.6" fill="#e377c2"/>
<circle cx="337.1" cy="498.5" r="1.6" fill="#e377c2"/>
<circle cx="439.6" cy="360.4" r="1.6" fill="#e377c2"/>
<circle cx="439.6" cy="392.0" r="1.6" fill="#e377c2"/>
<circle cx="439.6" cy="423.5" r="1.6" fill="#e377c2"/>
<circle cx="439.6" cy="344.6" r="1.6" fill="#e377c2"/>
<circle cx="439.6" cy="376.2" r="1.6" fill="#e377c2"/>
<circle cx="439.6" cy="407.8" r="1.6" fill="#e377c2"/>
<circle cx="439.6" cy="439.3" r="1.6" fill="#e377c2"/>
<circle cx="542.1" cy="301.2" r="1.6" fill="#e377c2"/>
<circle cx="542.1" cy="332.8" r="1.6" fill="#e377c2"/>
<circle cx="542.1" cy="364.3" r="1.6" fill="#e377c2"/>
<circle cx="542.1" cy="285.4" r="1.6" fill="#e377c2"/>
<circle cx="542.1" cy="317.0" r="1.6" fill="#e377c2"/>
<circle cx="542.1" cy="348.6" r="1.6" fill="#e377c2"/>
<circle cx="542.1" cy="380.1" r="1.6" fill="#e377c2"/>
<circle cx="644.7" cy="242.0" r="1.6" fill="#e377c2"/>
<circle cx="644.7" cy="273.6" r="1.6" fill="#e377c2"/>
<circle cx="644.7" cy="305.1" r="1.6" fill="#e377c2"/>
<circle cx="644.7" cy="226.2" r="1.6" fill="#e377c2"/>
<circle cx="644.7" cy="257.8" r="1.6" fill="#e377c2"/>
<circle cx="644.7" cy="289.4" r="1.6" fill="#e377c2"/>
<circle cx="644.7" cy="320.9" r="1.6" fill="#e377c2"/>
<circle cx="747.2" cy="182.8" r="1.6" fill="#e377c2"/>
<circle cx="747.2" cy="214.4" r="1.6" fill="#e377c2"/>
<circle cx="747.2" cy="245.9" r="1.6" fill="#e377c2"/>
<circle cx="747.2" cy="167.0" r="1.6" fill="#e377c2"/>
<circle cx="747.2" cy="198.6" r="1.6" fill="#e377c2"/>
<circle cx="747.2" cy="230.1" r="1.6" fill="#e377c2"/>
<circle cx="747.2" cy="261.7" r="1.6" fill="#e377c2"/>
<circle cx="849.8" cy="123.6" r="1.6" fill="#e377c2"/>
<circle cx="849.8" cy="155.2" r="1.6" fill="#e377c2"/>
<circle cx="849.8" cy="186.7" r="1.6" fill="#e377c2"/>
<circle cx="849.8" cy="107.8" r="1.6" fill="#e377c2"/>
<circle cx="849.8" cy="139.4" r="1.6" fill="#e377c2"/>
<circle cx="849.8" cy="170.9" r="1.6" fill="#e377c2"/>
<circle cx="849.8" cy="202.5" r="1.6" fill="#e377c2"/>
<circle cx="285.8" cy="480.8" r="1.6" fill="#e377c2"/>
<circle cx="388.3" cy="421.6" r="1.6" fill="#e377c2"/>
<circle cx="490.9" cy="362.4" r="1.6" fill="#e377c2"/>
<circle cx="593.4" cy="303.2" r="1.6" fill="#e377c2"/>
<circle cx="696.0" cy="244.0" r="1.6" fill="#e377c2"/>
<circle cx="798.5" cy="184.8" r="1.6" fill="#e377c2"/>
<circle cx="203.7" cy="674.2" r="1.6" fill="#e377c2"/>
<circle cx="179.8" cy="660.4" r="1.6" fill="#e377c2"/>
<circle cx="155.9" cy="646.6" r="1.6" fill="#e377c2"/>
<circle cx="215.7" cy="681.1" r="1.6" fill="#e377c2"/>
<circle cx="191.8" cy="667.3" r="1.6" fill="#e377c2"/>
<circle cx="167.8" cy="653.5" r="1.6" fill="#e377c2"/>
<circle cx="143.9" cy="639.6" r="1.6" fill="#e377c2"/>
<circle cx="306.3" cy="615.0" r="1.6" fill="#e377c2"/>
<circle cx="282.4" cy="601.2" r="1.6" fill="#e377c2"/>
<circle cx="258.4" cy="587.4" r="1.6" fill="#e377c2"/>
<circle cx="318.3" cy="621.9" r="1.6" fill="#e377c2"/>
<circle cx="294.3" cy="608.1" r="1.6" fill="#e377c2"/>
<circle cx="270.4" cy="594.3" r="1.6" fill="#e377c2"/>
<circle cx="246.5" cy="580.4" r="1.6" fill="#e377c2"/>
<circle cx="408.8" cy="555.8" r="1.6" fill="#e377c2"/>
<circle cx="384.9" cy="542.0" r="1.6" fill="#e377c2"/>
<circle cx="361.0" cy="528.1" r="1.6" fill="#e377c2"/>
<circle cx="420.8" cy="562.7" r="1.6" fill="#e377c2"/>
<circle cx="396.9" cy="548.9" r="1.6" fill="#e377c2"/>
<circle cx="372.9" cy="535.1" r="1.6" fill="#e377c2"/>
<circle cx="349.0" cy="521.2" r="1.6" fill="#e377c2"/>
<circle cx="511.4" cy="496.6" r="1.6" fill="#e377c2"/>
<circle cx="487.5" cy="482.8" r="1.6" fill="#e377c2"/>
<circle cx="463.5" cy="468.9" r="1.6" fill="#e377c2"/>
<circle cx="523.3" cy="503.5" r="1.6" fill="#e377c2"/>
<circle cx="499.4" cy="489.7" r="1.6" fill="#e377c2"/>
<circle cx="475.5" cy="475.8" r="1.6" fill="#e377c2"/>
<circle cx="451.6" cy="462.0" r="1.6" fill="#e377c2"/>
<circle cx="613.9" cy="437.4" r="1.6" fill="#e377c2"/>
<circle cx="590.0" cy="423.5" r="1.6" fill="#e377c2"/>
<circle cx="566.1" cy="409.7" r="1.6" fill="#e377c2"/>
<circle cx="625.9" cy="444.3" r="1.6" fill="#e377c2"/>
<circle cx="602.0" cy="430.5" r="1.6" fill="#e377c2"/>
<circle cx="578.0" cy="416.6" r="1.6" fill="#e377c2"/>
<circle cx="554.1" cy="402.8" r="1.6" fill="#e377c2"/>
<circle cx="716.5" cy="378.2" r="1.6" fill="#e377c2"/>
<circle cx="692.5" cy="364.3" r="1.6" fill="#e377c2"/>
<circle cx="668.6" cy="350.5" r="1.6" fill="#e377c2"/>
<circle cx="728.4" cy="385.1" r="1.6" fill="#e377c2"/>
<circle cx="704.5" cy="371.3" r="1.6" fill="#e377c2"/>
<circle cx="680.6" cy="357.4" r="1.6" fill="#e377c2"/>
<circle cx="656.7" cy="343.6" r="1.6" fill="#e377c2"/>
<circle cx="819.0" cy="319.0" r="1.6" fill="#e377c2"/>
<circle cx="795.1" cy="305.1" r="1.6" fill="#e377c2"/>
<circle cx="771.2" cy="291.3" r="1.6" fill="#e377c2"/>
<circle cx="831.0" cy="325.9" r="1.6" fill="#e377c2"/>
<circle cx="807.1" cy="312.0" r="1.6" fill="#e377c2"/>
<circle cx="783.1" cy="298.2" r="1.6" fill="#e377c2"/>
<circle cx="759.2" cy="284.4" r="1.6" fill="#e377c2"/>
<circle cx="921.6" cy="259.7" r="1.6" fill="#e377c2"/>
<circle cx="897.6" cy="245.9" r="1.6" fill="#e377c2"/>
<circle cx="873.7" cy="232.1" r="1.6" fill="#e377c2"/>
<circle cx="933.5" cy="266.7" r="1.6" fill="#e377c2"/>
<circle cx="909.6" cy="252.8" r="1.6" fill="#e377c2"/>
<circle cx="885.7" cy="239.0" r="1.6" fill="#e377c2"/>
<circle cx="861.7" cy="225.2" r="1.6" fill="#e377c2"/>
<circle cx="1024.1" cy="200.5" r="1.6" fill="#e377c2"/>
<circle cx="1000.2" cy="186.7" r="1.6" fill="#e377c2"/>
<circle cx="976.3" cy="172.9" r="1.6" fill="#e377c2"/>
<circle cx="1036.1" cy="207.5" r="1.6" fill="#e377c2"/>
<circle cx="1012.2" cy="193.6" r="1.6" fill="#e377c2"/>
<circle cx="988.2" cy="179.8" r="1.6" fill="#e377c2"/>
<circle cx="964.3" cy="166.0" r="1.6" fill="#e377c2"/>
<circle cx="306.3" cy="488.7" r="1.6" fill="#e377c2"/>
<circle cx="282.4" cy="474.9" r="1.6" fill="#e377c2"/>
<circle cx="258.4" cy="461.0" r="1.6" fill="#e377c2"/>
<circle cx="318.3" cy="495.6" r="1.6" fill="#e377c2"/>
<circle cx="294.3" cy="481.8" r="1.6" fill="#e377c2"/>
<circle cx="270.4" cy="468.0" r="1.6" fill="#e377c2"/>
<circle cx="246.5" cy="454.1" r="1.6" fill="#e377c2"/>
<circle cx="408.8" cy="429.5" r="1.6" fill="#e377c2"/>
<circle cx="384.9" cy="415.7" r="1.6" fill="#e377c2"/>
<circle cx="361.0" cy="401.8" r="1.6" fill="#e377c2"/>
<circle cx="420.8" cy="436.4" r="1.6" fill="#e377c2"/>
<circle cx="396.9" cy="422.6" r="1.6" fill="#e377c2"/>
<circle cx="372.9" cy="408.7" r="1.6" fill="#e377c2"/>
<circle cx="349.0" cy="394.9" r="1.6" fill="#e377c2"/>
<circle cx="511.4" cy="370.3" r="1.6" fill="#e377c2"/>
<circle cx="487.5" cy="356.5" r="1.6" fill="#e377c2"/>
<circle cx="463.5" cy="342.6" r="1.6" fill="#e377c2"/>
<circle cx="523.3" cy="377.2" r="1.6" fill="#e377c2"/>
<circle cx="499.4" cy="363.4" r="1.6" fill="#e377c2"/>
<circle cx="475.5" cy="349.5" r="1.6" fill="#e377c2"/>
<circle cx="451.6" cy="335.7" r="1.6" fill="#e377c2"/>
<circle cx="613.9" cy="311.1" r="1.6" fill="#e377c2"/>
<circle cx="590.0" cy="297.2" r="1.6" fill="#e377c2"/>
<circle cx="566.1" cy="283.4" r="1.6" fill="#e377c2"/>
<circle cx="625.9" cy="318.0" r="1.6" fill="#e377c2"/>
<circle cx="602.0" cy="304.2" r="1.6" fill="#e377c2"/>
<circle cx="578.0" cy="290.3" r="1.6" fill="#e377c2"/>
<circle cx="554.1" cy="276.5" r="1.6" fill="#e377c2"/>
<circle cx="716.5" cy="251.9" r="1.6" fill="#e377c2"/>
<circle cx="692.5" cy="238.0" r="1.6" fill="#e377c2"/>
<circle cx="668.6" cy="224.2" r="1.6" fill="#e377c2"/>
<circle cx="728.4" cy="258.8" r="1.6" fill="#e377c2"/>
<circle cx="704.5" cy="244.9" r="1.6" fill="#e377c2"/>
<circle cx="680.6" cy="231.1" r="1.6" fill="#e377c2"/>
<circle cx="656.7" cy="217.3" r="1.6" fill="#e377c2"/>
<circle cx="819.0" cy="192.6" r="1.6" fill="#e377c2"/>
<circle cx="795.1" cy="178.8" r="1.6" fill="#e377c2"/>
<circle cx="771.2" cy="165.0" r="1.6" fill="#e377c2"/>
<circle cx="831.0" cy="199.6" r="1.6" fill="#e377c2"/>
<circle cx="807.1" cy="185.7" r="1.6" fill="#e377c2"/>
<circle cx="783.1" cy="171.9" r="1.6" fill="#e377c2"/>
<circle cx="759.2" cy="158.1" r="1.6" fill="#e377c2"/>
<circle cx="921.6" cy="133.4" r="1.6" fill="#e377c2"/>
<circle cx="897.6" cy="119.6" r="1.6" fill="#e377c2"/>
<circle cx="873.7" cy="105.8" r="1.6" fill="#e377c2"/>
<circle cx="933.5" cy="140.4" r="1.6" fill="#e377c2"/>
<circle cx="909.6" cy="126.5" r="1.6" fill="#e377c2"/>
<circle cx="885.7" cy="112.7" r="1.6" fill="#e377c2"/>
<circle cx="861.7" cy="98.9" r="1.6" fill="#e377c2"/>
<polygon points="218.7,700.6 236.7,700.6 227.7,688.0" fill="none" stroke="#333" stroke-width="1.6"/>
<line x1="216.0" y1="700.6" x2="239.4" y2="700.6" stroke="#333" stroke-width="1.6"/>
<polygon points="1039.0,224.3 1057.0,224.3 1048.0,214.4" fill="none" stroke="#333" stroke-width="1.4"/>
<circle cx="1043.5" cy="228.3" r="3" fill="none" stroke="#333"/>
<circle cx="1052.5" cy="228.3" r="3" fill="none" stroke="#333"/>
<polygon points="123.0,645.3 141.0,645.3 132.0,632.7" fill="none" stroke="#333" stroke-width="1.6"/>
<line x1="120.3" y1="645.3" x2="143.7" y2="645.3" stroke="#333" stroke-width="1.6"/>
<polygon points="943.3,169.0 961.3,169.0 952.3,159.1" fill="none" stroke="#333" stroke-width="1.4"/>
<circle cx="947.8" cy="173.0" r="3" fill="none" stroke="#333"/>
<circle cx="956.8" cy="173.0" r="3" fill="none" stroke="#333"/>
<text x="16.0" y="24.0" font-size="16" font-weight="bold" fill="#111">Pratt truss bridge (60 m, 8 panels) — CalculiX mesh</text>
<text x="16.0" y="42.0" font-size="12" fill="#555">CalculiX B32R mesh: 478 nodes, 260 elements (blue: model nodes · pink: generated subdivision/midside nodes)</text>
<line x1="30.0" y1="734.0" x2="50.8" y2="722.0" stroke="#666" stroke-width="1.4"/>
<text x="52.8" y="725.0" font-size="10" fill="#666">X</text>
<line x1="30.0" y1="734.0" x2="9.2" y2="722.0" stroke="#666" stroke-width="1.4"/>
<text x="11.2" y="725.0" font-size="10" fill="#666">Y</text>
<line x1="30.0" y1="734.0" x2="30.0" y2="710.0" stroke="#666" stroke-width="1.4"/>
<text x="32.0" y="713.0" font-size="10" fill="#666">Z</text>
</svg>
