<svg xmlns="http://www.w3.org/2000/svg" viewBox="0 0 1180 760" font-family="Segoe UI, Arial, sans-serif">
<rect width="1180" height="760" fill="white"/>
<line x1="226.8" y1="688.0" x2="328.7" y2="629.1" stroke="#1f77b4" stroke-width="2.6" stroke-linecap="round"/>
<line x1="328.7" y1="629.1" x2="430.7" y2="570.3" stroke="#1f77b4" stroke-width="2.6" stroke-linecap="round"/>
<line x1="430.7" y1="570.3" x2="532.6" y2="511.4" stroke="#1f77b4" stroke-width="2.6" stroke-linecap="round"/>
<line x1="532.6" y1="511.4" x2="634.6" y2="452.5" stroke="#1f77b4" stroke-width="2.6" stroke-linecap="round"/>
<line x1="634.6" y1="452.5" x2="736.6" y2="393.7" stroke="#1f77b4" stroke-width="2.6" stroke-linecap="round"/>
<line x1="736.6" y1="393.7" x2="838.5" y2="334.8" stroke="#1f77b4" stroke-width="2.6" stroke-linecap="round"/>
<line x1="838.5" y1="334.8" x2="940.5" y2="276.0" stroke="#1f77b4" stroke-width="2.6" stroke-linecap="round"/>
<line x1="940.5" y1="276.0" x2="1042.4" y2="217.1" stroke="#1f77b4" stroke-width="2.6" stroke-linecap="round"/>
<line x1="277.8" y1="555.6" x2="379.7" y2="496.7" stroke="#1f77b4" stroke-width="2.6" stroke-linecap="round"/>
<line x1="379.7" y1="496.7" x2="481.7" y2="437.8" stroke="#1f77b4" stroke-width="2.6" stroke-linecap="round"/>
<line x1="481.7" y1="437.8" x2="583.6" y2="379.0" stroke="#1f77b4" stroke-width="2.6" stroke-linecap="round"/>
<line x1="583.6" y1="379.0" x2="685.6" y2="320.1" stroke="#1f77b4" stroke-width="2.6" stroke-linecap="round"/>
<line x1="685.6" y1="320.1" x2="787.5" y2="261.2" stroke="#1f77b4" stroke-width="2.6" stroke-linecap="round"/>
<line x1="787.5" y1="261.2" x2="889.5" y2="202.4" stroke="#1f77b4" stroke-width="2.6" stroke-linecap="round"/>
<line x1="889.5" y1="202.4" x2="991.5" y2="143.5" stroke="#1f77b4" stroke-width="2.6" stroke-linecap="round"/>
<line x1="226.8" y1="688.0" x2="277.8" y2="555.6" stroke="#1f77b4" stroke-width="2.6" stroke-linecap="round"/>
<line x1="277.8" y1="555.6" x2="328.7" y2="629.1" stroke="#1f77b4" stroke-width="2.6" stroke-linecap="round"/>
<line x1="328.7" y1="629.1" x2="379.7" y2="496.7" stroke="#1f77b4" stroke-width="2.6" stroke-linecap="round"/>
<line x1="379.7" y1="496.7" x2="430.7" y2="570.3" stroke="#1f77b4" stroke-width="2.6" stroke-linecap="round"/>
<line x1="430.7" y1="570.3" x2="481.7" y2="437.8" stroke="#1f77b4" stroke-width="2.6" stroke-linecap="round"/>
<line x1="481.7" y1="437.8" x2="532.6" y2="511.4" stroke="#1f77b4" stroke-width="2.6" stroke-linecap="round"/>
<line x1="532.6" y1="511.4" x2="583.6" y2="379.0" stroke="#1f77b4" stroke-width="2.6" stroke-linecap="round"/>
<line x1="583.6" y1="379.0" x2="634.6" y2="452.5" stroke="#1f77b4" stroke-width="2.6" stroke-linecap="round"/>
<line x1="634.6" y1="452.5" x2="685.6" y2="320.1" stroke="#1f77b4" stroke-width="2.6" stroke-linecap="round"/>
<line x1="685.6" y1="320.1" x2="736.6" y2="393.7" stroke="#1f77b4" stroke-width="2.6" stroke-linecap="round"/>
<line x1="736.6" y1="393.7" x2="787.5" y2="261.2" stroke="#1f77b4" stroke-width="2.6" stroke-linecap="round"/>
<line x1="787.5" y1="261.2" x2="838.5" y2="334.8" stroke="#1f77b4" stroke-width="2.6" stroke-linecap="round"/>
<line x1="838.5" y1="334.8" x2="889.5" y2="202.4" stroke="#1f77b4" stroke-width="2.6" stroke-linecap="round"/>
<line x1="889.5" y1="202.4" x2="940.5" y2="276.0" stroke="#1f77b4" stroke-width="2.6" stroke-linecap="round"/>
<line x1="940.5" y1="276.0" x2="991.5" y2="143.5" stroke="#1f77b4" stroke-width="2.6" stroke-linecap="round"/>
<line x1="991.5" y1="143.5" x2="1042.4" y2="217.1" stroke="#1f77b4" stroke-width="2.6" stroke-linecap="round"/>
<line x1="137.6" y1="636.5" x2="239.5" y2="577.6" stroke="#1f77b4" stroke-width="2.6" stroke-linecap="round"/>
<line x1="239.5" y1="577.6" x2="341.5" y2="518.8" stroke="#1f77b4" stroke-width="2.6" stroke-linecap="round"/>
<line x1="341.5" y1="518.8" x2="443.4" y2="459.9" stroke="#1f77b4" stroke-width="2.6" stroke-linecap="round"/>
<line x1="443.4" y1="459.9" x2="545.4" y2="401.0" stroke="#1f77b4" stroke-width="2.6" stroke-linecap="round"/>
<line x1="545.4" y1="401.0" x2="647.4" y2="342.2" stroke="#1f77b4" stroke-width="2.6" stroke-linecap="round"/>
<line x1="647.4" y1="342.2" x2="749.3" y2="283.3" stroke="#1f77b4" stroke-width="2.6" stroke-linecap="round"/>
<line x1="749.3" y1="283.3" x2="851.3" y2="224.4" stroke="#1f77b4" stroke-width="2.6" stroke-linecap="round"/>
<line x1="851.3" y1="224.4" x2="953.2" y2="165.6" stroke="#1f77b4" stroke-width="2.6" stroke-linecap="round"/>
<line x1="188.5" y1="504.0" x2="290.5" y2="445.2" stroke="#1f77b4" stroke-width="2.6" stroke-linecap="round"/>
<line x1="290.5" y1="445.2" x2="392.5" y2="386.3" stroke="#1f77b4" stroke-width="2.6" stroke-linecap="round"/>
<line x1="392.5" y1="386.3" x2="494.4" y2="327.5" stroke="#1f77b4" stroke-width="2.6" stroke-linecap="round"/>
<line x1="494.4" y1="327.5" x2="596.4" y2="268.6" stroke="#1f77b4" stroke-width="2.6" stroke-linecap="round"/>
<line x1="596.4" y1="268.6" x2="698.3" y2="209.7" stroke="#1f77b4" stroke-width="2.6" stroke-linecap="round"/>
<line x1="698.3" y1="209.7" x2="800.3" y2="150.9" stroke="#1f77b4" stroke-width="2.6" stroke-linecap="round"/>
<line x1="800.3" y1="150.9" x2="902.2" y2="92.0" stroke="#1f77b4" stroke-width="2.6" stroke-linecap="round"/>
<line x1="137.6" y1="636.5" x2="188.5" y2="504.0" stroke="#1f77b4" stroke-width="2.6" stroke-linecap="round"/>
<line x1="188.5" y1="504.0" x2="239.5" y2="577.6" stroke="#1f77b4" stroke-width="2.6" stroke-linecap="round"/>
<line x1="239.5" y1="577.6" x2="290.5" y2="445.2" stroke="#1f77b4" stroke-width="2.6" stroke-linecap="round"/>
<line x1="290.5" y1="445.2" x2="341.5" y2="518.8" stroke="#1f77b4" stroke-width="2.6" stroke-linecap="round"/>
<line x1="341.5" y1="518.8" x2="392.5" y2="386.3" stroke="#1f77b4" stroke-width="2.6" stroke-linecap="round"/>
<line x1="392.5" y1="386.3" x2="443.4" y2="459.9" stroke="#1f77b4" stroke-width="2.6" stroke-linecap="round"/>
<line x1="443.4" y1="459.9" x2="494.4" y2="327.5" stroke="#1f77b4" stroke-width="2.6" stroke-linecap="round"/>
<line x1="494.4" y1="327.5" x2="545.4" y2="401.0" stroke="#1f77b4" stroke-width="2.6" stroke-linecap="round"/>
<line x1="545.4" y1="401.0" x2="596.4" y2="268.6" stroke="#1f77b4" stroke-width="2.6" stroke-linecap="round"/>
<line x1="596.4" y1="268.6" x2="647.4" y2="342.2" stroke="#1f77b4" stroke-width="2.6" stroke-linecap="round"/>
<line x1="647.4" y1="342.2" x2="698.3" y2="209.7" stroke="#1f77b4" stroke-width="2.6" stroke-linecap="round"/>
<line x1="698.3" y1="209.7" x2="749.3" y2="283.3" stroke="#1f77b4" stroke-width="2.6" stroke-linecap="round"/>
<line x1="749.3" y1="283.3" x2="800.3" y2="150.9" stroke="#1f77b4" stroke-width="2.6" stroke-linecap="round"/>
<line x1="800.3" y1="150.9" x2="851.3" y2="224.4" stroke="#1f77b4" stroke-width="2.6" stroke-linecap="round"/>
<line x1="851.3" y1="224.4" x2="902.2" y2="92.0" stroke="#1f77b4" stroke-width="2.6" stroke-linecap="round"/>
<line x1="902.2" y1="92.0" x2="953.2" y2="165.6" stroke="#1f77b4" stroke-width="2.6" stroke-linecap="round"/>
<line x1="226.8" y1="688.0" x2="137.6" y2="636.5" stroke="#1f77b4" stroke-width="2.6" stroke-linecap="round"/>
<line x1="328.7" y1="629.1" x2="239.5" y2="577.6" stroke="#1f77b4" stroke-width="2.6" stroke-linecap="round"/>
<line x1="430.7" y1="570.3" x2="341.5" y2="518.8" stroke="#1f77b4" stroke-width="2.6" stroke-linecap="round"/>
<line x1="532.6" y1="511.4" x2="443.4" y2="459.9" stroke="#1f77b4" stroke-width="2.6" stroke-linecap="round"/>
<line x1="634.6" y1="452.5" x2="545.4" y2="401.0" stroke="#1f77b4" stroke-width="2.6" stroke-linecap="round"/>
<line x1="736.6" y1="393.7" x2="647.4" y2="342.2" stroke="#1f77b4" stroke-width="2.6" stroke-linecap="round"/>
<line x1="838.5" y1="334.8" x2="749.3" y2="283.3" stroke="#1f77b4" stroke-width="2.6" stroke-linecap="round"/>
<line x1="940.5" y1="276.0" x2="851.3" y2="224.4" stroke="#1f77b4" stroke-width="2.6" stroke-linecap="round"/>
<line x1="1042.4" y1="217.1" x2="953.2" y2="165.6" stroke="#1f77b4" stroke-width="2.6" stroke-linecap="round"/>
<line x1="277.8" y1="555.6" x2="188.5" y2="504.0" stroke="#1f77b4" stroke-width="2.6" stroke-linecap="round"/>
<line x1="379.7" y1="496.7" x2="290.5" y2="445.2" stroke="#1f77b4" stroke-width="2.6" stroke-linecap="round"/>
<line x1="481.7" y1="437.8" x2="392.5" y2="386.3" stroke="#1f77b4" stroke-width="2.6" stroke-linecap="round"/>
<line x1="583.6" y1="379.0" x2="494.4" y2="327.5" stroke="#1f77b4" stroke-width="2.6" stroke-linecap="round"/>
<line x1="685.6" y1="320.1" x2="596.4" y2="268.6" stroke="#1f77b4" stroke-width="2.6" stroke-linecap="round"/>
<line x1="787.5" y1="261.2" x2="698.3" y2="209.7" stroke="#1f77b4" stroke-width="2.6" stroke-linecap="round"/>
<line x1="889.5" y1="202.4" x2="800.3" y2="150.9" stroke="#1f77b4" stroke-width="2.6" stroke-linecap="round"/>
<line x1="991.5" y1="143.5" x2="902.2" y2="92.0" stroke="#1f77b4" stroke-width="2.6" stroke-linecap="round"/>
<polygon points="217.8,700.6 235.8,700.6 226.8,688.0" fill="none" stroke="#333" stroke-width="1.6"/>
<line x1="215.1" y1="700.6" x2="238.5" y2="700.6" stroke="#333" stroke-width="1.6"/>
<polygon points="1033.4,227.0 1051.4,227.0 1042.4,217.1" fill="none" stroke="#333" stroke-width="1.4"/>
<circle cx="1037.9" cy="231.0" r="3" fill="none" stroke="#333"/>
<circle cx="1046.9" cy="231.0" r="3" fill="none" stroke="#333"/>
<polygon points="128.6,649.1 146.6,649.1 137.6,636.5" fill="none" stroke="#333" stroke-width="1.6"/>
<line x1="125.9" y1="649.1" x2="149.3" y2="649.1" stroke="#333" stroke-width="1.6"/>
<polygon points="944.2,175.5 962.2,175.5 953.2,165.6" fill="none" stroke="#333" stroke-width="1.4"/>
<circle cx="948.7" cy="179.5" r="3" fill="none" stroke="#333"/>
<circle cx="957.7" cy="179.5" r="3" fill="none" stroke="#333"/>
<line x1="226.8" y1="662.0" x2="226.8" y2="688.0" stroke="#d62728" stroke-width="1.1"/>
<polygon points="226.8,688.0 223.2,677.2 230.4,677.2" fill="#d62728"/>
<line x1="247.2" y1="650.2" x2="247.2" y2="676.2" stroke="#d62728" stroke-width="1.1"/>
<polygon points="247.2,676.2 243.6,665.4 250.8,665.4" fill="#d62728"/>
<line x1="267.6" y1="638.5" x2="267.6" y2="664.5" stroke="#d62728" stroke-width="1.1"/>
<polygon points="267.6,664.5 264.0,653.7 271.2,653.7" fill="#d62728"/>
<line x1="288.0" y1="626.7" x2="288.0" y2="652.7" stroke="#d62728" stroke-width="1.1"/>
<polygon points="288.0,652.7 284.4,641.9 291.6,641.9" fill="#d62728"/>
<line x1="308.3" y1="614.9" x2="308.3" y2="640.9" stroke="#d62728" stroke-width="1.1"/>
<polygon points="308.3,640.9 304.7,630.1 311.9,630.1" fill="#d62728"/>
<line x1="328.7" y1="603.1" x2="328.7" y2="629.1" stroke="#d62728" stroke-width="1.1"/>
<polygon points="328.7,629.1 325.1,618.3 332.3,618.3" fill="#d62728"/>
<polyline points="226.8,662.0 247.2,650.2 267.6,638.5 288.0,626.7 308.3,614.9 328.7,603.1" stroke="#d62728" stroke-width="1" fill="none"/>
<line x1="328.7" y1="603.1" x2="328.7" y2="629.1" stroke="#d62728" stroke-width="1.1"/>
<polygon points="328.7,629.1 325.1,618.3 332.3,618.3" fill="#d62728"/>
<line x1="349.1" y1="591.4" x2="349.1" y2="617.4" stroke="#d62728" stroke-width="1.1"/>
<polygon points="349.1,617.4 345.5,606.6 352.7,606.6" fill="#d62728"/>
<line x1="369.5" y1="579.6" x2="369.5" y2="605.6" stroke="#d62728" stroke-width="1.1"/>
<polygon points="369.5,605.6 365.9,594.8 373.1,594.8" fill="#d62728"/>
<line x1="389.9" y1="567.8" x2="389.9" y2="593.8" stroke="#d62728" stroke-width="1.1"/>
<polygon points="389.9,593.8 386.3,583.0 393.5,583.0" fill="#d62728"/>
<line x1="410.3" y1="556.0" x2="410.3" y2="582.0" stroke="#d62728" stroke-width="1.1"/>
<polygon points="410.3,582.0 406.7,571.2 413.9,571.2" fill="#d62728"/>
<line x1="430.7" y1="544.3" x2="430.7" y2="570.3" stroke="#d62728" stroke-width="1.1"/>
<polygon points="430.7,570.3 427.1,559.5 434.3,559.5" fill="#d62728"/>
<polyline points="328.7,603.1 349.1,591.4 369.5,579.6 389.9,567.8 410.3,556.0 430.7,544.3" stroke="#d62728" stroke-width="1" fill="none"/>
<line x1="430.7" y1="544.3" x2="430.7" y2="570.3" stroke="#d62728" stroke-width="1.1"/>
<polygon points="430.7,570.3 427.1,559.5 434.3,559.5" fill="#d62728"/>
<line x1="451.1" y1="532.5" x2="451.1" y2="558.5" stroke="#d62728" stroke-width="1.1"/>
<polygon points="451.1,558.5 447.5,547.7 454.7,547.7" fill="#d62728"/>
<line x1="471.5" y1="520.7" x2="471.5" y2="546.7" stroke="#d62728" stroke-width="1.1"/>
<polygon points="471.5,546.7 467.9,535.9 475.1,535.9" fill="#d62728"/>
<line x1="491.9" y1="509.0" x2="491.9" y2="535.0" stroke="#d62728" stroke-width="1.1"/>
<polygon points="491.9,535.0 488.3,524.2 495.5,524.2" fill="#d62728"/>
<line x1="512.3" y1="497.2" x2="512.3" y2="523.2" stroke="#d62728" stroke-width="1.1"/>
<polygon points="512.3,523.2 508.7,512.4 515.9,512.4" fill="#d62728"/>
<line x1="532.6" y1="485.4" x2="532.6" y2="511.4" stroke="#d62728" stroke-width="1.1"/>
<polygon points="532.6,511.4 529.0,500.6 536.2,500.6" fill="#d62728"/>
<polyline points="430.7,544.3 451.1,532.5 471.5,520.7 491.9,509.0 512.3,497.2 532.6,485.4" stroke="#d62728" stroke-width="1" fill="none"/>
<line x1="532.6" y1="485.4" x2="532.6" y2="511.4" stroke="#d62728" stroke-width="1.1"/>
<polygon points="532.6,511.4 529.0,500.6 536.2,500.6" fill="#d62728"/>
<line x1="553.0" y1="473.6" x2="553.0" y2="499.6" stroke="#d62728" stroke-width="1.1"/>
<polygon points="553.0,499.6 549.4,488.8 556.6,488.8" fill="#d62728"/>
<line x1="573.4" y1="461.9" x2="573.4" y2="487.9" stroke="#d62728" stroke-width="1.1"/>
<polygon points="573.4,487.9 569.8,477.1 577.0,477.1" fill="#d62728"/>
<line x1="593.8" y1="450.1" x2="593.8" y2="476.1" stroke="#d62728" stroke-width="1.1"/>
<polygon points="593.8,476.1 590.2,465.3 597.4,465.3" fill="#d62728"/>
<line x1="614.2" y1="438.3" x2="614.2" y2="464.3" stroke="#d62728" stroke-width="1.1"/>
<polygon points="614.2,464.3 610.6,453.5 617.8,453.5" fill="#d62728"/>
<line x1="634.6" y1="426.5" x2="634.6" y2="452.5" stroke="#d62728" stroke-width="1.1"/>
<polygon points="634.6,452.5 631.0,441.7 638.2,441.7" fill="#d62728"/>
<polyline points="532.6,485.4 553.0,473.6 573.4,461.9 593.8,450.1 614.2,438.3 634.6,426.5" stroke="#d62728" stroke-width="1" fill="none"/>
<line x1="634.6" y1="426.5" x2="634.6" y2="452.5" stroke="#d62728" stroke-width="1.1"/>
<polygon points="634.6,452.5 631.0,441.7 638.2,441.7" fill="#d62728"/>
<line x1="655.0" y1="414.8" x2="655.0" y2="440.8" stroke="#d62728" stroke-width="1.1"/>
<polygon points="655.0,440.8 651.4,430.0 658.6,430.0" fill="#d62728"/>
<line x1="675.4" y1="403.0" x2="675.4" y2="429.0" stroke="#d62728" stroke-width="1.1"/>
<polygon points="675.4,429.0 671.8,418.2 679.0,418.2" fill="#d62728"/>
<line x1="695.8" y1="391.2" x2="695.8" y2="417.2" stroke="#d62728" stroke-width="1.1"/>
<polygon points="695.8,417.2 692.2,406.4 699.4,406.4" fill="#d62728"/>
<line x1="716.2" y1="379.5" x2="716.2" y2="405.5" stroke="#d62728" stroke-width="1.1"/>
<polygon points="716.2,405.5 712.6,394.7 719.8,394.7" fill="#d62728"/>
<line x1="736.6" y1="367.7" x2="736.6" y2="393.7" stroke="#d62728" stroke-width="1.1"/>
<polygon points="736.6,393.7 733.0,382.9 740.2,382.9" fill="#d62728"/>
<polyline points="634.6,426.5 655.0,414.8 675.4,403.0 695.8,391.2 716.2,379.5 736.6,367.7" stroke="#d62728" stroke-width="1" fill="none"/>
<line x1="736.6" y1="367.7" x2="736.6" y2="393.7" stroke="#d62728" stroke-width="1.1"/>
<polygon points="736.6,393.7 733.0,382.9 740.2,382.9" fill="#d62728"/>
<line x1="757.0" y1="355.9" x2="757.0" y2="381.9" stroke="#d62728" stroke-width="1.1"/>
<polygon points="757.0,381.9 753.4,371.1 760.6,371.1" fill="#d62728"/>
<line x1="777.3" y1="344.1" x2="777.3" y2="370.1" stroke="#d62728" stroke-width="1.1"/>
<polygon points="777.3,370.1 773.7,359.3 780.9,359.3" fill="#d62728"/>
<line x1="797.7" y1="332.4" x2="797.7" y2="358.4" stroke="#d62728" stroke-width="1.1"/>
<polygon points="797.7,358.4 794.1,347.6 801.3,347.6" fill="#d62728"/>
<line x1="818.1" y1="320.6" x2="818.1" y2="346.6" stroke="#d62728" stroke-width="1.1"/>
<polygon points="818.1,346.6 814.5,335.8 821.7,335.8" fill="#d62728"/>
<line x1="838.5" y1="308.8" x2="838.5" y2="334.8" stroke="#d62728" stroke-width="1.1"/>
<polygon points="838.5,334.8 834.9,324.0 842.1,324.0" fill="#d62728"/>
<polyline points="736.6,367.7 757.0,355.9 777.3,344.1 797.7,332.4 818.1,320.6 838.5,308.8" stroke="#d62728" stroke-width="1" fill="none"/>
<line x1="838.5" y1="308.8" x2="838.5" y2="334.8" stroke="#d62728" stroke-width="1.1"/>
<polygon points="838.5,334.8 834.9,324.0 842.1,324.0" fill="#d62728"/>
<line x1="858.9" y1="297.0" x2="858.9" y2="323.0" stroke="#d62728" stroke-width="1.1"/>
<polygon points="858.9,323.0 855.3,312.2 862.5,312.2" fill="#d62728"/>
<line x1="879.3" y1="285.3" x2="879.3" y2="311.3" stroke="#d62728" stroke-width="1.1"/>
<polygon points="879.3,311.3 875.7,300.5 882.9,300.5" fill="#d62728"/>
<line x1="899.7" y1="273.5" x2="899.7" y2="299.5" stroke="#d62728" stroke-width="1.1"/>
<polygon points="899.7,299.5 896.1,288.7 903.3,288.7" fill="#d62728"/>
<line x1="920.1" y1="261.7" x2="920.1" y2="287.7" stroke="#d62728" stroke-width="1.1"/>
<polygon points="920.1,287.7 916.5,276.9 923.7,276.9" fill="#d62728"/>
<line x1="940.5" y1="250.0" x2="940.5" y2="276.0" stroke="#d62728" stroke-width="1.1"/>
<polygon points="940.5,276.0 936.9,265.2 944.1,265.2" fill="#d62728"/>
<polyline points="838.5,308.8 858.9,297.0 879.3,285.3 899.7,273.5 920.1,261.7 940.5,250.0" stroke="#d62728" stroke-width="1" fill="none"/>
<line x1="940.5" y1="250.0" x2="940.5" y2="276.0" stroke="#d62728" stroke-width="1.1"/>
<polygon points="940.5,276.0 936.9,265.2 944.1,265.2" fill="#d62728"/>
<line x1="960.9" y1="238.2" x2="960.9" y2="264.2" stroke="#d62728" stroke-width="1.1"/>
<polygon points="960.9,264.2 957.3,253.4 964.5,253.4" fill="#d62728"/>
<line x1="981.3" y1="226.4" x2="981.3" y2="252.4" stroke="#d62728" stroke-width="1.1"/>
<polygon points="981.3,252.4 977.7,241.6 984.9,241.6" fill="#d62728"/>
<line x1="1001.6" y1="214.6" x2="1001.6" y2="240.6" stroke="#d62728" stroke-width="1.1"/>
<polygon points="1001.6,240.6 998.0,229.8 1005.2,229.8" fill="#d62728"/>
<line x1="1022.0" y1="202.9" x2="1022.0" y2="228.9" stroke="#d62728" stroke-width="1.1"/>
<polygon points="1022.0,228.9 1018.4,218.1 1025.6,218.1" fill="#d62728"/>
<line x1="1042.4" y1="191.1" x2="1042.4" y2="217.1" stroke="#d62728" stroke-width="1.1"/>
<polygon points="1042.4,217.1 1038.8,206.3 1046.0,206.3" fill="#d62728"/>
<polyline points="940.5,250.0 960.9,238.2 981.3,226.4 1001.6,214.6 1022.0,202.9 1042.4,191.1" stroke="#d62728" stroke-width="1" fill="none"/>
<line x1="137.6" y1="610.5" x2="137.6" y2="636.5" stroke="#d62728" stroke-width="1.1"/>
<polygon points="137.6,636.5 134.0,625.7 141.2,625.7" fill="#d62728"/>
<line x1="158.0" y1="598.7" x2="158.0" y2="624.7" stroke="#d62728" stroke-width="1.1"/>
<polygon points="158.0,624.7 154.4,613.9 161.6,613.9" fill="#d62728"/>
<line x1="178.4" y1="586.9" x2="178.4" y2="612.9" stroke="#d62728" stroke-width="1.1"/>
<polygon points="178.4,612.9 174.8,602.1 182.0,602.1" fill="#d62728"/>
<line x1="198.7" y1="575.2" x2="198.7" y2="601.2" stroke="#d62728" stroke-width="1.1"/>
<polygon points="198.7,601.2 195.1,590.4 202.3,590.4" fill="#d62728"/>
<line x1="219.1" y1="563.4" x2="219.1" y2="589.4" stroke="#d62728" stroke-width="1.1"/>
<polygon points="219.1,589.4 215.5,578.6 222.7,578.6" fill="#d62728"/>
<line x1="239.5" y1="551.6" x2="239.5" y2="577.6" stroke="#d62728" stroke-width="1.1"/>
<polygon points="239.5,577.6 235.9,566.8 243.1,566.8" fill="#d62728"/>
<polyline points="137.6,610.5 158.0,598.7 178.4,586.9 198.7,575.2 219.1,563.4 239.5,551.6" stroke="#d62728" stroke-width="1" fill="none"/>
<line x1="239.5" y1="551.6" x2="239.5" y2="577.6" stroke="#d62728" stroke-width="1.1"/>
<polygon points="239.5,577.6 235.9,566.8 243.1,566.8" fill="#d62728"/>
<line x1="259.9" y1="539.9" x2="259.9" y2="565.9" stroke="#d62728" stroke-width="1.1"/>
<polygon points="259.9,565.9 256.3,555.1 263.5,555.1" fill="#d62728"/>
<line x1="280.3" y1="528.1" x2="280.3" y2="554.1" stroke="#d62728" stroke-width="1.1"/>
<polygon points="280.3,554.1 276.7,543.3 283.9,543.3" fill="#d62728"/>
<line x1="300.7" y1="516.3" x2="300.7" y2="542.3" stroke="#d62728" stroke-width="1.1"/>
<polygon points="300.7,542.3 297.1,531.5 304.3,531.5" fill="#d62728"/>
<line x1="321.1" y1="504.5" x2="321.1" y2="530.5" stroke="#d62728" stroke-width="1.1"/>
<polygon points="321.1,530.5 317.5,519.7 324.7,519.7" fill="#d62728"/>
<line x1="341.5" y1="492.8" x2="341.5" y2="518.8" stroke="#d62728" stroke-width="1.1"/>
<polygon points="341.5,518.8 337.9,508.0 345.1,508.0" fill="#d62728"/>
<polyline points="239.5,551.6 259.9,539.9 280.3,528.1 300.7,516.3 321.1,504.5 341.5,492.8" stroke="#d62728" stroke-width="1" fill="none"/>
<line x1="341.5" y1="492.8" x2="341.5" y2="518.8" stroke="#d62728" stroke-width="1.1"/>
<polygon points="341.5,518.8 337.9,508.0 345.1,508.0" fill="#d62728"/>
<line x1="361.9" y1="481.0" x2="361.9" y2="507.0" stroke="#d62728" stroke-width="1.1"/>
<polygon points="361.9,507.0 358.3,496.2 365.5,496.2" fill="#d62728"/>
<line x1="382.3" y1="469.2" x2="382.3" y2="495.2" stroke="#d62728" stroke-width="1.1"/>
<polygon points="382.3,495.2 378.7,484.4 385.9,484.4" fill="#d62728"/>
<line x1="402.7" y1="457.4" x2="402.7" y2="483.4" stroke="#d62728" stroke-width="1.1"/>
<polygon points="402.7,483.4 399.1,472.6 406.3,472.6" fill="#d62728"/>
<line x1="423.0" y1="445.7" x2="423.0" y2="471.7" stroke="#d62728" stroke-width="1.1"/>
<polygon points="423.0,471.7 419.4,460.9 426.6,460.9" fill="#d62728"/>
<line x1="443.4" y1="433.9" x2="443.4" y2="459.9" stroke="#d62728" stroke-width="1.1"/>
<polygon points="443.4,459.9 439.8,449.1 447.0,449.1" fill="#d62728"/>
<polyline points="341.5,492.8 361.9,481.0 382.3,469.2 402.7,457.4 423.0,445.7 443.4,433.9" stroke="#d62728" stroke-width="1" fill="none"/>
<line x1="443.4" y1="433.9" x2="443.4" y2="459.9" stroke="#d62728" stroke-width="1.1"/>
<polygon points="443.4,459.9 439.8,449.1 447.0,449.1" fill="#d62728"/>
<line x1="463.8" y1="422.1" x2="463.8" y2="448.1" stroke="#d62728" stroke-width="1.1"/>
<polygon points="463.8,448.1 460.2,437.3 467.4,437.3" fill="#d62728"/>
<line x1="484.2" y1="410.4" x2="484.2" y2="436.4" stroke="#d62728" stroke-width="1.1"/>
<polygon points="484.2,436.4 480.6,425.6 487.8,425.6" fill="#d62728"/>
<line x1="504.6" y1="398.6" x2="504.6" y2="424.6" stroke="#d62728" stroke-width="1.1"/>
<polygon points="504.6,424.6 501.0,413.8 508.2,413.8" fill="#d62728"/>
<line x1="525.0" y1="386.8" x2="525.0" y2="412.8" stroke="#d62728" stroke-width="1.1"/>
<polygon points="525.0,412.8 521.4,402.0 528.6,402.0" fill="#d62728"/>
<line x1="545.4" y1="375.0" x2="545.4" y2="401.0" stroke="#d62728" stroke-width="1.1"/>
<polygon points="545.4,401.0 541.8,390.2 549.0,390.2" fill="#d62728"/>
<polyline points="443.4,433.9 463.8,422.1 484.2,410.4 504.6,398.6 525.0,386.8 545.4,375.0" stroke="#d62728" stroke-width="1" fill="none"/>
<line x1="545.4" y1="375.0" x2="545.4" y2="401.0" stroke="#d62728" stroke-width="1.1"/>
<polygon points="545.4,401.0 541.8,390.2 549.0,390.2" fill="#d62728"/>
<line x1="565.8" y1="363.3" x2="565.8" y2="389.3" stroke="#d62728" stroke-width="1.1"/>
<polygon points="565.8,389.3 562.2,378.5 569.4,378.5" fill="#d62728"/>
<line x1="586.2" y1="351.5" x2="586.2" y2="377.5" stroke="#d62728" stroke-width="1.1"/>
<polygon points="586.2,377.5 582.6,366.7 589.8,366.7" fill="#d62728"/>
<line x1="606.6" y1="339.7" x2="606.6" y2="365.7" stroke="#d62728" stroke-width="1.1"/>
<polygon points="606.6,365.7 603.0,354.9 610.2,354.9" fill="#d62728"/>
<line x1="627.0" y1="327.9" x2="627.0" y2="353.9" stroke="#d62728" stroke-width="1.1"/>
<polygon points="627.0,353.9 623.4,343.1 630.6,343.1" fill="#d62728"/>
<line x1="647.4" y1="316.2" x2="647.4" y2="342.2" stroke="#d62728" stroke-width="1.1"/>
<polygon points="647.4,342.2 643.8,331.4 651.0,331.4" fill="#d62728"/>
<polyline points="545.4,375.0 565.8,363.3 586.2,351.5 606.6,339.7 627.0,327.9 647.4,316.2" stroke="#d62728" stroke-width="1" fill="none"/>
<line x1="647.4" y1="316.2" x2="647.4" y2="342.2" stroke="#d62728" stroke-width="1.1"/>
<polygon points="647.4,342.2 643.8,331.4 651.0,331.4" fill="#d62728"/>
<line x1="667.7" y1="304.4" x2="667.7" y2="330.4" stroke="#d62728" stroke-width="1.1"/>
<polygon points="667.7,330.4 664.1,319.6 671.3,319.6" fill="#d62728"/>
<line x1="688.1" y1="292.6" x2="688.1" y2="318.6" stroke="#d62728" stroke-width="1.1"/>
<polygon points="688.1,318.6 684.5,307.8 691.7,307.8" fill="#d62728"/>
<line x1="708.5" y1="280.9" x2="708.5" y2="306.9" stroke="#d62728" stroke-width="1.1"/>
<polygon points="708.5,306.9 704.9,296.1 712.1,296.1" fill="#d62728"/>
<line x1="728.9" y1="269.1" x2="728.9" y2="295.1" stroke="#d62728" stroke-width="1.1"/>
<polygon points="728.9,295.1 725.3,284.3 732.5,284.3" fill="#d62728"/>
<line x1="749.3" y1="257.3" x2="749.3" y2="283.3" stroke="#d62728" stroke-width="1.1"/>
<polygon points="749.3,283.3 745.7,272.5 752.9,272.5" fill="#d62728"/>
<polyline points="647.4,316.2 667.7,304.4 688.1,292.6 708.5,280.9 728.9,269.1 749.3,257.3" stroke="#d62728" stroke-width="1" fill="none"/>
<line x1="749.3" y1="257.3" x2="749.3" y2="283.3" stroke="#d62728" stroke-width="1.1"/>
<polygon points="749.3,283.3 745.7,272.5 752.9,272.5" fill="#d62728"/>
<line x1="769.7" y1="245.5" x2="769.7" y2="271.5" stroke="#d62728" stroke-width="1.1"/>
<polygon points="769.7,271.5 766.1,260.7 773.3,260.7" fill="#d62728"/>
<line x1="790.1" y1="233.8" x2="790.1" y2="259.8" stroke="#d62728" stroke-width="1.1"/>
<polygon points="790.1,259.8 786.5,249.0 793.7,249.0" fill="#d62728"/>
<line x1="810.5" y1="222.0" x2="810.5" y2="248.0" stroke="#d62728" stroke-width="1.1"/>
<polygon points="810.5,248.0 806.9,237.2 814.1,237.2" fill="#d62728"/>
<line x1="830.9" y1="210.2" x2="830.9" y2="236.2" stroke="#d62728" stroke-width="1.1"/>
<polygon points="830.9,236.2 827.3,225.4 834.5,225.4" fill="#d62728"/>
<line x1="851.3" y1="198.4" x2="851.3" y2="224.4" stroke="#d62728" stroke-width="1.1"/>
<polygon points="851.3,224.4 847.7,213.6 854.9,213.6" fill="#d62728"/>
<polyline points="749.3,257.3 769.7,245.5 790.1,233.8 810.5,222.0 830.9,210.2 851.3,198.4" stroke="#d62728" stroke-width="1" fill="none"/>
<line x1="851.3" y1="198.4" x2="851.3" y2="224.4" stroke="#d62728" stroke-width="1.1"/>
<polygon points="851.3,224.4 847.7,213.6 854.9,213.6" fill="#d62728"/>
<line x1="871.7" y1="186.7" x2="871.7" y2="212.7" stroke="#d62728" stroke-width="1.1"/>
<polygon points="871.7,212.7 868.1,201.9 875.3,201.9" fill="#d62728"/>
<line x1="892.0" y1="174.9" x2="892.0" y2="200.9" stroke="#d62728" stroke-width="1.1"/>
<polygon points="892.0,200.9 888.4,190.1 895.6,190.1" fill="#d62728"/>
<line x1="912.4" y1="163.1" x2="912.4" y2="189.1" stroke="#d62728" stroke-width="1.1"/>
<polygon points="912.4,189.1 908.8,178.3 916.0,178.3" fill="#d62728"/>
<line x1="932.8" y1="151.4" x2="932.8" y2="177.4" stroke="#d62728" stroke-width="1.1"/>
<polygon points="932.8,177.4 929.2,166.6 936.4,166.6" fill="#d62728"/>
<line x1="953.2" y1="139.6" x2="953.2" y2="165.6" stroke="#d62728" stroke-width="1.1"/>
<polygon points="953.2,165.6 949.6,154.8 956.8,154.8" fill="#d62728"/>
<polyline points="851.3,198.4 871.7,186.7 892.0,174.9 912.4,163.1 932.8,151.4 953.2,139.6" stroke="#d62728" stroke-width="1" fill="none"/>
<text x="16.0" y="24.0" font-size="16" font-weight="bold" fill="#111">Warren truss bridge (64 m, 8 panels) — geometry, supports &amp; loads</text>
<text x="16.0" y="42.0" font-size="12" fill="#555">34 nodes, 79 members  ·  max UDL 30.0 kN/m   ·   self-weight ×1</text>
<line x1="30.0" y1="734.0" x2="50.8" y2="722.0" stroke="#666" stroke-width="1.4"/>
<text x="52.8" y="725.0" font-size="10" fill="#666">X</text>
<line x1="30.0" y1="734.0" x2="9.2" y2="722.0" stroke="#666" stroke-width="1.4"/>
<text x="11.2" y="725.0" font-size="10" fill="#666">Y</text>
<line x1="30.0" y1="734.0" x2="30.0" y2="710.0" stroke="#666" stroke-width="1.4"/>
<text x="32.0" y="713.0" font-size="10" fill="#666">Z</text>
<text x="16.0" y="750.0" font-size="10" fill="#777">beam members: blue · truss members: grey · UDL: red arrows · point loads: violet arrows</text>
</svg>
