<svg xmlns="http://www.w3.org/2000/svg" viewBox="0 0 1180 760" font-family="Segoe UI, Arial, sans-serif">
<rect width="1180" height="760" fill="white"/>
<line x1="62.0" y1="507.3" x2="78.5" y2="495.0" stroke="rgb(133,208,83)" stroke-width="4" stroke-linecap="round"/>
<line x1="78.5" y1="495.0" x2="95.0" y2="482.6" stroke="rgb(115,205,90)" stroke-width="4" stroke-linecap="round"/>
<line x1="95.0" y1="482.6" x2="111.5" y2="470.2" stroke="rgb(91,198,100)" stroke-width="4" stroke-linecap="round"/>
<line x1="111.5" y1="470.2" x2="128.0" y2="457.8" stroke="rgb(77,186,110)" stroke-width="4" stroke-linecap="round"/>
<line x1="62.0" y1="272.7" x2="78.5" y2="272.7" stroke="rgb(65,24,100)" stroke-width="4" stroke-linecap="round"/>
<line x1="78.5" y1="272.7" x2="95.0" y2="272.7" stroke="rgb(65,32,105)" stroke-width="4" stroke-linecap="round"/>
<line x1="95.0" y1="272.7" x2="111.5" y2="272.7" stroke="rgb(65,31,104)" stroke-width="4" stroke-linecap="round"/>
<line x1="111.5" y1="272.7" x2="128.0" y2="272.7" stroke="rgb(58,84,139)" stroke-width="4" stroke-linecap="round"/>
<line x1="128.0" y1="457.8" x2="144.5" y2="447.1" stroke="rgb(66,175,117)" stroke-width="4" stroke-linecap="round"/>
<line x1="144.5" y1="447.1" x2="161.0" y2="436.4" stroke="rgb(63,172,120)" stroke-width="4" stroke-linecap="round"/>
<line x1="161.0" y1="436.4" x2="177.5" y2="425.7" stroke="rgb(56,166,124)" stroke-width="4" stroke-linecap="round"/>
<line x1="177.5" y1="425.7" x2="194.0" y2="414.9" stroke="rgb(54,165,125)" stroke-width="4" stroke-linecap="round"/>
<line x1="128.0" y1="272.7" x2="144.5" y2="272.7" stroke="rgb(59,80,138)" stroke-width="4" stroke-linecap="round"/>
<line x1="144.5" y1="272.7" x2="161.0" y2="272.7" stroke="rgb(66,21,98)" stroke-width="4" stroke-linecap="round"/>
<line x1="161.0" y1="272.7" x2="177.5" y2="272.7" stroke="rgb(66,20,97)" stroke-width="4" stroke-linecap="round"/>
<line x1="177.5" y1="272.7" x2="194.0" y2="272.7" stroke="rgb(55,92,139)" stroke-width="4" stroke-linecap="round"/>
<line x1="194.0" y1="414.9" x2="210.5" y2="405.9" stroke="rgb(49,160,129)" stroke-width="4" stroke-linecap="round"/>
<line x1="210.5" y1="405.9" x2="227.0" y2="396.8" stroke="rgb(42,154,134)" stroke-width="4" stroke-linecap="round"/>
<line x1="227.0" y1="396.8" x2="243.5" y2="387.7" stroke="rgb(44,155,132)" stroke-width="4" stroke-linecap="round"/>
<line x1="243.5" y1="387.7" x2="260.0" y2="378.6" stroke="rgb(58,168,123)" stroke-width="4" stroke-linecap="round"/>
<line x1="194.0" y1="272.7" x2="210.5" y2="272.7" stroke="rgb(55,91,139)" stroke-width="4" stroke-linecap="round"/>
<line x1="210.5" y1="272.7" x2="227.0" y2="272.7" stroke="rgb(66,19,96)" stroke-width="4" stroke-linecap="round"/>
<line x1="227.0" y1="272.7" x2="243.5" y2="272.7" stroke="rgb(66,20,97)" stroke-width="4" stroke-linecap="round"/>
<line x1="243.5" y1="272.7" x2="260.0" y2="272.7" stroke="rgb(52,100,139)" stroke-width="4" stroke-linecap="round"/>
<line x1="260.0" y1="378.6" x2="276.5" y2="371.2" stroke="rgb(56,166,124)" stroke-width="4" stroke-linecap="round"/>
<line x1="276.5" y1="371.2" x2="293.0" y2="363.8" stroke="rgb(43,154,133)" stroke-width="4" stroke-linecap="round"/>
<line x1="293.0" y1="363.8" x2="309.5" y2="356.4" stroke="rgb(69,178,115)" stroke-width="4" stroke-linecap="round"/>
<line x1="309.5" y1="356.4" x2="326.0" y2="348.9" stroke="rgb(97,202,97)" stroke-width="4" stroke-linecap="round"/>
<line x1="260.0" y1="272.7" x2="276.5" y2="272.7" stroke="rgb(51,102,139)" stroke-width="4" stroke-linecap="round"/>
<line x1="276.5" y1="272.7" x2="293.0" y2="272.7" stroke="rgb(65,26,101)" stroke-width="4" stroke-linecap="round"/>
<line x1="293.0" y1="272.7" x2="309.5" y2="272.7" stroke="rgb(65,28,102)" stroke-width="4" stroke-linecap="round"/>
<line x1="309.5" y1="272.7" x2="326.0" y2="272.7" stroke="rgb(45,117,140)" stroke-width="4" stroke-linecap="round"/>
<line x1="326.0" y1="348.9" x2="342.5" y2="343.2" stroke="rgb(67,177,116)" stroke-width="4" stroke-linecap="round"/>
<line x1="342.5" y1="343.2" x2="359.0" y2="337.4" stroke="rgb(40,151,135)" stroke-width="4" stroke-linecap="round"/>
<line x1="359.0" y1="337.4" x2="375.5" y2="331.6" stroke="rgb(84,192,105)" stroke-width="4" stroke-linecap="round"/>
<line x1="375.5" y1="331.6" x2="392.0" y2="325.8" stroke="rgb(184,218,63)" stroke-width="4" stroke-linecap="round"/>
<line x1="326.0" y1="272.7" x2="342.5" y2="272.7" stroke="rgb(44,117,140)" stroke-width="4" stroke-linecap="round"/>
<line x1="342.5" y1="272.7" x2="359.0" y2="272.7" stroke="rgb(65,30,104)" stroke-width="4" stroke-linecap="round"/>
<line x1="359.0" y1="272.7" x2="375.5" y2="272.7" stroke="rgb(65,31,105)" stroke-width="4" stroke-linecap="round"/>
<line x1="375.5" y1="272.7" x2="392.0" y2="272.7" stroke="rgb(37,136,140)" stroke-width="4" stroke-linecap="round"/>
<line x1="392.0" y1="325.8" x2="408.5" y2="321.7" stroke="rgb(81,190,107)" stroke-width="4" stroke-linecap="round"/>
<line x1="408.5" y1="321.7" x2="425.0" y2="317.6" stroke="rgb(35,146,139)" stroke-width="4" stroke-linecap="round"/>
<line x1="425.0" y1="317.6" x2="441.5" y2="313.5" stroke="rgb(96,201,97)" stroke-width="4" stroke-linecap="round"/>
<line x1="441.5" y1="313.5" x2="458.0" y2="309.3" stroke="rgb(253,231,37)" stroke-width="4" stroke-linecap="round"/>
<line x1="392.0" y1="272.7" x2="408.5" y2="272.7" stroke="rgb(37,136,140)" stroke-width="4" stroke-linecap="round"/>
<line x1="408.5" y1="272.7" x2="425.0" y2="272.7" stroke="rgb(65,31,104)" stroke-width="4" stroke-linecap="round"/>
<line x1="425.0" y1="272.7" x2="441.5" y2="272.7" stroke="rgb(65,32,105)" stroke-width="4" stroke-linecap="round"/>
<line x1="441.5" y1="272.7" x2="458.0" y2="272.7" stroke="rgb(39,151,136)" stroke-width="4" stroke-linecap="round"/>
<line x1="458.0" y1="309.3" x2="474.5" y2="306.9" stroke="rgb(91,199,100)" stroke-width="4" stroke-linecap="round"/>
<line x1="474.5" y1="306.9" x2="491.0" y2="304.4" stroke="rgb(35,140,140)" stroke-width="4" stroke-linecap="round"/>
<line x1="491.0" y1="304.4" x2="507.5" y2="301.9" stroke="rgb(75,184,111)" stroke-width="4" stroke-linecap="round"/>
<line x1="507.5" y1="301.9" x2="524.0" y2="299.4" stroke="rgb(167,215,70)" stroke-width="4" stroke-linecap="round"/>
<line x1="458.0" y1="272.7" x2="474.5" y2="272.7" stroke="rgb(38,150,136)" stroke-width="4" stroke-linecap="round"/>
<line x1="474.5" y1="272.7" x2="491.0" y2="272.7" stroke="rgb(65,31,104)" stroke-width="4" stroke-linecap="round"/>
<line x1="491.0" y1="272.7" x2="507.5" y2="272.7" stroke="rgb(65,32,105)" stroke-width="4" stroke-linecap="round"/>
<line x1="507.5" y1="272.7" x2="524.0" y2="272.7" stroke="rgb(37,135,140)" stroke-width="4" stroke-linecap="round"/>
<line x1="524.0" y1="299.4" x2="540.5" y2="298.6" stroke="rgb(72,181,113)" stroke-width="4" stroke-linecap="round"/>
<line x1="540.5" y1="298.6" x2="557.0" y2="297.8" stroke="rgb(37,135,140)" stroke-width="4" stroke-linecap="round"/>
<line x1="557.0" y1="297.8" x2="573.5" y2="297.0" stroke="rgb(37,135,140)" stroke-width="4" stroke-linecap="round"/>
<line x1="573.5" y1="297.0" x2="590.0" y2="296.1" stroke="rgb(38,134,140)" stroke-width="4" stroke-linecap="round"/>
<line x1="524.0" y1="272.7" x2="540.5" y2="272.7" stroke="rgb(37,135,140)" stroke-width="4" stroke-linecap="round"/>
<line x1="540.5" y1="272.7" x2="557.0" y2="272.7" stroke="rgb(65,31,105)" stroke-width="4" stroke-linecap="round"/>
<line x1="557.0" y1="272.7" x2="573.5" y2="272.7" stroke="rgb(65,32,105)" stroke-width="4" stroke-linecap="round"/>
<line x1="573.5" y1="272.7" x2="590.0" y2="272.7" stroke="rgb(60,69,130)" stroke-width="4" stroke-linecap="round"/>
<line x1="590.0" y1="296.1" x2="606.5" y2="297.0" stroke="rgb(38,134,140)" stroke-width="4" stroke-linecap="round"/>
<line x1="606.5" y1="297.0" x2="623.0" y2="297.8" stroke="rgb(37,135,140)" stroke-width="4" stroke-linecap="round"/>
<line x1="623.0" y1="297.8" x2="639.5" y2="298.6" stroke="rgb(37,135,140)" stroke-width="4" stroke-linecap="round"/>
<line x1="639.5" y1="298.6" x2="656.0" y2="299.4" stroke="rgb(72,181,113)" stroke-width="4" stroke-linecap="round"/>
<line x1="590.0" y1="272.7" x2="606.5" y2="272.7" stroke="rgb(60,69,130)" stroke-width="4" stroke-linecap="round"/>
<line x1="606.5" y1="272.7" x2="623.0" y2="272.7" stroke="rgb(65,32,105)" stroke-width="4" stroke-linecap="round"/>
<line x1="623.0" y1="272.7" x2="639.5" y2="272.7" stroke="rgb(65,31,105)" stroke-width="4" stroke-linecap="round"/>
<line x1="639.5" y1="272.7" x2="656.0" y2="272.7" stroke="rgb(37,135,140)" stroke-width="4" stroke-linecap="round"/>
<line x1="656.0" y1="299.4" x2="672.5" y2="301.9" stroke="rgb(167,215,70)" stroke-width="4" stroke-linecap="round"/>
<line x1="672.5" y1="301.9" x2="689.0" y2="304.4" stroke="rgb(75,184,111)" stroke-width="4" stroke-linecap="round"/>
<line x1="689.0" y1="304.4" x2="705.5" y2="306.9" stroke="rgb(35,140,140)" stroke-width="4" stroke-linecap="round"/>
<line x1="705.5" y1="306.9" x2="722.0" y2="309.3" stroke="rgb(91,199,100)" stroke-width="4" stroke-linecap="round"/>
<line x1="656.0" y1="272.7" x2="672.5" y2="272.7" stroke="rgb(37,135,140)" stroke-width="4" stroke-linecap="round"/>
<line x1="672.5" y1="272.7" x2="689.0" y2="272.7" stroke="rgb(65,32,105)" stroke-width="4" stroke-linecap="round"/>
<line x1="689.0" y1="272.7" x2="705.5" y2="272.7" stroke="rgb(65,31,104)" stroke-width="4" stroke-linecap="round"/>
<line x1="705.5" y1="272.7" x2="722.0" y2="272.7" stroke="rgb(38,150,136)" stroke-width="4" stroke-linecap="round"/>
<line x1="722.0" y1="309.3" x2="738.5" y2="313.5" stroke="rgb(253,231,37)" stroke-width="4" stroke-linecap="round"/>
<line x1="738.5" y1="313.5" x2="755.0" y2="317.6" stroke="rgb(96,201,97)" stroke-width="4" stroke-linecap="round"/>
<line x1="755.0" y1="317.6" x2="771.5" y2="321.7" stroke="rgb(35,146,139)" stroke-width="4" stroke-linecap="round"/>
<line x1="771.5" y1="321.7" x2="788.0" y2="325.8" stroke="rgb(81,190,107)" stroke-width="4" stroke-linecap="round"/>
<line x1="722.0" y1="272.7" x2="738.5" y2="272.7" stroke="rgb(39,151,136)" stroke-width="4" stroke-linecap="round"/>
<line x1="738.5" y1="272.7" x2="755.0" y2="272.7" stroke="rgb(65,32,105)" stroke-width="4" stroke-linecap="round"/>
<line x1="755.0" y1="272.7" x2="771.5" y2="272.7" stroke="rgb(65,31,104)" stroke-width="4" stroke-linecap="round"/>
<line x1="771.5" y1="272.7" x2="788.0" y2="272.7" stroke="rgb(37,136,140)" stroke-width="4" stroke-linecap="round"/>
<line x1="788.0" y1="325.8" x2="804.5" y2="331.6" stroke="rgb(184,218,63)" stroke-width="4" stroke-linecap="round"/>
<line x1="804.5" y1="331.6" x2="821.0" y2="337.4" stroke="rgb(84,192,105)" stroke-width="4" stroke-linecap="round"/>
<line x1="821.0" y1="337.4" x2="837.5" y2="343.2" stroke="rgb(40,151,135)" stroke-width="4" stroke-linecap="round"/>
<line x1="837.5" y1="343.2" x2="854.0" y2="348.9" stroke="rgb(67,177,116)" stroke-width="4" stroke-linecap="round"/>
<line x1="788.0" y1="272.7" x2="804.5" y2="272.7" stroke="rgb(37,136,140)" stroke-width="4" stroke-linecap="round"/>
<line x1="804.5" y1="272.7" x2="821.0" y2="272.7" stroke="rgb(65,31,105)" stroke-width="4" stroke-linecap="round"/>
<line x1="821.0" y1="272.7" x2="837.5" y2="272.7" stroke="rgb(65,30,104)" stroke-width="4" stroke-linecap="round"/>
<line x1="837.5" y1="272.7" x2="854.0" y2="272.7" stroke="rgb(44,117,140)" stroke-width="4" stroke-linecap="round"/>
<line x1="854.0" y1="348.9" x2="870.5" y2="356.4" stroke="rgb(97,202,97)" stroke-width="4" stroke-linecap="round"/>
<line x1="870.5" y1="356.4" x2="887.0" y2="363.8" stroke="rgb(69,178,115)" stroke-width="4" stroke-linecap="round"/>
<line x1="887.0" y1="363.8" x2="903.5" y2="371.2" stroke="rgb(43,154,133)" stroke-width="4" stroke-linecap="round"/>
<line x1="903.5" y1="371.2" x2="920.0" y2="378.6" stroke="rgb(56,166,124)" stroke-width="4" stroke-linecap="round"/>
<line x1="854.0" y1="272.7" x2="870.5" y2="272.7" stroke="rgb(45,117,140)" stroke-width="4" stroke-linecap="round"/>
<line x1="870.5" y1="272.7" x2="887.0" y2="272.7" stroke="rgb(65,28,102)" stroke-width="4" stroke-linecap="round"/>
<line x1="887.0" y1="272.7" x2="903.5" y2="272.7" stroke="rgb(65,26,101)" stroke-width="4" stroke-linecap="round"/>
<line x1="903.5" y1="272.7" x2="920.0" y2="272.7" stroke="rgb(51,102,139)" stroke-width="4" stroke-linecap="round"/>
<line x1="920.0" y1="378.6" x2="936.5" y2="387.7" stroke="rgb(58,168,123)" stroke-width="4" stroke-linecap="round"/>
<line x1="936.5" y1="387.7" x2="953.0" y2="396.8" stroke="rgb(44,155,132)" stroke-width="4" stroke-linecap="round"/>
<line x1="953.0" y1="396.8" x2="969.5" y2="405.9" stroke="rgb(42,154,134)" stroke-width="4" stroke-linecap="round"/>
<line x1="969.5" y1="405.9" x2="986.0" y2="414.9" stroke="rgb(49,160,129)" stroke-width="4" stroke-linecap="round"/>
<line x1="920.0" y1="272.7" x2="936.5" y2="272.7" stroke="rgb(52,100,139)" stroke-width="4" stroke-linecap="round"/>
<line x1="936.5" y1="272.7" x2="953.0" y2="272.7" stroke="rgb(66,20,97)" stroke-width="4" stroke-linecap="round"/>
<line x1="953.0" y1="272.7" x2="969.5" y2="272.7" stroke="rgb(66,19,96)" stroke-width="4" stroke-linecap="round"/>
<line x1="969.5" y1="272.7" x2="986.0" y2="272.7" stroke="rgb(55,91,139)" stroke-width="4" stroke-linecap="round"/>
<line x1="986.0" y1="414.9" x2="1002.5" y2="425.7" stroke="rgb(54,165,125)" stroke-width="4" stroke-linecap="round"/>
<line x1="1002.5" y1="425.7" x2="1019.0" y2="436.4" stroke="rgb(56,166,124)" stroke-width="4" stroke-linecap="round"/>
<line x1="1019.0" y1="436.4" x2="1035.5" y2="447.1" stroke="rgb(63,172,120)" stroke-width="4" stroke-linecap="round"/>
<line x1="1035.5" y1="447.1" x2="1052.0" y2="457.8" stroke="rgb(66,175,117)" stroke-width="4" stroke-linecap="round"/>
<line x1="986.0" y1="272.7" x2="1002.5" y2="272.7" stroke="rgb(55,92,139)" stroke-width="4" stroke-linecap="round"/>
<line x1="1002.5" y1="272.7" x2="1019.0" y2="272.7" stroke="rgb(66,20,97)" stroke-width="4" stroke-linecap="round"/>
<line x1="1019.0" y1="272.7" x2="1035.5" y2="272.7" stroke="rgb(66,21,98)" stroke-width="4" stroke-linecap="round"/>
<line x1="1035.5" y1="272.7" x2="1052.0" y2="272.7" stroke="rgb(59,80,138)" stroke-width="4" stroke-linecap="round"/>
<line x1="1052.0" y1="457.8" x2="1068.5" y2="470.2" stroke="rgb(77,186,110)" stroke-width="4" stroke-linecap="round"/>
<line x1="1068.5" y1="470.2" x2="1085.0" y2="482.6" stroke="rgb(91,198,100)" stroke-width="4" stroke-linecap="round"/>
<line x1="1085.0" y1="482.6" x2="1101.5" y2="495.0" stroke="rgb(115,205,90)" stroke-width="4" stroke-linecap="round"/>
<line x1="1101.5" y1="495.0" x2="1118.0" y2="507.3" stroke="rgb(133,208,83)" stroke-width="4" stroke-linecap="round"/>
<line x1="1052.0" y1="272.7" x2="1068.5" y2="272.7" stroke="rgb(58,84,139)" stroke-width="4" stroke-linecap="round"/>
<line x1="1068.5" y1="272.7" x2="1085.0" y2="272.7" stroke="rgb(65,31,104)" stroke-width="4" stroke-linecap="round"/>
<line x1="1085.0" y1="272.7" x2="1101.5" y2="272.7" stroke="rgb(65,32,105)" stroke-width="4" stroke-linecap="round"/>
<line x1="1101.5" y1="272.7" x2="1118.0" y2="272.7" stroke="rgb(65,24,100)" stroke-width="4" stroke-linecap="round"/>
<line x1="128.0" y1="457.8" x2="128.0" y2="411.5" stroke="rgb(37,136,140)" stroke-width="4" stroke-linecap="round"/>
<line x1="128.0" y1="411.5" x2="128.0" y2="365.3" stroke="rgb(44,117,140)" stroke-width="4" stroke-linecap="round"/>
<line x1="128.0" y1="365.3" x2="128.0" y2="319.0" stroke="rgb(44,118,140)" stroke-width="4" stroke-linecap="round"/>
<line x1="128.0" y1="319.0" x2="128.0" y2="272.7" stroke="rgb(40,129,140)" stroke-width="4" stroke-linecap="round"/>
<line x1="194.0" y1="414.9" x2="194.0" y2="379.4" stroke="rgb(48,158,130)" stroke-width="4" stroke-linecap="round"/>
<line x1="194.0" y1="379.4" x2="194.0" y2="343.8" stroke="rgb(39,131,140)" stroke-width="4" stroke-linecap="round"/>
<line x1="194.0" y1="343.8" x2="194.0" y2="308.2" stroke="rgb(39,130,140)" stroke-width="4" stroke-linecap="round"/>
<line x1="194.0" y1="308.2" x2="194.0" y2="272.7" stroke="rgb(38,149,137)" stroke-width="4" stroke-linecap="round"/>
<line x1="260.0" y1="378.6" x2="260.0" y2="352.1" stroke="rgb(59,168,122)" stroke-width="4" stroke-linecap="round"/>
<line x1="260.0" y1="352.1" x2="260.0" y2="325.7" stroke="rgb(38,132,140)" stroke-width="4" stroke-linecap="round"/>
<line x1="260.0" y1="325.7" x2="260.0" y2="299.2" stroke="rgb(39,132,140)" stroke-width="4" stroke-linecap="round"/>
<line x1="260.0" y1="299.2" x2="260.0" y2="272.7" stroke="rgb(50,161,128)" stroke-width="4" stroke-linecap="round"/>
<line x1="326.0" y1="348.9" x2="326.0" y2="329.9" stroke="rgb(81,189,107)" stroke-width="4" stroke-linecap="round"/>
<line x1="326.0" y1="329.9" x2="326.0" y2="310.8" stroke="rgb(34,142,140)" stroke-width="4" stroke-linecap="round"/>
<line x1="326.0" y1="310.8" x2="326.0" y2="291.7" stroke="rgb(34,142,140)" stroke-width="4" stroke-linecap="round"/>
<line x1="326.0" y1="291.7" x2="326.0" y2="272.7" stroke="rgb(74,183,112)" stroke-width="4" stroke-linecap="round"/>
<line x1="392.0" y1="325.8" x2="392.0" y2="312.5" stroke="rgb(138,209,81)" stroke-width="4" stroke-linecap="round"/>
<line x1="392.0" y1="312.5" x2="392.0" y2="299.3" stroke="rgb(46,157,131)" stroke-width="4" stroke-linecap="round"/>
<line x1="392.0" y1="299.3" x2="392.0" y2="286.0" stroke="rgb(47,158,130)" stroke-width="4" stroke-linecap="round"/>
<line x1="392.0" y1="286.0" x2="392.0" y2="272.7" stroke="rgb(126,207,86)" stroke-width="4" stroke-linecap="round"/>
<line x1="458.0" y1="309.3" x2="458.0" y2="300.2" stroke="rgb(204,222,56)" stroke-width="4" stroke-linecap="round"/>
<line x1="458.0" y1="300.2" x2="458.0" y2="291.0" stroke="rgb(62,172,120)" stroke-width="4" stroke-linecap="round"/>
<line x1="458.0" y1="291.0" x2="458.0" y2="281.8" stroke="rgb(64,173,119)" stroke-width="4" stroke-linecap="round"/>
<line x1="458.0" y1="281.8" x2="458.0" y2="272.7" stroke="rgb(196,220,59)" stroke-width="4" stroke-linecap="round"/>
<line x1="524.0" y1="299.4" x2="524.0" y2="292.7" stroke="rgb(131,208,84)" stroke-width="4" stroke-linecap="round"/>
<line x1="524.0" y1="292.7" x2="524.0" y2="286.1" stroke="rgb(58,168,123)" stroke-width="4" stroke-linecap="round"/>
<line x1="524.0" y1="286.1" x2="524.0" y2="279.4" stroke="rgb(59,169,122)" stroke-width="4" stroke-linecap="round"/>
<line x1="524.0" y1="279.4" x2="524.0" y2="272.7" stroke="rgb(125,207,86)" stroke-width="4" stroke-linecap="round"/>
<line x1="590.0" y1="296.1" x2="590.0" y2="290.3" stroke="rgb(50,103,139)" stroke-width="4" stroke-linecap="round"/>
<line x1="590.0" y1="290.3" x2="590.0" y2="284.4" stroke="rgb(46,114,140)" stroke-width="4" stroke-linecap="round"/>
<line x1="590.0" y1="284.4" x2="590.0" y2="278.5" stroke="rgb(45,116,140)" stroke-width="4" stroke-linecap="round"/>
<line x1="590.0" y1="278.5" x2="590.0" y2="272.7" stroke="rgb(53,95,139)" stroke-width="4" stroke-linecap="round"/>
<line x1="656.0" y1="299.4" x2="656.0" y2="292.7" stroke="rgb(131,208,84)" stroke-width="4" stroke-linecap="round"/>
<line x1="656.0" y1="292.7" x2="656.0" y2="286.1" stroke="rgb(58,168,123)" stroke-width="4" stroke-linecap="round"/>
<line x1="656.0" y1="286.1" x2="656.0" y2="279.4" stroke="rgb(59,169,122)" stroke-width="4" stroke-linecap="round"/>
<line x1="656.0" y1="279.4" x2="656.0" y2="272.7" stroke="rgb(125,207,86)" stroke-width="4" stroke-linecap="round"/>
<line x1="722.0" y1="309.3" x2="722.0" y2="300.2" stroke="rgb(204,222,56)" stroke-width="4" stroke-linecap="round"/>
<line x1="722.0" y1="300.2" x2="722.0" y2="291.0" stroke="rgb(62,172,120)" stroke-width="4" stroke-linecap="round"/>
<line x1="722.0" y1="291.0" x2="722.0" y2="281.8" stroke="rgb(64,173,119)" stroke-width="4" stroke-linecap="round"/>
<line x1="722.0" y1="281.8" x2="722.0" y2="272.7" stroke="rgb(196,220,59)" stroke-width="4" stroke-linecap="round"/>
<line x1="788.0" y1="325.8" x2="788.0" y2="312.5" stroke="rgb(138,209,81)" stroke-width="4" stroke-linecap="round"/>
<line x1="788.0" y1="312.5" x2="788.0" y2="299.3" stroke="rgb(46,157,131)" stroke-width="4" stroke-linecap="round"/>
<line x1="788.0" y1="299.3" x2="788.0" y2="286.0" stroke="rgb(47,158,130)" stroke-width="4" stroke-linecap="round"/>
<line x1="788.0" y1="286.0" x2="788.0" y2="272.7" stroke="rgb(126,207,86)" stroke-width="4" stroke-linecap="round"/>
<line x1="854.0" y1="348.9" x2="854.0" y2="329.9" stroke="rgb(81,189,107)" stroke-width="4" stroke-linecap="round"/>
<line x1="854.0" y1="329.9" x2="854.0" y2="310.8" stroke="rgb(34,142,140)" stroke-width="4" stroke-linecap="round"/>
<line x1="854.0" y1="310.8" x2="854.0" y2="291.7" stroke="rgb(34,142,140)" stroke-width="4" stroke-linecap="round"/>
<line x1="854.0" y1="291.7" x2="854.0" y2="272.7" stroke="rgb(74,183,112)" stroke-width="4" stroke-linecap="round"/>
<line x1="920.0" y1="378.6" x2="920.0" y2="352.1" stroke="rgb(59,168,122)" stroke-width="4" stroke-linecap="round"/>
<line x1="920.0" y1="352.1" x2="920.0" y2="325.7" stroke="rgb(38,132,140)" stroke-width="4" stroke-linecap="round"/>
<line x1="920.0" y1="325.7" x2="920.0" y2="299.2" stroke="rgb(39,132,140)" stroke-width="4" stroke-linecap="round"/>
<line x1="920.0" y1="299.2" x2="920.0" y2="272.7" stroke="rgb(50,161,128)" stroke-width="4" stroke-linecap="round"/>
<line x1="986.0" y1="414.9" x2="986.0" y2="379.4" stroke="rgb(48,158,130)" stroke-width="4" stroke-linecap="round"/>
<line x1="986.0" y1="379.4" x2="986.0" y2="343.8" stroke="rgb(39,131,140)" stroke-width="4" stroke-linecap="round"/>
<line x1="986.0" y1="343.8" x2="986.0" y2="308.2" stroke="rgb(39,130,140)" stroke-width="4" stroke-linecap="round"/>
<line x1="986.0" y1="308.2" x2="986.0" y2="272.7" stroke="rgb(38,149,137)" stroke-width="4" stroke-linecap="round"/>
<line x1="1052.0" y1="457.8" x2="1052.0" y2="411.5" stroke="rgb(37,136,140)" stroke-width="4" stroke-linecap="round"/>
<line x1="1052.0" y1="411.5" x2="1052.0" y2="365.3" stroke="rgb(44,117,140)" stroke-width="4" stroke-linecap="round"/>
<line x1="1052.0" y1="365.3" x2="1052.0" y2="319.0" stroke="rgb(44,118,140)" stroke-width="4" stroke-linecap="round"/>
<line x1="1052.0" y1="319.0" x2="1052.0" y2="272.7" stroke="rgb(40,129,140)" stroke-width="4" stroke-linecap="round"/>
<polygon points="53.0,519.9 71.0,519.9 62.0,507.3" fill="#333"/>
<line x1="50.3" y1="519.9" x2="73.7" y2="519.9" stroke="#333" stroke-width="2"/>
<polygon points="1109.0,519.9 1127.0,519.9 1118.0,507.3" fill="#333"/>
<line x1="1106.3" y1="519.9" x2="1129.7" y2="519.9" stroke="#333" stroke-width="2"/>
<polygon points="53.0,282.6 71.0,282.6 62.0,272.7" fill="none" stroke="#333" stroke-width="1.4"/>
<circle cx="57.5" cy="286.6" r="3" fill="none" stroke="#333"/>
<circle cx="66.5" cy="286.6" r="3" fill="none" stroke="#333"/>
<polygon points="1109.0,282.6 1127.0,282.6 1118.0,272.7" fill="none" stroke="#333" stroke-width="1.4"/>
<circle cx="1113.5" cy="286.6" r="3" fill="none" stroke="#333"/>
<circle cx="1122.5" cy="286.6" r="3" fill="none" stroke="#333"/>
<text x="16.0" y="24.0" font-size="16" font-weight="bold" fill="#111">Deck arch bridge (90 m span, 18 m rise) — CalculiX equivalent strain (.frd field)</text>
<text x="16.0" y="42.0" font-size="12" fill="#555">max 1.71e-4</text>
<rect x="970" y="714" width="4.45" height="12" fill="rgb(68,1,84)"/>
<rect x="973.75" y="714" width="4.45" height="12" fill="rgb(67,9,90)"/>
<rect x="977.5" y="714" width="4.45" height="12" fill="rgb(66,18,95)"/>
<rect x="981.25" y="714" width="4.45" height="12" fill="rgb(65,26,101)"/>
<rect x="985" y="714" width="4.45" height="12" fill="rgb(64,34,107)"/>
<rect x="988.75" y="714" width="4.45" height="12" fill="rgb(63,43,112)"/>
<rect x="992.5" y="714" width="4.45" height="12" fill="rgb(62,51,118)"/>
<rect x="996.25" y="714" width="4.45" height="12" fill="rgb(62,59,123)"/>
<rect x="1000" y="714" width="4.45" height="12" fill="rgb(61,67,129)"/>
<rect x="1003.75" y="714" width="4.45" height="12" fill="rgb(60,76,135)"/>
<rect x="1007.5" y="714" width="4.45" height="12" fill="rgb(58,84,139)"/>
<rect x="1011.25" y="714" width="4.45" height="12" fill="rgb(56,90,139)"/>
<rect x="1015" y="714" width="4.45" height="12" fill="rgb(53,97,139)"/>
<rect x="1018.75" y="714" width="4.45" height="12" fill="rgb(50,103,139)"/>
<rect x="1022.5" y="714" width="4.45" height="12" fill="rgb(48,109,139)"/>
<rect x="1026.25" y="714" width="4.45" height="12" fill="rgb(45,116,140)"/>
<rect x="1030" y="714" width="4.45" height="12" fill="rgb(42,122,140)"/>
<rect x="1033.75" y="714" width="4.45" height="12" fill="rgb(40,129,140)"/>
<rect x="1037.5" y="714" width="4.45" height="12" fill="rgb(37,135,140)"/>
<rect x="1041.25" y="714" width="4.45" height="12" fill="rgb(34,142,140)"/>
<rect x="1045" y="714" width="4.45" height="12" fill="rgb(36,148,138)"/>
<rect x="1048.75" y="714" width="4.45" height="12" fill="rgb(42,154,134)"/>
<rect x="1052.5" y="714" width="4.45" height="12" fill="rgb(49,159,129)"/>
<rect x="1056.25" y="714" width="4.45" height="12" fill="rgb(55,165,125)"/>
<rect x="1060" y="714" width="4.45" height="12" fill="rgb(61,171,121)"/>
<rect x="1063.75" y="714" width="4.45" height="12" fill="rgb(67,177,116)"/>
<rect x="1067.5" y="714" width="4.45" height="12" fill="rgb(74,182,112)"/>
<rect x="1071.25" y="714" width="4.45" height="12" fill="rgb(80,188,108)"/>
<rect x="1075" y="714" width="4.45" height="12" fill="rgb(86,194,103)"/>
<rect x="1078.75" y="714" width="4.45" height="12" fill="rgb(92,200,99)"/>
<rect x="1082.5" y="714" width="4.45" height="12" fill="rgb(106,203,93)"/>
<rect x="1086.25" y="714" width="4.45" height="12" fill="rgb(123,206,87)"/>
<rect x="1090" y="714" width="4.45" height="12" fill="rgb(139,209,81)"/>
<rect x="1093.75" y="714" width="4.45" height="12" fill="rgb(155,213,75)"/>
<rect x="1097.5" y="714" width="4.45" height="12" fill="rgb(171,216,68)"/>
<rect x="1101.25" y="714" width="4.45" height="12" fill="rgb(188,219,62)"/>
<rect x="1105" y="714" width="4.45" height="12" fill="rgb(204,222,56)"/>
<rect x="1108.75" y="714" width="4.45" height="12" fill="rgb(220,225,50)"/>
<rect x="1112.5" y="714" width="4.45" height="12" fill="rgb(237,228,43)"/>
<rect x="1116.25" y="714" width="4.45" height="12" fill="rgb(253,231,37)"/>
<text x="970.0" y="708.0" font-size="11" fill="#333"></text>
<text x="970.0" y="739.0" font-size="10" fill="#333">0.00e+0 ε</text>
<text x="1086.0" y="739.0" font-size="10" fill="#333">1.71e-4 ε</text>
<line x1="30.0" y1="734.0" x2="54.0" y2="734.0" stroke="#666" stroke-width="1.4"/>
<text x="56.0" y="737.0" font-size="10" fill="#666">X</text>
<line x1="30.0" y1="734.0" x2="30.0" y2="710.0" stroke="#666" stroke-width="1.4"/>
<text x="32.0" y="713.0" font-size="10" fill="#666">Z</text>
</svg>
