<svg xmlns="http://www.w3.org/2000/svg" viewBox="0 0 1180 760" font-family="Segoe UI, Arial, sans-serif">
<rect width="1180" height="760" fill="white"/>
<line x1="62.0" y1="510.7" x2="150.0" y2="510.7" stroke="#eee" stroke-width="1" stroke-linecap="round"/>
<line x1="150.0" y1="510.7" x2="238.0" y2="510.7" stroke="#eee" stroke-width="1" stroke-linecap="round"/>
<line x1="238.0" y1="510.7" x2="326.0" y2="510.7" stroke="#eee" stroke-width="1" stroke-linecap="round"/>
<line x1="326.0" y1="510.7" x2="414.0" y2="510.7" stroke="#eee" stroke-width="1" stroke-linecap="round"/>
<line x1="414.0" y1="510.7" x2="502.0" y2="510.7" stroke="#eee" stroke-width="1" stroke-linecap="round"/>
<line x1="502.0" y1="510.7" x2="590.0" y2="510.7" stroke="#eee" stroke-width="1" stroke-linecap="round"/>
<line x1="590.0" y1="510.7" x2="678.0" y2="510.7" stroke="#eee" stroke-width="1" stroke-linecap="round"/>
<line x1="678.0" y1="510.7" x2="766.0" y2="510.7" stroke="#eee" stroke-width="1" stroke-linecap="round"/>
<line x1="766.0" y1="510.7" x2="854.0" y2="510.7" stroke="#eee" stroke-width="1" stroke-linecap="round"/>
<line x1="854.0" y1="510.7" x2="942.0" y2="510.7" stroke="#eee" stroke-width="1" stroke-linecap="round"/>
<line x1="942.0" y1="510.7" x2="1030.0" y2="510.7" stroke="#eee" stroke-width="1" stroke-linecap="round"/>
<line x1="1030.0" y1="510.7" x2="1118.0" y2="510.7" stroke="#eee" stroke-width="1" stroke-linecap="round"/>
<line x1="590.0" y1="571.0" x2="590.0" y2="510.7" stroke="#eee" stroke-width="1" stroke-linecap="round"/>
<line x1="590.0" y1="510.7" x2="590.0" y2="209.0" stroke="#eee" stroke-width="1" stroke-linecap="round"/>
<line x1="590.0" y1="209.0" x2="62.0" y2="510.7" stroke="#eee" stroke-width="1" stroke-linecap="round"/>
<line x1="590.0" y1="209.0" x2="150.0" y2="510.7" stroke="#eee" stroke-width="1" stroke-linecap="round"/>
<line x1="590.0" y1="209.0" x2="238.0" y2="510.7" stroke="#eee" stroke-width="1" stroke-linecap="round"/>
<line x1="590.0" y1="209.0" x2="326.0" y2="510.7" stroke="#eee" stroke-width="1" stroke-linecap="round"/>
<line x1="590.0" y1="209.0" x2="414.0" y2="510.7" stroke="#eee" stroke-width="1" stroke-linecap="round"/>
<line x1="590.0" y1="209.0" x2="502.0" y2="510.7" stroke="#eee" stroke-width="1" stroke-linecap="round"/>
<line x1="590.0" y1="209.0" x2="678.0" y2="510.7" stroke="#eee" stroke-width="1" stroke-linecap="round"/>
<line x1="590.0" y1="209.0" x2="766.0" y2="510.7" stroke="#eee" stroke-width="1" stroke-linecap="round"/>
<line x1="590.0" y1="209.0" x2="854.0" y2="510.7" stroke="#eee" stroke-width="1" stroke-linecap="round"/>
<line x1="590.0" y1="209.0" x2="942.0" y2="510.7" stroke="#eee" stroke-width="1" stroke-linecap="round"/>
<line x1="590.0" y1="209.0" x2="1030.0" y2="510.7" stroke="#eee" stroke-width="1" stroke-linecap="round"/>
<line x1="590.0" y1="209.0" x2="1118.0" y2="510.7" stroke="#eee" stroke-width="1" stroke-linecap="round"/>
<line x1="62.0" y1="510.7" x2="150.0" y2="510.7" stroke="#1f77b4" stroke-width="1.0204337622091963" stroke-linecap="round"/>
<line x1="150.0" y1="510.7" x2="238.0" y2="510.7" stroke="#d62728" stroke-width="1.1655963524465012" stroke-linecap="round"/>
<line x1="238.0" y1="510.7" x2="326.0" y2="510.7" stroke="#d62728" stroke-width="1.519755360938095" stroke-linecap="round"/>
<line x1="326.0" y1="510.7" x2="414.0" y2="510.7" stroke="#d62728" stroke-width="1.908165426818767" stroke-linecap="round"/>
<line x1="414.0" y1="510.7" x2="502.0" y2="510.7" stroke="#d62728" stroke-width="2.163064746922699" stroke-linecap="round"/>
<line x1="502.0" y1="510.7" x2="590.0" y2="510.7" stroke="#d62728" stroke-width="2.2197340323583274" stroke-linecap="round"/>
<line x1="590.0" y1="510.7" x2="678.0" y2="510.7" stroke="#d62728" stroke-width="2.2197340323583283" stroke-linecap="round"/>
<line x1="678.0" y1="510.7" x2="766.0" y2="510.7" stroke="#d62728" stroke-width="2.1630647469227005" stroke-linecap="round"/>
<line x1="766.0" y1="510.7" x2="854.0" y2="510.7" stroke="#d62728" stroke-width="1.9081654268187704" stroke-linecap="round"/>
<line x1="854.0" y1="510.7" x2="942.0" y2="510.7" stroke="#d62728" stroke-width="1.5197553609380972" stroke-linecap="round"/>
<line x1="942.0" y1="510.7" x2="1030.0" y2="510.7" stroke="#d62728" stroke-width="1.1655963524465025" stroke-linecap="round"/>
<line x1="1030.0" y1="510.7" x2="1118.0" y2="510.7" stroke="#1f77b4" stroke-width="1.0204337622091957" stroke-linecap="round"/>
<line x1="590.0" y1="571.0" x2="590.0" y2="510.7" stroke="#d62728" stroke-width="6" stroke-linecap="round"/>
<line x1="590.0" y1="510.7" x2="590.0" y2="209.0" stroke="#d62728" stroke-width="4.503548160864776" stroke-linecap="round"/>
<line x1="590.0" y1="209.0" x2="62.0" y2="510.7" stroke="#d62728" stroke-width="1.0265093251729465" stroke-linecap="round"/>
<line x1="590.0" y1="209.0" x2="150.0" y2="510.7" stroke="#1f77b4" stroke-width="1.228539900250094" stroke-linecap="round"/>
<line x1="590.0" y1="209.0" x2="238.0" y2="510.7" stroke="#1f77b4" stroke-width="1.4694296774645221" stroke-linecap="round"/>
<line x1="590.0" y1="209.0" x2="326.0" y2="510.7" stroke="#1f77b4" stroke-width="1.592811236279723" stroke-linecap="round"/>
<line x1="590.0" y1="209.0" x2="414.0" y2="510.7" stroke="#1f77b4" stroke-width="1.5088567922864793" stroke-linecap="round"/>
<line x1="590.0" y1="209.0" x2="502.0" y2="510.7" stroke="#1f77b4" stroke-width="1.205365022057621" stroke-linecap="round"/>
<line x1="590.0" y1="209.0" x2="678.0" y2="510.7" stroke="#1f77b4" stroke-width="1.2053650220576198" stroke-linecap="round"/>
<line x1="590.0" y1="209.0" x2="766.0" y2="510.7" stroke="#1f77b4" stroke-width="1.5088567922864775" stroke-linecap="round"/>
<line x1="590.0" y1="209.0" x2="854.0" y2="510.7" stroke="#1f77b4" stroke-width="1.5928112362797222" stroke-linecap="round"/>
<line x1="590.0" y1="209.0" x2="942.0" y2="510.7" stroke="#1f77b4" stroke-width="1.4694296774645221" stroke-linecap="round"/>
<line x1="590.0" y1="209.0" x2="1030.0" y2="510.7" stroke="#1f77b4" stroke-width="1.228539900250095" stroke-linecap="round"/>
<line x1="590.0" y1="209.0" x2="1118.0" y2="510.7" stroke="#d62728" stroke-width="1.0265093251729456" stroke-linecap="round"/>
<polygon points="581.0,583.6 599.0,583.6 590.0,571.0" fill="#333"/>
<line x1="578.3" y1="583.6" x2="601.7" y2="583.6" stroke="#333" stroke-width="2"/>
<polygon points="53.0,520.6 71.0,520.6 62.0,510.7" fill="none" stroke="#333" stroke-width="1.4"/>
<circle cx="57.5" cy="524.6" r="3" fill="none" stroke="#333"/>
<circle cx="66.5" cy="524.6" r="3" fill="none" stroke="#333"/>
<polygon points="1109.0,520.6 1127.0,520.6 1118.0,510.7" fill="none" stroke="#333" stroke-width="1.4"/>
<circle cx="1113.5" cy="524.6" r="3" fill="none" stroke="#333"/>
<circle cx="1122.5" cy="524.6" r="3" fill="none" stroke="#333"/>
<text x="16.0" y="24.0" font-size="16" font-weight="bold" fill="#111">Cable-stayed bridge (140 m deck, 40 m pylon) — axial force</text>
<text x="16.0" y="42.0" font-size="12" fill="#555">axial force · max |N| = 15.5 MN (red: compression, blue: tension, width ∝ |N|)</text>
<line x1="30.0" y1="734.0" x2="54.0" y2="734.0" stroke="#666" stroke-width="1.4"/>
<text x="56.0" y="737.0" font-size="10" fill="#666">X</text>
<line x1="30.0" y1="734.0" x2="30.0" y2="710.0" stroke="#666" stroke-width="1.4"/>
<text x="32.0" y="713.0" font-size="10" fill="#666">Z</text>
</svg>
