<svg xmlns="http://www.w3.org/2000/svg" viewBox="0 0 1180 760" font-family="Segoe UI, Arial, sans-serif">
<rect width="1180" height="760" fill="white"/>
<line x1="62.0" y1="510.7" x2="84.0" y2="510.7" stroke="rgb(65,25,100)" stroke-width="4" stroke-linecap="round"/>
<line x1="84.0" y1="510.7" x2="106.0" y2="510.7" stroke="rgb(63,43,112)" stroke-width="4" stroke-linecap="round"/>
<line x1="106.0" y1="510.7" x2="128.0" y2="510.7" stroke="rgb(61,63,126)" stroke-width="4" stroke-linecap="round"/>
<line x1="128.0" y1="510.7" x2="150.0" y2="510.7" stroke="rgb(53,97,139)" stroke-width="4" stroke-linecap="round"/>
<line x1="150.0" y1="510.7" x2="172.0" y2="510.7" stroke="rgb(49,106,139)" stroke-width="4" stroke-linecap="round"/>
<line x1="172.0" y1="510.7" x2="194.0" y2="510.7" stroke="rgb(55,92,139)" stroke-width="4" stroke-linecap="round"/>
<line x1="194.0" y1="510.7" x2="216.0" y2="510.7" stroke="rgb(55,92,139)" stroke-width="4" stroke-linecap="round"/>
<line x1="216.0" y1="510.7" x2="238.0" y2="510.7" stroke="rgb(51,162,128)" stroke-width="4" stroke-linecap="round"/>
<line x1="238.0" y1="510.7" x2="260.0" y2="510.7" stroke="rgb(50,160,128)" stroke-width="4" stroke-linecap="round"/>
<line x1="260.0" y1="510.7" x2="282.0" y2="510.7" stroke="rgb(57,86,139)" stroke-width="4" stroke-linecap="round"/>
<line x1="282.0" y1="510.7" x2="304.0" y2="510.7" stroke="rgb(59,78,137)" stroke-width="4" stroke-linecap="round"/>
<line x1="304.0" y1="510.7" x2="326.0" y2="510.7" stroke="rgb(61,171,121)" stroke-width="4" stroke-linecap="round"/>
<line x1="326.0" y1="510.7" x2="348.0" y2="510.7" stroke="rgb(56,166,124)" stroke-width="4" stroke-linecap="round"/>
<line x1="348.0" y1="510.7" x2="370.0" y2="510.7" stroke="rgb(62,57,122)" stroke-width="4" stroke-linecap="round"/>
<line x1="370.0" y1="510.7" x2="392.0" y2="510.7" stroke="rgb(63,46,115)" stroke-width="4" stroke-linecap="round"/>
<line x1="392.0" y1="510.7" x2="414.0" y2="510.7" stroke="rgb(35,139,140)" stroke-width="4" stroke-linecap="round"/>
<line x1="414.0" y1="510.7" x2="436.0" y2="510.7" stroke="rgb(38,132,140)" stroke-width="4" stroke-linecap="round"/>
<line x1="436.0" y1="510.7" x2="458.0" y2="510.7" stroke="rgb(66,19,96)" stroke-width="4" stroke-linecap="round"/>
<line x1="458.0" y1="510.7" x2="480.0" y2="510.7" stroke="rgb(66,23,99)" stroke-width="4" stroke-linecap="round"/>
<line x1="480.0" y1="510.7" x2="502.0" y2="510.7" stroke="rgb(60,72,132)" stroke-width="4" stroke-linecap="round"/>
<line x1="502.0" y1="510.7" x2="524.0" y2="510.7" stroke="rgb(56,89,139)" stroke-width="4" stroke-linecap="round"/>
<line x1="524.0" y1="510.7" x2="546.0" y2="510.7" stroke="rgb(60,77,136)" stroke-width="4" stroke-linecap="round"/>
<line x1="546.0" y1="510.7" x2="568.0" y2="510.7" stroke="rgb(51,101,139)" stroke-width="4" stroke-linecap="round"/>
<line x1="568.0" y1="510.7" x2="590.0" y2="510.7" stroke="rgb(46,113,139)" stroke-width="4" stroke-linecap="round"/>
<line x1="590.0" y1="510.7" x2="612.0" y2="510.7" stroke="rgb(46,113,139)" stroke-width="4" stroke-linecap="round"/>
<line x1="612.0" y1="510.7" x2="634.0" y2="510.7" stroke="rgb(51,101,139)" stroke-width="4" stroke-linecap="round"/>
<line x1="634.0" y1="510.7" x2="656.0" y2="510.7" stroke="rgb(59,78,136)" stroke-width="4" stroke-linecap="round"/>
<line x1="656.0" y1="510.7" x2="678.0" y2="510.7" stroke="rgb(57,88,139)" stroke-width="4" stroke-linecap="round"/>
<line x1="678.0" y1="510.7" x2="700.0" y2="510.7" stroke="rgb(60,70,131)" stroke-width="4" stroke-linecap="round"/>
<line x1="700.0" y1="510.7" x2="722.0" y2="510.7" stroke="rgb(66,23,99)" stroke-width="4" stroke-linecap="round"/>
<line x1="722.0" y1="510.7" x2="744.0" y2="510.7" stroke="rgb(66,19,96)" stroke-width="4" stroke-linecap="round"/>
<line x1="744.0" y1="510.7" x2="766.0" y2="510.7" stroke="rgb(39,130,140)" stroke-width="4" stroke-linecap="round"/>
<line x1="766.0" y1="510.7" x2="788.0" y2="510.7" stroke="rgb(36,137,140)" stroke-width="4" stroke-linecap="round"/>
<line x1="788.0" y1="510.7" x2="810.0" y2="510.7" stroke="rgb(63,47,115)" stroke-width="4" stroke-linecap="round"/>
<line x1="810.0" y1="510.7" x2="832.0" y2="510.7" stroke="rgb(62,57,122)" stroke-width="4" stroke-linecap="round"/>
<line x1="832.0" y1="510.7" x2="854.0" y2="510.7" stroke="rgb(50,161,128)" stroke-width="4" stroke-linecap="round"/>
<line x1="854.0" y1="510.7" x2="876.0" y2="510.7" stroke="rgb(55,166,125)" stroke-width="4" stroke-linecap="round"/>
<line x1="876.0" y1="510.7" x2="898.0" y2="510.7" stroke="rgb(59,79,137)" stroke-width="4" stroke-linecap="round"/>
<line x1="898.0" y1="510.7" x2="920.0" y2="510.7" stroke="rgb(57,87,139)" stroke-width="4" stroke-linecap="round"/>
<line x1="920.0" y1="510.7" x2="942.0" y2="510.7" stroke="rgb(42,153,134)" stroke-width="4" stroke-linecap="round"/>
<line x1="942.0" y1="510.7" x2="964.0" y2="510.7" stroke="rgb(43,154,133)" stroke-width="4" stroke-linecap="round"/>
<line x1="964.0" y1="510.7" x2="986.0" y2="510.7" stroke="rgb(55,92,139)" stroke-width="4" stroke-linecap="round"/>
<line x1="986.0" y1="510.7" x2="1008.0" y2="510.7" stroke="rgb(55,91,139)" stroke-width="4" stroke-linecap="round"/>
<line x1="1008.0" y1="510.7" x2="1030.0" y2="510.7" stroke="rgb(48,109,139)" stroke-width="4" stroke-linecap="round"/>
<line x1="1030.0" y1="510.7" x2="1052.0" y2="510.7" stroke="rgb(51,100,139)" stroke-width="4" stroke-linecap="round"/>
<line x1="1052.0" y1="510.7" x2="1074.0" y2="510.7" stroke="rgb(61,63,126)" stroke-width="4" stroke-linecap="round"/>
<line x1="1074.0" y1="510.7" x2="1096.0" y2="510.7" stroke="rgb(63,43,113)" stroke-width="4" stroke-linecap="round"/>
<line x1="1096.0" y1="510.7" x2="1118.0" y2="510.7" stroke="rgb(65,27,102)" stroke-width="4" stroke-linecap="round"/>
<line x1="590.0" y1="571.0" x2="590.0" y2="555.9" stroke="rgb(64,36,108)" stroke-width="4" stroke-linecap="round"/>
<line x1="590.0" y1="555.9" x2="590.0" y2="540.9" stroke="rgb(64,36,108)" stroke-width="4" stroke-linecap="round"/>
<line x1="590.0" y1="540.9" x2="590.0" y2="525.8" stroke="rgb(60,77,135)" stroke-width="4" stroke-linecap="round"/>
<line x1="590.0" y1="525.8" x2="590.0" y2="510.7" stroke="rgb(48,109,139)" stroke-width="4" stroke-linecap="round"/>
<line x1="590.0" y1="510.7" x2="590.0" y2="435.3" stroke="rgb(60,71,132)" stroke-width="4" stroke-linecap="round"/>
<line x1="590.0" y1="435.3" x2="590.0" y2="359.8" stroke="rgb(65,25,100)" stroke-width="4" stroke-linecap="round"/>
<line x1="590.0" y1="359.8" x2="590.0" y2="284.4" stroke="rgb(65,24,100)" stroke-width="4" stroke-linecap="round"/>
<line x1="590.0" y1="284.4" x2="590.0" y2="209.0" stroke="rgb(45,117,140)" stroke-width="4" stroke-linecap="round"/>
<line x1="590.0" y1="209.0" x2="62.0" y2="510.7" stroke="rgb(46,114,140)" stroke-width="4" stroke-linecap="round"/>
<line x1="590.0" y1="209.0" x2="150.0" y2="510.7" stroke="rgb(45,156,132)" stroke-width="4" stroke-linecap="round"/>
<line x1="590.0" y1="209.0" x2="238.0" y2="510.7" stroke="rgb(113,205,91)" stroke-width="4" stroke-linecap="round"/>
<line x1="590.0" y1="209.0" x2="326.0" y2="510.7" stroke="rgb(160,213,73)" stroke-width="4" stroke-linecap="round"/>
<line x1="590.0" y1="209.0" x2="414.0" y2="510.7" stroke="rgb(106,203,93)" stroke-width="4" stroke-linecap="round"/>
<line x1="590.0" y1="209.0" x2="502.0" y2="510.7" stroke="rgb(40,151,135)" stroke-width="4" stroke-linecap="round"/>
<line x1="590.0" y1="209.0" x2="678.0" y2="510.7" stroke="rgb(38,150,136)" stroke-width="4" stroke-linecap="round"/>
<line x1="590.0" y1="209.0" x2="766.0" y2="510.7" stroke="rgb(99,202,96)" stroke-width="4" stroke-linecap="round"/>
<line x1="590.0" y1="209.0" x2="854.0" y2="510.7" stroke="rgb(145,211,78)" stroke-width="4" stroke-linecap="round"/>
<line x1="590.0" y1="209.0" x2="942.0" y2="510.7" stroke="rgb(93,200,99)" stroke-width="4" stroke-linecap="round"/>
<line x1="590.0" y1="209.0" x2="1030.0" y2="510.7" stroke="rgb(49,159,129)" stroke-width="4" stroke-linecap="round"/>
<line x1="590.0" y1="209.0" x2="1118.0" y2="510.7" stroke="rgb(45,116,140)" stroke-width="4" stroke-linecap="round"/>
<polygon points="581.0,583.6 599.0,583.6 590.0,571.0" fill="#333"/>
<line x1="578.3" y1="583.6" x2="601.7" y2="583.6" stroke="#333" stroke-width="2"/>
<polygon points="53.0,520.6 71.0,520.6 62.0,510.7" fill="none" stroke="#333" stroke-width="1.4"/>
<circle cx="57.5" cy="524.6" r="3" fill="none" stroke="#333"/>
<circle cx="66.5" cy="524.6" r="3" fill="none" stroke="#333"/>
<polygon points="1109.0,520.6 1127.0,520.6 1118.0,510.7" fill="none" stroke="#333" stroke-width="1.4"/>
<circle cx="1113.5" cy="524.6" r="3" fill="none" stroke="#333"/>
<circle cx="1122.5" cy="524.6" r="3" fill="none" stroke="#333"/>
<text x="16.0" y="24.0" font-size="16" font-weight="bold" fill="#111">Cable-stayed bridge (140 m deck, 40 m pylon) — CalculiX equivalent strain (.frd field)</text>
<text x="16.0" y="42.0" font-size="12" fill="#555">max 1.26e-3</text>
<rect x="970" y="714" width="4.45" height="12" fill="rgb(68,1,84)"/>
<rect x="973.75" y="714" width="4.45" height="12" fill="rgb(67,9,90)"/>
<rect x="977.5" y="714" width="4.45" height="12" fill="rgb(66,18,95)"/>
<rect x="981.25" y="714" width="4.45" height="12" fill="rgb(65,26,101)"/>
<rect x="985" y="714" width="4.45" height="12" fill="rgb(64,34,107)"/>
<rect x="988.75" y="714" width="4.45" height="12" fill="rgb(63,43,112)"/>
<rect x="992.5" y="714" width="4.45" height="12" fill="rgb(62,51,118)"/>
<rect x="996.25" y="714" width="4.45" height="12" fill="rgb(62,59,123)"/>
<rect x="1000" y="714" width="4.45" height="12" fill="rgb(61,67,129)"/>
<rect x="1003.75" y="714" width="4.45" height="12" fill="rgb(60,76,135)"/>
<rect x="1007.5" y="714" width="4.45" height="12" fill="rgb(58,84,139)"/>
<rect x="1011.25" y="714" width="4.45" height="12" fill="rgb(56,90,139)"/>
<rect x="1015" y="714" width="4.45" height="12" fill="rgb(53,97,139)"/>
<rect x="1018.75" y="714" width="4.45" height="12" fill="rgb(50,103,139)"/>
<rect x="1022.5" y="714" width="4.45" height="12" fill="rgb(48,109,139)"/>
<rect x="1026.25" y="714" width="4.45" height="12" fill="rgb(45,116,140)"/>
<rect x="1030" y="714" width="4.45" height="12" fill="rgb(42,122,140)"/>
<rect x="1033.75" y="714" width="4.45" height="12" fill="rgb(40,129,140)"/>
<rect x="1037.5" y="714" width="4.45" height="12" fill="rgb(37,135,140)"/>
<rect x="1041.25" y="714" width="4.45" height="12" fill="rgb(34,142,140)"/>
<rect x="1045" y="714" width="4.45" height="12" fill="rgb(36,148,138)"/>
<rect x="1048.75" y="714" width="4.45" height="12" fill="rgb(42,154,134)"/>
<rect x="1052.5" y="714" width="4.45" height="12" fill="rgb(49,159,129)"/>
<rect x="1056.25" y="714" width="4.45" height="12" fill="rgb(55,165,125)"/>
<rect x="1060" y="714" width="4.45" height="12" fill="rgb(61,171,121)"/>
<rect x="1063.75" y="714" width="4.45" height="12" fill="rgb(67,177,116)"/>
<rect x="1067.5" y="714" width="4.45" height="12" fill="rgb(74,182,112)"/>
<rect x="1071.25" y="714" width="4.45" height="12" fill="rgb(80,188,108)"/>
<rect x="1075" y="714" width="4.45" height="12" fill="rgb(86,194,103)"/>
<rect x="1078.75" y="714" width="4.45" height="12" fill="rgb(92,200,99)"/>
<rect x="1082.5" y="714" width="4.45" height="12" fill="rgb(106,203,93)"/>
<rect x="1086.25" y="714" width="4.45" height="12" fill="rgb(123,206,87)"/>
<rect x="1090" y="714" width="4.45" height="12" fill="rgb(139,209,81)"/>
<rect x="1093.75" y="714" width="4.45" height="12" fill="rgb(155,213,75)"/>
<rect x="1097.5" y="714" width="4.45" height="12" fill="rgb(171,216,68)"/>
<rect x="1101.25" y="714" width="4.45" height="12" fill="rgb(188,219,62)"/>
<rect x="1105" y="714" width="4.45" height="12" fill="rgb(204,222,56)"/>
<rect x="1108.75" y="714" width="4.45" height="12" fill="rgb(220,225,50)"/>
<rect x="1112.5" y="714" width="4.45" height="12" fill="rgb(237,228,43)"/>
<rect x="1116.25" y="714" width="4.45" height="12" fill="rgb(253,231,37)"/>
<text x="970.0" y="708.0" font-size="11" fill="#333"></text>
<text x="970.0" y="739.0" font-size="10" fill="#333">0.00e+0 ε</text>
<text x="1086.0" y="739.0" font-size="10" fill="#333">1.26 mε</text>
<line x1="30.0" y1="734.0" x2="54.0" y2="734.0" stroke="#666" stroke-width="1.4"/>
<text x="56.0" y="737.0" font-size="10" fill="#666">X</text>
<line x1="30.0" y1="734.0" x2="30.0" y2="710.0" stroke="#666" stroke-width="1.4"/>
<text x="32.0" y="713.0" font-size="10" fill="#666">Z</text>
</svg>
