<svg xmlns="http://www.w3.org/2000/svg" viewBox="0 0 1180 760" font-family="Segoe UI, Arial, sans-serif">
<rect width="1180" height="760" fill="white"/>
<line x1="62.0" y1="510.7" x2="150.0" y2="510.7" stroke="#999" stroke-width="1.4" stroke-linecap="round"/>
<line x1="150.0" y1="510.7" x2="238.0" y2="510.7" stroke="#999" stroke-width="1.4" stroke-linecap="round"/>
<line x1="238.0" y1="510.7" x2="326.0" y2="510.7" stroke="#999" stroke-width="1.4" stroke-linecap="round"/>
<line x1="326.0" y1="510.7" x2="414.0" y2="510.7" stroke="#999" stroke-width="1.4" stroke-linecap="round"/>
<line x1="414.0" y1="510.7" x2="502.0" y2="510.7" stroke="#999" stroke-width="1.4" stroke-linecap="round"/>
<line x1="502.0" y1="510.7" x2="590.0" y2="510.7" stroke="#999" stroke-width="1.4" stroke-linecap="round"/>
<line x1="590.0" y1="510.7" x2="678.0" y2="510.7" stroke="#999" stroke-width="1.4" stroke-linecap="round"/>
<line x1="678.0" y1="510.7" x2="766.0" y2="510.7" stroke="#999" stroke-width="1.4" stroke-linecap="round"/>
<line x1="766.0" y1="510.7" x2="854.0" y2="510.7" stroke="#999" stroke-width="1.4" stroke-linecap="round"/>
<line x1="854.0" y1="510.7" x2="942.0" y2="510.7" stroke="#999" stroke-width="1.4" stroke-linecap="round"/>
<line x1="942.0" y1="510.7" x2="1030.0" y2="510.7" stroke="#999" stroke-width="1.4" stroke-linecap="round"/>
<line x1="1030.0" y1="510.7" x2="1118.0" y2="510.7" stroke="#999" stroke-width="1.4" stroke-linecap="round"/>
<line x1="590.0" y1="571.0" x2="590.0" y2="510.7" stroke="#999" stroke-width="1.4" stroke-linecap="round"/>
<line x1="590.0" y1="510.7" x2="590.0" y2="209.0" stroke="#999" stroke-width="1.4" stroke-linecap="round"/>
<line x1="590.0" y1="209.0" x2="62.0" y2="510.7" stroke="#999" stroke-width="1.4" stroke-linecap="round"/>
<line x1="590.0" y1="209.0" x2="150.0" y2="510.7" stroke="#999" stroke-width="1.4" stroke-linecap="round"/>
<line x1="590.0" y1="209.0" x2="238.0" y2="510.7" stroke="#999" stroke-width="1.4" stroke-linecap="round"/>
<line x1="590.0" y1="209.0" x2="326.0" y2="510.7" stroke="#999" stroke-width="1.4" stroke-linecap="round"/>
<line x1="590.0" y1="209.0" x2="414.0" y2="510.7" stroke="#999" stroke-width="1.4" stroke-linecap="round"/>
<line x1="590.0" y1="209.0" x2="502.0" y2="510.7" stroke="#999" stroke-width="1.4" stroke-linecap="round"/>
<line x1="590.0" y1="209.0" x2="678.0" y2="510.7" stroke="#999" stroke-width="1.4" stroke-linecap="round"/>
<line x1="590.0" y1="209.0" x2="766.0" y2="510.7" stroke="#999" stroke-width="1.4" stroke-linecap="round"/>
<line x1="590.0" y1="209.0" x2="854.0" y2="510.7" stroke="#999" stroke-width="1.4" stroke-linecap="round"/>
<line x1="590.0" y1="209.0" x2="942.0" y2="510.7" stroke="#999" stroke-width="1.4" stroke-linecap="round"/>
<line x1="590.0" y1="209.0" x2="1030.0" y2="510.7" stroke="#999" stroke-width="1.4" stroke-linecap="round"/>
<line x1="590.0" y1="209.0" x2="1118.0" y2="510.7" stroke="#999" stroke-width="1.4" stroke-linecap="round"/>
<polygon points="62.0,510.7 62.0,510.7 66.4,509.1 70.8,507.7 75.2,506.2 79.6,504.9 84.0,503.6 88.4,502.4 92.8,501.2 97.2,500.1 101.6,499.0 106.0,498.1 110.4,497.1 114.8,496.3 119.2,495.5 123.6,494.8 128.0,494.1 132.4,493.5 136.8,492.9 141.2,492.4 145.6,492.0 150.0,491.7 150.0,510.7" fill="#d62728" fill-opacity="0.28" stroke="#d62728" stroke-width="1"/>
<polygon points="150.0,510.7 150.0,491.7 154.4,491.0 158.8,490.5 163.2,490.0 167.6,489.5 172.0,489.2 176.4,488.8 180.8,488.6 185.2,488.4 189.6,488.3 194.0,488.2 198.4,488.2 202.8,488.3 207.2,488.4 211.6,488.6 216.0,488.8 220.4,489.1 224.8,489.5 229.2,489.9 233.6,490.4 238.0,491.0 238.0,510.7" fill="#d62728" fill-opacity="0.28" stroke="#d62728" stroke-width="1"/>
<polygon points="238.0,510.7 238.0,491.0 242.4,490.8 246.8,490.7 251.2,490.6 255.6,490.6 260.0,490.7 264.4,490.8 268.8,491.0 273.2,491.2 277.6,491.6 282.0,491.9 286.4,492.4 290.8,492.9 295.2,493.4 299.6,494.1 304.0,494.7 308.4,495.5 312.8,496.3 317.2,497.2 321.6,498.1 326.0,499.1 326.0,510.7" fill="#d62728" fill-opacity="0.28" stroke="#d62728" stroke-width="1"/>
<polygon points="326.0,510.7 326.0,499.1 330.4,499.0 334.8,498.9 339.2,498.9 343.6,499.0 348.0,499.1 352.4,499.3 356.8,499.5 361.2,499.8 365.6,500.2 370.0,500.6 374.4,501.1 378.8,501.7 383.2,502.3 387.6,503.0 392.0,503.7 396.4,504.6 400.8,505.4 405.2,506.4 409.6,507.4 414.0,508.4 414.0,510.7" fill="#d62728" fill-opacity="0.28" stroke="#d62728" stroke-width="1"/>
<polygon points="414.0,510.7 414.0,508.4 418.4,508.4 422.8,508.4 427.2,508.4 431.6,508.6 436.0,508.8 440.4,509.0 444.8,509.4 449.2,509.7 453.6,510.2 458.0,510.7 462.4,511.3 466.8,511.9 471.2,512.6 475.6,513.4 480.0,514.2 484.4,515.1 488.8,516.0 493.2,517.0 497.6,518.1 502.0,519.2 502.0,510.7" fill="#b8860b" fill-opacity="0.28" stroke="#b8860b" stroke-width="1"/>
<polygon points="502.0,510.7 502.0,519.2 506.4,519.9 510.8,520.7 515.2,521.5 519.6,522.3 524.0,523.3 528.4,524.3 532.8,525.3 537.2,526.4 541.6,527.6 546.0,528.8 550.4,530.1 554.8,531.5 559.2,532.9 563.6,534.4 568.0,536.0 572.4,537.6 576.8,539.3 581.2,541.0 585.6,542.8 590.0,544.7 590.0,510.7" fill="#2ca02c" fill-opacity="0.28" stroke="#2ca02c" stroke-width="1"/>
<polygon points="590.0,510.7 590.0,544.7 594.4,542.8 598.8,541.0 603.2,539.3 607.6,537.6 612.0,536.0 616.4,534.4 620.8,532.9 625.2,531.5 629.6,530.1 634.0,528.8 638.4,527.6 642.8,526.4 647.2,525.3 651.6,524.3 656.0,523.3 660.4,522.3 664.8,521.5 669.2,520.7 673.6,519.9 678.0,519.2 678.0,510.7" fill="#2ca02c" fill-opacity="0.28" stroke="#2ca02c" stroke-width="1"/>
<polygon points="678.0,510.7 678.0,519.2 682.4,518.1 686.8,517.0 691.2,516.0 695.6,515.1 700.0,514.2 704.4,513.4 708.8,512.6 713.2,511.9 717.6,511.3 722.0,510.7 726.4,510.2 730.8,509.7 735.2,509.4 739.6,509.0 744.0,508.8 748.4,508.6 752.8,508.4 757.2,508.4 761.6,508.4 766.0,508.4 766.0,510.7" fill="#b8860b" fill-opacity="0.28" stroke="#b8860b" stroke-width="1"/>
<polygon points="766.0,510.7 766.0,508.4 770.4,507.4 774.8,506.4 779.2,505.4 783.6,504.6 788.0,503.7 792.4,503.0 796.8,502.3 801.2,501.7 805.6,501.1 810.0,500.6 814.4,500.2 818.8,499.8 823.2,499.5 827.6,499.3 832.0,499.1 836.4,499.0 840.8,498.9 845.2,498.9 849.6,499.0 854.0,499.1 854.0,510.7" fill="#d62728" fill-opacity="0.28" stroke="#d62728" stroke-width="1"/>
<polygon points="854.0,510.7 854.0,499.1 858.4,498.1 862.8,497.2 867.2,496.3 871.6,495.5 876.0,494.7 880.4,494.1 884.8,493.4 889.2,492.9 893.6,492.4 898.0,491.9 902.4,491.6 906.8,491.2 911.2,491.0 915.6,490.8 920.0,490.7 924.4,490.6 928.8,490.6 933.2,490.7 937.6,490.8 942.0,491.0 942.0,510.7" fill="#d62728" fill-opacity="0.28" stroke="#d62728" stroke-width="1"/>
<polygon points="942.0,510.7 942.0,491.0 946.4,490.4 950.8,489.9 955.2,489.5 959.6,489.1 964.0,488.8 968.4,488.6 972.8,488.4 977.2,488.3 981.6,488.2 986.0,488.2 990.4,488.3 994.8,488.4 999.2,488.6 1003.6,488.8 1008.0,489.2 1012.4,489.5 1016.8,490.0 1021.2,490.5 1025.6,491.0 1030.0,491.7 1030.0,510.7" fill="#d62728" fill-opacity="0.28" stroke="#d62728" stroke-width="1"/>
<polygon points="1030.0,510.7 1030.0,491.7 1034.4,492.0 1038.8,492.4 1043.2,492.9 1047.6,493.5 1052.0,494.1 1056.4,494.8 1060.8,495.5 1065.2,496.3 1069.6,497.1 1074.0,498.1 1078.4,499.0 1082.8,500.1 1087.2,501.2 1091.6,502.4 1096.0,503.6 1100.4,504.9 1104.8,506.2 1109.2,507.7 1113.6,509.1 1118.0,510.7 1118.0,510.7" fill="#d62728" fill-opacity="0.28" stroke="#d62728" stroke-width="1"/>
<polygon points="590.0,571.0 590.0,571.0 590.0,568.0 590.0,565.0 590.0,562.0 590.0,559.0 590.0,555.9 590.0,552.9 590.0,549.9 590.0,546.9 590.0,543.9 590.0,540.9 590.0,537.8 590.0,534.8 590.0,531.8 590.0,528.8 590.0,525.8 590.0,522.8 590.0,519.7 590.0,516.7 590.0,513.7 590.0,510.7 590.0,510.7" fill="#d62728" fill-opacity="0.28" stroke="#d62728" stroke-width="1"/>
<polygon points="590.0,510.7 590.0,510.7 590.0,495.6 590.0,480.5 590.0,465.4 590.0,450.3 590.0,435.3 590.0,420.2 590.0,405.1 590.0,390.0 590.0,374.9 590.0,359.8 590.0,344.7 590.0,329.7 590.0,314.6 590.0,299.5 590.0,284.4 590.0,269.3 590.0,254.2 590.0,239.1 590.0,224.1 590.0,209.0 590.0,209.0" fill="#d62728" fill-opacity="0.28" stroke="#d62728" stroke-width="1"/>
<polygon points="590.0,209.0 590.0,209.0 563.6,224.1 537.2,239.1 510.8,254.2 484.4,269.3 458.0,284.4 431.6,299.5 405.2,314.6 378.8,329.7 352.4,344.7 326.0,359.8 299.6,374.9 273.2,390.0 246.8,405.1 220.4,420.2 194.0,435.3 167.6,450.3 141.2,465.4 114.8,480.5 88.4,495.6 62.0,510.7 62.0,510.7" fill="#d62728" fill-opacity="0.28" stroke="#d62728" stroke-width="1"/>
<polygon points="590.0,209.0 590.0,209.0 568.0,224.1 546.0,239.1 524.0,254.2 502.0,269.3 480.0,284.4 458.0,299.5 436.0,314.6 414.0,329.7 392.0,344.7 370.0,359.8 348.0,374.9 326.0,390.0 304.0,405.1 282.0,420.2 260.0,435.3 238.0,450.3 216.0,465.4 194.0,480.5 172.0,495.6 150.0,510.7 150.0,510.7" fill="#d62728" fill-opacity="0.28" stroke="#d62728" stroke-width="1"/>
<polygon points="590.0,209.0 590.0,209.0 572.4,224.1 554.8,239.1 537.2,254.2 519.6,269.3 502.0,284.4 484.4,299.5 466.8,314.6 449.2,329.7 431.6,344.7 414.0,359.8 396.4,374.9 378.8,390.0 361.2,405.1 343.6,420.2 326.0,435.3 308.4,450.3 290.8,465.4 273.2,480.5 255.6,495.6 238.0,510.7 238.0,510.7" fill="#d62728" fill-opacity="0.28" stroke="#d62728" stroke-width="1"/>
<polygon points="590.0,209.0 590.0,209.0 576.8,224.1 563.6,239.1 550.4,254.2 537.2,269.3 524.0,284.4 510.8,299.5 497.6,314.6 484.4,329.7 471.2,344.7 458.0,359.8 444.8,374.9 431.6,390.0 418.4,405.1 405.2,420.2 392.0,435.3 378.8,450.3 365.6,465.4 352.4,480.5 339.2,495.6 326.0,510.7 326.0,510.7" fill="#d62728" fill-opacity="0.28" stroke="#d62728" stroke-width="1"/>
<polygon points="590.0,209.0 590.0,209.0 581.2,224.1 572.4,239.1 563.6,254.2 554.8,269.3 546.0,284.4 537.2,299.5 528.4,314.6 519.6,329.7 510.8,344.7 502.0,359.8 493.2,374.9 484.4,390.0 475.6,405.1 466.8,420.2 458.0,435.3 449.2,450.3 440.4,465.4 431.6,480.5 422.8,495.6 414.0,510.7 414.0,510.7" fill="#d62728" fill-opacity="0.28" stroke="#d62728" stroke-width="1"/>
<polygon points="590.0,209.0 590.0,209.0 585.6,224.1 581.2,239.1 576.8,254.2 572.4,269.3 568.0,284.4 563.6,299.5 559.2,314.6 554.8,329.7 550.4,344.7 546.0,359.8 541.6,374.9 537.2,390.0 532.8,405.1 528.4,420.2 524.0,435.3 519.6,450.3 515.2,465.4 510.8,480.5 506.4,495.6 502.0,510.7 502.0,510.7" fill="#d62728" fill-opacity="0.28" stroke="#d62728" stroke-width="1"/>
<polygon points="590.0,209.0 590.0,209.0 594.4,224.1 598.8,239.1 603.2,254.2 607.6,269.3 612.0,284.4 616.4,299.5 620.8,314.6 625.2,329.7 629.6,344.7 634.0,359.8 638.4,374.9 642.8,390.0 647.2,405.1 651.6,420.2 656.0,435.3 660.4,450.3 664.8,465.4 669.2,480.5 673.6,495.6 678.0,510.7 678.0,510.7" fill="#d62728" fill-opacity="0.28" stroke="#d62728" stroke-width="1"/>
<polygon points="590.0,209.0 590.0,209.0 598.8,224.1 607.6,239.1 616.4,254.2 625.2,269.3 634.0,284.4 642.8,299.5 651.6,314.6 660.4,329.7 669.2,344.7 678.0,359.8 686.8,374.9 695.6,390.0 704.4,405.1 713.2,420.2 722.0,435.3 730.8,450.3 739.6,465.4 748.4,480.5 757.2,495.6 766.0,510.7 766.0,510.7" fill="#d62728" fill-opacity="0.28" stroke="#d62728" stroke-width="1"/>
<polygon points="590.0,209.0 590.0,209.0 603.2,224.1 616.4,239.1 629.6,254.2 642.8,269.3 656.0,284.4 669.2,299.5 682.4,314.6 695.6,329.7 708.8,344.7 722.0,359.8 735.2,374.9 748.4,390.0 761.6,405.1 774.8,420.2 788.0,435.3 801.2,450.3 814.4,465.4 827.6,480.5 840.8,495.6 854.0,510.7 854.0,510.7" fill="#d62728" fill-opacity="0.28" stroke="#d62728" stroke-width="1"/>
<polygon points="590.0,209.0 590.0,209.0 607.6,224.1 625.2,239.1 642.8,254.2 660.4,269.3 678.0,284.4 695.6,299.5 713.2,314.6 730.8,329.7 748.4,344.7 766.0,359.8 783.6,374.9 801.2,390.0 818.8,405.1 836.4,420.2 854.0,435.3 871.6,450.3 889.2,465.4 906.8,480.5 924.4,495.6 942.0,510.7 942.0,510.7" fill="#d62728" fill-opacity="0.28" stroke="#d62728" stroke-width="1"/>
<polygon points="590.0,209.0 590.0,209.0 612.0,224.1 634.0,239.1 656.0,254.2 678.0,269.3 700.0,284.4 722.0,299.5 744.0,314.6 766.0,329.7 788.0,344.7 810.0,359.8 832.0,374.9 854.0,390.0 876.0,405.1 898.0,420.2 920.0,435.3 942.0,450.3 964.0,465.4 986.0,480.5 1008.0,495.6 1030.0,510.7 1030.0,510.7" fill="#d62728" fill-opacity="0.28" stroke="#d62728" stroke-width="1"/>
<polygon points="590.0,209.0 590.0,209.0 616.4,224.1 642.8,239.1 669.2,254.2 695.6,269.3 722.0,284.4 748.4,299.5 774.8,314.6 801.2,329.7 827.6,344.7 854.0,359.8 880.4,374.9 906.8,390.0 933.2,405.1 959.6,420.2 986.0,435.3 1012.4,450.3 1038.8,465.4 1065.2,480.5 1091.6,495.6 1118.0,510.7 1118.0,510.7" fill="#d62728" fill-opacity="0.28" stroke="#d62728" stroke-width="1"/>
<polygon points="581.0,583.6 599.0,583.6 590.0,571.0" fill="#333"/>
<line x1="578.3" y1="583.6" x2="601.7" y2="583.6" stroke="#333" stroke-width="2"/>
<polygon points="53.0,520.6 71.0,520.6 62.0,510.7" fill="none" stroke="#333" stroke-width="1.4"/>
<circle cx="57.5" cy="524.6" r="3" fill="none" stroke="#333"/>
<circle cx="66.5" cy="524.6" r="3" fill="none" stroke="#333"/>
<polygon points="1109.0,520.6 1127.0,520.6 1118.0,510.7" fill="none" stroke="#333" stroke-width="1.4"/>
<circle cx="1113.5" cy="524.6" r="3" fill="none" stroke="#333"/>
<circle cx="1122.5" cy="524.6" r="3" fill="none" stroke="#333"/>
<text x="16.0" y="24.0" font-size="16" font-weight="bold" fill="#111">Cable-stayed bridge (140 m deck, 40 m pylon) — bending moment</text>
<text x="16.0" y="42.0" font-size="12" fill="#555">My diagram · max |My| = 22.8 MN·m (green: positive, red: negative, offsets ∝ value)</text>
<line x1="30.0" y1="734.0" x2="54.0" y2="734.0" stroke="#666" stroke-width="1.4"/>
<text x="56.0" y="737.0" font-size="10" fill="#666">X</text>
<line x1="30.0" y1="734.0" x2="30.0" y2="710.0" stroke="#666" stroke-width="1.4"/>
<text x="32.0" y="713.0" font-size="10" fill="#666">Z</text>
</svg>
