<svg xmlns="http://www.w3.org/2000/svg" viewBox="0 0 1180 760" font-family="Segoe UI, Arial, sans-serif">
<rect width="1180" height="760" fill="white"/>
<line x1="62.0" y1="566.0" x2="62.0" y2="504.4" stroke="rgb(64,38,109)" stroke-width="4" stroke-linecap="round"/>
<line x1="62.0" y1="504.4" x2="62.0" y2="442.8" stroke="rgb(57,86,139)" stroke-width="4" stroke-linecap="round"/>
<line x1="62.0" y1="442.8" x2="62.0" y2="381.2" stroke="rgb(40,129,140)" stroke-width="4" stroke-linecap="round"/>
<line x1="62.0" y1="381.2" x2="62.0" y2="319.6" stroke="rgb(69,178,115)" stroke-width="4" stroke-linecap="round"/>
<line x1="62.0" y1="319.6" x2="194.0" y2="293.2" stroke="rgb(34,146,139)" stroke-width="4" stroke-linecap="round"/>
<line x1="194.0" y1="293.2" x2="326.0" y2="266.8" stroke="rgb(55,91,139)" stroke-width="4" stroke-linecap="round"/>
<line x1="326.0" y1="266.8" x2="458.0" y2="240.4" stroke="rgb(39,130,140)" stroke-width="4" stroke-linecap="round"/>
<line x1="458.0" y1="240.4" x2="590.0" y2="214.0" stroke="rgb(36,138,140)" stroke-width="4" stroke-linecap="round"/>
<line x1="590.0" y1="214.0" x2="722.0" y2="240.4" stroke="rgb(39,129,140)" stroke-width="4" stroke-linecap="round"/>
<line x1="722.0" y1="240.4" x2="854.0" y2="266.8" stroke="rgb(50,104,139)" stroke-width="4" stroke-linecap="round"/>
<line x1="854.0" y1="266.8" x2="986.0" y2="293.2" stroke="rgb(51,102,139)" stroke-width="4" stroke-linecap="round"/>
<line x1="986.0" y1="293.2" x2="1118.0" y2="319.6" stroke="rgb(89,197,101)" stroke-width="4" stroke-linecap="round"/>
<line x1="1118.0" y1="319.6" x2="1118.0" y2="381.2" stroke="rgb(154,212,75)" stroke-width="4" stroke-linecap="round"/>
<line x1="1118.0" y1="381.2" x2="1118.0" y2="442.8" stroke="rgb(49,159,129)" stroke-width="4" stroke-linecap="round"/>
<line x1="1118.0" y1="442.8" x2="1118.0" y2="504.4" stroke="rgb(50,105,139)" stroke-width="4" stroke-linecap="round"/>
<line x1="1118.0" y1="504.4" x2="1118.0" y2="566.0" stroke="rgb(63,47,115)" stroke-width="4" stroke-linecap="round"/>
<polygon points="53.0,578.6 71.0,578.6 62.0,566.0" fill="none" stroke="#333" stroke-width="1.6"/>
<line x1="50.3" y1="578.6" x2="73.7" y2="578.6" stroke="#333" stroke-width="1.6"/>
<polygon points="1109.0,578.6 1127.0,578.6 1118.0,566.0" fill="none" stroke="#333" stroke-width="1.6"/>
<line x1="1106.3" y1="578.6" x2="1129.7" y2="578.6" stroke="#333" stroke-width="1.6"/>
<text x="16.0" y="24.0" font-size="16" font-weight="bold" fill="#111">Portal frame warehouse (30 m span) — CalculiX equivalent strain (.frd field)</text>
<text x="16.0" y="42.0" font-size="12" fill="#555">max 1.35e-3</text>
<rect x="970" y="714" width="4.45" height="12" fill="rgb(68,1,84)"/>
<rect x="973.75" y="714" width="4.45" height="12" fill="rgb(67,9,90)"/>
<rect x="977.5" y="714" width="4.45" height="12" fill="rgb(66,18,95)"/>
<rect x="981.25" y="714" width="4.45" height="12" fill="rgb(65,26,101)"/>
<rect x="985" y="714" width="4.45" height="12" fill="rgb(64,34,107)"/>
<rect x="988.75" y="714" width="4.45" height="12" fill="rgb(63,43,112)"/>
<rect x="992.5" y="714" width="4.45" height="12" fill="rgb(62,51,118)"/>
<rect x="996.25" y="714" width="4.45" height="12" fill="rgb(62,59,123)"/>
<rect x="1000" y="714" width="4.45" height="12" fill="rgb(61,67,129)"/>
<rect x="1003.75" y="714" width="4.45" height="12" fill="rgb(60,76,135)"/>
<rect x="1007.5" y="714" width="4.45" height="12" fill="rgb(58,84,139)"/>
<rect x="1011.25" y="714" width="4.45" height="12" fill="rgb(56,90,139)"/>
<rect x="1015" y="714" width="4.45" height="12" fill="rgb(53,97,139)"/>
<rect x="1018.75" y="714" width="4.45" height="12" fill="rgb(50,103,139)"/>
<rect x="1022.5" y="714" width="4.45" height="12" fill="rgb(48,109,139)"/>
<rect x="1026.25" y="714" width="4.45" height="12" fill="rgb(45,116,140)"/>
<rect x="1030" y="714" width="4.45" height="12" fill="rgb(42,122,140)"/>
<rect x="1033.75" y="714" width="4.45" height="12" fill="rgb(40,129,140)"/>
<rect x="1037.5" y="714" width="4.45" height="12" fill="rgb(37,135,140)"/>
<rect x="1041.25" y="714" width="4.45" height="12" fill="rgb(34,142,140)"/>
<rect x="1045" y="714" width="4.45" height="12" fill="rgb(36,148,138)"/>
<rect x="1048.75" y="714" width="4.45" height="12" fill="rgb(42,154,134)"/>
<rect x="1052.5" y="714" width="4.45" height="12" fill="rgb(49,159,129)"/>
<rect x="1056.25" y="714" width="4.45" height="12" fill="rgb(55,165,125)"/>
<rect x="1060" y="714" width="4.45" height="12" fill="rgb(61,171,121)"/>
<rect x="1063.75" y="714" width="4.45" height="12" fill="rgb(67,177,116)"/>
<rect x="1067.5" y="714" width="4.45" height="12" fill="rgb(74,182,112)"/>
<rect x="1071.25" y="714" width="4.45" height="12" fill="rgb(80,188,108)"/>
<rect x="1075" y="714" width="4.45" height="12" fill="rgb(86,194,103)"/>
<rect x="1078.75" y="714" width="4.45" height="12" fill="rgb(92,200,99)"/>
<rect x="1082.5" y="714" width="4.45" height="12" fill="rgb(106,203,93)"/>
<rect x="1086.25" y="714" width="4.45" height="12" fill="rgb(123,206,87)"/>
<rect x="1090" y="714" width="4.45" height="12" fill="rgb(139,209,81)"/>
<rect x="1093.75" y="714" width="4.45" height="12" fill="rgb(155,213,75)"/>
<rect x="1097.5" y="714" width="4.45" height="12" fill="rgb(171,216,68)"/>
<rect x="1101.25" y="714" width="4.45" height="12" fill="rgb(188,219,62)"/>
<rect x="1105" y="714" width="4.45" height="12" fill="rgb(204,222,56)"/>
<rect x="1108.75" y="714" width="4.45" height="12" fill="rgb(220,225,50)"/>
<rect x="1112.5" y="714" width="4.45" height="12" fill="rgb(237,228,43)"/>
<rect x="1116.25" y="714" width="4.45" height="12" fill="rgb(253,231,37)"/>
<text x="970.0" y="708.0" font-size="11" fill="#333"></text>
<text x="970.0" y="739.0" font-size="10" fill="#333">0.00e+0 ε</text>
<text x="1086.0" y="739.0" font-size="10" fill="#333">1.35 mε</text>
<line x1="30.0" y1="734.0" x2="54.0" y2="734.0" stroke="#666" stroke-width="1.4"/>
<text x="56.0" y="737.0" font-size="10" fill="#666">X</text>
<line x1="30.0" y1="734.0" x2="30.0" y2="710.0" stroke="#666" stroke-width="1.4"/>
<text x="32.0" y="713.0" font-size="10" fill="#666">Z</text>
</svg>
