<svg xmlns="http://www.w3.org/2000/svg" viewBox="0 0 1180 760" font-family="Segoe UI, Arial, sans-serif">
<rect width="1180" height="760" fill="white"/>
<line x1="62.0" y1="566.0" x2="62.0" y2="553.7" stroke="rgb(66,16,94)" stroke-width="4" stroke-linecap="round"/>
<line x1="62.0" y1="553.7" x2="62.0" y2="541.4" stroke="rgb(65,24,100)" stroke-width="4" stroke-linecap="round"/>
<line x1="62.0" y1="541.4" x2="62.0" y2="529.0" stroke="rgb(64,33,106)" stroke-width="4" stroke-linecap="round"/>
<line x1="62.0" y1="529.0" x2="62.0" y2="516.7" stroke="rgb(64,41,111)" stroke-width="4" stroke-linecap="round"/>
<line x1="62.0" y1="516.7" x2="62.0" y2="504.4" stroke="rgb(63,49,117)" stroke-width="4" stroke-linecap="round"/>
<line x1="62.0" y1="504.4" x2="62.0" y2="492.1" stroke="rgb(62,58,123)" stroke-width="4" stroke-linecap="round"/>
<line x1="62.0" y1="492.1" x2="62.0" y2="479.8" stroke="rgb(61,66,128)" stroke-width="4" stroke-linecap="round"/>
<line x1="62.0" y1="479.8" x2="62.0" y2="467.4" stroke="rgb(60,75,134)" stroke-width="4" stroke-linecap="round"/>
<line x1="62.0" y1="467.4" x2="62.0" y2="455.1" stroke="rgb(59,83,139)" stroke-width="4" stroke-linecap="round"/>
<line x1="62.0" y1="455.1" x2="62.0" y2="442.8" stroke="rgb(56,89,139)" stroke-width="4" stroke-linecap="round"/>
<line x1="62.0" y1="442.8" x2="62.0" y2="430.5" stroke="rgb(53,96,139)" stroke-width="4" stroke-linecap="round"/>
<line x1="62.0" y1="430.5" x2="62.0" y2="418.2" stroke="rgb(51,102,139)" stroke-width="4" stroke-linecap="round"/>
<line x1="62.0" y1="418.2" x2="62.0" y2="405.8" stroke="rgb(48,109,139)" stroke-width="4" stroke-linecap="round"/>
<line x1="62.0" y1="405.8" x2="62.0" y2="393.5" stroke="rgb(45,115,140)" stroke-width="4" stroke-linecap="round"/>
<line x1="62.0" y1="393.5" x2="62.0" y2="381.2" stroke="rgb(43,122,140)" stroke-width="4" stroke-linecap="round"/>
<line x1="62.0" y1="381.2" x2="62.0" y2="368.9" stroke="rgb(40,128,140)" stroke-width="4" stroke-linecap="round"/>
<line x1="62.0" y1="368.9" x2="62.0" y2="356.6" stroke="rgb(37,135,140)" stroke-width="4" stroke-linecap="round"/>
<line x1="62.0" y1="356.6" x2="62.0" y2="344.2" stroke="rgb(34,141,140)" stroke-width="4" stroke-linecap="round"/>
<line x1="62.0" y1="344.2" x2="62.0" y2="331.9" stroke="rgb(36,148,138)" stroke-width="4" stroke-linecap="round"/>
<line x1="62.0" y1="331.9" x2="62.0" y2="319.6" stroke="rgb(42,153,134)" stroke-width="4" stroke-linecap="round"/>
<line x1="62.0" y1="319.6" x2="88.4" y2="314.3" stroke="rgb(84,191,105)" stroke-width="4" stroke-linecap="round"/>
<line x1="88.4" y1="314.3" x2="114.8" y2="309.0" stroke="rgb(52,162,127)" stroke-width="4" stroke-linecap="round"/>
<line x1="114.8" y1="309.0" x2="141.2" y2="303.8" stroke="rgb(38,134,140)" stroke-width="4" stroke-linecap="round"/>
<line x1="141.2" y1="303.8" x2="167.6" y2="298.5" stroke="rgb(49,105,139)" stroke-width="4" stroke-linecap="round"/>
<line x1="167.6" y1="298.5" x2="194.0" y2="293.2" stroke="rgb(59,78,136)" stroke-width="4" stroke-linecap="round"/>
<line x1="194.0" y1="293.2" x2="220.4" y2="287.9" stroke="rgb(63,46,115)" stroke-width="4" stroke-linecap="round"/>
<line x1="220.4" y1="287.9" x2="246.8" y2="282.6" stroke="rgb(65,25,100)" stroke-width="4" stroke-linecap="round"/>
<line x1="246.8" y1="282.6" x2="273.2" y2="277.4" stroke="rgb(65,31,104)" stroke-width="4" stroke-linecap="round"/>
<line x1="273.2" y1="277.4" x2="299.6" y2="272.1" stroke="rgb(62,54,120)" stroke-width="4" stroke-linecap="round"/>
<line x1="299.6" y1="272.1" x2="326.0" y2="266.8" stroke="rgb(60,74,134)" stroke-width="4" stroke-linecap="round"/>
<line x1="326.0" y1="266.8" x2="352.4" y2="261.5" stroke="rgb(56,90,139)" stroke-width="4" stroke-linecap="round"/>
<line x1="352.4" y1="261.5" x2="378.8" y2="256.2" stroke="rgb(51,102,139)" stroke-width="4" stroke-linecap="round"/>
<line x1="378.8" y1="256.2" x2="405.2" y2="251.0" stroke="rgb(47,112,139)" stroke-width="4" stroke-linecap="round"/>
<line x1="405.2" y1="251.0" x2="431.6" y2="245.7" stroke="rgb(44,119,140)" stroke-width="4" stroke-linecap="round"/>
<line x1="431.6" y1="245.7" x2="458.0" y2="240.4" stroke="rgb(41,125,140)" stroke-width="4" stroke-linecap="round"/>
<line x1="458.0" y1="240.4" x2="484.4" y2="235.1" stroke="rgb(40,129,140)" stroke-width="4" stroke-linecap="round"/>
<line x1="484.4" y1="235.1" x2="510.8" y2="229.8" stroke="rgb(39,130,140)" stroke-width="4" stroke-linecap="round"/>
<line x1="510.8" y1="229.8" x2="537.2" y2="224.6" stroke="rgb(39,130,140)" stroke-width="4" stroke-linecap="round"/>
<line x1="537.2" y1="224.6" x2="563.6" y2="219.3" stroke="rgb(40,127,140)" stroke-width="4" stroke-linecap="round"/>
<line x1="563.6" y1="219.3" x2="590.0" y2="214.0" stroke="rgb(42,122,140)" stroke-width="4" stroke-linecap="round"/>
<line x1="590.0" y1="214.0" x2="616.4" y2="219.3" stroke="rgb(43,121,140)" stroke-width="4" stroke-linecap="round"/>
<line x1="616.4" y1="219.3" x2="642.8" y2="224.6" stroke="rgb(42,123,140)" stroke-width="4" stroke-linecap="round"/>
<line x1="642.8" y1="224.6" x2="669.2" y2="229.8" stroke="rgb(42,123,140)" stroke-width="4" stroke-linecap="round"/>
<line x1="669.2" y1="229.8" x2="695.6" y2="235.1" stroke="rgb(43,120,140)" stroke-width="4" stroke-linecap="round"/>
<line x1="695.6" y1="235.1" x2="722.0" y2="240.4" stroke="rgb(45,116,140)" stroke-width="4" stroke-linecap="round"/>
<line x1="722.0" y1="240.4" x2="748.4" y2="245.7" stroke="rgb(48,110,139)" stroke-width="4" stroke-linecap="round"/>
<line x1="748.4" y1="245.7" x2="774.8" y2="251.0" stroke="rgb(51,101,139)" stroke-width="4" stroke-linecap="round"/>
<line x1="774.8" y1="251.0" x2="801.2" y2="256.2" stroke="rgb(55,91,139)" stroke-width="4" stroke-linecap="round"/>
<line x1="801.2" y1="256.2" x2="827.6" y2="261.5" stroke="rgb(60,77,135)" stroke-width="4" stroke-linecap="round"/>
<line x1="827.6" y1="261.5" x2="854.0" y2="266.8" stroke="rgb(62,58,123)" stroke-width="4" stroke-linecap="round"/>
<line x1="854.0" y1="266.8" x2="880.4" y2="272.1" stroke="rgb(64,36,108)" stroke-width="4" stroke-linecap="round"/>
<line x1="880.4" y1="272.1" x2="906.8" y2="277.4" stroke="rgb(65,24,99)" stroke-width="4" stroke-linecap="round"/>
<line x1="906.8" y1="277.4" x2="933.2" y2="282.6" stroke="rgb(64,37,108)" stroke-width="4" stroke-linecap="round"/>
<line x1="933.2" y1="282.6" x2="959.6" y2="287.9" stroke="rgb(61,67,129)" stroke-width="4" stroke-linecap="round"/>
<line x1="959.6" y1="287.9" x2="986.0" y2="293.2" stroke="rgb(53,95,139)" stroke-width="4" stroke-linecap="round"/>
<line x1="986.0" y1="293.2" x2="1012.4" y2="298.5" stroke="rgb(42,123,140)" stroke-width="4" stroke-linecap="round"/>
<line x1="1012.4" y1="298.5" x2="1038.8" y2="303.8" stroke="rgb(40,151,135)" stroke-width="4" stroke-linecap="round"/>
<line x1="1038.8" y1="303.8" x2="1065.2" y2="309.0" stroke="rgb(70,179,114)" stroke-width="4" stroke-linecap="round"/>
<line x1="1065.2" y1="309.0" x2="1091.6" y2="314.3" stroke="rgb(117,205,89)" stroke-width="4" stroke-linecap="round"/>
<line x1="1091.6" y1="314.3" x2="1118.0" y2="319.6" stroke="rgb(207,222,55)" stroke-width="4" stroke-linecap="round"/>
<line x1="1118.0" y1="319.6" x2="1118.0" y2="331.9" stroke="rgb(80,188,107)" stroke-width="4" stroke-linecap="round"/>
<line x1="1118.0" y1="331.9" x2="1118.0" y2="344.2" stroke="rgb(72,181,113)" stroke-width="4" stroke-linecap="round"/>
<line x1="1118.0" y1="344.2" x2="1118.0" y2="356.6" stroke="rgb(64,173,119)" stroke-width="4" stroke-linecap="round"/>
<line x1="1118.0" y1="356.6" x2="1118.0" y2="368.9" stroke="rgb(56,166,124)" stroke-width="4" stroke-linecap="round"/>
<line x1="1118.0" y1="368.9" x2="1118.0" y2="381.2" stroke="rgb(47,158,130)" stroke-width="4" stroke-linecap="round"/>
<line x1="1118.0" y1="381.2" x2="1118.0" y2="393.5" stroke="rgb(39,151,136)" stroke-width="4" stroke-linecap="round"/>
<line x1="1118.0" y1="393.5" x2="1118.0" y2="405.8" stroke="rgb(34,143,140)" stroke-width="4" stroke-linecap="round"/>
<line x1="1118.0" y1="405.8" x2="1118.0" y2="418.2" stroke="rgb(37,134,140)" stroke-width="4" stroke-linecap="round"/>
<line x1="1118.0" y1="418.2" x2="1118.0" y2="430.5" stroke="rgb(41,126,140)" stroke-width="4" stroke-linecap="round"/>
<line x1="1118.0" y1="430.5" x2="1118.0" y2="442.8" stroke="rgb(44,117,140)" stroke-width="4" stroke-linecap="round"/>
<line x1="1118.0" y1="442.8" x2="1118.0" y2="455.1" stroke="rgb(48,109,139)" stroke-width="4" stroke-linecap="round"/>
<line x1="1118.0" y1="455.1" x2="1118.0" y2="467.4" stroke="rgb(51,100,139)" stroke-width="4" stroke-linecap="round"/>
<line x1="1118.0" y1="467.4" x2="1118.0" y2="479.8" stroke="rgb(55,92,139)" stroke-width="4" stroke-linecap="round"/>
<line x1="1118.0" y1="479.8" x2="1118.0" y2="492.1" stroke="rgb(58,83,139)" stroke-width="4" stroke-linecap="round"/>
<line x1="1118.0" y1="492.1" x2="1118.0" y2="504.4" stroke="rgb(60,73,133)" stroke-width="4" stroke-linecap="round"/>
<line x1="1118.0" y1="504.4" x2="1118.0" y2="516.7" stroke="rgb(61,62,125)" stroke-width="4" stroke-linecap="round"/>
<line x1="1118.0" y1="516.7" x2="1118.0" y2="529.0" stroke="rgb(62,51,118)" stroke-width="4" stroke-linecap="round"/>
<line x1="1118.0" y1="529.0" x2="1118.0" y2="541.4" stroke="rgb(64,40,110)" stroke-width="4" stroke-linecap="round"/>
<line x1="1118.0" y1="541.4" x2="1118.0" y2="553.7" stroke="rgb(65,29,103)" stroke-width="4" stroke-linecap="round"/>
<line x1="1118.0" y1="553.7" x2="1118.0" y2="566.0" stroke="rgb(66,18,96)" stroke-width="4" stroke-linecap="round"/>
<polygon points="53.0,578.6 71.0,578.6 62.0,566.0" fill="none" stroke="#333" stroke-width="1.6"/>
<line x1="50.3" y1="578.6" x2="73.7" y2="578.6" stroke="#333" stroke-width="1.6"/>
<polygon points="1109.0,578.6 1127.0,578.6 1118.0,566.0" fill="none" stroke="#333" stroke-width="1.6"/>
<line x1="1106.3" y1="578.6" x2="1129.7" y2="578.6" stroke="#333" stroke-width="1.6"/>
<text x="16.0" y="24.0" font-size="16" font-weight="bold" fill="#111">Portal frame warehouse (30 m span) — normal strain (built-in)</text>
<text x="16.0" y="42.0" font-size="12" fill="#555">ε = σ/E · max 1.34e-3</text>
<rect x="970" y="714" width="4.45" height="12" fill="rgb(68,1,84)"/>
<rect x="973.75" y="714" width="4.45" height="12" fill="rgb(67,9,90)"/>
<rect x="977.5" y="714" width="4.45" height="12" fill="rgb(66,18,95)"/>
<rect x="981.25" y="714" width="4.45" height="12" fill="rgb(65,26,101)"/>
<rect x="985" y="714" width="4.45" height="12" fill="rgb(64,34,107)"/>
<rect x="988.75" y="714" width="4.45" height="12" fill="rgb(63,43,112)"/>
<rect x="992.5" y="714" width="4.45" height="12" fill="rgb(62,51,118)"/>
<rect x="996.25" y="714" width="4.45" height="12" fill="rgb(62,59,123)"/>
<rect x="1000" y="714" width="4.45" height="12" fill="rgb(61,67,129)"/>
<rect x="1003.75" y="714" width="4.45" height="12" fill="rgb(60,76,135)"/>
<rect x="1007.5" y="714" width="4.45" height="12" fill="rgb(58,84,139)"/>
<rect x="1011.25" y="714" width="4.45" height="12" fill="rgb(56,90,139)"/>
<rect x="1015" y="714" width="4.45" height="12" fill="rgb(53,97,139)"/>
<rect x="1018.75" y="714" width="4.45" height="12" fill="rgb(50,103,139)"/>
<rect x="1022.5" y="714" width="4.45" height="12" fill="rgb(48,109,139)"/>
<rect x="1026.25" y="714" width="4.45" height="12" fill="rgb(45,116,140)"/>
<rect x="1030" y="714" width="4.45" height="12" fill="rgb(42,122,140)"/>
<rect x="1033.75" y="714" width="4.45" height="12" fill="rgb(40,129,140)"/>
<rect x="1037.5" y="714" width="4.45" height="12" fill="rgb(37,135,140)"/>
<rect x="1041.25" y="714" width="4.45" height="12" fill="rgb(34,142,140)"/>
<rect x="1045" y="714" width="4.45" height="12" fill="rgb(36,148,138)"/>
<rect x="1048.75" y="714" width="4.45" height="12" fill="rgb(42,154,134)"/>
<rect x="1052.5" y="714" width="4.45" height="12" fill="rgb(49,159,129)"/>
<rect x="1056.25" y="714" width="4.45" height="12" fill="rgb(55,165,125)"/>
<rect x="1060" y="714" width="4.45" height="12" fill="rgb(61,171,121)"/>
<rect x="1063.75" y="714" width="4.45" height="12" fill="rgb(67,177,116)"/>
<rect x="1067.5" y="714" width="4.45" height="12" fill="rgb(74,182,112)"/>
<rect x="1071.25" y="714" width="4.45" height="12" fill="rgb(80,188,108)"/>
<rect x="1075" y="714" width="4.45" height="12" fill="rgb(86,194,103)"/>
<rect x="1078.75" y="714" width="4.45" height="12" fill="rgb(92,200,99)"/>
<rect x="1082.5" y="714" width="4.45" height="12" fill="rgb(106,203,93)"/>
<rect x="1086.25" y="714" width="4.45" height="12" fill="rgb(123,206,87)"/>
<rect x="1090" y="714" width="4.45" height="12" fill="rgb(139,209,81)"/>
<rect x="1093.75" y="714" width="4.45" height="12" fill="rgb(155,213,75)"/>
<rect x="1097.5" y="714" width="4.45" height="12" fill="rgb(171,216,68)"/>
<rect x="1101.25" y="714" width="4.45" height="12" fill="rgb(188,219,62)"/>
<rect x="1105" y="714" width="4.45" height="12" fill="rgb(204,222,56)"/>
<rect x="1108.75" y="714" width="4.45" height="12" fill="rgb(220,225,50)"/>
<rect x="1112.5" y="714" width="4.45" height="12" fill="rgb(237,228,43)"/>
<rect x="1116.25" y="714" width="4.45" height="12" fill="rgb(253,231,37)"/>
<text x="970.0" y="708.0" font-size="11" fill="#333"></text>
<text x="970.0" y="739.0" font-size="10" fill="#333">0.00e+0 ε</text>
<text x="1086.0" y="739.0" font-size="10" fill="#333">1.34 mε</text>
<line x1="30.0" y1="734.0" x2="54.0" y2="734.0" stroke="#666" stroke-width="1.4"/>
<text x="56.0" y="737.0" font-size="10" fill="#666">X</text>
<line x1="30.0" y1="734.0" x2="30.0" y2="710.0" stroke="#666" stroke-width="1.4"/>
<text x="32.0" y="713.0" font-size="10" fill="#666">Z</text>
</svg>
