<svg xmlns="http://www.w3.org/2000/svg" viewBox="0 0 1180 760" font-family="Segoe UI, Arial, sans-serif">
<rect width="1180" height="760" fill="white"/>
<line x1="283.5" y1="688.0" x2="283.5" y2="658.2" stroke="rgb(48,109,139)" stroke-width="4" stroke-linecap="round"/>
<line x1="283.5" y1="658.2" x2="283.5" y2="628.4" stroke="rgb(46,113,139)" stroke-width="4" stroke-linecap="round"/>
<line x1="283.5" y1="628.4" x2="283.5" y2="598.6" stroke="rgb(46,115,140)" stroke-width="4" stroke-linecap="round"/>
<line x1="283.5" y1="598.6" x2="283.5" y2="568.8" stroke="rgb(51,100,139)" stroke-width="4" stroke-linecap="round"/>
<line x1="487.8" y1="688.0" x2="487.8" y2="658.2" stroke="rgb(89,197,101)" stroke-width="4" stroke-linecap="round"/>
<line x1="487.8" y1="658.2" x2="487.8" y2="628.4" stroke="rgb(76,184,111)" stroke-width="4" stroke-linecap="round"/>
<line x1="487.8" y1="628.4" x2="487.8" y2="598.6" stroke="rgb(66,175,117)" stroke-width="4" stroke-linecap="round"/>
<line x1="487.8" y1="598.6" x2="487.8" y2="568.8" stroke="rgb(54,164,126)" stroke-width="4" stroke-linecap="round"/>
<line x1="692.2" y1="688.0" x2="692.2" y2="658.2" stroke="rgb(89,196,102)" stroke-width="4" stroke-linecap="round"/>
<line x1="692.2" y1="658.2" x2="692.2" y2="628.4" stroke="rgb(75,184,111)" stroke-width="4" stroke-linecap="round"/>
<line x1="692.2" y1="628.4" x2="692.2" y2="598.6" stroke="rgb(65,174,118)" stroke-width="4" stroke-linecap="round"/>
<line x1="692.2" y1="598.6" x2="692.2" y2="568.8" stroke="rgb(52,163,127)" stroke-width="4" stroke-linecap="round"/>
<line x1="896.5" y1="688.0" x2="896.5" y2="658.2" stroke="rgb(33,145,140)" stroke-width="4" stroke-linecap="round"/>
<line x1="896.5" y1="658.2" x2="896.5" y2="628.4" stroke="rgb(43,121,140)" stroke-width="4" stroke-linecap="round"/>
<line x1="896.5" y1="628.4" x2="896.5" y2="598.6" stroke="rgb(44,118,140)" stroke-width="4" stroke-linecap="round"/>
<line x1="896.5" y1="598.6" x2="896.5" y2="568.8" stroke="rgb(45,116,140)" stroke-width="4" stroke-linecap="round"/>
<line x1="283.5" y1="568.8" x2="283.5" y2="539.0" stroke="rgb(56,89,139)" stroke-width="4" stroke-linecap="round"/>
<line x1="283.5" y1="539.0" x2="283.5" y2="509.2" stroke="rgb(57,86,139)" stroke-width="4" stroke-linecap="round"/>
<line x1="283.5" y1="509.2" x2="283.5" y2="479.4" stroke="rgb(58,85,139)" stroke-width="4" stroke-linecap="round"/>
<line x1="283.5" y1="479.4" x2="283.5" y2="449.6" stroke="rgb(59,82,139)" stroke-width="4" stroke-linecap="round"/>
<line x1="487.8" y1="568.8" x2="487.8" y2="539.0" stroke="rgb(45,156,132)" stroke-width="4" stroke-linecap="round"/>
<line x1="487.8" y1="539.0" x2="487.8" y2="509.2" stroke="rgb(39,151,136)" stroke-width="4" stroke-linecap="round"/>
<line x1="487.8" y1="509.2" x2="487.8" y2="479.4" stroke="rgb(38,149,137)" stroke-width="4" stroke-linecap="round"/>
<line x1="487.8" y1="479.4" x2="487.8" y2="449.6" stroke="rgb(35,141,140)" stroke-width="4" stroke-linecap="round"/>
<line x1="692.2" y1="568.8" x2="692.2" y2="539.0" stroke="rgb(43,154,133)" stroke-width="4" stroke-linecap="round"/>
<line x1="692.2" y1="539.0" x2="692.2" y2="509.2" stroke="rgb(37,149,137)" stroke-width="4" stroke-linecap="round"/>
<line x1="692.2" y1="509.2" x2="692.2" y2="479.4" stroke="rgb(37,149,137)" stroke-width="4" stroke-linecap="round"/>
<line x1="692.2" y1="479.4" x2="692.2" y2="449.6" stroke="rgb(35,141,140)" stroke-width="4" stroke-linecap="round"/>
<line x1="896.5" y1="568.8" x2="896.5" y2="539.0" stroke="rgb(46,114,140)" stroke-width="4" stroke-linecap="round"/>
<line x1="896.5" y1="539.0" x2="896.5" y2="509.2" stroke="rgb(48,108,139)" stroke-width="4" stroke-linecap="round"/>
<line x1="896.5" y1="509.2" x2="896.5" y2="479.4" stroke="rgb(49,106,139)" stroke-width="4" stroke-linecap="round"/>
<line x1="896.5" y1="479.4" x2="896.5" y2="449.6" stroke="rgb(51,102,139)" stroke-width="4" stroke-linecap="round"/>
<line x1="283.5" y1="449.6" x2="283.5" y2="419.8" stroke="rgb(60,76,135)" stroke-width="4" stroke-linecap="round"/>
<line x1="283.5" y1="419.8" x2="283.5" y2="390.0" stroke="rgb(60,72,132)" stroke-width="4" stroke-linecap="round"/>
<line x1="283.5" y1="390.0" x2="283.5" y2="360.2" stroke="rgb(60,69,130)" stroke-width="4" stroke-linecap="round"/>
<line x1="283.5" y1="360.2" x2="283.5" y2="330.4" stroke="rgb(61,66,128)" stroke-width="4" stroke-linecap="round"/>
<line x1="487.8" y1="449.6" x2="487.8" y2="419.8" stroke="rgb(42,123,140)" stroke-width="4" stroke-linecap="round"/>
<line x1="487.8" y1="419.8" x2="487.8" y2="390.0" stroke="rgb(44,117,140)" stroke-width="4" stroke-linecap="round"/>
<line x1="487.8" y1="390.0" x2="487.8" y2="360.2" stroke="rgb(44,119,140)" stroke-width="4" stroke-linecap="round"/>
<line x1="487.8" y1="360.2" x2="487.8" y2="330.4" stroke="rgb(46,112,139)" stroke-width="4" stroke-linecap="round"/>
<line x1="692.2" y1="449.6" x2="692.2" y2="419.8" stroke="rgb(42,124,140)" stroke-width="4" stroke-linecap="round"/>
<line x1="692.2" y1="419.8" x2="692.2" y2="390.0" stroke="rgb(44,119,140)" stroke-width="4" stroke-linecap="round"/>
<line x1="692.2" y1="390.0" x2="692.2" y2="360.2" stroke="rgb(43,120,140)" stroke-width="4" stroke-linecap="round"/>
<line x1="692.2" y1="360.2" x2="692.2" y2="330.4" stroke="rgb(46,113,139)" stroke-width="4" stroke-linecap="round"/>
<line x1="896.5" y1="449.6" x2="896.5" y2="419.8" stroke="rgb(55,93,139)" stroke-width="4" stroke-linecap="round"/>
<line x1="896.5" y1="419.8" x2="896.5" y2="390.0" stroke="rgb(56,89,139)" stroke-width="4" stroke-linecap="round"/>
<line x1="896.5" y1="390.0" x2="896.5" y2="360.2" stroke="rgb(55,91,139)" stroke-width="4" stroke-linecap="round"/>
<line x1="896.5" y1="360.2" x2="896.5" y2="330.4" stroke="rgb(56,88,139)" stroke-width="4" stroke-linecap="round"/>
<line x1="283.5" y1="330.4" x2="283.5" y2="300.6" stroke="rgb(61,63,126)" stroke-width="4" stroke-linecap="round"/>
<line x1="283.5" y1="300.6" x2="283.5" y2="270.8" stroke="rgb(61,60,124)" stroke-width="4" stroke-linecap="round"/>
<line x1="283.5" y1="270.8" x2="283.5" y2="241.0" stroke="rgb(62,53,119)" stroke-width="4" stroke-linecap="round"/>
<line x1="283.5" y1="241.0" x2="283.5" y2="211.2" stroke="rgb(62,53,119)" stroke-width="4" stroke-linecap="round"/>
<line x1="487.8" y1="330.4" x2="487.8" y2="300.6" stroke="rgb(55,92,139)" stroke-width="4" stroke-linecap="round"/>
<line x1="487.8" y1="300.6" x2="487.8" y2="270.8" stroke="rgb(58,84,139)" stroke-width="4" stroke-linecap="round"/>
<line x1="487.8" y1="270.8" x2="487.8" y2="241.0" stroke="rgb(57,86,139)" stroke-width="4" stroke-linecap="round"/>
<line x1="487.8" y1="241.0" x2="487.8" y2="211.2" stroke="rgb(59,78,136)" stroke-width="4" stroke-linecap="round"/>
<line x1="692.2" y1="330.4" x2="692.2" y2="300.6" stroke="rgb(54,93,139)" stroke-width="4" stroke-linecap="round"/>
<line x1="692.2" y1="300.6" x2="692.2" y2="270.8" stroke="rgb(57,87,139)" stroke-width="4" stroke-linecap="round"/>
<line x1="692.2" y1="270.8" x2="692.2" y2="241.0" stroke="rgb(55,91,139)" stroke-width="4" stroke-linecap="round"/>
<line x1="692.2" y1="241.0" x2="692.2" y2="211.2" stroke="rgb(58,85,139)" stroke-width="4" stroke-linecap="round"/>
<line x1="896.5" y1="330.4" x2="896.5" y2="300.6" stroke="rgb(60,74,134)" stroke-width="4" stroke-linecap="round"/>
<line x1="896.5" y1="300.6" x2="896.5" y2="270.8" stroke="rgb(61,67,129)" stroke-width="4" stroke-linecap="round"/>
<line x1="896.5" y1="270.8" x2="896.5" y2="241.0" stroke="rgb(60,70,131)" stroke-width="4" stroke-linecap="round"/>
<line x1="896.5" y1="241.0" x2="896.5" y2="211.2" stroke="rgb(60,74,133)" stroke-width="4" stroke-linecap="round"/>
<line x1="283.5" y1="211.2" x2="283.5" y2="181.4" stroke="rgb(62,51,118)" stroke-width="4" stroke-linecap="round"/>
<line x1="283.5" y1="181.4" x2="283.5" y2="151.6" stroke="rgb(63,45,114)" stroke-width="4" stroke-linecap="round"/>
<line x1="283.5" y1="151.6" x2="283.5" y2="121.8" stroke="rgb(62,58,123)" stroke-width="4" stroke-linecap="round"/>
<line x1="283.5" y1="121.8" x2="283.5" y2="92.0" stroke="rgb(57,87,139)" stroke-width="4" stroke-linecap="round"/>
<line x1="487.8" y1="211.2" x2="487.8" y2="181.4" stroke="rgb(62,53,119)" stroke-width="4" stroke-linecap="round"/>
<line x1="487.8" y1="181.4" x2="487.8" y2="151.6" stroke="rgb(63,44,113)" stroke-width="4" stroke-linecap="round"/>
<line x1="487.8" y1="151.6" x2="487.8" y2="121.8" stroke="rgb(63,50,117)" stroke-width="4" stroke-linecap="round"/>
<line x1="487.8" y1="121.8" x2="487.8" y2="92.0" stroke="rgb(62,55,121)" stroke-width="4" stroke-linecap="round"/>
<line x1="692.2" y1="211.2" x2="692.2" y2="181.4" stroke="rgb(62,57,122)" stroke-width="4" stroke-linecap="round"/>
<line x1="692.2" y1="181.4" x2="692.2" y2="151.6" stroke="rgb(63,45,114)" stroke-width="4" stroke-linecap="round"/>
<line x1="692.2" y1="151.6" x2="692.2" y2="121.8" stroke="rgb(63,48,116)" stroke-width="4" stroke-linecap="round"/>
<line x1="692.2" y1="121.8" x2="692.2" y2="92.0" stroke="rgb(62,54,120)" stroke-width="4" stroke-linecap="round"/>
<line x1="896.5" y1="211.2" x2="896.5" y2="181.4" stroke="rgb(62,56,121)" stroke-width="4" stroke-linecap="round"/>
<line x1="896.5" y1="181.4" x2="896.5" y2="151.6" stroke="rgb(62,51,118)" stroke-width="4" stroke-linecap="round"/>
<line x1="896.5" y1="151.6" x2="896.5" y2="121.8" stroke="rgb(60,74,134)" stroke-width="4" stroke-linecap="round"/>
<line x1="896.5" y1="121.8" x2="896.5" y2="92.0" stroke="rgb(50,103,139)" stroke-width="4" stroke-linecap="round"/>
<line x1="283.5" y1="568.8" x2="334.6" y2="568.8" stroke="rgb(40,129,140)" stroke-width="4" stroke-linecap="round"/>
<line x1="334.6" y1="568.8" x2="385.7" y2="568.8" stroke="rgb(34,142,140)" stroke-width="4" stroke-linecap="round"/>
<line x1="385.7" y1="568.8" x2="436.7" y2="568.8" stroke="rgb(46,113,139)" stroke-width="4" stroke-linecap="round"/>
<line x1="436.7" y1="568.8" x2="487.8" y2="568.8" stroke="rgb(36,139,140)" stroke-width="4" stroke-linecap="round"/>
<line x1="487.8" y1="568.8" x2="538.9" y2="568.8" stroke="rgb(42,154,134)" stroke-width="4" stroke-linecap="round"/>
<line x1="538.9" y1="568.8" x2="590.0" y2="568.8" stroke="rgb(43,122,140)" stroke-width="4" stroke-linecap="round"/>
<line x1="590.0" y1="568.8" x2="641.1" y2="568.8" stroke="rgb(49,105,139)" stroke-width="4" stroke-linecap="round"/>
<line x1="641.1" y1="568.8" x2="692.2" y2="568.8" stroke="rgb(37,136,140)" stroke-width="4" stroke-linecap="round"/>
<line x1="692.2" y1="568.8" x2="743.3" y2="568.8" stroke="rgb(43,154,133)" stroke-width="4" stroke-linecap="round"/>
<line x1="743.3" y1="568.8" x2="794.3" y2="568.8" stroke="rgb(40,128,140)" stroke-width="4" stroke-linecap="round"/>
<line x1="794.3" y1="568.8" x2="845.4" y2="568.8" stroke="rgb(48,109,139)" stroke-width="4" stroke-linecap="round"/>
<line x1="845.4" y1="568.8" x2="896.5" y2="568.8" stroke="rgb(46,157,131)" stroke-width="4" stroke-linecap="round"/>
<line x1="283.5" y1="449.6" x2="334.6" y2="449.6" stroke="rgb(41,127,140)" stroke-width="4" stroke-linecap="round"/>
<line x1="334.6" y1="449.6" x2="385.7" y2="449.6" stroke="rgb(37,135,140)" stroke-width="4" stroke-linecap="round"/>
<line x1="385.7" y1="449.6" x2="436.7" y2="449.6" stroke="rgb(47,111,139)" stroke-width="4" stroke-linecap="round"/>
<line x1="436.7" y1="449.6" x2="487.8" y2="449.6" stroke="rgb(37,136,140)" stroke-width="4" stroke-linecap="round"/>
<line x1="487.8" y1="449.6" x2="538.9" y2="449.6" stroke="rgb(41,152,135)" stroke-width="4" stroke-linecap="round"/>
<line x1="538.9" y1="449.6" x2="590.0" y2="449.6" stroke="rgb(43,121,140)" stroke-width="4" stroke-linecap="round"/>
<line x1="590.0" y1="449.6" x2="641.1" y2="449.6" stroke="rgb(50,105,139)" stroke-width="4" stroke-linecap="round"/>
<line x1="641.1" y1="449.6" x2="692.2" y2="449.6" stroke="rgb(37,135,140)" stroke-width="4" stroke-linecap="round"/>
<line x1="692.2" y1="449.6" x2="743.3" y2="449.6" stroke="rgb(43,154,133)" stroke-width="4" stroke-linecap="round"/>
<line x1="743.3" y1="449.6" x2="794.3" y2="449.6" stroke="rgb(40,127,140)" stroke-width="4" stroke-linecap="round"/>
<line x1="794.3" y1="449.6" x2="845.4" y2="449.6" stroke="rgb(49,107,139)" stroke-width="4" stroke-linecap="round"/>
<line x1="845.4" y1="449.6" x2="896.5" y2="449.6" stroke="rgb(52,162,127)" stroke-width="4" stroke-linecap="round"/>
<line x1="283.5" y1="330.4" x2="334.6" y2="330.4" stroke="rgb(39,130,140)" stroke-width="4" stroke-linecap="round"/>
<line x1="334.6" y1="330.4" x2="385.7" y2="330.4" stroke="rgb(39,131,140)" stroke-width="4" stroke-linecap="round"/>
<line x1="385.7" y1="330.4" x2="436.7" y2="330.4" stroke="rgb(47,111,139)" stroke-width="4" stroke-linecap="round"/>
<line x1="436.7" y1="330.4" x2="487.8" y2="330.4" stroke="rgb(38,134,140)" stroke-width="4" stroke-linecap="round"/>
<line x1="487.8" y1="330.4" x2="538.9" y2="330.4" stroke="rgb(36,148,138)" stroke-width="4" stroke-linecap="round"/>
<line x1="538.9" y1="330.4" x2="590.0" y2="330.4" stroke="rgb(44,119,140)" stroke-width="4" stroke-linecap="round"/>
<line x1="590.0" y1="330.4" x2="641.1" y2="330.4" stroke="rgb(50,104,139)" stroke-width="4" stroke-linecap="round"/>
<line x1="641.1" y1="330.4" x2="692.2" y2="330.4" stroke="rgb(38,132,140)" stroke-width="4" stroke-linecap="round"/>
<line x1="692.2" y1="330.4" x2="743.3" y2="330.4" stroke="rgb(40,152,135)" stroke-width="4" stroke-linecap="round"/>
<line x1="743.3" y1="330.4" x2="794.3" y2="330.4" stroke="rgb(41,127,140)" stroke-width="4" stroke-linecap="round"/>
<line x1="794.3" y1="330.4" x2="845.4" y2="330.4" stroke="rgb(49,107,139)" stroke-width="4" stroke-linecap="round"/>
<line x1="845.4" y1="330.4" x2="896.5" y2="330.4" stroke="rgb(48,159,130)" stroke-width="4" stroke-linecap="round"/>
<line x1="283.5" y1="211.2" x2="334.6" y2="211.2" stroke="rgb(38,134,140)" stroke-width="4" stroke-linecap="round"/>
<line x1="334.6" y1="211.2" x2="385.7" y2="211.2" stroke="rgb(44,119,140)" stroke-width="4" stroke-linecap="round"/>
<line x1="385.7" y1="211.2" x2="436.7" y2="211.2" stroke="rgb(48,110,139)" stroke-width="4" stroke-linecap="round"/>
<line x1="436.7" y1="211.2" x2="487.8" y2="211.2" stroke="rgb(38,132,140)" stroke-width="4" stroke-linecap="round"/>
<line x1="487.8" y1="211.2" x2="538.9" y2="211.2" stroke="rgb(34,142,140)" stroke-width="4" stroke-linecap="round"/>
<line x1="538.9" y1="211.2" x2="590.0" y2="211.2" stroke="rgb(45,117,140)" stroke-width="4" stroke-linecap="round"/>
<line x1="590.0" y1="211.2" x2="641.1" y2="211.2" stroke="rgb(50,105,139)" stroke-width="4" stroke-linecap="round"/>
<line x1="641.1" y1="211.2" x2="692.2" y2="211.2" stroke="rgb(39,130,140)" stroke-width="4" stroke-linecap="round"/>
<line x1="692.2" y1="211.2" x2="743.3" y2="211.2" stroke="rgb(35,147,138)" stroke-width="4" stroke-linecap="round"/>
<line x1="743.3" y1="211.2" x2="794.3" y2="211.2" stroke="rgb(42,124,140)" stroke-width="4" stroke-linecap="round"/>
<line x1="794.3" y1="211.2" x2="845.4" y2="211.2" stroke="rgb(49,107,139)" stroke-width="4" stroke-linecap="round"/>
<line x1="845.4" y1="211.2" x2="896.5" y2="211.2" stroke="rgb(45,156,132)" stroke-width="4" stroke-linecap="round"/>
<line x1="283.5" y1="92.0" x2="334.6" y2="92.0" stroke="rgb(34,146,139)" stroke-width="4" stroke-linecap="round"/>
<line x1="334.6" y1="92.0" x2="385.7" y2="92.0" stroke="rgb(39,151,136)" stroke-width="4" stroke-linecap="round"/>
<line x1="385.7" y1="92.0" x2="436.7" y2="92.0" stroke="rgb(38,133,140)" stroke-width="4" stroke-linecap="round"/>
<line x1="436.7" y1="92.0" x2="487.8" y2="92.0" stroke="rgb(39,151,136)" stroke-width="4" stroke-linecap="round"/>
<line x1="487.8" y1="92.0" x2="538.9" y2="92.0" stroke="rgb(41,152,135)" stroke-width="4" stroke-linecap="round"/>
<line x1="538.9" y1="92.0" x2="590.0" y2="92.0" stroke="rgb(42,122,140)" stroke-width="4" stroke-linecap="round"/>
<line x1="590.0" y1="92.0" x2="641.1" y2="92.0" stroke="rgb(45,115,140)" stroke-width="4" stroke-linecap="round"/>
<line x1="641.1" y1="92.0" x2="692.2" y2="92.0" stroke="rgb(33,145,140)" stroke-width="4" stroke-linecap="round"/>
<line x1="692.2" y1="92.0" x2="743.3" y2="92.0" stroke="rgb(43,155,133)" stroke-width="4" stroke-linecap="round"/>
<line x1="743.3" y1="92.0" x2="794.3" y2="92.0" stroke="rgb(37,134,140)" stroke-width="4" stroke-linecap="round"/>
<line x1="794.3" y1="92.0" x2="845.4" y2="92.0" stroke="rgb(37,135,140)" stroke-width="4" stroke-linecap="round"/>
<line x1="845.4" y1="92.0" x2="896.5" y2="92.0" stroke="rgb(36,148,138)" stroke-width="4" stroke-linecap="round"/>
<polygon points="274.5,700.6 292.5,700.6 283.5,688.0" fill="#333"/>
<line x1="271.8" y1="700.6" x2="295.2" y2="700.6" stroke="#333" stroke-width="2"/>
<polygon points="478.8,700.6 496.8,700.6 487.8,688.0" fill="#333"/>
<line x1="476.1" y1="700.6" x2="499.5" y2="700.6" stroke="#333" stroke-width="2"/>
<polygon points="683.2,700.6 701.2,700.6 692.2,688.0" fill="#333"/>
<line x1="680.5" y1="700.6" x2="703.9" y2="700.6" stroke="#333" stroke-width="2"/>
<polygon points="887.5,700.6 905.5,700.6 896.5,688.0" fill="#333"/>
<line x1="884.8" y1="700.6" x2="908.2" y2="700.6" stroke="#333" stroke-width="2"/>
<text x="16.0" y="24.0" font-size="16" font-weight="bold" fill="#111">5-story, 3-bay moment frame — CalculiX von Mises stress (.frd field)</text>
<text x="16.0" y="42.0" font-size="12" fill="#555">nodal max on expanded solid mesh · max 66.3 MPa</text>
<rect x="970" y="714" width="4.45" height="12" fill="rgb(68,1,84)"/>
<rect x="973.75" y="714" width="4.45" height="12" fill="rgb(67,9,90)"/>
<rect x="977.5" y="714" width="4.45" height="12" fill="rgb(66,18,95)"/>
<rect x="981.25" y="714" width="4.45" height="12" fill="rgb(65,26,101)"/>
<rect x="985" y="714" width="4.45" height="12" fill="rgb(64,34,107)"/>
<rect x="988.75" y="714" width="4.45" height="12" fill="rgb(63,43,112)"/>
<rect x="992.5" y="714" width="4.45" height="12" fill="rgb(62,51,118)"/>
<rect x="996.25" y="714" width="4.45" height="12" fill="rgb(62,59,123)"/>
<rect x="1000" y="714" width="4.45" height="12" fill="rgb(61,67,129)"/>
<rect x="1003.75" y="714" width="4.45" height="12" fill="rgb(60,76,135)"/>
<rect x="1007.5" y="714" width="4.45" height="12" fill="rgb(58,84,139)"/>
<rect x="1011.25" y="714" width="4.45" height="12" fill="rgb(56,90,139)"/>
<rect x="1015" y="714" width="4.45" height="12" fill="rgb(53,97,139)"/>
<rect x="1018.75" y="714" width="4.45" height="12" fill="rgb(50,103,139)"/>
<rect x="1022.5" y="714" width="4.45" height="12" fill="rgb(48,109,139)"/>
<rect x="1026.25" y="714" width="4.45" height="12" fill="rgb(45,116,140)"/>
<rect x="1030" y="714" width="4.45" height="12" fill="rgb(42,122,140)"/>
<rect x="1033.75" y="714" width="4.45" height="12" fill="rgb(40,129,140)"/>
<rect x="1037.5" y="714" width="4.45" height="12" fill="rgb(37,135,140)"/>
<rect x="1041.25" y="714" width="4.45" height="12" fill="rgb(34,142,140)"/>
<rect x="1045" y="714" width="4.45" height="12" fill="rgb(36,148,138)"/>
<rect x="1048.75" y="714" width="4.45" height="12" fill="rgb(42,154,134)"/>
<rect x="1052.5" y="714" width="4.45" height="12" fill="rgb(49,159,129)"/>
<rect x="1056.25" y="714" width="4.45" height="12" fill="rgb(55,165,125)"/>
<rect x="1060" y="714" width="4.45" height="12" fill="rgb(61,171,121)"/>
<rect x="1063.75" y="714" width="4.45" height="12" fill="rgb(67,177,116)"/>
<rect x="1067.5" y="714" width="4.45" height="12" fill="rgb(74,182,112)"/>
<rect x="1071.25" y="714" width="4.45" height="12" fill="rgb(80,188,108)"/>
<rect x="1075" y="714" width="4.45" height="12" fill="rgb(86,194,103)"/>
<rect x="1078.75" y="714" width="4.45" height="12" fill="rgb(92,200,99)"/>
<rect x="1082.5" y="714" width="4.45" height="12" fill="rgb(106,203,93)"/>
<rect x="1086.25" y="714" width="4.45" height="12" fill="rgb(123,206,87)"/>
<rect x="1090" y="714" width="4.45" height="12" fill="rgb(139,209,81)"/>
<rect x="1093.75" y="714" width="4.45" height="12" fill="rgb(155,213,75)"/>
<rect x="1097.5" y="714" width="4.45" height="12" fill="rgb(171,216,68)"/>
<rect x="1101.25" y="714" width="4.45" height="12" fill="rgb(188,219,62)"/>
<rect x="1105" y="714" width="4.45" height="12" fill="rgb(204,222,56)"/>
<rect x="1108.75" y="714" width="4.45" height="12" fill="rgb(220,225,50)"/>
<rect x="1112.5" y="714" width="4.45" height="12" fill="rgb(237,228,43)"/>
<rect x="1116.25" y="714" width="4.45" height="12" fill="rgb(253,231,37)"/>
<text x="970.0" y="708.0" font-size="11" fill="#333"></text>
<text x="970.0" y="739.0" font-size="10" fill="#333">0.00e+0 Pa</text>
<text x="1086.0" y="739.0" font-size="10" fill="#333">66.3 MPa</text>
<line x1="30.0" y1="734.0" x2="54.0" y2="734.0" stroke="#666" stroke-width="1.4"/>
<text x="56.0" y="737.0" font-size="10" fill="#666">X</text>
<line x1="30.0" y1="734.0" x2="30.0" y2="710.0" stroke="#666" stroke-width="1.4"/>
<text x="32.0" y="713.0" font-size="10" fill="#666">Z</text>
</svg>
