<svg xmlns="http://www.w3.org/2000/svg" viewBox="0 0 1180 760" font-family="Segoe UI, Arial, sans-serif">
<rect width="1180" height="760" fill="white"/>
<line x1="283.5" y1="688.0" x2="283.5" y2="568.8" stroke="#999" stroke-width="1.4" stroke-linecap="round"/>
<line x1="487.8" y1="688.0" x2="487.8" y2="568.8" stroke="#999" stroke-width="1.4" stroke-linecap="round"/>
<line x1="692.2" y1="688.0" x2="692.2" y2="568.8" stroke="#999" stroke-width="1.4" stroke-linecap="round"/>
<line x1="896.5" y1="688.0" x2="896.5" y2="568.8" stroke="#999" stroke-width="1.4" stroke-linecap="round"/>
<line x1="283.5" y1="568.8" x2="283.5" y2="449.6" stroke="#999" stroke-width="1.4" stroke-linecap="round"/>
<line x1="487.8" y1="568.8" x2="487.8" y2="449.6" stroke="#999" stroke-width="1.4" stroke-linecap="round"/>
<line x1="692.2" y1="568.8" x2="692.2" y2="449.6" stroke="#999" stroke-width="1.4" stroke-linecap="round"/>
<line x1="896.5" y1="568.8" x2="896.5" y2="449.6" stroke="#999" stroke-width="1.4" stroke-linecap="round"/>
<line x1="283.5" y1="449.6" x2="283.5" y2="330.4" stroke="#999" stroke-width="1.4" stroke-linecap="round"/>
<line x1="487.8" y1="449.6" x2="487.8" y2="330.4" stroke="#999" stroke-width="1.4" stroke-linecap="round"/>
<line x1="692.2" y1="449.6" x2="692.2" y2="330.4" stroke="#999" stroke-width="1.4" stroke-linecap="round"/>
<line x1="896.5" y1="449.6" x2="896.5" y2="330.4" stroke="#999" stroke-width="1.4" stroke-linecap="round"/>
<line x1="283.5" y1="330.4" x2="283.5" y2="211.2" stroke="#999" stroke-width="1.4" stroke-linecap="round"/>
<line x1="487.8" y1="330.4" x2="487.8" y2="211.2" stroke="#999" stroke-width="1.4" stroke-linecap="round"/>
<line x1="692.2" y1="330.4" x2="692.2" y2="211.2" stroke="#999" stroke-width="1.4" stroke-linecap="round"/>
<line x1="896.5" y1="330.4" x2="896.5" y2="211.2" stroke="#999" stroke-width="1.4" stroke-linecap="round"/>
<line x1="283.5" y1="211.2" x2="283.5" y2="92.0" stroke="#999" stroke-width="1.4" stroke-linecap="round"/>
<line x1="487.8" y1="211.2" x2="487.8" y2="92.0" stroke="#999" stroke-width="1.4" stroke-linecap="round"/>
<line x1="692.2" y1="211.2" x2="692.2" y2="92.0" stroke="#999" stroke-width="1.4" stroke-linecap="round"/>
<line x1="896.5" y1="211.2" x2="896.5" y2="92.0" stroke="#999" stroke-width="1.4" stroke-linecap="round"/>
<line x1="283.5" y1="568.8" x2="487.8" y2="568.8" stroke="#999" stroke-width="1.4" stroke-linecap="round"/>
<line x1="487.8" y1="568.8" x2="692.2" y2="568.8" stroke="#999" stroke-width="1.4" stroke-linecap="round"/>
<line x1="692.2" y1="568.8" x2="896.5" y2="568.8" stroke="#999" stroke-width="1.4" stroke-linecap="round"/>
<line x1="283.5" y1="449.6" x2="487.8" y2="449.6" stroke="#999" stroke-width="1.4" stroke-linecap="round"/>
<line x1="487.8" y1="449.6" x2="692.2" y2="449.6" stroke="#999" stroke-width="1.4" stroke-linecap="round"/>
<line x1="692.2" y1="449.6" x2="896.5" y2="449.6" stroke="#999" stroke-width="1.4" stroke-linecap="round"/>
<line x1="283.5" y1="330.4" x2="487.8" y2="330.4" stroke="#999" stroke-width="1.4" stroke-linecap="round"/>
<line x1="487.8" y1="330.4" x2="692.2" y2="330.4" stroke="#999" stroke-width="1.4" stroke-linecap="round"/>
<line x1="692.2" y1="330.4" x2="896.5" y2="330.4" stroke="#999" stroke-width="1.4" stroke-linecap="round"/>
<line x1="283.5" y1="211.2" x2="487.8" y2="211.2" stroke="#999" stroke-width="1.4" stroke-linecap="round"/>
<line x1="487.8" y1="211.2" x2="692.2" y2="211.2" stroke="#999" stroke-width="1.4" stroke-linecap="round"/>
<line x1="692.2" y1="211.2" x2="896.5" y2="211.2" stroke="#999" stroke-width="1.4" stroke-linecap="round"/>
<line x1="283.5" y1="92.0" x2="487.8" y2="92.0" stroke="#999" stroke-width="1.4" stroke-linecap="round"/>
<line x1="487.8" y1="92.0" x2="692.2" y2="92.0" stroke="#999" stroke-width="1.4" stroke-linecap="round"/>
<line x1="692.2" y1="92.0" x2="896.5" y2="92.0" stroke="#999" stroke-width="1.4" stroke-linecap="round"/>
<polygon points="283.5,688.0 279.5,688.0 279.4,682.0 279.2,676.1 279.1,670.1 279.0,664.2 278.9,658.2 278.8,652.2 278.6,646.3 278.5,640.3 278.4,634.4 278.3,628.4 278.1,622.4 278.0,616.5 277.9,610.5 277.8,604.6 277.7,598.6 277.5,592.6 277.4,586.7 277.3,580.7 277.2,574.8 277.0,568.8 283.5,568.8" fill="#d62728" fill-opacity="0.28" stroke="#d62728" stroke-width="1"/>
<polygon points="487.8,688.0 477.3,688.0 478.2,682.0 479.0,676.1 479.8,670.1 480.7,664.2 481.5,658.2 482.3,652.2 483.2,646.3 484.0,640.3 484.9,634.4 485.7,628.4 486.5,622.4 487.4,616.5 488.2,610.5 489.0,604.6 489.9,598.6 490.7,592.6 491.6,586.7 492.4,580.7 493.2,574.8 494.1,568.8 487.8,568.8" fill="#b8860b" fill-opacity="0.28" stroke="#b8860b" stroke-width="1"/>
<polygon points="692.2,688.0 681.7,688.0 682.5,682.0 683.3,676.1 684.1,670.1 685.0,664.2 685.8,658.2 686.6,652.2 687.4,646.3 688.2,640.3 689.1,634.4 689.9,628.4 690.7,622.4 691.5,616.5 692.3,610.5 693.1,604.6 694.0,598.6 694.8,592.6 695.6,586.7 696.4,580.7 697.2,574.8 698.1,568.8 692.2,568.8" fill="#b8860b" fill-opacity="0.28" stroke="#b8860b" stroke-width="1"/>
<polygon points="896.5,688.0 882.2,688.0 883.6,682.0 885.0,676.1 886.4,670.1 887.7,664.2 889.1,658.2 890.5,652.2 891.8,646.3 893.2,640.3 894.6,634.4 896.0,628.4 897.3,622.4 898.7,616.5 900.1,610.5 901.5,604.6 902.8,598.6 904.2,592.6 905.6,586.7 907.0,580.7 908.3,574.8 909.7,568.8 896.5,568.8" fill="#b8860b" fill-opacity="0.28" stroke="#b8860b" stroke-width="1"/>
<polygon points="283.5,568.8 291.2,568.8 290.4,562.8 289.7,556.9 288.9,550.9 288.2,545.0 287.5,539.0 286.7,533.0 286.0,527.1 285.2,521.1 284.5,515.2 283.7,509.2 283.0,503.2 282.2,497.3 281.5,491.3 280.7,485.4 280.0,479.4 279.3,473.4 278.5,467.5 277.8,461.5 277.0,455.6 276.3,449.6 283.5,449.6" fill="#b8860b" fill-opacity="0.28" stroke="#b8860b" stroke-width="1"/>
<polygon points="487.8,568.8 478.7,568.8 479.6,562.8 480.5,556.9 481.4,550.9 482.2,545.0 483.1,539.0 484.0,533.0 484.9,527.1 485.8,521.1 486.6,515.2 487.5,509.2 488.4,503.2 489.3,497.3 490.1,491.3 491.0,485.4 491.9,479.4 492.8,473.4 493.6,467.5 494.5,461.5 495.4,455.6 496.3,449.6 487.8,449.6" fill="#b8860b" fill-opacity="0.28" stroke="#b8860b" stroke-width="1"/>
<polygon points="692.2,568.8 683.8,568.8 684.6,562.8 685.4,556.9 686.3,550.9 687.1,545.0 688.0,539.0 688.8,533.0 689.7,527.1 690.5,521.1 691.4,515.2 692.2,509.2 693.1,503.2 693.9,497.3 694.8,491.3 695.6,485.4 696.5,479.4 697.3,473.4 698.1,467.5 699.0,461.5 699.8,455.6 700.7,449.6 692.2,449.6" fill="#b8860b" fill-opacity="0.28" stroke="#b8860b" stroke-width="1"/>
<polygon points="896.5,568.8 878.8,568.8 880.5,562.8 882.3,556.9 884.0,550.9 885.7,545.0 887.5,539.0 889.2,533.0 890.9,527.1 892.7,521.1 894.4,515.2 896.1,509.2 897.9,503.2 899.6,497.3 901.3,491.3 903.1,485.4 904.8,479.4 906.5,473.4 908.3,467.5 910.0,461.5 911.8,455.6 913.5,449.6 896.5,449.6" fill="#b8860b" fill-opacity="0.28" stroke="#b8860b" stroke-width="1"/>
<polygon points="283.5,449.6 292.1,449.6 291.2,443.6 290.4,437.7 289.6,431.7 288.8,425.8 288.0,419.8 287.1,413.8 286.3,407.9 285.5,401.9 284.7,396.0 283.9,390.0 283.0,384.0 282.2,378.1 281.4,372.1 280.6,366.2 279.8,360.2 278.9,354.2 278.1,348.3 277.3,342.3 276.5,336.4 275.7,330.4 283.5,330.4" fill="#b8860b" fill-opacity="0.28" stroke="#b8860b" stroke-width="1"/>
<polygon points="487.8,449.6 481.3,449.6 482.0,443.6 482.7,437.7 483.4,431.7 484.1,425.8 484.8,419.8 485.5,413.8 486.2,407.9 486.9,401.9 487.6,396.0 488.2,390.0 488.9,384.0 489.6,378.1 490.3,372.1 491.0,366.2 491.7,360.2 492.4,354.2 493.1,348.3 493.8,342.3 494.5,336.4 495.2,330.4 487.8,330.4" fill="#b8860b" fill-opacity="0.28" stroke="#b8860b" stroke-width="1"/>
<polygon points="692.2,449.6 684.6,449.6 685.4,443.6 686.2,437.7 687.0,431.7 687.8,425.8 688.6,419.8 689.4,413.8 690.2,407.9 691.0,401.9 691.8,396.0 692.5,390.0 693.3,384.0 694.1,378.1 694.9,372.1 695.7,366.2 696.5,360.2 697.3,354.2 698.1,348.3 698.9,342.3 699.7,336.4 700.5,330.4 692.2,330.4" fill="#b8860b" fill-opacity="0.28" stroke="#b8860b" stroke-width="1"/>
<polygon points="896.5,449.6 880.5,449.6 882.2,443.6 883.9,437.7 885.5,431.7 887.2,425.8 888.8,419.8 890.5,413.8 892.2,407.9 893.8,401.9 895.5,396.0 897.1,390.0 898.8,384.0 900.4,378.1 902.1,372.1 903.8,366.2 905.4,360.2 907.1,354.2 908.7,348.3 910.4,342.3 912.0,336.4 913.7,330.4 896.5,330.4" fill="#b8860b" fill-opacity="0.28" stroke="#b8860b" stroke-width="1"/>
<polygon points="283.5,330.4 293.8,330.4 292.9,324.4 291.9,318.5 291.0,312.5 290.1,306.6 289.2,300.6 288.3,294.6 287.3,288.7 286.4,282.7 285.5,276.8 284.6,270.8 283.7,264.8 282.8,258.9 281.8,252.9 280.9,247.0 280.0,241.0 279.1,235.0 278.2,229.1 277.2,223.1 276.3,217.2 275.4,211.2 283.5,211.2" fill="#b8860b" fill-opacity="0.28" stroke="#b8860b" stroke-width="1"/>
<polygon points="487.8,330.4 483.9,330.4 484.3,324.4 484.7,318.5 485.2,312.5 485.6,306.6 486.0,300.6 486.5,294.6 486.9,288.7 487.3,282.7 487.8,276.8 488.2,270.8 488.6,264.8 489.1,258.9 489.5,252.9 489.9,247.0 490.4,241.0 490.8,235.0 491.2,229.1 491.7,223.1 492.1,217.2 492.5,211.2 487.8,211.2" fill="#b8860b" fill-opacity="0.28" stroke="#b8860b" stroke-width="1"/>
<polygon points="692.2,330.4 686.2,330.4 686.8,324.4 687.5,318.5 688.2,312.5 688.9,306.6 689.6,300.6 690.3,294.6 690.9,288.7 691.6,282.7 692.3,276.8 693.0,270.8 693.7,264.8 694.4,258.9 695.0,252.9 695.7,247.0 696.4,241.0 697.1,235.0 697.8,229.1 698.5,223.1 699.1,217.2 699.8,211.2 692.2,211.2" fill="#b8860b" fill-opacity="0.28" stroke="#b8860b" stroke-width="1"/>
<polygon points="896.5,330.4 881.5,330.4 883.1,324.4 884.6,318.5 886.1,312.5 887.7,306.6 889.2,300.6 890.8,294.6 892.3,288.7 893.9,282.7 895.4,276.8 897.0,270.8 898.5,264.8 900.1,258.9 901.6,252.9 903.2,247.0 904.7,241.0 906.3,235.0 907.8,229.1 909.3,223.1 910.9,217.2 912.4,211.2 896.5,211.2" fill="#b8860b" fill-opacity="0.28" stroke="#b8860b" stroke-width="1"/>
<polygon points="283.5,211.2 297.0,211.2 295.4,205.2 293.8,199.3 292.3,193.3 290.7,187.4 289.1,181.4 287.5,175.4 285.9,169.5 284.3,163.5 282.8,157.6 281.2,151.6 279.6,145.6 278.0,139.7 276.4,133.7 274.9,127.8 273.3,121.8 271.7,115.8 270.1,109.9 268.5,103.9 267.0,98.0 265.4,92.0 283.5,92.0" fill="#b8860b" fill-opacity="0.28" stroke="#b8860b" stroke-width="1"/>
<polygon points="487.8,211.2 485.6,211.2 486.0,205.2 486.3,199.3 486.6,193.3 486.9,187.4 487.2,181.4 487.6,175.4 487.9,169.5 488.2,163.5 488.5,157.6 488.8,151.6 489.2,145.6 489.5,139.7 489.8,133.7 490.1,127.8 490.4,121.8 490.7,115.8 491.1,109.9 491.4,103.9 491.7,98.0 492.0,92.0 487.8,92.0" fill="#b8860b" fill-opacity="0.28" stroke="#b8860b" stroke-width="1"/>
<polygon points="692.2,211.2 689.2,211.2 689.6,205.2 689.9,199.3 690.2,193.3 690.6,187.4 690.9,181.4 691.3,175.4 691.6,169.5 691.9,163.5 692.3,157.6 692.6,151.6 693.0,145.6 693.3,139.7 693.7,133.7 694.0,127.8 694.3,121.8 694.7,115.8 695.0,109.9 695.4,103.9 695.7,98.0 696.0,92.0 692.2,92.0" fill="#b8860b" fill-opacity="0.28" stroke="#b8860b" stroke-width="1"/>
<polygon points="896.5,211.2 881.4,211.2 883.3,205.2 885.2,199.3 887.1,193.3 889.0,187.4 890.9,181.4 892.8,175.4 894.7,169.5 896.6,163.5 898.4,157.6 900.3,151.6 902.2,145.6 904.1,139.7 906.0,133.7 907.9,127.8 909.8,121.8 911.7,115.8 913.6,109.9 915.4,103.9 917.3,98.0 919.2,92.0 896.5,92.0" fill="#b8860b" fill-opacity="0.28" stroke="#b8860b" stroke-width="1"/>
<polygon points="283.5,568.8 283.5,582.9 293.7,576.6 303.9,571.0 314.1,566.2 324.4,562.2 334.6,559.0 344.8,556.5 355.0,554.8 365.2,553.8 375.4,553.7 385.7,554.3 395.9,555.7 406.1,557.8 416.3,560.7 426.5,564.4 436.7,568.9 447.0,574.1 457.2,580.1 467.4,586.9 477.6,594.5 487.8,602.8 487.8,568.8" fill="#b8860b" fill-opacity="0.28" stroke="#b8860b" stroke-width="1"/>
<polygon points="487.8,568.8 487.8,587.5 498.0,580.9 508.3,575.0 518.5,569.9 528.7,565.6 538.9,562.1 549.1,559.4 559.3,557.4 569.6,556.1 579.8,555.7 590.0,556.0 600.2,557.1 610.4,559.0 620.7,561.6 630.9,565.1 641.1,569.2 651.3,574.2 661.5,579.9 671.7,586.4 682.0,593.7 692.2,601.7 692.2,568.8" fill="#b8860b" fill-opacity="0.28" stroke="#b8860b" stroke-width="1"/>
<polygon points="692.2,568.8 692.2,587.4 702.4,580.7 712.6,574.8 722.8,569.6 733.0,565.2 743.3,561.6 753.5,558.7 763.7,556.6 773.9,555.3 784.1,554.8 794.3,555.0 804.6,556.0 814.8,557.8 825.0,560.3 835.2,563.6 845.4,567.7 855.6,572.6 865.9,578.2 876.1,584.6 886.3,591.8 896.5,599.7 896.5,568.8" fill="#b8860b" fill-opacity="0.28" stroke="#b8860b" stroke-width="1"/>
<polygon points="283.5,449.6 283.5,465.4 293.7,458.9 303.9,453.2 314.1,448.3 324.4,444.1 334.6,440.7 344.8,438.1 355.0,436.3 365.2,435.2 375.4,434.9 385.7,435.4 395.9,436.6 406.1,438.7 416.3,441.4 426.5,445.0 436.7,449.3 447.0,454.4 457.2,460.3 467.4,467.0 477.6,474.4 487.8,482.6 487.8,449.6" fill="#b8860b" fill-opacity="0.28" stroke="#b8860b" stroke-width="1"/>
<polygon points="487.8,449.6 487.8,467.6 498.0,461.1 508.3,455.3 518.5,450.2 528.7,446.0 538.9,442.5 549.1,439.8 559.3,437.8 569.6,436.7 579.8,436.3 590.0,436.6 600.2,437.8 610.4,439.7 620.7,442.4 630.9,445.8 641.1,450.1 651.3,455.1 661.5,460.8 671.7,467.4 682.0,474.7 692.2,482.8 692.2,449.6" fill="#b8860b" fill-opacity="0.28" stroke="#b8860b" stroke-width="1"/>
<polygon points="692.2,449.6 692.2,466.7 702.4,460.1 712.6,454.4 722.8,449.4 733.0,445.2 743.3,441.7 753.5,439.0 763.7,437.1 773.9,436.0 784.1,435.6 794.3,436.0 804.6,437.2 814.8,439.2 825.0,441.9 835.2,445.4 845.4,449.6 855.6,454.7 865.9,460.5 876.1,467.1 886.3,474.4 896.5,482.5 896.5,449.6" fill="#b8860b" fill-opacity="0.28" stroke="#b8860b" stroke-width="1"/>
<polygon points="283.5,330.4 283.5,348.5 293.7,341.8 303.9,335.9 314.1,330.7 324.4,326.3 334.6,322.7 344.8,319.8 355.0,317.8 365.2,316.5 375.4,315.9 385.7,316.2 395.9,317.2 406.1,319.0 416.3,321.5 426.5,324.8 436.7,328.9 447.0,333.8 457.2,339.4 467.4,345.9 477.6,353.0 487.8,361.0 487.8,330.4" fill="#b8860b" fill-opacity="0.28" stroke="#b8860b" stroke-width="1"/>
<polygon points="487.8,330.4 487.8,349.7 498.0,343.0 508.3,337.1 518.5,331.9 528.7,327.6 538.9,323.9 549.1,321.1 559.3,319.0 569.6,317.7 579.8,317.2 590.0,317.4 600.2,318.5 610.4,320.3 620.7,322.8 630.9,326.1 641.1,330.2 651.3,335.1 661.5,340.8 671.7,347.2 682.0,354.4 692.2,362.3 692.2,330.4" fill="#b8860b" fill-opacity="0.28" stroke="#b8860b" stroke-width="1"/>
<polygon points="692.2,330.4 692.2,348.0 702.4,341.4 712.6,335.6 722.8,330.5 733.0,326.2 743.3,322.7 753.5,320.0 763.7,318.0 773.9,316.8 784.1,316.4 794.3,316.7 804.6,317.8 814.8,319.7 825.0,322.4 835.2,325.8 845.4,330.0 855.6,335.0 865.9,340.7 876.1,347.2 886.3,354.5 896.5,362.6 896.5,330.4" fill="#b8860b" fill-opacity="0.28" stroke="#b8860b" stroke-width="1"/>
<polygon points="283.5,211.2 283.5,232.8 293.7,225.8 303.9,219.5 314.1,214.1 324.4,209.4 334.6,205.4 344.8,202.3 355.0,199.9 365.2,198.3 375.4,197.4 385.7,197.4 395.9,198.1 406.1,199.5 416.3,201.8 426.5,204.8 436.7,208.6 447.0,213.1 457.2,218.5 467.4,224.6 477.6,231.4 487.8,239.1 487.8,211.2" fill="#b8860b" fill-opacity="0.28" stroke="#b8860b" stroke-width="1"/>
<polygon points="487.8,211.2 487.8,232.2 498.0,225.3 508.3,219.2 518.5,213.8 528.7,209.3 538.9,205.5 549.1,202.4 559.3,200.2 569.6,198.7 579.8,198.0 590.0,198.0 600.2,198.8 610.4,200.4 620.7,202.8 630.9,205.9 641.1,209.9 651.3,214.5 661.5,220.0 671.7,226.2 682.0,233.2 692.2,241.0 692.2,211.2" fill="#b8860b" fill-opacity="0.28" stroke="#b8860b" stroke-width="1"/>
<polygon points="692.2,211.2 692.2,230.4 702.4,223.6 712.6,217.7 722.8,212.5 733.0,208.0 743.3,204.4 753.5,201.5 763.7,199.4 773.9,198.1 784.1,197.5 794.3,197.7 804.6,198.7 814.8,200.4 825.0,202.9 835.2,206.2 845.4,210.3 855.6,215.1 865.9,220.7 876.1,227.1 886.3,234.3 896.5,242.2 896.5,211.2" fill="#b8860b" fill-opacity="0.28" stroke="#b8860b" stroke-width="1"/>
<polygon points="283.5,92.0 283.5,110.1 293.7,103.3 303.9,97.2 314.1,91.9 324.4,87.4 334.6,83.6 344.8,80.6 355.0,78.4 365.2,77.0 375.4,76.3 385.7,76.4 395.9,77.3 406.1,78.9 416.3,81.3 426.5,84.5 436.7,88.5 447.0,93.2 457.2,98.7 467.4,105.0 477.6,112.0 487.8,119.8 487.8,92.0" fill="#b8860b" fill-opacity="0.28" stroke="#b8860b" stroke-width="1"/>
<polygon points="487.8,92.0 487.8,115.6 498.0,108.5 508.3,102.2 518.5,96.6 528.7,91.8 538.9,87.7 549.1,84.5 559.3,82.0 569.6,80.2 579.8,79.3 590.0,79.1 600.2,79.7 610.4,81.1 620.7,83.2 630.9,86.1 641.1,89.8 651.3,94.2 661.5,99.4 671.7,105.4 682.0,112.2 692.2,119.7 692.2,92.0" fill="#b8860b" fill-opacity="0.28" stroke="#b8860b" stroke-width="1"/>
<polygon points="692.2,92.0 692.2,115.9 702.4,108.5 712.6,101.9 722.8,96.0 733.0,90.9 743.3,86.6 753.5,83.1 763.7,80.4 773.9,78.4 784.1,77.1 794.3,76.7 804.6,77.0 814.8,78.1 825.0,80.0 835.2,82.6 845.4,86.1 855.6,90.2 865.9,95.2 876.1,100.9 886.3,107.4 896.5,114.7 896.5,92.0" fill="#b8860b" fill-opacity="0.28" stroke="#b8860b" stroke-width="1"/>
<polygon points="274.5,700.6 292.5,700.6 283.5,688.0" fill="#333"/>
<line x1="271.8" y1="700.6" x2="295.2" y2="700.6" stroke="#333" stroke-width="2"/>
<polygon points="478.8,700.6 496.8,700.6 487.8,688.0" fill="#333"/>
<line x1="476.1" y1="700.6" x2="499.5" y2="700.6" stroke="#333" stroke-width="2"/>
<polygon points="683.2,700.6 701.2,700.6 692.2,688.0" fill="#333"/>
<line x1="680.5" y1="700.6" x2="703.9" y2="700.6" stroke="#333" stroke-width="2"/>
<polygon points="887.5,700.6 905.5,700.6 896.5,688.0" fill="#333"/>
<line x1="884.8" y1="700.6" x2="908.2" y2="700.6" stroke="#333" stroke-width="2"/>
<text x="16.0" y="24.0" font-size="16" font-weight="bold" fill="#111">5-story, 3-bay moment frame — bending moment</text>
<text x="16.0" y="42.0" font-size="12" fill="#555">My diagram · max |My| = 123 kN·m (green: positive, red: negative, offsets ∝ value)</text>
<line x1="30.0" y1="734.0" x2="54.0" y2="734.0" stroke="#666" stroke-width="1.4"/>
<text x="56.0" y="737.0" font-size="10" fill="#666">X</text>
<line x1="30.0" y1="734.0" x2="30.0" y2="710.0" stroke="#666" stroke-width="1.4"/>
<text x="32.0" y="713.0" font-size="10" fill="#666">Z</text>
</svg>
