<svg xmlns="http://www.w3.org/2000/svg" viewBox="0 0 1180 760" font-family="Segoe UI, Arial, sans-serif">
<rect width="1180" height="760" fill="white"/>
<line x1="283.5" y1="688.0" x2="283.5" y2="568.8" stroke="#999" stroke-width="1.4" stroke-linecap="round"/>
<line x1="487.8" y1="688.0" x2="487.8" y2="568.8" stroke="#999" stroke-width="1.4" stroke-linecap="round"/>
<line x1="692.2" y1="688.0" x2="692.2" y2="568.8" stroke="#999" stroke-width="1.4" stroke-linecap="round"/>
<line x1="896.5" y1="688.0" x2="896.5" y2="568.8" stroke="#999" stroke-width="1.4" stroke-linecap="round"/>
<line x1="283.5" y1="568.8" x2="283.5" y2="449.6" stroke="#999" stroke-width="1.4" stroke-linecap="round"/>
<line x1="487.8" y1="568.8" x2="487.8" y2="449.6" stroke="#999" stroke-width="1.4" stroke-linecap="round"/>
<line x1="692.2" y1="568.8" x2="692.2" y2="449.6" stroke="#999" stroke-width="1.4" stroke-linecap="round"/>
<line x1="896.5" y1="568.8" x2="896.5" y2="449.6" stroke="#999" stroke-width="1.4" stroke-linecap="round"/>
<line x1="283.5" y1="449.6" x2="283.5" y2="330.4" stroke="#999" stroke-width="1.4" stroke-linecap="round"/>
<line x1="487.8" y1="449.6" x2="487.8" y2="330.4" stroke="#999" stroke-width="1.4" stroke-linecap="round"/>
<line x1="692.2" y1="449.6" x2="692.2" y2="330.4" stroke="#999" stroke-width="1.4" stroke-linecap="round"/>
<line x1="896.5" y1="449.6" x2="896.5" y2="330.4" stroke="#999" stroke-width="1.4" stroke-linecap="round"/>
<line x1="283.5" y1="330.4" x2="283.5" y2="211.2" stroke="#999" stroke-width="1.4" stroke-linecap="round"/>
<line x1="487.8" y1="330.4" x2="487.8" y2="211.2" stroke="#999" stroke-width="1.4" stroke-linecap="round"/>
<line x1="692.2" y1="330.4" x2="692.2" y2="211.2" stroke="#999" stroke-width="1.4" stroke-linecap="round"/>
<line x1="896.5" y1="330.4" x2="896.5" y2="211.2" stroke="#999" stroke-width="1.4" stroke-linecap="round"/>
<line x1="283.5" y1="211.2" x2="283.5" y2="92.0" stroke="#999" stroke-width="1.4" stroke-linecap="round"/>
<line x1="487.8" y1="211.2" x2="487.8" y2="92.0" stroke="#999" stroke-width="1.4" stroke-linecap="round"/>
<line x1="692.2" y1="211.2" x2="692.2" y2="92.0" stroke="#999" stroke-width="1.4" stroke-linecap="round"/>
<line x1="896.5" y1="211.2" x2="896.5" y2="92.0" stroke="#999" stroke-width="1.4" stroke-linecap="round"/>
<line x1="283.5" y1="568.8" x2="487.8" y2="568.8" stroke="#999" stroke-width="1.4" stroke-linecap="round"/>
<line x1="487.8" y1="568.8" x2="692.2" y2="568.8" stroke="#999" stroke-width="1.4" stroke-linecap="round"/>
<line x1="692.2" y1="568.8" x2="896.5" y2="568.8" stroke="#999" stroke-width="1.4" stroke-linecap="round"/>
<line x1="283.5" y1="449.6" x2="487.8" y2="449.6" stroke="#999" stroke-width="1.4" stroke-linecap="round"/>
<line x1="487.8" y1="449.6" x2="692.2" y2="449.6" stroke="#999" stroke-width="1.4" stroke-linecap="round"/>
<line x1="692.2" y1="449.6" x2="896.5" y2="449.6" stroke="#999" stroke-width="1.4" stroke-linecap="round"/>
<line x1="283.5" y1="330.4" x2="487.8" y2="330.4" stroke="#999" stroke-width="1.4" stroke-linecap="round"/>
<line x1="487.8" y1="330.4" x2="692.2" y2="330.4" stroke="#999" stroke-width="1.4" stroke-linecap="round"/>
<line x1="692.2" y1="330.4" x2="896.5" y2="330.4" stroke="#999" stroke-width="1.4" stroke-linecap="round"/>
<line x1="283.5" y1="211.2" x2="487.8" y2="211.2" stroke="#999" stroke-width="1.4" stroke-linecap="round"/>
<line x1="487.8" y1="211.2" x2="692.2" y2="211.2" stroke="#999" stroke-width="1.4" stroke-linecap="round"/>
<line x1="692.2" y1="211.2" x2="896.5" y2="211.2" stroke="#999" stroke-width="1.4" stroke-linecap="round"/>
<line x1="283.5" y1="92.0" x2="487.8" y2="92.0" stroke="#999" stroke-width="1.4" stroke-linecap="round"/>
<line x1="487.8" y1="92.0" x2="692.2" y2="92.0" stroke="#999" stroke-width="1.4" stroke-linecap="round"/>
<line x1="692.2" y1="92.0" x2="896.5" y2="92.0" stroke="#999" stroke-width="1.4" stroke-linecap="round"/>
<polygon points="283.5,688.0 282.7,688.0 282.7,682.0 282.7,676.1 282.7,670.1 282.7,664.2 282.7,658.2 282.7,652.2 282.7,646.3 282.7,640.3 282.7,634.4 282.7,628.4 282.7,622.4 282.7,616.5 282.7,610.5 282.7,604.6 282.7,598.6 282.7,592.6 282.7,586.7 282.7,580.7 282.7,574.8 282.7,568.8 283.5,568.8" fill="#d62728" fill-opacity="0.28" stroke="#d62728" stroke-width="1"/>
<polygon points="487.8,688.0 493.4,688.0 493.4,682.0 493.4,676.1 493.4,670.1 493.4,664.2 493.4,658.2 493.4,652.2 493.4,646.3 493.4,640.3 493.4,634.4 493.4,628.4 493.4,622.4 493.4,616.5 493.4,610.5 493.4,604.6 493.4,598.6 493.4,592.6 493.4,586.7 493.4,580.7 493.4,574.8 493.4,568.8 487.8,568.8" fill="#2ca02c" fill-opacity="0.28" stroke="#2ca02c" stroke-width="1"/>
<polygon points="692.2,688.0 697.6,688.0 697.6,682.0 697.6,676.1 697.6,670.1 697.6,664.2 697.6,658.2 697.6,652.2 697.6,646.3 697.6,640.3 697.6,634.4 697.6,628.4 697.6,622.4 697.6,616.5 697.6,610.5 697.6,604.6 697.6,598.6 697.6,592.6 697.6,586.7 697.6,580.7 697.6,574.8 697.6,568.8 692.2,568.8" fill="#2ca02c" fill-opacity="0.28" stroke="#2ca02c" stroke-width="1"/>
<polygon points="896.5,688.0 905.7,688.0 905.7,682.0 905.7,676.1 905.7,670.1 905.7,664.2 905.7,658.2 905.7,652.2 905.7,646.3 905.7,640.3 905.7,634.4 905.7,628.4 905.7,622.4 905.7,616.5 905.7,610.5 905.7,604.6 905.7,598.6 905.7,592.6 905.7,586.7 905.7,580.7 905.7,574.8 905.7,568.8 896.5,568.8" fill="#2ca02c" fill-opacity="0.28" stroke="#2ca02c" stroke-width="1"/>
<polygon points="283.5,568.8 278.5,568.8 278.5,562.8 278.5,556.9 278.5,550.9 278.5,545.0 278.5,539.0 278.5,533.0 278.5,527.1 278.5,521.1 278.5,515.2 278.5,509.2 278.5,503.2 278.5,497.3 278.5,491.3 278.5,485.4 278.5,479.4 278.5,473.4 278.5,467.5 278.5,461.5 278.5,455.6 278.5,449.6 283.5,449.6" fill="#d62728" fill-opacity="0.28" stroke="#d62728" stroke-width="1"/>
<polygon points="487.8,568.8 493.7,568.8 493.7,562.8 493.7,556.9 493.7,550.9 493.7,545.0 493.7,539.0 493.7,533.0 493.7,527.1 493.7,521.1 493.7,515.2 493.7,509.2 493.7,503.2 493.7,497.3 493.7,491.3 493.7,485.4 493.7,479.4 493.7,473.4 493.7,467.5 493.7,461.5 493.7,455.6 493.7,449.6 487.8,449.6" fill="#2ca02c" fill-opacity="0.28" stroke="#2ca02c" stroke-width="1"/>
<polygon points="692.2,568.8 697.8,568.8 697.8,562.8 697.8,556.9 697.8,550.9 697.8,545.0 697.8,539.0 697.8,533.0 697.8,527.1 697.8,521.1 697.8,515.2 697.8,509.2 697.8,503.2 697.8,497.3 697.8,491.3 697.8,485.4 697.8,479.4 697.8,473.4 697.8,467.5 697.8,461.5 697.8,455.6 697.8,449.6 692.2,449.6" fill="#2ca02c" fill-opacity="0.28" stroke="#2ca02c" stroke-width="1"/>
<polygon points="896.5,568.8 908.1,568.8 908.1,562.8 908.1,556.9 908.1,550.9 908.1,545.0 908.1,539.0 908.1,533.0 908.1,527.1 908.1,521.1 908.1,515.2 908.1,509.2 908.1,503.2 908.1,497.3 908.1,491.3 908.1,485.4 908.1,479.4 908.1,473.4 908.1,467.5 908.1,461.5 908.1,455.6 908.1,449.6 896.5,449.6" fill="#2ca02c" fill-opacity="0.28" stroke="#2ca02c" stroke-width="1"/>
<polygon points="283.5,449.6 278.0,449.6 278.0,443.6 278.0,437.7 278.0,431.7 278.0,425.8 278.0,419.8 278.0,413.8 278.0,407.9 278.0,401.9 278.0,396.0 278.0,390.0 278.0,384.0 278.0,378.1 278.0,372.1 278.0,366.2 278.0,360.2 278.0,354.2 278.0,348.3 278.0,342.3 278.0,336.4 278.0,330.4 283.5,330.4" fill="#d62728" fill-opacity="0.28" stroke="#d62728" stroke-width="1"/>
<polygon points="487.8,449.6 492.5,449.6 492.5,443.6 492.5,437.7 492.5,431.7 492.5,425.8 492.5,419.8 492.5,413.8 492.5,407.9 492.5,401.9 492.5,396.0 492.5,390.0 492.5,384.0 492.5,378.1 492.5,372.1 492.5,366.2 492.5,360.2 492.5,354.2 492.5,348.3 492.5,342.3 492.5,336.4 492.5,330.4 487.8,330.4" fill="#2ca02c" fill-opacity="0.28" stroke="#2ca02c" stroke-width="1"/>
<polygon points="692.2,449.6 697.5,449.6 697.5,443.6 697.5,437.7 697.5,431.7 697.5,425.8 697.5,419.8 697.5,413.8 697.5,407.9 697.5,401.9 697.5,396.0 697.5,390.0 697.5,384.0 697.5,378.1 697.5,372.1 697.5,366.2 697.5,360.2 697.5,354.2 697.5,348.3 697.5,342.3 697.5,336.4 697.5,330.4 692.2,330.4" fill="#2ca02c" fill-opacity="0.28" stroke="#2ca02c" stroke-width="1"/>
<polygon points="896.5,449.6 907.6,449.6 907.6,443.6 907.6,437.7 907.6,431.7 907.6,425.8 907.6,419.8 907.6,413.8 907.6,407.9 907.6,401.9 907.6,396.0 907.6,390.0 907.6,384.0 907.6,378.1 907.6,372.1 907.6,366.2 907.6,360.2 907.6,354.2 907.6,348.3 907.6,342.3 907.6,336.4 907.6,330.4 896.5,330.4" fill="#2ca02c" fill-opacity="0.28" stroke="#2ca02c" stroke-width="1"/>
<polygon points="283.5,330.4 277.3,330.4 277.3,324.4 277.3,318.5 277.3,312.5 277.3,306.6 277.3,300.6 277.3,294.6 277.3,288.7 277.3,282.7 277.3,276.8 277.3,270.8 277.3,264.8 277.3,258.9 277.3,252.9 277.3,247.0 277.3,241.0 277.3,235.0 277.3,229.1 277.3,223.1 277.3,217.2 277.3,211.2 283.5,211.2" fill="#d62728" fill-opacity="0.28" stroke="#d62728" stroke-width="1"/>
<polygon points="487.8,330.4 490.7,330.4 490.7,324.4 490.7,318.5 490.7,312.5 490.7,306.6 490.7,300.6 490.7,294.6 490.7,288.7 490.7,282.7 490.7,276.8 490.7,270.8 490.7,264.8 490.7,258.9 490.7,252.9 490.7,247.0 490.7,241.0 490.7,235.0 490.7,229.1 490.7,223.1 490.7,217.2 490.7,211.2 487.8,211.2" fill="#2ca02c" fill-opacity="0.28" stroke="#2ca02c" stroke-width="1"/>
<polygon points="692.2,330.4 696.7,330.4 696.7,324.4 696.7,318.5 696.7,312.5 696.7,306.6 696.7,300.6 696.7,294.6 696.7,288.7 696.7,282.7 696.7,276.8 696.7,270.8 696.7,264.8 696.7,258.9 696.7,252.9 696.7,247.0 696.7,241.0 696.7,235.0 696.7,229.1 696.7,223.1 696.7,217.2 696.7,211.2 692.2,211.2" fill="#2ca02c" fill-opacity="0.28" stroke="#2ca02c" stroke-width="1"/>
<polygon points="896.5,330.4 906.9,330.4 906.9,324.4 906.9,318.5 906.9,312.5 906.9,306.6 906.9,300.6 906.9,294.6 906.9,288.7 906.9,282.7 906.9,276.8 906.9,270.8 906.9,264.8 906.9,258.9 906.9,252.9 906.9,247.0 906.9,241.0 906.9,235.0 906.9,229.1 906.9,223.1 906.9,217.2 906.9,211.2 896.5,211.2" fill="#2ca02c" fill-opacity="0.28" stroke="#2ca02c" stroke-width="1"/>
<polygon points="283.5,211.2 272.9,211.2 272.9,205.2 272.9,199.3 272.9,193.3 272.9,187.4 272.9,181.4 272.9,175.4 272.9,169.5 272.9,163.5 272.9,157.6 272.9,151.6 272.9,145.6 272.9,139.7 272.9,133.7 272.9,127.8 272.9,121.8 272.9,115.8 272.9,109.9 272.9,103.9 272.9,98.0 272.9,92.0 283.5,92.0" fill="#d62728" fill-opacity="0.28" stroke="#d62728" stroke-width="1"/>
<polygon points="487.8,211.2 490.0,211.2 490.0,205.2 490.0,199.3 490.0,193.3 490.0,187.4 490.0,181.4 490.0,175.4 490.0,169.5 490.0,163.5 490.0,157.6 490.0,151.6 490.0,145.6 490.0,139.7 490.0,133.7 490.0,127.8 490.0,121.8 490.0,115.8 490.0,109.9 490.0,103.9 490.0,98.0 490.0,92.0 487.8,92.0" fill="#2ca02c" fill-opacity="0.28" stroke="#2ca02c" stroke-width="1"/>
<polygon points="692.2,211.2 694.5,211.2 694.5,205.2 694.5,199.3 694.5,193.3 694.5,187.4 694.5,181.4 694.5,175.4 694.5,169.5 694.5,163.5 694.5,157.6 694.5,151.6 694.5,145.6 694.5,139.7 694.5,133.7 694.5,127.8 694.5,121.8 694.5,115.8 694.5,109.9 694.5,103.9 694.5,98.0 694.5,92.0 692.2,92.0" fill="#2ca02c" fill-opacity="0.28" stroke="#2ca02c" stroke-width="1"/>
<polygon points="896.5,211.2 909.2,211.2 909.2,205.2 909.2,199.3 909.2,193.3 909.2,187.4 909.2,181.4 909.2,175.4 909.2,169.5 909.2,163.5 909.2,157.6 909.2,151.6 909.2,145.6 909.2,139.7 909.2,133.7 909.2,127.8 909.2,121.8 909.2,115.8 909.2,109.9 909.2,103.9 909.2,98.0 909.2,92.0 896.5,92.0" fill="#2ca02c" fill-opacity="0.28" stroke="#2ca02c" stroke-width="1"/>
<polygon points="283.5,568.8 283.5,542.6 293.7,545.6 303.9,548.6 314.1,551.6 324.4,554.6 334.6,557.6 344.8,560.6 355.0,563.6 365.2,566.7 375.4,569.7 385.7,572.7 395.9,575.7 406.1,578.7 416.3,581.7 426.5,584.7 436.7,587.7 447.0,590.8 457.2,593.8 467.4,596.8 477.6,599.8 487.8,602.8 487.8,568.8" fill="#b8860b" fill-opacity="0.28" stroke="#b8860b" stroke-width="1"/>
<polygon points="487.8,568.8 487.8,541.5 498.0,544.5 508.3,547.5 518.5,550.5 528.7,553.5 538.9,556.5 549.1,559.5 559.3,562.5 569.6,565.6 579.8,568.6 590.0,571.6 600.2,574.6 610.4,577.6 620.7,580.6 630.9,583.6 641.1,586.6 651.3,589.7 661.5,592.7 671.7,595.7 682.0,598.7 692.2,601.7 692.2,568.8" fill="#b8860b" fill-opacity="0.28" stroke="#b8860b" stroke-width="1"/>
<polygon points="692.2,568.8 692.2,541.1 702.4,544.1 712.6,547.1 722.8,550.1 733.0,553.1 743.3,556.1 753.5,559.1 763.7,562.2 773.9,565.2 784.1,568.2 794.3,571.2 804.6,574.2 814.8,577.2 825.0,580.2 835.2,583.2 845.4,586.3 855.6,589.3 865.9,592.3 876.1,595.3 886.3,598.3 896.5,601.3 896.5,568.8" fill="#b8860b" fill-opacity="0.28" stroke="#b8860b" stroke-width="1"/>
<polygon points="283.5,449.6 283.5,422.8 293.7,425.8 303.9,428.9 314.1,431.9 324.4,434.9 334.6,437.9 344.8,440.9 355.0,443.9 365.2,446.9 375.4,449.9 385.7,453.0 395.9,456.0 406.1,459.0 416.3,462.0 426.5,465.0 436.7,468.0 447.0,471.0 457.2,474.0 467.4,477.1 477.6,480.1 487.8,483.1 487.8,449.6" fill="#b8860b" fill-opacity="0.28" stroke="#b8860b" stroke-width="1"/>
<polygon points="487.8,449.6 487.8,422.4 498.0,425.4 508.3,428.5 518.5,431.5 528.7,434.5 538.9,437.5 549.1,440.5 559.3,443.5 569.6,446.5 579.8,449.5 590.0,452.6 600.2,455.6 610.4,458.6 620.7,461.6 630.9,464.6 641.1,467.6 651.3,470.6 661.5,473.6 671.7,476.7 682.0,479.7 692.2,482.7 692.2,449.6" fill="#b8860b" fill-opacity="0.28" stroke="#b8860b" stroke-width="1"/>
<polygon points="692.2,449.6 692.2,422.6 702.4,425.6 712.6,428.6 722.8,431.6 733.0,434.6 743.3,437.6 753.5,440.6 763.7,443.7 773.9,446.7 784.1,449.7 794.3,452.7 804.6,455.7 814.8,458.7 825.0,461.7 835.2,464.7 845.4,467.8 855.6,470.8 865.9,473.8 876.1,476.8 886.3,479.8 896.5,482.8 896.5,449.6" fill="#b8860b" fill-opacity="0.28" stroke="#b8860b" stroke-width="1"/>
<polygon points="283.5,330.4 283.5,302.7 293.7,305.7 303.9,308.7 314.1,311.7 324.4,314.8 334.6,317.8 344.8,320.8 355.0,323.8 365.2,326.8 375.4,329.8 385.7,332.8 395.9,335.8 406.1,338.9 416.3,341.9 426.5,344.9 436.7,347.9 447.0,350.9 457.2,353.9 467.4,356.9 477.6,359.9 487.8,363.0 487.8,330.4" fill="#b8860b" fill-opacity="0.28" stroke="#b8860b" stroke-width="1"/>
<polygon points="487.8,330.4 487.8,302.7 498.0,305.8 508.3,308.8 518.5,311.8 528.7,314.8 538.9,317.8 549.1,320.8 559.3,323.8 569.6,326.8 579.8,329.9 590.0,332.9 600.2,335.9 610.4,338.9 620.7,341.9 630.9,344.9 641.1,347.9 651.3,350.9 661.5,353.9 671.7,357.0 682.0,360.0 692.2,363.0 692.2,330.4" fill="#b8860b" fill-opacity="0.28" stroke="#b8860b" stroke-width="1"/>
<polygon points="692.2,330.4 692.2,303.1 702.4,306.1 712.6,309.2 722.8,312.2 733.0,315.2 743.3,318.2 753.5,321.2 763.7,324.2 773.9,327.2 784.1,330.2 794.3,333.3 804.6,336.3 814.8,339.3 825.0,342.3 835.2,345.3 845.4,348.3 855.6,351.3 865.9,354.3 876.1,357.4 886.3,360.4 896.5,363.4 896.5,330.4" fill="#b8860b" fill-opacity="0.28" stroke="#b8860b" stroke-width="1"/>
<polygon points="283.5,211.2 283.5,182.3 293.7,185.3 303.9,188.3 314.1,191.3 324.4,194.4 334.6,197.4 344.8,200.4 355.0,203.4 365.2,206.4 375.4,209.4 385.7,212.4 395.9,215.4 406.1,218.5 416.3,221.5 426.5,224.5 436.7,227.5 447.0,230.5 457.2,233.5 467.4,236.5 477.6,239.5 487.8,242.6 487.8,211.2" fill="#b8860b" fill-opacity="0.28" stroke="#b8860b" stroke-width="1"/>
<polygon points="487.8,211.2 487.8,182.8 498.0,185.8 508.3,188.8 518.5,191.8 528.7,194.8 538.9,197.9 549.1,200.9 559.3,203.9 569.6,206.9 579.8,209.9 590.0,212.9 600.2,215.9 610.4,218.9 620.7,222.0 630.9,225.0 641.1,228.0 651.3,231.0 661.5,234.0 671.7,237.0 682.0,240.0 692.2,243.0 692.2,211.2" fill="#b8860b" fill-opacity="0.28" stroke="#b8860b" stroke-width="1"/>
<polygon points="692.2,211.2 692.2,183.4 702.4,186.4 712.6,189.4 722.8,192.4 733.0,195.4 743.3,198.4 753.5,201.5 763.7,204.5 773.9,207.5 784.1,210.5 794.3,213.5 804.6,216.5 814.8,219.5 825.0,222.5 835.2,225.6 845.4,228.6 855.6,231.6 865.9,234.6 876.1,237.6 886.3,240.6 896.5,243.6 896.5,211.2" fill="#b8860b" fill-opacity="0.28" stroke="#b8860b" stroke-width="1"/>
<polygon points="283.5,92.0 283.5,63.8 293.7,66.8 303.9,69.8 314.1,72.8 324.4,75.8 334.6,78.8 344.8,81.8 355.0,84.9 365.2,87.9 375.4,90.9 385.7,93.9 395.9,96.9 406.1,99.9 416.3,102.9 426.5,105.9 436.7,109.0 447.0,112.0 457.2,115.0 467.4,118.0 477.6,121.0 487.8,124.0 487.8,92.0" fill="#b8860b" fill-opacity="0.28" stroke="#b8860b" stroke-width="1"/>
<polygon points="487.8,92.0 487.8,62.7 498.0,65.7 508.3,68.7 518.5,71.7 528.7,74.7 538.9,77.7 549.1,80.8 559.3,83.8 569.6,86.8 579.8,89.8 590.0,92.8 600.2,95.8 610.4,98.8 620.7,101.8 630.9,104.9 641.1,107.9 651.3,110.9 661.5,113.9 671.7,116.9 682.0,119.9 692.2,122.9 692.2,92.0" fill="#b8860b" fill-opacity="0.28" stroke="#b8860b" stroke-width="1"/>
<polygon points="692.2,92.0 692.2,61.6 702.4,64.7 712.6,67.7 722.8,70.7 733.0,73.7 743.3,76.7 753.5,79.7 763.7,82.7 773.9,85.7 784.1,88.8 794.3,91.8 804.6,94.8 814.8,97.8 825.0,100.8 835.2,103.8 845.4,106.8 855.6,109.8 865.9,112.9 876.1,115.9 886.3,118.9 896.5,121.9 896.5,92.0" fill="#b8860b" fill-opacity="0.28" stroke="#b8860b" stroke-width="1"/>
<polygon points="274.5,700.6 292.5,700.6 283.5,688.0" fill="#333"/>
<line x1="271.8" y1="700.6" x2="295.2" y2="700.6" stroke="#333" stroke-width="2"/>
<polygon points="478.8,700.6 496.8,700.6 487.8,688.0" fill="#333"/>
<line x1="476.1" y1="700.6" x2="499.5" y2="700.6" stroke="#333" stroke-width="2"/>
<polygon points="683.2,700.6 701.2,700.6 692.2,688.0" fill="#333"/>
<line x1="680.5" y1="700.6" x2="703.9" y2="700.6" stroke="#333" stroke-width="2"/>
<polygon points="887.5,700.6 905.5,700.6 896.5,688.0" fill="#333"/>
<line x1="884.8" y1="700.6" x2="908.2" y2="700.6" stroke="#333" stroke-width="2"/>
<text x="16.0" y="24.0" font-size="16" font-weight="bold" fill="#111">5-story, 3-bay moment frame — shear force</text>
<text x="16.0" y="42.0" font-size="12" fill="#555">Vz diagram · max |Vz| = 105 kN (green: positive, red: negative, offsets ∝ value)</text>
<line x1="30.0" y1="734.0" x2="54.0" y2="734.0" stroke="#666" stroke-width="1.4"/>
<text x="56.0" y="737.0" font-size="10" fill="#666">X</text>
<line x1="30.0" y1="734.0" x2="30.0" y2="710.0" stroke="#666" stroke-width="1.4"/>
<text x="32.0" y="713.0" font-size="10" fill="#666">Z</text>
</svg>
