<svg xmlns="http://www.w3.org/2000/svg" viewBox="0 0 1180 760" font-family="Segoe UI, Arial, sans-serif">
<rect width="1180" height="760" fill="white"/>
<line x1="590.0" y1="688.0" x2="590.0" y2="624.8" stroke="#eee" stroke-width="1" stroke-linecap="round"/>
<line x1="496.2" y1="633.8" x2="496.2" y2="570.6" stroke="#eee" stroke-width="1" stroke-linecap="round"/>
<line x1="402.3" y1="579.6" x2="402.3" y2="516.4" stroke="#eee" stroke-width="1" stroke-linecap="round"/>
<line x1="683.8" y1="633.8" x2="683.8" y2="570.6" stroke="#eee" stroke-width="1" stroke-linecap="round"/>
<line x1="590.0" y1="579.6" x2="590.0" y2="516.4" stroke="#eee" stroke-width="1" stroke-linecap="round"/>
<line x1="496.2" y1="525.5" x2="496.2" y2="462.2" stroke="#eee" stroke-width="1" stroke-linecap="round"/>
<line x1="777.7" y1="579.6" x2="777.7" y2="516.4" stroke="#eee" stroke-width="1" stroke-linecap="round"/>
<line x1="683.8" y1="525.5" x2="683.8" y2="462.2" stroke="#eee" stroke-width="1" stroke-linecap="round"/>
<line x1="590.0" y1="471.3" x2="590.0" y2="408.1" stroke="#eee" stroke-width="1" stroke-linecap="round"/>
<line x1="590.0" y1="624.8" x2="590.0" y2="561.6" stroke="#eee" stroke-width="1" stroke-linecap="round"/>
<line x1="496.2" y1="570.6" x2="496.2" y2="507.4" stroke="#eee" stroke-width="1" stroke-linecap="round"/>
<line x1="402.3" y1="516.4" x2="402.3" y2="453.2" stroke="#eee" stroke-width="1" stroke-linecap="round"/>
<line x1="683.8" y1="570.6" x2="683.8" y2="507.4" stroke="#eee" stroke-width="1" stroke-linecap="round"/>
<line x1="590.0" y1="516.4" x2="590.0" y2="453.2" stroke="#eee" stroke-width="1" stroke-linecap="round"/>
<line x1="496.2" y1="462.2" x2="496.2" y2="399.0" stroke="#eee" stroke-width="1" stroke-linecap="round"/>
<line x1="777.7" y1="516.4" x2="777.7" y2="453.2" stroke="#eee" stroke-width="1" stroke-linecap="round"/>
<line x1="683.8" y1="462.2" x2="683.8" y2="399.0" stroke="#eee" stroke-width="1" stroke-linecap="round"/>
<line x1="590.0" y1="408.1" x2="590.0" y2="344.8" stroke="#eee" stroke-width="1" stroke-linecap="round"/>
<line x1="590.0" y1="561.6" x2="590.0" y2="498.4" stroke="#eee" stroke-width="1" stroke-linecap="round"/>
<line x1="496.2" y1="507.4" x2="496.2" y2="444.2" stroke="#eee" stroke-width="1" stroke-linecap="round"/>
<line x1="402.3" y1="453.2" x2="402.3" y2="390.0" stroke="#eee" stroke-width="1" stroke-linecap="round"/>
<line x1="683.8" y1="507.4" x2="683.8" y2="444.2" stroke="#eee" stroke-width="1" stroke-linecap="round"/>
<line x1="590.0" y1="453.2" x2="590.0" y2="390.0" stroke="#eee" stroke-width="1" stroke-linecap="round"/>
<line x1="496.2" y1="399.0" x2="496.2" y2="335.8" stroke="#eee" stroke-width="1" stroke-linecap="round"/>
<line x1="777.7" y1="453.2" x2="777.7" y2="390.0" stroke="#eee" stroke-width="1" stroke-linecap="round"/>
<line x1="683.8" y1="399.0" x2="683.8" y2="335.8" stroke="#eee" stroke-width="1" stroke-linecap="round"/>
<line x1="590.0" y1="344.8" x2="590.0" y2="281.6" stroke="#eee" stroke-width="1" stroke-linecap="round"/>
<line x1="590.0" y1="498.4" x2="590.0" y2="435.2" stroke="#eee" stroke-width="1" stroke-linecap="round"/>
<line x1="496.2" y1="444.2" x2="496.2" y2="381.0" stroke="#eee" stroke-width="1" stroke-linecap="round"/>
<line x1="402.3" y1="390.0" x2="402.3" y2="326.8" stroke="#eee" stroke-width="1" stroke-linecap="round"/>
<line x1="683.8" y1="444.2" x2="683.8" y2="381.0" stroke="#eee" stroke-width="1" stroke-linecap="round"/>
<line x1="590.0" y1="390.0" x2="590.0" y2="326.8" stroke="#eee" stroke-width="1" stroke-linecap="round"/>
<line x1="496.2" y1="335.8" x2="496.2" y2="272.6" stroke="#eee" stroke-width="1" stroke-linecap="round"/>
<line x1="777.7" y1="390.0" x2="777.7" y2="326.8" stroke="#eee" stroke-width="1" stroke-linecap="round"/>
<line x1="683.8" y1="335.8" x2="683.8" y2="272.6" stroke="#eee" stroke-width="1" stroke-linecap="round"/>
<line x1="590.0" y1="281.6" x2="590.0" y2="218.4" stroke="#eee" stroke-width="1" stroke-linecap="round"/>
<line x1="590.0" y1="435.2" x2="590.0" y2="371.9" stroke="#eee" stroke-width="1" stroke-linecap="round"/>
<line x1="496.2" y1="381.0" x2="496.2" y2="317.8" stroke="#eee" stroke-width="1" stroke-linecap="round"/>
<line x1="402.3" y1="326.8" x2="402.3" y2="263.6" stroke="#eee" stroke-width="1" stroke-linecap="round"/>
<line x1="683.8" y1="381.0" x2="683.8" y2="317.8" stroke="#eee" stroke-width="1" stroke-linecap="round"/>
<line x1="590.0" y1="326.8" x2="590.0" y2="263.6" stroke="#eee" stroke-width="1" stroke-linecap="round"/>
<line x1="496.2" y1="272.6" x2="496.2" y2="209.4" stroke="#eee" stroke-width="1" stroke-linecap="round"/>
<line x1="777.7" y1="326.8" x2="777.7" y2="263.6" stroke="#eee" stroke-width="1" stroke-linecap="round"/>
<line x1="683.8" y1="272.6" x2="683.8" y2="209.4" stroke="#eee" stroke-width="1" stroke-linecap="round"/>
<line x1="590.0" y1="218.4" x2="590.0" y2="155.2" stroke="#eee" stroke-width="1" stroke-linecap="round"/>
<line x1="590.0" y1="371.9" x2="590.0" y2="308.7" stroke="#eee" stroke-width="1" stroke-linecap="round"/>
<line x1="496.2" y1="317.8" x2="496.2" y2="254.5" stroke="#eee" stroke-width="1" stroke-linecap="round"/>
<line x1="402.3" y1="263.6" x2="402.3" y2="200.4" stroke="#eee" stroke-width="1" stroke-linecap="round"/>
<line x1="683.8" y1="317.8" x2="683.8" y2="254.5" stroke="#eee" stroke-width="1" stroke-linecap="round"/>
<line x1="590.0" y1="263.6" x2="590.0" y2="200.4" stroke="#eee" stroke-width="1" stroke-linecap="round"/>
<line x1="496.2" y1="209.4" x2="496.2" y2="146.2" stroke="#eee" stroke-width="1" stroke-linecap="round"/>
<line x1="777.7" y1="263.6" x2="777.7" y2="200.4" stroke="#eee" stroke-width="1" stroke-linecap="round"/>
<line x1="683.8" y1="209.4" x2="683.8" y2="146.2" stroke="#eee" stroke-width="1" stroke-linecap="round"/>
<line x1="590.0" y1="155.2" x2="590.0" y2="92.0" stroke="#eee" stroke-width="1" stroke-linecap="round"/>
<line x1="590.0" y1="624.8" x2="683.8" y2="570.6" stroke="#eee" stroke-width="1" stroke-linecap="round"/>
<line x1="683.8" y1="570.6" x2="777.7" y2="516.4" stroke="#eee" stroke-width="1" stroke-linecap="round"/>
<line x1="496.2" y1="570.6" x2="590.0" y2="516.4" stroke="#eee" stroke-width="1" stroke-linecap="round"/>
<line x1="590.0" y1="516.4" x2="683.8" y2="462.2" stroke="#eee" stroke-width="1" stroke-linecap="round"/>
<line x1="402.3" y1="516.4" x2="496.2" y2="462.2" stroke="#eee" stroke-width="1" stroke-linecap="round"/>
<line x1="496.2" y1="462.2" x2="590.0" y2="408.1" stroke="#eee" stroke-width="1" stroke-linecap="round"/>
<line x1="590.0" y1="624.8" x2="496.2" y2="570.6" stroke="#eee" stroke-width="1" stroke-linecap="round"/>
<line x1="496.2" y1="570.6" x2="402.3" y2="516.4" stroke="#eee" stroke-width="1" stroke-linecap="round"/>
<line x1="683.8" y1="570.6" x2="590.0" y2="516.4" stroke="#eee" stroke-width="1" stroke-linecap="round"/>
<line x1="590.0" y1="516.4" x2="496.2" y2="462.2" stroke="#eee" stroke-width="1" stroke-linecap="round"/>
<line x1="777.7" y1="516.4" x2="683.8" y2="462.2" stroke="#eee" stroke-width="1" stroke-linecap="round"/>
<line x1="683.8" y1="462.2" x2="590.0" y2="408.1" stroke="#eee" stroke-width="1" stroke-linecap="round"/>
<line x1="590.0" y1="561.6" x2="683.8" y2="507.4" stroke="#eee" stroke-width="1" stroke-linecap="round"/>
<line x1="683.8" y1="507.4" x2="777.7" y2="453.2" stroke="#eee" stroke-width="1" stroke-linecap="round"/>
<line x1="496.2" y1="507.4" x2="590.0" y2="453.2" stroke="#eee" stroke-width="1" stroke-linecap="round"/>
<line x1="590.0" y1="453.2" x2="683.8" y2="399.0" stroke="#eee" stroke-width="1" stroke-linecap="round"/>
<line x1="402.3" y1="453.2" x2="496.2" y2="399.0" stroke="#eee" stroke-width="1" stroke-linecap="round"/>
<line x1="496.2" y1="399.0" x2="590.0" y2="344.8" stroke="#eee" stroke-width="1" stroke-linecap="round"/>
<line x1="590.0" y1="561.6" x2="496.2" y2="507.4" stroke="#eee" stroke-width="1" stroke-linecap="round"/>
<line x1="496.2" y1="507.4" x2="402.3" y2="453.2" stroke="#eee" stroke-width="1" stroke-linecap="round"/>
<line x1="683.8" y1="507.4" x2="590.0" y2="453.2" stroke="#eee" stroke-width="1" stroke-linecap="round"/>
<line x1="590.0" y1="453.2" x2="496.2" y2="399.0" stroke="#eee" stroke-width="1" stroke-linecap="round"/>
<line x1="777.7" y1="453.2" x2="683.8" y2="399.0" stroke="#eee" stroke-width="1" stroke-linecap="round"/>
<line x1="683.8" y1="399.0" x2="590.0" y2="344.8" stroke="#eee" stroke-width="1" stroke-linecap="round"/>
<line x1="590.0" y1="498.4" x2="683.8" y2="444.2" stroke="#eee" stroke-width="1" stroke-linecap="round"/>
<line x1="683.8" y1="444.2" x2="777.7" y2="390.0" stroke="#eee" stroke-width="1" stroke-linecap="round"/>
<line x1="496.2" y1="444.2" x2="590.0" y2="390.0" stroke="#eee" stroke-width="1" stroke-linecap="round"/>
<line x1="590.0" y1="390.0" x2="683.8" y2="335.8" stroke="#eee" stroke-width="1" stroke-linecap="round"/>
<line x1="402.3" y1="390.0" x2="496.2" y2="335.8" stroke="#eee" stroke-width="1" stroke-linecap="round"/>
<line x1="496.2" y1="335.8" x2="590.0" y2="281.6" stroke="#eee" stroke-width="1" stroke-linecap="round"/>
<line x1="590.0" y1="498.4" x2="496.2" y2="444.2" stroke="#eee" stroke-width="1" stroke-linecap="round"/>
<line x1="496.2" y1="444.2" x2="402.3" y2="390.0" stroke="#eee" stroke-width="1" stroke-linecap="round"/>
<line x1="683.8" y1="444.2" x2="590.0" y2="390.0" stroke="#eee" stroke-width="1" stroke-linecap="round"/>
<line x1="590.0" y1="390.0" x2="496.2" y2="335.8" stroke="#eee" stroke-width="1" stroke-linecap="round"/>
<line x1="777.7" y1="390.0" x2="683.8" y2="335.8" stroke="#eee" stroke-width="1" stroke-linecap="round"/>
<line x1="683.8" y1="335.8" x2="590.0" y2="281.6" stroke="#eee" stroke-width="1" stroke-linecap="round"/>
<line x1="590.0" y1="435.2" x2="683.8" y2="381.0" stroke="#eee" stroke-width="1" stroke-linecap="round"/>
<line x1="683.8" y1="381.0" x2="777.7" y2="326.8" stroke="#eee" stroke-width="1" stroke-linecap="round"/>
<line x1="496.2" y1="381.0" x2="590.0" y2="326.8" stroke="#eee" stroke-width="1" stroke-linecap="round"/>
<line x1="590.0" y1="326.8" x2="683.8" y2="272.6" stroke="#eee" stroke-width="1" stroke-linecap="round"/>
<line x1="402.3" y1="326.8" x2="496.2" y2="272.6" stroke="#eee" stroke-width="1" stroke-linecap="round"/>
<line x1="496.2" y1="272.6" x2="590.0" y2="218.4" stroke="#eee" stroke-width="1" stroke-linecap="round"/>
<line x1="590.0" y1="435.2" x2="496.2" y2="381.0" stroke="#eee" stroke-width="1" stroke-linecap="round"/>
<line x1="496.2" y1="381.0" x2="402.3" y2="326.8" stroke="#eee" stroke-width="1" stroke-linecap="round"/>
<line x1="683.8" y1="381.0" x2="590.0" y2="326.8" stroke="#eee" stroke-width="1" stroke-linecap="round"/>
<line x1="590.0" y1="326.8" x2="496.2" y2="272.6" stroke="#eee" stroke-width="1" stroke-linecap="round"/>
<line x1="777.7" y1="326.8" x2="683.8" y2="272.6" stroke="#eee" stroke-width="1" stroke-linecap="round"/>
<line x1="683.8" y1="272.6" x2="590.0" y2="218.4" stroke="#eee" stroke-width="1" stroke-linecap="round"/>
<line x1="590.0" y1="371.9" x2="683.8" y2="317.8" stroke="#eee" stroke-width="1" stroke-linecap="round"/>
<line x1="683.8" y1="317.8" x2="777.7" y2="263.6" stroke="#eee" stroke-width="1" stroke-linecap="round"/>
<line x1="496.2" y1="317.8" x2="590.0" y2="263.6" stroke="#eee" stroke-width="1" stroke-linecap="round"/>
<line x1="590.0" y1="263.6" x2="683.8" y2="209.4" stroke="#eee" stroke-width="1" stroke-linecap="round"/>
<line x1="402.3" y1="263.6" x2="496.2" y2="209.4" stroke="#eee" stroke-width="1" stroke-linecap="round"/>
<line x1="496.2" y1="209.4" x2="590.0" y2="155.2" stroke="#eee" stroke-width="1" stroke-linecap="round"/>
<line x1="590.0" y1="371.9" x2="496.2" y2="317.8" stroke="#eee" stroke-width="1" stroke-linecap="round"/>
<line x1="496.2" y1="317.8" x2="402.3" y2="263.6" stroke="#eee" stroke-width="1" stroke-linecap="round"/>
<line x1="683.8" y1="317.8" x2="590.0" y2="263.6" stroke="#eee" stroke-width="1" stroke-linecap="round"/>
<line x1="590.0" y1="263.6" x2="496.2" y2="209.4" stroke="#eee" stroke-width="1" stroke-linecap="round"/>
<line x1="777.7" y1="263.6" x2="683.8" y2="209.4" stroke="#eee" stroke-width="1" stroke-linecap="round"/>
<line x1="683.8" y1="209.4" x2="590.0" y2="155.2" stroke="#eee" stroke-width="1" stroke-linecap="round"/>
<line x1="590.0" y1="308.7" x2="683.8" y2="254.5" stroke="#eee" stroke-width="1" stroke-linecap="round"/>
<line x1="683.8" y1="254.5" x2="777.7" y2="200.4" stroke="#eee" stroke-width="1" stroke-linecap="round"/>
<line x1="496.2" y1="254.5" x2="590.0" y2="200.4" stroke="#eee" stroke-width="1" stroke-linecap="round"/>
<line x1="590.0" y1="200.4" x2="683.8" y2="146.2" stroke="#eee" stroke-width="1" stroke-linecap="round"/>
<line x1="402.3" y1="200.4" x2="496.2" y2="146.2" stroke="#eee" stroke-width="1" stroke-linecap="round"/>
<line x1="496.2" y1="146.2" x2="590.0" y2="92.0" stroke="#eee" stroke-width="1" stroke-linecap="round"/>
<line x1="590.0" y1="308.7" x2="496.2" y2="254.5" stroke="#eee" stroke-width="1" stroke-linecap="round"/>
<line x1="496.2" y1="254.5" x2="402.3" y2="200.4" stroke="#eee" stroke-width="1" stroke-linecap="round"/>
<line x1="683.8" y1="254.5" x2="590.0" y2="200.4" stroke="#eee" stroke-width="1" stroke-linecap="round"/>
<line x1="590.0" y1="200.4" x2="496.2" y2="146.2" stroke="#eee" stroke-width="1" stroke-linecap="round"/>
<line x1="777.7" y1="200.4" x2="683.8" y2="146.2" stroke="#eee" stroke-width="1" stroke-linecap="round"/>
<line x1="683.8" y1="146.2" x2="590.0" y2="92.0" stroke="#eee" stroke-width="1" stroke-linecap="round"/>
<line x1="590.0" y1="688.0" x2="683.8" y2="570.6" stroke="#eee" stroke-width="1" stroke-linecap="round"/>
<line x1="683.8" y1="633.8" x2="590.0" y2="624.8" stroke="#eee" stroke-width="1" stroke-linecap="round"/>
<line x1="402.3" y1="579.6" x2="496.2" y2="462.2" stroke="#eee" stroke-width="1" stroke-linecap="round"/>
<line x1="496.2" y1="525.5" x2="402.3" y2="516.4" stroke="#eee" stroke-width="1" stroke-linecap="round"/>
<line x1="590.0" y1="688.0" x2="496.2" y2="570.6" stroke="#eee" stroke-width="1" stroke-linecap="round"/>
<line x1="496.2" y1="633.8" x2="590.0" y2="624.8" stroke="#eee" stroke-width="1" stroke-linecap="round"/>
<line x1="777.7" y1="579.6" x2="683.8" y2="462.2" stroke="#eee" stroke-width="1" stroke-linecap="round"/>
<line x1="683.8" y1="525.5" x2="777.7" y2="516.4" stroke="#eee" stroke-width="1" stroke-linecap="round"/>
<line x1="590.0" y1="624.8" x2="683.8" y2="507.4" stroke="#eee" stroke-width="1" stroke-linecap="round"/>
<line x1="683.8" y1="570.6" x2="590.0" y2="561.6" stroke="#eee" stroke-width="1" stroke-linecap="round"/>
<line x1="402.3" y1="516.4" x2="496.2" y2="399.0" stroke="#eee" stroke-width="1" stroke-linecap="round"/>
<line x1="496.2" y1="462.2" x2="402.3" y2="453.2" stroke="#eee" stroke-width="1" stroke-linecap="round"/>
<line x1="590.0" y1="624.8" x2="496.2" y2="507.4" stroke="#eee" stroke-width="1" stroke-linecap="round"/>
<line x1="496.2" y1="570.6" x2="590.0" y2="561.6" stroke="#eee" stroke-width="1" stroke-linecap="round"/>
<line x1="777.7" y1="516.4" x2="683.8" y2="399.0" stroke="#eee" stroke-width="1" stroke-linecap="round"/>
<line x1="683.8" y1="462.2" x2="777.7" y2="453.2" stroke="#eee" stroke-width="1" stroke-linecap="round"/>
<line x1="590.0" y1="561.6" x2="683.8" y2="444.2" stroke="#eee" stroke-width="1" stroke-linecap="round"/>
<line x1="683.8" y1="507.4" x2="590.0" y2="498.4" stroke="#eee" stroke-width="1" stroke-linecap="round"/>
<line x1="402.3" y1="453.2" x2="496.2" y2="335.8" stroke="#eee" stroke-width="1" stroke-linecap="round"/>
<line x1="496.2" y1="399.0" x2="402.3" y2="390.0" stroke="#eee" stroke-width="1" stroke-linecap="round"/>
<line x1="590.0" y1="561.6" x2="496.2" y2="444.2" stroke="#eee" stroke-width="1" stroke-linecap="round"/>
<line x1="496.2" y1="507.4" x2="590.0" y2="498.4" stroke="#eee" stroke-width="1" stroke-linecap="round"/>
<line x1="777.7" y1="453.2" x2="683.8" y2="335.8" stroke="#eee" stroke-width="1" stroke-linecap="round"/>
<line x1="683.8" y1="399.0" x2="777.7" y2="390.0" stroke="#eee" stroke-width="1" stroke-linecap="round"/>
<line x1="590.0" y1="498.4" x2="683.8" y2="381.0" stroke="#eee" stroke-width="1" stroke-linecap="round"/>
<line x1="683.8" y1="444.2" x2="590.0" y2="435.2" stroke="#eee" stroke-width="1" stroke-linecap="round"/>
<line x1="402.3" y1="390.0" x2="496.2" y2="272.6" stroke="#eee" stroke-width="1" stroke-linecap="round"/>
<line x1="496.2" y1="335.8" x2="402.3" y2="326.8" stroke="#eee" stroke-width="1" stroke-linecap="round"/>
<line x1="590.0" y1="498.4" x2="496.2" y2="381.0" stroke="#eee" stroke-width="1" stroke-linecap="round"/>
<line x1="496.2" y1="444.2" x2="590.0" y2="435.2" stroke="#eee" stroke-width="1" stroke-linecap="round"/>
<line x1="777.7" y1="390.0" x2="683.8" y2="272.6" stroke="#eee" stroke-width="1" stroke-linecap="round"/>
<line x1="683.8" y1="335.8" x2="777.7" y2="326.8" stroke="#eee" stroke-width="1" stroke-linecap="round"/>
<line x1="590.0" y1="435.2" x2="683.8" y2="317.8" stroke="#eee" stroke-width="1" stroke-linecap="round"/>
<line x1="683.8" y1="381.0" x2="590.0" y2="371.9" stroke="#eee" stroke-width="1" stroke-linecap="round"/>
<line x1="402.3" y1="326.8" x2="496.2" y2="209.4" stroke="#eee" stroke-width="1" stroke-linecap="round"/>
<line x1="496.2" y1="272.6" x2="402.3" y2="263.6" stroke="#eee" stroke-width="1" stroke-linecap="round"/>
<line x1="590.0" y1="435.2" x2="496.2" y2="317.8" stroke="#eee" stroke-width="1" stroke-linecap="round"/>
<line x1="496.2" y1="381.0" x2="590.0" y2="371.9" stroke="#eee" stroke-width="1" stroke-linecap="round"/>
<line x1="777.7" y1="326.8" x2="683.8" y2="209.4" stroke="#eee" stroke-width="1" stroke-linecap="round"/>
<line x1="683.8" y1="272.6" x2="777.7" y2="263.6" stroke="#eee" stroke-width="1" stroke-linecap="round"/>
<line x1="590.0" y1="371.9" x2="683.8" y2="254.5" stroke="#eee" stroke-width="1" stroke-linecap="round"/>
<line x1="683.8" y1="317.8" x2="590.0" y2="308.7" stroke="#eee" stroke-width="1" stroke-linecap="round"/>
<line x1="402.3" y1="263.6" x2="496.2" y2="146.2" stroke="#eee" stroke-width="1" stroke-linecap="round"/>
<line x1="496.2" y1="209.4" x2="402.3" y2="200.4" stroke="#eee" stroke-width="1" stroke-linecap="round"/>
<line x1="590.0" y1="371.9" x2="496.2" y2="254.5" stroke="#eee" stroke-width="1" stroke-linecap="round"/>
<line x1="496.2" y1="317.8" x2="590.0" y2="308.7" stroke="#eee" stroke-width="1" stroke-linecap="round"/>
<line x1="777.7" y1="263.6" x2="683.8" y2="146.2" stroke="#eee" stroke-width="1" stroke-linecap="round"/>
<line x1="683.8" y1="209.4" x2="777.7" y2="200.4" stroke="#eee" stroke-width="1" stroke-linecap="round"/>
<line x1="590.0" y1="688.0" x2="590.0" y2="624.8" stroke="#d62728" stroke-width="3.151031119394283" stroke-linecap="round"/>
<line x1="496.2" y1="633.8" x2="496.2" y2="570.6" stroke="#d62728" stroke-width="4.525296938459116" stroke-linecap="round"/>
<line x1="402.3" y1="579.6" x2="402.3" y2="516.4" stroke="#d62728" stroke-width="3.162031505532885" stroke-linecap="round"/>
<line x1="683.8" y1="633.8" x2="683.8" y2="570.6" stroke="#d62728" stroke-width="4.989788130964185" stroke-linecap="round"/>
<line x1="590.0" y1="579.6" x2="590.0" y2="516.4" stroke="#d62728" stroke-width="6" stroke-linecap="round"/>
<line x1="496.2" y1="525.5" x2="496.2" y2="462.2" stroke="#d62728" stroke-width="5.024093624528841" stroke-linecap="round"/>
<line x1="777.7" y1="579.6" x2="777.7" y2="516.4" stroke="#d62728" stroke-width="3.625470403470837" stroke-linecap="round"/>
<line x1="683.8" y1="525.5" x2="683.8" y2="462.2" stroke="#d62728" stroke-width="4.759789144496812" stroke-linecap="round"/>
<line x1="590.0" y1="471.3" x2="590.0" y2="408.1" stroke="#d62728" stroke-width="3.6521105271619865" stroke-linecap="round"/>
<line x1="590.0" y1="624.8" x2="590.0" y2="561.6" stroke="#d62728" stroke-width="2.904156831452577" stroke-linecap="round"/>
<line x1="496.2" y1="570.6" x2="496.2" y2="507.4" stroke="#d62728" stroke-width="3.949929633725403" stroke-linecap="round"/>
<line x1="402.3" y1="516.4" x2="402.3" y2="453.2" stroke="#d62728" stroke-width="2.904667172026785" stroke-linecap="round"/>
<line x1="683.8" y1="570.6" x2="683.8" y2="507.4" stroke="#d62728" stroke-width="4.251620061848216" stroke-linecap="round"/>
<line x1="590.0" y1="516.4" x2="590.0" y2="453.2" stroke="#d62728" stroke-width="5.132177175125703" stroke-linecap="round"/>
<line x1="496.2" y1="462.2" x2="496.2" y2="399.0" stroke="#d62728" stroke-width="4.277474453997866" stroke-linecap="round"/>
<line x1="777.7" y1="516.4" x2="777.7" y2="453.2" stroke="#d62728" stroke-width="3.2221166542702635" stroke-linecap="round"/>
<line x1="683.8" y1="462.2" x2="683.8" y2="399.0" stroke="#d62728" stroke-width="4.109382424529636" stroke-linecap="round"/>
<line x1="590.0" y1="408.1" x2="590.0" y2="344.8" stroke="#d62728" stroke-width="3.2324459784975517" stroke-linecap="round"/>
<line x1="590.0" y1="561.6" x2="590.0" y2="498.4" stroke="#d62728" stroke-width="2.5750654734243046" stroke-linecap="round"/>
<line x1="496.2" y1="507.4" x2="496.2" y2="444.2" stroke="#d62728" stroke-width="3.360872172655661" stroke-linecap="round"/>
<line x1="402.3" y1="453.2" x2="402.3" y2="390.0" stroke="#d62728" stroke-width="2.5797880003314897" stroke-linecap="round"/>
<line x1="683.8" y1="507.4" x2="683.8" y2="444.2" stroke="#d62728" stroke-width="3.5441948235068956" stroke-linecap="round"/>
<line x1="590.0" y1="453.2" x2="590.0" y2="390.0" stroke="#d62728" stroke-width="4.295832209871035" stroke-linecap="round"/>
<line x1="496.2" y1="399.0" x2="496.2" y2="335.8" stroke="#d62728" stroke-width="3.5630686765280153" stroke-linecap="round"/>
<line x1="777.7" y1="453.2" x2="777.7" y2="390.0" stroke="#d62728" stroke-width="2.7808249088429795" stroke-linecap="round"/>
<line x1="683.8" y1="399.0" x2="683.8" y2="335.8" stroke="#d62728" stroke-width="3.470168342504787" stroke-linecap="round"/>
<line x1="590.0" y1="344.8" x2="590.0" y2="281.6" stroke="#d62728" stroke-width="2.792253627418232" stroke-linecap="round"/>
<line x1="590.0" y1="498.4" x2="590.0" y2="435.2" stroke="#d62728" stroke-width="2.2165243668528545" stroke-linecap="round"/>
<line x1="496.2" y1="444.2" x2="496.2" y2="381.0" stroke="#d62728" stroke-width="2.7764403072798665" stroke-linecap="round"/>
<line x1="402.3" y1="390.0" x2="402.3" y2="326.8" stroke="#d62728" stroke-width="2.2223695729654267" stroke-linecap="round"/>
<line x1="683.8" y1="444.2" x2="683.8" y2="381.0" stroke="#d62728" stroke-width="2.8720635506678356" stroke-linecap="round"/>
<line x1="590.0" y1="390.0" x2="590.0" y2="326.8" stroke="#d62728" stroke-width="3.4709888492709675" stroke-linecap="round"/>
<line x1="496.2" y1="335.8" x2="496.2" y2="272.6" stroke="#d62728" stroke-width="2.8842485277431096" stroke-linecap="round"/>
<line x1="777.7" y1="390.0" x2="777.7" y2="326.8" stroke="#d62728" stroke-width="2.3333398475050386" stroke-linecap="round"/>
<line x1="683.8" y1="335.8" x2="683.8" y2="272.6" stroke="#d62728" stroke-width="2.8458552821342895" stroke-linecap="round"/>
<line x1="590.0" y1="281.6" x2="590.0" y2="218.4" stroke="#d62728" stroke-width="2.343111624015478" stroke-linecap="round"/>
<line x1="590.0" y1="435.2" x2="590.0" y2="371.9" stroke="#d62728" stroke-width="1.82848781403965" stroke-linecap="round"/>
<line x1="496.2" y1="381.0" x2="496.2" y2="317.8" stroke="#d62728" stroke-width="2.193956413011596" stroke-linecap="round"/>
<line x1="402.3" y1="326.8" x2="402.3" y2="263.6" stroke="#d62728" stroke-width="1.8334031408554026" stroke-linecap="round"/>
<line x1="683.8" y1="381.0" x2="683.8" y2="317.8" stroke="#d62728" stroke-width="2.2305112858187597" stroke-linecap="round"/>
<line x1="590.0" y1="326.8" x2="590.0" y2="263.6" stroke="#d62728" stroke-width="2.6555872736026167" stroke-linecap="round"/>
<line x1="496.2" y1="272.6" x2="496.2" y2="209.4" stroke="#d62728" stroke-width="2.236699063376947" stroke-linecap="round"/>
<line x1="777.7" y1="326.8" x2="777.7" y2="263.6" stroke="#d62728" stroke-width="1.8812896890548088" stroke-linecap="round"/>
<line x1="683.8" y1="272.6" x2="683.8" y2="209.4" stroke="#d62728" stroke-width="2.23118462266243" stroke-linecap="round"/>
<line x1="590.0" y1="218.4" x2="590.0" y2="155.2" stroke="#d62728" stroke-width="1.8880090836532684" stroke-linecap="round"/>
<line x1="590.0" y1="371.9" x2="590.0" y2="308.7" stroke="#d62728" stroke-width="1.391828022914444" stroke-linecap="round"/>
<line x1="496.2" y1="317.8" x2="496.2" y2="254.5" stroke="#d62728" stroke-width="1.6070413314669394" stroke-linecap="round"/>
<line x1="402.3" y1="263.6" x2="402.3" y2="200.4" stroke="#d62728" stroke-width="1.4019411337124317" stroke-linecap="round"/>
<line x1="683.8" y1="317.8" x2="683.8" y2="254.5" stroke="#d62728" stroke-width="1.6123125019660243" stroke-linecap="round"/>
<line x1="590.0" y1="263.6" x2="590.0" y2="200.4" stroke="#d62728" stroke-width="1.8557665037459834" stroke-linecap="round"/>
<line x1="496.2" y1="209.4" x2="496.2" y2="146.2" stroke="#d62728" stroke-width="1.614072101132851" stroke-linecap="round"/>
<line x1="777.7" y1="263.6" x2="777.7" y2="200.4" stroke="#d62728" stroke-width="1.4148994967719404" stroke-linecap="round"/>
<line x1="683.8" y1="209.4" x2="683.8" y2="146.2" stroke="#d62728" stroke-width="1.620312752076007" stroke-linecap="round"/>
<line x1="590.0" y1="155.2" x2="590.0" y2="92.0" stroke="#d62728" stroke-width="1.4251489539745321" stroke-linecap="round"/>
<line x1="590.0" y1="624.8" x2="683.8" y2="570.6" stroke="#1f77b4" stroke-width="1.2209041816676152" stroke-linecap="round"/>
<line x1="683.8" y1="570.6" x2="777.7" y2="516.4" stroke="#1f77b4" stroke-width="1.0503564240885905" stroke-linecap="round"/>
<line x1="496.2" y1="570.6" x2="590.0" y2="516.4" stroke="#1f77b4" stroke-width="1.0221913311609157" stroke-linecap="round"/>
<line x1="590.0" y1="516.4" x2="683.8" y2="462.2" stroke="#1f77b4" stroke-width="1.024491174917833" stroke-linecap="round"/>
<line x1="402.3" y1="516.4" x2="496.2" y2="462.2" stroke="#1f77b4" stroke-width="1.2224056799891412" stroke-linecap="round"/>
<line x1="496.2" y1="462.2" x2="590.0" y2="408.1" stroke="#1f77b4" stroke-width="1.050712259844765" stroke-linecap="round"/>
<line x1="590.0" y1="624.8" x2="496.2" y2="570.6" stroke="#1f77b4" stroke-width="1.2143033570897295" stroke-linecap="round"/>
<line x1="496.2" y1="570.6" x2="402.3" y2="516.4" stroke="#1f77b4" stroke-width="1.0414327968129256" stroke-linecap="round"/>
<line x1="683.8" y1="570.6" x2="590.0" y2="516.4" stroke="#1f77b4" stroke-width="1.040033289212932" stroke-linecap="round"/>
<line x1="590.0" y1="516.4" x2="496.2" y2="462.2" stroke="#1f77b4" stroke-width="1.0386275705561394" stroke-linecap="round"/>
<line x1="777.7" y1="516.4" x2="683.8" y2="462.2" stroke="#1f77b4" stroke-width="1.2362238189318007" stroke-linecap="round"/>
<line x1="683.8" y1="462.2" x2="590.0" y2="408.1" stroke="#1f77b4" stroke-width="1.0430322469321684" stroke-linecap="round"/>
<line x1="590.0" y1="561.6" x2="683.8" y2="507.4" stroke="#1f77b4" stroke-width="1.1293979951826156" stroke-linecap="round"/>
<line x1="683.8" y1="507.4" x2="777.7" y2="453.2" stroke="#1f77b4" stroke-width="1.0034263550608804" stroke-linecap="round"/>
<line x1="496.2" y1="507.4" x2="590.0" y2="453.2" stroke="#d62728" stroke-width="1.0301139369319812" stroke-linecap="round"/>
<line x1="590.0" y1="453.2" x2="683.8" y2="399.0" stroke="#d62728" stroke-width="1.0088028628582635" stroke-linecap="round"/>
<line x1="402.3" y1="453.2" x2="496.2" y2="399.0" stroke="#1f77b4" stroke-width="1.13031592031546" stroke-linecap="round"/>
<line x1="496.2" y1="399.0" x2="590.0" y2="344.8" stroke="#1f77b4" stroke-width="1.003656719787993" stroke-linecap="round"/>
<line x1="590.0" y1="561.6" x2="496.2" y2="507.4" stroke="#1f77b4" stroke-width="1.1324633369081587" stroke-linecap="round"/>
<line x1="496.2" y1="507.4" x2="402.3" y2="453.2" stroke="#d62728" stroke-width="1.000625273905753" stroke-linecap="round"/>
<line x1="683.8" y1="507.4" x2="590.0" y2="453.2" stroke="#d62728" stroke-width="1.002574301626436" stroke-linecap="round"/>
<line x1="590.0" y1="453.2" x2="496.2" y2="399.0" stroke="#d62728" stroke-width="1.0021442671710648" stroke-linecap="round"/>
<line x1="777.7" y1="453.2" x2="683.8" y2="399.0" stroke="#1f77b4" stroke-width="1.147258169535832" stroke-linecap="round"/>
<line x1="683.8" y1="399.0" x2="590.0" y2="344.8" stroke="#1f77b4" stroke-width="1.0029527420226698" stroke-linecap="round"/>
<line x1="590.0" y1="498.4" x2="683.8" y2="444.2" stroke="#1f77b4" stroke-width="1.1048741545902887" stroke-linecap="round"/>
<line x1="683.8" y1="444.2" x2="777.7" y2="390.0" stroke="#1f77b4" stroke-width="1.0063933235503015" stroke-linecap="round"/>
<line x1="496.2" y1="444.2" x2="590.0" y2="390.0" stroke="#d62728" stroke-width="1.0211110387967874" stroke-linecap="round"/>
<line x1="590.0" y1="390.0" x2="683.8" y2="335.8" stroke="#d62728" stroke-width="1.006874045820126" stroke-linecap="round"/>
<line x1="402.3" y1="390.0" x2="496.2" y2="335.8" stroke="#1f77b4" stroke-width="1.1055160728034783" stroke-linecap="round"/>
<line x1="496.2" y1="335.8" x2="590.0" y2="281.6" stroke="#1f77b4" stroke-width="1.0063751132671503" stroke-linecap="round"/>
<line x1="590.0" y1="498.4" x2="496.2" y2="444.2" stroke="#1f77b4" stroke-width="1.1104394598666918" stroke-linecap="round"/>
<line x1="496.2" y1="444.2" x2="402.3" y2="390.0" stroke="#1f77b4" stroke-width="1.0019675275359594" stroke-linecap="round"/>
<line x1="683.8" y1="444.2" x2="590.0" y2="390.0" stroke="#1f77b4" stroke-width="1.003266121780084" stroke-linecap="round"/>
<line x1="590.0" y1="390.0" x2="496.2" y2="335.8" stroke="#1f77b4" stroke-width="1.0031170898434165" stroke-linecap="round"/>
<line x1="777.7" y1="390.0" x2="683.8" y2="335.8" stroke="#1f77b4" stroke-width="1.1209939640518027" stroke-linecap="round"/>
<line x1="683.8" y1="335.8" x2="590.0" y2="281.6" stroke="#1f77b4" stroke-width="1.0059241282415294" stroke-linecap="round"/>
<line x1="590.0" y1="435.2" x2="683.8" y2="381.0" stroke="#1f77b4" stroke-width="1.0660400443778553" stroke-linecap="round"/>
<line x1="683.8" y1="381.0" x2="777.7" y2="326.8" stroke="#1f77b4" stroke-width="1.002570992709072" stroke-linecap="round"/>
<line x1="496.2" y1="381.0" x2="590.0" y2="326.8" stroke="#d62728" stroke-width="1.0261652006490631" stroke-linecap="round"/>
<line x1="590.0" y1="326.8" x2="683.8" y2="272.6" stroke="#d62728" stroke-width="1.0110134332932528" stroke-linecap="round"/>
<line x1="402.3" y1="326.8" x2="496.2" y2="272.6" stroke="#1f77b4" stroke-width="1.0662553025173145" stroke-linecap="round"/>
<line x1="496.2" y1="272.6" x2="590.0" y2="218.4" stroke="#1f77b4" stroke-width="1.0022559678248204" stroke-linecap="round"/>
<line x1="590.0" y1="435.2" x2="496.2" y2="381.0" stroke="#1f77b4" stroke-width="1.074029340073137" stroke-linecap="round"/>
<line x1="496.2" y1="381.0" x2="402.3" y2="326.8" stroke="#d62728" stroke-width="1.0020014391360914" stroke-linecap="round"/>
<line x1="683.8" y1="381.0" x2="590.0" y2="326.8" stroke="#d62728" stroke-width="1.0011175731081043" stroke-linecap="round"/>
<line x1="590.0" y1="326.8" x2="496.2" y2="272.6" stroke="#d62728" stroke-width="1.000988314790193" stroke-linecap="round"/>
<line x1="777.7" y1="326.8" x2="683.8" y2="272.6" stroke="#1f77b4" stroke-width="1.0814080037842684" stroke-linecap="round"/>
<line x1="683.8" y1="272.6" x2="590.0" y2="218.4" stroke="#1f77b4" stroke-width="1.002297853694807" stroke-linecap="round"/>
<line x1="590.0" y1="371.9" x2="683.8" y2="317.8" stroke="#1f77b4" stroke-width="1.0643699164224056" stroke-linecap="round"/>
<line x1="683.8" y1="317.8" x2="777.7" y2="263.6" stroke="#1f77b4" stroke-width="1.0271225527051027" stroke-linecap="round"/>
<line x1="496.2" y1="317.8" x2="590.0" y2="263.6" stroke="#d62728" stroke-width="1.0008543834428298" stroke-linecap="round"/>
<line x1="590.0" y1="263.6" x2="683.8" y2="209.4" stroke="#1f77b4" stroke-width="1.0136358087334811" stroke-linecap="round"/>
<line x1="402.3" y1="263.6" x2="496.2" y2="209.4" stroke="#1f77b4" stroke-width="1.064316823122455" stroke-linecap="round"/>
<line x1="496.2" y1="209.4" x2="590.0" y2="155.2" stroke="#1f77b4" stroke-width="1.026489591967527" stroke-linecap="round"/>
<line x1="590.0" y1="371.9" x2="496.2" y2="317.8" stroke="#1f77b4" stroke-width="1.0726376100273034" stroke-linecap="round"/>
<line x1="496.2" y1="317.8" x2="402.3" y2="263.6" stroke="#1f77b4" stroke-width="1.0219499180811453" stroke-linecap="round"/>
<line x1="683.8" y1="317.8" x2="590.0" y2="263.6" stroke="#1f77b4" stroke-width="1.0228539047455785" stroke-linecap="round"/>
<line x1="590.0" y1="263.6" x2="496.2" y2="209.4" stroke="#1f77b4" stroke-width="1.0229791952126892" stroke-linecap="round"/>
<line x1="777.7" y1="263.6" x2="683.8" y2="209.4" stroke="#1f77b4" stroke-width="1.076373605031837" stroke-linecap="round"/>
<line x1="683.8" y1="209.4" x2="590.0" y2="155.2" stroke="#1f77b4" stroke-width="1.0251366669194255" stroke-linecap="round"/>
<line x1="590.0" y1="308.7" x2="683.8" y2="254.5" stroke="#d62728" stroke-width="1.085686267408441" stroke-linecap="round"/>
<line x1="683.8" y1="254.5" x2="777.7" y2="200.4" stroke="#d62728" stroke-width="1.0936815622633693" stroke-linecap="round"/>
<line x1="496.2" y1="254.5" x2="590.0" y2="200.4" stroke="#d62728" stroke-width="1.1073093062360926" stroke-linecap="round"/>
<line x1="590.0" y1="200.4" x2="683.8" y2="146.2" stroke="#d62728" stroke-width="1.0913261813656192" stroke-linecap="round"/>
<line x1="402.3" y1="200.4" x2="496.2" y2="146.2" stroke="#d62728" stroke-width="1.0865904025001079" stroke-linecap="round"/>
<line x1="496.2" y1="146.2" x2="590.0" y2="92.0" stroke="#d62728" stroke-width="1.09495521522838" stroke-linecap="round"/>
<line x1="590.0" y1="308.7" x2="496.2" y2="254.5" stroke="#d62728" stroke-width="1.0707208569364246" stroke-linecap="round"/>
<line x1="496.2" y1="254.5" x2="402.3" y2="200.4" stroke="#d62728" stroke-width="1.0947130351559022" stroke-linecap="round"/>
<line x1="683.8" y1="254.5" x2="590.0" y2="200.4" stroke="#d62728" stroke-width="1.0785579408940562" stroke-linecap="round"/>
<line x1="590.0" y1="200.4" x2="496.2" y2="146.2" stroke="#d62728" stroke-width="1.077799091687201" stroke-linecap="round"/>
<line x1="777.7" y1="200.4" x2="683.8" y2="146.2" stroke="#d62728" stroke-width="1.0631832100803231" stroke-linecap="round"/>
<line x1="683.8" y1="146.2" x2="590.0" y2="92.0" stroke="#d62728" stroke-width="1.0864959494603026" stroke-linecap="round"/>
<line x1="590.0" y1="688.0" x2="683.8" y2="570.6" stroke="#1f77b4" stroke-width="1.017322543549762" stroke-linecap="round"/>
<line x1="683.8" y1="633.8" x2="590.0" y2="624.8" stroke="#d62728" stroke-width="1.2793538335451626" stroke-linecap="round"/>
<line x1="402.3" y1="579.6" x2="496.2" y2="462.2" stroke="#1f77b4" stroke-width="1.0171639881285819" stroke-linecap="round"/>
<line x1="496.2" y1="525.5" x2="402.3" y2="516.4" stroke="#d62728" stroke-width="1.281164828247177" stroke-linecap="round"/>
<line x1="590.0" y1="688.0" x2="496.2" y2="570.6" stroke="#d62728" stroke-width="1.125000462158679" stroke-linecap="round"/>
<line x1="496.2" y1="633.8" x2="590.0" y2="624.8" stroke="#d62728" stroke-width="1.1174057948083151" stroke-linecap="round"/>
<line x1="777.7" y1="579.6" x2="683.8" y2="462.2" stroke="#d62728" stroke-width="1.1398615474603155" stroke-linecap="round"/>
<line x1="683.8" y1="525.5" x2="777.7" y2="516.4" stroke="#d62728" stroke-width="1.1337471495921694" stroke-linecap="round"/>
<line x1="590.0" y1="624.8" x2="683.8" y2="507.4" stroke="#1f77b4" stroke-width="1.0146648749968032" stroke-linecap="round"/>
<line x1="683.8" y1="570.6" x2="590.0" y2="561.6" stroke="#d62728" stroke-width="1.1943979767066668" stroke-linecap="round"/>
<line x1="402.3" y1="516.4" x2="496.2" y2="399.0" stroke="#1f77b4" stroke-width="1.0148536943170277" stroke-linecap="round"/>
<line x1="496.2" y1="462.2" x2="402.3" y2="453.2" stroke="#d62728" stroke-width="1.1953563862276055" stroke-linecap="round"/>
<line x1="590.0" y1="624.8" x2="496.2" y2="507.4" stroke="#d62728" stroke-width="1.0965923270444202" stroke-linecap="round"/>
<line x1="496.2" y1="570.6" x2="590.0" y2="561.6" stroke="#d62728" stroke-width="1.0711607077079295" stroke-linecap="round"/>
<line x1="777.7" y1="516.4" x2="683.8" y2="399.0" stroke="#d62728" stroke-width="1.1016300463912367" stroke-linecap="round"/>
<line x1="683.8" y1="462.2" x2="777.7" y2="453.2" stroke="#d62728" stroke-width="1.081787325231414" stroke-linecap="round"/>
<line x1="590.0" y1="561.6" x2="683.8" y2="444.2" stroke="#d62728" stroke-width="1.0045087620542004" stroke-linecap="round"/>
<line x1="683.8" y1="507.4" x2="590.0" y2="498.4" stroke="#d62728" stroke-width="1.1527722069472048" stroke-linecap="round"/>
<line x1="402.3" y1="453.2" x2="496.2" y2="335.8" stroke="#d62728" stroke-width="1.0044943785170817" stroke-linecap="round"/>
<line x1="496.2" y1="399.0" x2="402.3" y2="390.0" stroke="#d62728" stroke-width="1.1536228891922329" stroke-linecap="round"/>
<line x1="590.0" y1="561.6" x2="496.2" y2="444.2" stroke="#d62728" stroke-width="1.0920289944801786" stroke-linecap="round"/>
<line x1="496.2" y1="507.4" x2="590.0" y2="498.4" stroke="#d62728" stroke-width="1.0536998773741333" stroke-linecap="round"/>
<line x1="777.7" y1="453.2" x2="683.8" y2="335.8" stroke="#d62728" stroke-width="1.093702430058697" stroke-linecap="round"/>
<line x1="683.8" y1="399.0" x2="777.7" y2="390.0" stroke="#d62728" stroke-width="1.0620908351402871" stroke-linecap="round"/>
<line x1="590.0" y1="498.4" x2="683.8" y2="381.0" stroke="#d62728" stroke-width="1.012664207992329" stroke-linecap="round"/>
<line x1="683.8" y1="444.2" x2="590.0" y2="435.2" stroke="#d62728" stroke-width="1.1069246318193875" stroke-linecap="round"/>
<line x1="402.3" y1="390.0" x2="496.2" y2="272.6" stroke="#d62728" stroke-width="1.0127222986074595" stroke-linecap="round"/>
<line x1="496.2" y1="335.8" x2="402.3" y2="326.8" stroke="#d62728" stroke-width="1.1075871044957866" stroke-linecap="round"/>
<line x1="590.0" y1="498.4" x2="496.2" y2="381.0" stroke="#d62728" stroke-width="1.0778429675683807" stroke-linecap="round"/>
<line x1="496.2" y1="444.2" x2="590.0" y2="435.2" stroke="#d62728" stroke-width="1.033514782603162" stroke-linecap="round"/>
<line x1="777.7" y1="390.0" x2="683.8" y2="272.6" stroke="#d62728" stroke-width="1.0767962762342087" stroke-linecap="round"/>
<line x1="683.8" y1="335.8" x2="777.7" y2="326.8" stroke="#d62728" stroke-width="1.0397921317196386" stroke-linecap="round"/>
<line x1="590.0" y1="435.2" x2="683.8" y2="317.8" stroke="#d62728" stroke-width="1.0180050548280934" stroke-linecap="round"/>
<line x1="683.8" y1="381.0" x2="590.0" y2="371.9" stroke="#d62728" stroke-width="1.058380017963744" stroke-linecap="round"/>
<line x1="402.3" y1="326.8" x2="496.2" y2="209.4" stroke="#d62728" stroke-width="1.0181294608501807" stroke-linecap="round"/>
<line x1="496.2" y1="272.6" x2="402.3" y2="263.6" stroke="#d62728" stroke-width="1.058788426813935" stroke-linecap="round"/>
<line x1="590.0" y1="435.2" x2="496.2" y2="317.8" stroke="#d62728" stroke-width="1.0603108831282662" stroke-linecap="round"/>
<line x1="496.2" y1="381.0" x2="590.0" y2="371.9" stroke="#d62728" stroke-width="1.010229497438586" stroke-linecap="round"/>
<line x1="777.7" y1="326.8" x2="683.8" y2="209.4" stroke="#d62728" stroke-width="1.057628514457077" stroke-linecap="round"/>
<line x1="683.8" y1="272.6" x2="777.7" y2="263.6" stroke="#d62728" stroke-width="1.014844866514994" stroke-linecap="round"/>
<line x1="590.0" y1="371.9" x2="683.8" y2="254.5" stroke="#d62728" stroke-width="1.0361023562612608" stroke-linecap="round"/>
<line x1="683.8" y1="317.8" x2="590.0" y2="308.7" stroke="#d62728" stroke-width="1.0228716818419212" stroke-linecap="round"/>
<line x1="402.3" y1="263.6" x2="496.2" y2="146.2" stroke="#d62728" stroke-width="1.0365836463060445" stroke-linecap="round"/>
<line x1="496.2" y1="209.4" x2="402.3" y2="200.4" stroke="#d62728" stroke-width="1.0232355769472292" stroke-linecap="round"/>
<line x1="590.0" y1="371.9" x2="496.2" y2="254.5" stroke="#d62728" stroke-width="1.054076078957379" stroke-linecap="round"/>
<line x1="496.2" y1="317.8" x2="590.0" y2="308.7" stroke="#1f77b4" stroke-width="1.003743236561414" stroke-linecap="round"/>
<line x1="777.7" y1="263.6" x2="683.8" y2="146.2" stroke="#d62728" stroke-width="1.0495657743165123" stroke-linecap="round"/>
<line x1="683.8" y1="209.4" x2="777.7" y2="200.4" stroke="#d62728" stroke-width="1.0026035500752875" stroke-linecap="round"/>
<polygon points="581.0,700.6 599.0,700.6 590.0,688.0" fill="none" stroke="#333" stroke-width="1.6"/>
<line x1="578.3" y1="700.6" x2="601.7" y2="700.6" stroke="#333" stroke-width="1.6"/>
<polygon points="487.2,646.4 505.2,646.4 496.2,633.8" fill="none" stroke="#333" stroke-width="1.6"/>
<line x1="484.5" y1="646.4" x2="507.9" y2="646.4" stroke="#333" stroke-width="1.6"/>
<polygon points="393.3,592.2 411.3,592.2 402.3,579.6" fill="none" stroke="#333" stroke-width="1.6"/>
<line x1="390.6" y1="592.2" x2="414.0" y2="592.2" stroke="#333" stroke-width="1.6"/>
<polygon points="674.8,646.4 692.8,646.4 683.8,633.8" fill="none" stroke="#333" stroke-width="1.6"/>
<line x1="672.1" y1="646.4" x2="695.5" y2="646.4" stroke="#333" stroke-width="1.6"/>
<polygon points="581.0,592.2 599.0,592.2 590.0,579.6" fill="none" stroke="#333" stroke-width="1.6"/>
<line x1="578.3" y1="592.2" x2="601.7" y2="592.2" stroke="#333" stroke-width="1.6"/>
<polygon points="487.2,538.1 505.2,538.1 496.2,525.5" fill="none" stroke="#333" stroke-width="1.6"/>
<line x1="484.5" y1="538.1" x2="507.9" y2="538.1" stroke="#333" stroke-width="1.6"/>
<polygon points="768.7,592.2 786.7,592.2 777.7,579.6" fill="none" stroke="#333" stroke-width="1.6"/>
<line x1="766.0" y1="592.2" x2="789.4" y2="592.2" stroke="#333" stroke-width="1.6"/>
<polygon points="674.8,538.1 692.8,538.1 683.8,525.5" fill="none" stroke="#333" stroke-width="1.6"/>
<line x1="672.1" y1="538.1" x2="695.5" y2="538.1" stroke="#333" stroke-width="1.6"/>
<polygon points="581.0,483.9 599.0,483.9 590.0,471.3" fill="none" stroke="#333" stroke-width="1.6"/>
<line x1="578.3" y1="483.9" x2="601.7" y2="483.9" stroke="#333" stroke-width="1.6"/>
<text x="16.0" y="24.0" font-size="16" font-weight="bold" fill="#111">6-story 3D braced tower (2×2 bays) — axial force</text>
<text x="16.0" y="42.0" font-size="12" fill="#555">axial force · max |N| = 1.90 MN (red: compression, blue: tension, width ∝ |N|)</text>
<line x1="30.0" y1="734.0" x2="50.8" y2="722.0" stroke="#666" stroke-width="1.4"/>
<text x="52.8" y="725.0" font-size="10" fill="#666">X</text>
<line x1="30.0" y1="734.0" x2="9.2" y2="722.0" stroke="#666" stroke-width="1.4"/>
<text x="11.2" y="725.0" font-size="10" fill="#666">Y</text>
<line x1="30.0" y1="734.0" x2="30.0" y2="710.0" stroke="#666" stroke-width="1.4"/>
<text x="32.0" y="713.0" font-size="10" fill="#666">Z</text>
</svg>
