<svg xmlns="http://www.w3.org/2000/svg" viewBox="0 0 1180 760" font-family="Segoe UI, Arial, sans-serif">
<rect width="1180" height="760" fill="white"/>
<line x1="62.0" y1="465.4" x2="194.0" y2="465.4" stroke="#eee" stroke-width="1" stroke-linecap="round"/>
<line x1="194.0" y1="465.4" x2="326.0" y2="465.4" stroke="#eee" stroke-width="1" stroke-linecap="round"/>
<line x1="326.0" y1="465.4" x2="458.0" y2="465.4" stroke="#eee" stroke-width="1" stroke-linecap="round"/>
<line x1="458.0" y1="465.4" x2="590.0" y2="465.4" stroke="#eee" stroke-width="1" stroke-linecap="round"/>
<line x1="590.0" y1="465.4" x2="722.0" y2="465.4" stroke="#eee" stroke-width="1" stroke-linecap="round"/>
<line x1="722.0" y1="465.4" x2="854.0" y2="465.4" stroke="#eee" stroke-width="1" stroke-linecap="round"/>
<line x1="854.0" y1="465.4" x2="986.0" y2="465.4" stroke="#eee" stroke-width="1" stroke-linecap="round"/>
<line x1="986.0" y1="465.4" x2="1118.0" y2="465.4" stroke="#eee" stroke-width="1" stroke-linecap="round"/>
<line x1="62.0" y1="465.4" x2="194.0" y2="427.7" stroke="#eee" stroke-width="1" stroke-linecap="round"/>
<line x1="194.0" y1="427.7" x2="326.0" y2="390.0" stroke="#eee" stroke-width="1" stroke-linecap="round"/>
<line x1="326.0" y1="390.0" x2="458.0" y2="352.3" stroke="#eee" stroke-width="1" stroke-linecap="round"/>
<line x1="458.0" y1="352.3" x2="590.0" y2="314.6" stroke="#eee" stroke-width="1" stroke-linecap="round"/>
<line x1="590.0" y1="314.6" x2="722.0" y2="352.3" stroke="#eee" stroke-width="1" stroke-linecap="round"/>
<line x1="722.0" y1="352.3" x2="854.0" y2="390.0" stroke="#eee" stroke-width="1" stroke-linecap="round"/>
<line x1="854.0" y1="390.0" x2="986.0" y2="427.7" stroke="#eee" stroke-width="1" stroke-linecap="round"/>
<line x1="986.0" y1="427.7" x2="1118.0" y2="465.4" stroke="#eee" stroke-width="1" stroke-linecap="round"/>
<line x1="194.0" y1="465.4" x2="194.0" y2="427.7" stroke="#eee" stroke-width="1" stroke-linecap="round"/>
<line x1="326.0" y1="465.4" x2="326.0" y2="390.0" stroke="#eee" stroke-width="1" stroke-linecap="round"/>
<line x1="458.0" y1="465.4" x2="458.0" y2="352.3" stroke="#eee" stroke-width="1" stroke-linecap="round"/>
<line x1="590.0" y1="465.4" x2="590.0" y2="314.6" stroke="#eee" stroke-width="1" stroke-linecap="round"/>
<line x1="722.0" y1="465.4" x2="722.0" y2="352.3" stroke="#eee" stroke-width="1" stroke-linecap="round"/>
<line x1="854.0" y1="465.4" x2="854.0" y2="390.0" stroke="#eee" stroke-width="1" stroke-linecap="round"/>
<line x1="986.0" y1="465.4" x2="986.0" y2="427.7" stroke="#eee" stroke-width="1" stroke-linecap="round"/>
<line x1="194.0" y1="465.4" x2="326.0" y2="390.0" stroke="#eee" stroke-width="1" stroke-linecap="round"/>
<line x1="326.0" y1="465.4" x2="458.0" y2="352.3" stroke="#eee" stroke-width="1" stroke-linecap="round"/>
<line x1="458.0" y1="465.4" x2="590.0" y2="314.6" stroke="#eee" stroke-width="1" stroke-linecap="round"/>
<line x1="722.0" y1="465.4" x2="590.0" y2="314.6" stroke="#eee" stroke-width="1" stroke-linecap="round"/>
<line x1="854.0" y1="465.4" x2="722.0" y2="352.3" stroke="#eee" stroke-width="1" stroke-linecap="round"/>
<line x1="986.0" y1="465.4" x2="854.0" y2="390.0" stroke="#eee" stroke-width="1" stroke-linecap="round"/>
<line x1="62.0" y1="465.4" x2="194.0" y2="465.4" stroke="#1f77b4" stroke-width="5.794726725136282" stroke-linecap="round"/>
<line x1="194.0" y1="465.4" x2="326.0" y2="465.4" stroke="#1f77b4" stroke-width="5.342129202105701" stroke-linecap="round"/>
<line x1="326.0" y1="465.4" x2="458.0" y2="465.4" stroke="#1f77b4" stroke-width="4.627990666253252" stroke-linecap="round"/>
<line x1="458.0" y1="465.4" x2="590.0" y2="465.4" stroke="#1f77b4" stroke-width="3.9314526001615833" stroke-linecap="round"/>
<line x1="590.0" y1="465.4" x2="722.0" y2="465.4" stroke="#1f77b4" stroke-width="3.9314526001615726" stroke-linecap="round"/>
<line x1="722.0" y1="465.4" x2="854.0" y2="465.4" stroke="#1f77b4" stroke-width="4.627990666253269" stroke-linecap="round"/>
<line x1="854.0" y1="465.4" x2="986.0" y2="465.4" stroke="#1f77b4" stroke-width="5.342129202105827" stroke-linecap="round"/>
<line x1="986.0" y1="465.4" x2="1118.0" y2="465.4" stroke="#1f77b4" stroke-width="5.7947267251364165" stroke-linecap="round"/>
<line x1="62.0" y1="465.4" x2="194.0" y2="427.7" stroke="#d62728" stroke-width="5.9999999999997495" stroke-linecap="round"/>
<line x1="194.0" y1="427.7" x2="326.0" y2="390.0" stroke="#d62728" stroke-width="5.983991103933049" stroke-linecap="round"/>
<line x1="326.0" y1="390.0" x2="458.0" y2="352.3" stroke="#d62728" stroke-width="5.523589755473434" stroke-linecap="round"/>
<line x1="458.0" y1="352.3" x2="590.0" y2="314.6" stroke="#d62728" stroke-width="4.775249567487348" stroke-linecap="round"/>
<line x1="590.0" y1="314.6" x2="722.0" y2="352.3" stroke="#d62728" stroke-width="4.775249567487403" stroke-linecap="round"/>
<line x1="722.0" y1="352.3" x2="854.0" y2="390.0" stroke="#d62728" stroke-width="5.523589755473706" stroke-linecap="round"/>
<line x1="854.0" y1="390.0" x2="986.0" y2="427.7" stroke="#d62728" stroke-width="5.983991103933319" stroke-linecap="round"/>
<line x1="986.0" y1="427.7" x2="1118.0" y2="465.4" stroke="#d62728" stroke-width="6" stroke-linecap="round"/>
<line x1="194.0" y1="465.4" x2="194.0" y2="427.7" stroke="#d62728" stroke-width="1.262761097982311" stroke-linecap="round"/>
<line x1="326.0" y1="465.4" x2="326.0" y2="390.0" stroke="#d62728" stroke-width="1.5140770455989854" stroke-linecap="round"/>
<line x1="458.0" y1="465.4" x2="458.0" y2="352.3" stroke="#d62728" stroke-width="1.7460553900724927" stroke-linecap="round"/>
<line x1="590.0" y1="465.4" x2="590.0" y2="314.6" stroke="#1f77b4" stroke-width="1.0948695050272392" stroke-linecap="round"/>
<line x1="722.0" y1="465.4" x2="722.0" y2="352.3" stroke="#d62728" stroke-width="1.7460553900724927" stroke-linecap="round"/>
<line x1="854.0" y1="465.4" x2="854.0" y2="390.0" stroke="#d62728" stroke-width="1.5140770455990693" stroke-linecap="round"/>
<line x1="986.0" y1="465.4" x2="986.0" y2="427.7" stroke="#d62728" stroke-width="1.262761097982311" stroke-linecap="round"/>
<line x1="194.0" y1="465.4" x2="326.0" y2="390.0" stroke="#1f77b4" stroke-width="1.5299714058465796" stroke-linecap="round"/>
<line x1="326.0" y1="465.4" x2="458.0" y2="352.3" stroke="#1f77b4" stroke-width="1.9536135587108245" stroke-linecap="round"/>
<line x1="458.0" y1="465.4" x2="590.0" y2="314.6" stroke="#1f77b4" stroke-width="2.075140730671249" stroke-linecap="round"/>
<line x1="722.0" y1="465.4" x2="590.0" y2="314.6" stroke="#1f77b4" stroke-width="2.075140730671296" stroke-linecap="round"/>
<line x1="854.0" y1="465.4" x2="722.0" y2="352.3" stroke="#1f77b4" stroke-width="1.9536135587109709" stroke-linecap="round"/>
<line x1="986.0" y1="465.4" x2="854.0" y2="390.0" stroke="#1f77b4" stroke-width="1.5299714058465952" stroke-linecap="round"/>
<polygon points="53.0,478.0 71.0,478.0 62.0,465.4" fill="none" stroke="#333" stroke-width="1.6"/>
<line x1="50.3" y1="478.0" x2="73.7" y2="478.0" stroke="#333" stroke-width="1.6"/>
<polygon points="1109.0,475.3 1127.0,475.3 1118.0,465.4" fill="none" stroke="#333" stroke-width="1.4"/>
<circle cx="1113.5" cy="479.4" r="3" fill="none" stroke="#333"/>
<circle cx="1122.5" cy="479.4" r="3" fill="none" stroke="#333"/>
<text x="16.0" y="24.0" font-size="16" font-weight="bold" fill="#111">Howe roof truss (28 m span) — axial force</text>
<text x="16.0" y="42.0" font-size="12" fill="#555">axial force · max |N| = 223 kN (red: compression, blue: tension, width ∝ |N|)</text>
<line x1="30.0" y1="734.0" x2="54.0" y2="734.0" stroke="#666" stroke-width="1.4"/>
<text x="56.0" y="737.0" font-size="10" fill="#666">X</text>
<line x1="30.0" y1="734.0" x2="30.0" y2="710.0" stroke="#666" stroke-width="1.4"/>
<text x="32.0" y="713.0" font-size="10" fill="#666">Z</text>
</svg>
